<svg id="Layer_1" data-name="Layer 1" xmlns="http://www.w3.org/2000/svg" viewBox="0 0 100.01 80.54"><defs><style>.cls-1{fill:#2c318c;}.cls-2{fill:#ec2227;}</style></defs><g id="Group_399" data-name="Group 399"><path id="Path_903" data-name="Path 903" class="cls-1" d="M78.58,34.13V53.36H38.35V49l-3.9,1.45v6.82h48V32.69Z" transform="translate(-8 -9.23)"/><path id="Path_904" data-name="Path 904" class="cls-1" d="M38.35,32.36V13.13H78.58v4.36l3.9-1.44V9.23h-48V33.8Z" transform="translate(-8 -9.23)"/><path id="Path_905" data-name="Path 905" class="cls-2" d="M31,45.47V41.31L85.94,21v4.16Z" transform="translate(-8 -9.23)"/></g><g id="Group_401" data-name="Group 401"><g id="Group_400" data-name="Group 400"><path id="Path_906" data-name="Path 906" class="cls-1" d="M15,70.8l-7,19h6.52l.68-2.22H22l.68,2.22h6.52l-7-19Zm1.73,11.74,1.88-6.11,1.88,6.11Z" transform="translate(-8 -9.23)"/><path id="Path_907" data-name="Path 907" class="cls-1" d="M53.52,70.8h0v6.71H46.72V70.8H25.39v5h5.09v14h5.75v-14H41v14h5.75V82.52H53.5v7.25H67.89v-5H59.27V82.68h8.42v-5H59.27V75.8h8.62v-5Z" transform="translate(-8 -9.23)"/><path id="Path_908" data-name="Path 908" class="cls-1" d="M93.78,70.8,88,86.38V70.8H82.29v9l-6.6-9H69.78v19h5.74V80.15l7,9.62H93.3L94,87.55h6.81l.68,2.22H108l-7-19Zm1.74,11.74,1.88-6.11,1.87,6.11Z" transform="translate(-8 -9.23)"/><path id="Path_909" data-name="Path 909" class="cls-1" d="M103.34,70.8l1.77,5.13H108V70.8Z" transform="translate(-8 -9.23)"/></g><path id="Path_910" data-name="Path 910" class="cls-1" d="M53.52,70.8h0v6.71H46.72V70.8H25.39v5h5.09v14h5.75v-14H41v14h5.75V82.52H53.5v7.25H67.89v-5H59.27V82.68h8.42v-5H59.27V75.8h8.62v-5Z" transform="translate(-8 -9.23)"/><path id="Path_911" data-name="Path 911" class="cls-1" d="M93.78,70.8,88,86.38V70.8H82.29v9l-6.6-9H69.78v19h5.74V80.15l7,9.62H93.3L94,87.55h6.81l.68,2.22H108l-7-19Zm1.74,11.74,1.88-6.11,1.87,6.11Z" transform="translate(-8 -9.23)"/></g></svg>