<svg xmlns="http://www.w3.org/2000/svg" viewBox="0 0 158.43 38.77"><defs><style>.cls-1{fill:#213970;}</style></defs><g id="Layer_1" data-name="Layer 1"><g id="Group_281" data-name="Group 281"><g id="Group_280" data-name="Group 280"><path id="Path_559" data-name="Path 559" class="cls-1" d="M54.22,29.82H57c1.18,0,1.62.42,1.62,1.2a1.23,1.23,0,0,1-1,1.31h0v0a1.08,1.08,0,0,1,.82,1.09c0,1.31-1.05,1.83-2.23,1.83H53.1ZM55,34h1.07c.3,0,.71-.11.71-.55s-.3-.46-.64-.46h-.93Zm.42-2h.94c.27,0,.6-.1.6-.44s-.22-.38-.52-.38h-.86Z" transform="translate(-3.25 -24.65)"/><path id="Path_560" data-name="Path 560" class="cls-1" d="M59.27,32.5c.24-1.05,1-1.29,2-1.29.71,0,1.92.09,1.92,1,0,.62-.48,2.39-.48,2.65s0,.17.06.35H61.31a1.21,1.21,0,0,1-.06-.38h0a1.66,1.66,0,0,1-1.22.48c-.68,0-1.28-.3-1.28-1,0-1,.78-1.32,1.91-1.41.42,0,1.1,0,1.1-.45,0-.28-.24-.35-.47-.35a.55.55,0,0,0-.6.4Zm1.46,2c.51,0,.72-.37.8-1a2.17,2.17,0,0,1-.8.18c-.25,0-.49.15-.49.44S60.48,34.46,60.73,34.46Z" transform="translate(-3.25 -24.65)"/><path id="Path_561" data-name="Path 561" class="cls-1" d="M64.31,31.31h1.46l-.13.61h0a1.52,1.52,0,0,1,1.15-.71,1.57,1.57,0,0,1,.53.06l-.28,1.33a1.61,1.61,0,0,0-.58-.1c-.64,0-1,.27-1.13,1.1L65,35.25H63.49Z" transform="translate(-3.25 -24.65)"/><path id="Path_562" data-name="Path 562" class="cls-1" d="M69.9,32.8a.44.44,0,0,0-.1-.38.49.49,0,0,0-.38-.11c-.66,0-.83.86-.83,1.23s.08.72.51.72a.71.71,0,0,0,.66-.58h1.45a2,2,0,0,1-2.12,1.67c-1.67,0-2-1.07-2-1.8a2.22,2.22,0,0,1,2.09-2.35h.29c1.1,0,1.91.49,1.89,1.6Z" transform="translate(-3.25 -24.65)"/><path id="Path_563" data-name="Path 563" class="cls-1" d="M75.65,34.11c-.1.26-.4,1.24-2.1,1.24-1.4,0-2-.78-2-1.74a2.27,2.27,0,0,1,2.15-2.4H74a1.76,1.76,0,0,1,1.92,1.59.66.66,0,0,1,0,.14,2.22,2.22,0,0,1-.08.68H73c0,.42.15.76.62.76a.61.61,0,0,0,.59-.28h1.44Zm-1.18-1.27c0-.05,0-.09,0-.13a.53.53,0,0,0-.5-.54h-.07a.78.78,0,0,0-.79.66Z" transform="translate(-3.25 -24.65)"/><path id="Path_564" data-name="Path 564" class="cls-1" d="M77.34,29.82h1.5l-1.13,5.44h-1.5Z" transform="translate(-3.25 -24.65)"/><path id="Path_565" data-name="Path 565" class="cls-1" d="M81.21,31.21c1.16,0,1.92.54,1.92,1.73A2.29,2.29,0,0,1,81,35.36h-.26a1.74,1.74,0,0,1-2-1.5,1.37,1.37,0,0,1,0-.35,2.22,2.22,0,0,1,2.13-2.31Zm-.4,3c.6,0,.8-.88.8-1.22s-.12-.73-.52-.73c-.6,0-.82.9-.82,1.32s.12.63.55.63Z" transform="translate(-3.25 -24.65)"/><path id="Path_566" data-name="Path 566" class="cls-1" d="M84.18,31.31h1.45l-.11.5h0a1.61,1.61,0,0,1,1.22-.6c.69,0,1.29.29,1.29,1.06a4.68,4.68,0,0,1-.11.75l-.48,2.23H86l.39-1.81c0-.21.09-.43.12-.65a.37.37,0,0,0-.37-.38H86c-.48,0-.63.34-.73.75l-.44,2.09H83.35Z" transform="translate(-3.25 -24.65)"/><path id="Path_567" data-name="Path 567" class="cls-1" d="M88.86,32.5c.24-1.05,1-1.29,2-1.29.71,0,1.92.09,1.92,1,0,.62-.49,2.39-.49,2.65s0,.17.07.35H90.91a.82.82,0,0,1,0-.38h0a1.63,1.63,0,0,1-1.22.48c-.68,0-1.28-.3-1.28-1,0-1,.78-1.32,1.91-1.41.43,0,1.1,0,1.1-.45,0-.28-.24-.35-.47-.35a.55.55,0,0,0-.6.4Zm1.46,2c.51,0,.71-.37.8-1a2.22,2.22,0,0,1-.8.18c-.25,0-.49.15-.49.44S90.07,34.46,90.32,34.46Z" transform="translate(-3.25 -24.65)"/><path id="Path_568" data-name="Path 568" class="cls-1" d="M56.62,40.2a.48.48,0,0,0-.19-.45.8.8,0,0,0-.48-.12c-.28,0-.65.08-.65.44s.81.43,1.35.62c.94.33,1.26.85,1.26,1.5,0,1.31-1.27,1.92-2.45,1.92s-2.37-.57-2.3-2h1.62a.82.82,0,0,0,.2.62.9.9,0,0,0,.62.14c.33,0,.73-.17.73-.53s-.55-.44-1.31-.7-1.3-.57-1.3-1.47c0-1.23,1.19-1.79,2.28-1.79s2.2.44,2.17,1.77H56.62Z" transform="translate(-3.25 -24.65)"/><path id="Path_569" data-name="Path 569" class="cls-1" d="M62.21,44H60.75l.12-.5h0a1.57,1.57,0,0,1-1.27.6c-.68,0-1.25-.3-1.25-1a25.65,25.65,0,0,1,.59-3h1.51L60,42.09a2,2,0,0,0-.07.42.4.4,0,0,0,.43.37h0c.68,0,.71-.74.83-1.24l.34-1.6H63Z" transform="translate(-3.25 -24.65)"/><path id="Path_570" data-name="Path 570" class="cls-1" d="M63.89,40h1.46l-.09.45h0a1.21,1.21,0,0,1,1.06-.55,1.44,1.44,0,0,1,1.44,1.45,1,1,0,0,1,0,.17c0,1.18-.58,2.53-1.93,2.53a1.23,1.23,0,0,1-1.18-.58l-.36,1.76H62.79Zm2.38,1.7c0-.38-.11-.7-.55-.7-.67,0-.79,1-.79,1.31,0,.14,0,.65.54.65s.8-.75.8-1.26Z" transform="translate(-3.25 -24.65)"/><path id="Path_571" data-name="Path 571" class="cls-1" d="M72.27,42.83c-.1.27-.4,1.25-2.1,1.25-1.4,0-2-.79-2-1.75a2.27,2.27,0,0,1,2.14-2.39h.23a1.76,1.76,0,0,1,1.92,1.59.66.66,0,0,1,0,.14,2.22,2.22,0,0,1-.08.68H69.61c0,.42.15.77.62.77a.65.65,0,0,0,.59-.28h1.45Zm-1.19-1.27a.51.51,0,0,0,0-.13.51.51,0,0,0-.49-.53h-.08a.8.8,0,0,0-.79.66Z" transform="translate(-3.25 -24.65)"/><path id="Path_572" data-name="Path 572" class="cls-1" d="M73.6,40h1.46l-.13.62h0a1.53,1.53,0,0,1,1.15-.72,1.57,1.57,0,0,1,.53.06l-.28,1.33a1.91,1.91,0,0,0-.58-.1c-.64,0-1,.28-1.13,1.11L74.29,44h-1.5Z" transform="translate(-3.25 -24.65)"/><path id="Path_573" data-name="Path 573" class="cls-1" d="M79.2,41.53a.45.45,0,0,0-.11-.38.47.47,0,0,0-.38-.11c-.65,0-.83.86-.83,1.23s.09.72.52.72a.73.73,0,0,0,.66-.58h1.45a2,2,0,0,1-2.12,1.67c-1.67,0-2-1.07-2-1.8a2.22,2.22,0,0,1,2.09-2.34h.29c1.1,0,1.91.5,1.89,1.6H79.2Z" transform="translate(-3.25 -24.65)"/><path id="Path_574" data-name="Path 574" class="cls-1" d="M83.32,39.94c1.16,0,1.92.53,1.92,1.72a2.27,2.27,0,0,1-2.12,2.42,1.13,1.13,0,0,1-.26,0,1.74,1.74,0,0,1-2-1.49,2.17,2.17,0,0,1,0-.36A2.2,2.2,0,0,1,83,39.93,1.13,1.13,0,0,1,83.32,39.94Zm-.4,3c.59,0,.8-.88.8-1.22S83.6,41,83.2,41c-.6,0-.82.9-.82,1.31s.12.64.55.64Z" transform="translate(-3.25 -24.65)"/><path id="Path_575" data-name="Path 575" class="cls-1" d="M86.29,40h1.46l-.11.52h0a1.59,1.59,0,0,1,1.24-.62c.51,0,1,.17,1.06.65a1.67,1.67,0,0,1,1.29-.65c.77,0,1.27.36,1.27,1.17q0,.32-.09.63L92,44h-1.5l.4-1.89c0-.07.09-.46.09-.57a.35.35,0,0,0-.31-.38h-.08a.54.54,0,0,0-.57.46L89.47,44H88l.45-2.11a1.51,1.51,0,0,0,.06-.37c0-.25-.14-.36-.38-.36a.62.62,0,0,0-.63.59L87,44h-1.5Z" transform="translate(-3.25 -24.65)"/><path id="Path_576" data-name="Path 576" class="cls-1" d="M93.62,40h1.46l-.1.45h0a1.2,1.2,0,0,1,1-.55,1.45,1.45,0,0,1,1.45,1.44,1.09,1.09,0,0,1,0,.18c0,1.18-.59,2.53-1.92,2.53a1.23,1.23,0,0,1-1.19-.58L94,45.26h-1.5ZM96,41.73c0-.38-.1-.7-.55-.7-.67,0-.79,1-.79,1.31,0,.14.06.65.55.65s.79-.75.79-1.26Z" transform="translate(-3.25 -24.65)"/><path id="Path_577" data-name="Path 577" class="cls-1" d="M101.79,44h-1.46l.12-.5h0a1.58,1.58,0,0,1-1.27.6c-.69,0-1.26-.3-1.26-1a25.65,25.65,0,0,1,.59-3H100l-.44,2.06a1.52,1.52,0,0,0-.06.42.39.39,0,0,0,.42.37h0c.68,0,.71-.74.83-1.24l.34-1.6h1.5Z" transform="translate(-3.25 -24.65)"/><path id="Path_578" data-name="Path 578" class="cls-1" d="M105.2,40H106l-.21.93H105l-.27,1.27a1.76,1.76,0,0,0-.07.4c0,.13.07.23.31.23l.5,0-.23,1.09a7.46,7.46,0,0,1-.81.1,1.91,1.91,0,0,1-1-.16.86.86,0,0,1-.41-.74,2,2,0,0,1,.08-.55l.35-1.62h-.67l.21-.93h.66l.26-1.2h1.5Z" transform="translate(-3.25 -24.65)"/><path id="Path_579" data-name="Path 579" class="cls-1" d="M106.61,40h1.51L107.29,44h-1.5Zm1.58-.42h-1.5l.21-1.06h1.51Z" transform="translate(-3.25 -24.65)"/><path id="Path_580" data-name="Path 580" class="cls-1" d="M109,40h1.45l-.11.5h0a1.63,1.63,0,0,1,1.23-.6c.69,0,1.28.29,1.28,1.07a4.67,4.67,0,0,1-.1.75L112.24,44h-1.5l.39-1.81q.08-.33.12-.66a.38.38,0,0,0-.37-.38h0c-.49,0-.64.34-.74.76L109.65,44h-1.51Z" transform="translate(-3.25 -24.65)"/><path id="Path_581" data-name="Path 581" class="cls-1" d="M117.19,43.3c-.23,1.11-.44,2.06-2.34,2.06-.47,0-1.88,0-1.83-1.32h1.49a.47.47,0,0,0,.12.34.57.57,0,0,0,.36.08c.45,0,.57-.35.64-.7l.1-.42h0a1.23,1.23,0,0,1-.94.4,1.43,1.43,0,0,1-1.55-1.31.89.89,0,0,1,0-.23,2.07,2.07,0,0,1,1.85-2.27h0a1.18,1.18,0,0,1,1.17.6h0l.1-.5h1.45Zm-2.47-1.15c0,.35.18.63.52.63.71,0,.84-.86.84-1.13s0-.62-.57-.62-.79.66-.79,1.12Z" transform="translate(-3.25 -24.65)"/><path id="Path_582" data-name="Path 582" class="cls-1" d="M58.58,50.64a2.55,2.55,0,0,1-2.78,2.2,2.21,2.21,0,0,1-2.35-2.05,3,3,0,0,1,0-.42,3,3,0,0,1,2.7-3.21h.25a2,2,0,0,1,2.3,1.75,1.76,1.76,0,0,1,0,.4H57.15a.67.67,0,0,0-.55-.79.45.45,0,0,0-.2,0c-.93,0-1.27,1.07-1.27,1.83,0,.45.11,1.15.88,1.15a.93.93,0,0,0,.93-.84Z" transform="translate(-3.25 -24.65)"/><path id="Path_583" data-name="Path 583" class="cls-1" d="M63.11,51.56c-.1.26-.4,1.24-2.1,1.24-1.4,0-2-.78-2-1.74a2.27,2.27,0,0,1,2.13-2.4h.23a1.78,1.78,0,0,1,1.93,1.59s0,.09,0,.14a2.58,2.58,0,0,1-.08.68H60.46c0,.42.14.76.61.76a.62.62,0,0,0,.59-.28h1.45Zm-1.18-1.27s0-.09,0-.13a.53.53,0,0,0-.49-.54h-.08a.77.77,0,0,0-.78.66Z" transform="translate(-3.25 -24.65)"/><path id="Path_584" data-name="Path 584" class="cls-1" d="M64.45,48.76H65.9l-.11.5h0a1.56,1.56,0,0,1,1.23-.6c.69,0,1.28.29,1.28,1.06a3.86,3.86,0,0,1-.1.75l-.48,2.24H66.22l.38-1.81a4.67,4.67,0,0,0,.13-.65.39.39,0,0,0-.37-.39H66.3c-.48,0-.63.34-.73.75l-.44,2.09H63.62Z" transform="translate(-3.25 -24.65)"/><path id="Path_585" data-name="Path 585" class="cls-1" d="M71.11,48.76h.81l-.21.92h-.8L70.64,51a2.76,2.76,0,0,0-.06.4c0,.13.06.24.3.24l.5,0-.23,1.08a7.35,7.35,0,0,1-.82.1,2,2,0,0,1-1-.16.87.87,0,0,1-.41-.75,2,2,0,0,1,.08-.54l.35-1.62h-.67l.22-.93h.65l.27-1.19h1.5Z" transform="translate(-3.25 -24.65)"/><path id="Path_586" data-name="Path 586" class="cls-1" d="M75.93,51.56c-.1.26-.4,1.24-2.1,1.24-1.4,0-2-.78-2-1.74A2.28,2.28,0,0,1,74,48.66h.23a1.76,1.76,0,0,1,1.92,1.59.61.61,0,0,1,0,.14,2.25,2.25,0,0,1-.07.68H73.27c0,.42.15.76.62.76a.62.62,0,0,0,.59-.28h1.45Zm-1.19-1.27a.69.69,0,0,0,0-.13.53.53,0,0,0-.49-.54h-.08a.77.77,0,0,0-.78.66Z" transform="translate(-3.25 -24.65)"/><path id="Path_587" data-name="Path 587" class="cls-1" d="M77.26,48.76h1.46l-.13.61h0a1.54,1.54,0,0,1,1.16-.71,1.63,1.63,0,0,1,.53.06L80,50.05a1.59,1.59,0,0,0-.57-.1c-.64,0-1,.27-1.14,1.1L78,52.69h-1.5Z" transform="translate(-3.25 -24.65)"/><path id="Path_588" data-name="Path 588" class="cls-1" d="M57.33,58.46a1.88,1.88,0,0,1-2,1.61,1.77,1.77,0,0,1-1.92-1.6,1.45,1.45,0,0,1,0-.36,2.51,2.51,0,0,1,2.31-2.71h.14a1.52,1.52,0,0,1,1.69,1.32,1.69,1.69,0,0,1,0,.23H57a1,1,0,0,0-.92-1h-.19A2,2,0,0,0,54,58a.19.19,0,0,1,0,.08,1.28,1.28,0,0,0,1.33,1.46,1.37,1.37,0,0,0,1.38-1.12Z" transform="translate(-3.25 -24.65)"/><path id="Path_589" data-name="Path 589" class="cls-1" d="M58.33,58.51a2.62,2.62,0,0,0,0,.28.78.78,0,0,0,.78.79h0a.93.93,0,0,0,.94-.62h.53a1.43,1.43,0,0,1-1.47,1.09A1.24,1.24,0,0,1,57.79,59a1.34,1.34,0,0,1,0-.2,1.89,1.89,0,0,1,1.65-2.09h0c.95,0,1.37.52,1.37,1.44a2,2,0,0,1,0,.42Zm2-.47a.75.75,0,0,0-.57-.9l-.19,0a1.15,1.15,0,0,0-1.12.92Z" transform="translate(-3.25 -24.65)"/><path id="Path_590" data-name="Path 590" class="cls-1" d="M61.74,56.73h.51l-.1.49h0a1.45,1.45,0,0,1,1.15-.57c.61,0,.9.27.9.84a2.76,2.76,0,0,1-.1.63L63.71,60h-.53l.42-1.89a4,4,0,0,0,.07-.5c0-.3-.25-.45-.56-.45a1.14,1.14,0,0,0-.8.37,1.29,1.29,0,0,0-.36.68L61.57,60H61Z" transform="translate(-3.25 -24.65)"/><path id="Path_591" data-name="Path 591" class="cls-1" d="M66,56.73h.64l-.1.47h-.64l-.4,1.9a1.65,1.65,0,0,0,0,.21c0,.18.16.22.32.22a1.06,1.06,0,0,0,.31-.05L66,60a1.55,1.55,0,0,1-.37,0c-.4,0-.73-.11-.73-.52a1.24,1.24,0,0,1,0-.27l.42-2h-.54l.1-.47h.54l.2-1h.53Z" transform="translate(-3.25 -24.65)"/><path id="Path_592" data-name="Path 592" class="cls-1" d="M67.19,56.73h.5l-.16.69h0a1.36,1.36,0,0,1,1.17-.77h.19l-.12.57h-.16a.89.89,0,0,0-.32,0,1.11,1.11,0,0,0-.68.52,2,2,0,0,0-.27.76L67,60h-.53Z" transform="translate(-3.25 -24.65)"/><path id="Path_593" data-name="Path 593" class="cls-1" d="M70.54,56.65A1.21,1.21,0,0,1,71.89,58a1.89,1.89,0,0,1-1.71,2H70.1a1.29,1.29,0,0,1-1.37-1.2v-.16a1.88,1.88,0,0,1,1.73-2Zm-.39,2.93c.78,0,1.2-.9,1.2-1.54a.81.81,0,0,0-.71-.91H70.5c-.82,0-1.24.89-1.24,1.56a.82.82,0,0,0,.75.9Z" transform="translate(-3.25 -24.65)"/><path id="Path_594" data-name="Path 594" class="cls-1" d="M75,55.5h.63l1.6,3.7h0L78,55.5h.58l-1,4.47h-.64l-1.58-3.68h0L74.59,60H74Z" transform="translate(-3.25 -24.65)"/><path id="Path_595" data-name="Path 595" class="cls-1" d="M78.82,57.7a1.28,1.28,0,0,1,1.4-1.05c.62,0,1.18.17,1.18.83a3,3,0,0,1-.1.59l-.21.88a2.46,2.46,0,0,0-.08.46c0,.15.06.2.15.2a.47.47,0,0,0,.17,0l-.08.39a.71.71,0,0,1-.32.07.38.38,0,0,1-.43-.32.57.57,0,0,1,0-.13h0a1.24,1.24,0,0,1-1.09.47.87.87,0,0,1-1-.74,1,1,0,0,1,0-.17c0-.94.93-1,1.64-1.06.56,0,.81-.09.81-.52s-.37-.42-.65-.42-.81.16-.87.58h-.53Zm.72,1.88a1.06,1.06,0,0,0,.91-.43,2.47,2.47,0,0,0,.28-.83h0a3.45,3.45,0,0,1-1,.22c-.38.05-.72.17-.72.58s.28.46.58.46Z" transform="translate(-3.25 -24.65)"/><path id="Path_596" data-name="Path 596" class="cls-1" d="M84.35,57.76a.62.62,0,0,0-.59-.64h-.1a1.39,1.39,0,0,0-1.25,1.52c0,.5.2.93.8.93a1,1,0,0,0,.94-.67h.54a1.45,1.45,0,0,1-1.48,1.14,1.24,1.24,0,0,1-1.34-1.13.82.82,0,0,1,0-.27,1.83,1.83,0,0,1,1.66-2h.12a1.06,1.06,0,0,1,1.21.89,1.48,1.48,0,0,1,0,.21Z" transform="translate(-3.25 -24.65)"/><path id="Path_597" data-name="Path 597" class="cls-1" d="M85.75,56.73h.54L85.61,60h-.53Zm.66-.58h-.54L86,55.5h.53Z" transform="translate(-3.25 -24.65)"/><path id="Path_598" data-name="Path 598" class="cls-1" d="M88.41,56.65a1.21,1.21,0,0,1,1.34,1.07.82.82,0,0,1,0,.27,1.89,1.89,0,0,1-1.71,2H88a1.29,1.29,0,0,1-1.37-1.19v-.17a1.88,1.88,0,0,1,1.72-2ZM88,59.58c.78,0,1.2-.9,1.2-1.54a.81.81,0,0,0-.71-.91h-.14c-.82,0-1.24.89-1.24,1.56a.82.82,0,0,0,.74.9Z" transform="translate(-3.25 -24.65)"/><path id="Path_599" data-name="Path 599" class="cls-1" d="M90.74,56.73h.51l-.1.49h0a1.46,1.46,0,0,1,1.16-.57c.6,0,.9.27.9.84a4.58,4.58,0,0,1-.1.63L92.72,60h-.53l.42-1.89a4,4,0,0,0,.07-.5c0-.3-.25-.45-.56-.45a1.14,1.14,0,0,0-.8.37,1.29,1.29,0,0,0-.36.68L90.58,60h-.53Z" transform="translate(-3.25 -24.65)"/><path id="Path_600" data-name="Path 600" class="cls-1" d="M93.9,57.7a1.29,1.29,0,0,1,1.4-1.05c.63,0,1.19.17,1.19.83a4,4,0,0,1-.1.59l-.21.88a3.73,3.73,0,0,0-.09.46c0,.15.07.2.16.2a.53.53,0,0,0,.17,0l-.09.39A.71.71,0,0,1,96,60a.38.38,0,0,1-.43-.32.57.57,0,0,1,0-.13h0a1.24,1.24,0,0,1-1.09.47.87.87,0,0,1-1-.74.91.91,0,0,1,0-.17c0-.94.93-1,1.64-1.06S96,58,96,57.55s-.37-.42-.65-.42-.8.16-.87.58H93.9Zm.72,1.88a1,1,0,0,0,.91-.43,2.29,2.29,0,0,0,.29-.83h0a3.39,3.39,0,0,1-1,.22c-.38.05-.72.17-.72.58s.28.46.58.46Z" transform="translate(-3.25 -24.65)"/><path id="Path_601" data-name="Path 601" class="cls-1" d="M97.73,55.5h.53L97.32,60h-.53Z" transform="translate(-3.25 -24.65)"/><path id="Path_602" data-name="Path 602" class="cls-1" d="M102.81,60h-.5l.11-.47h0a1.31,1.31,0,0,1-1.82.29,1.29,1.29,0,0,1-.53-1.07,1.94,1.94,0,0,1,1.8-2.07,1,1,0,0,1,1,.57h0l.34-1.72h.53Zm-1.38-.39c.81,0,1.26-.94,1.26-1.61a.77.77,0,0,0-.7-.84h-.12c-.84,0-1.28.88-1.28,1.59a.75.75,0,0,0,.65.85Z" transform="translate(-3.25 -24.65)"/><path id="Path_603" data-name="Path 603" class="cls-1" d="M104.29,58.51a1.32,1.32,0,0,0,0,.28.78.78,0,0,0,.78.79h0A.93.93,0,0,0,106,59h.53a1.43,1.43,0,0,1-1.47,1.09,1.24,1.24,0,0,1-1.36-1.1,1.34,1.34,0,0,1,0-.2,1.89,1.89,0,0,1,1.65-2.09h0c.95,0,1.37.52,1.37,1.44a2,2,0,0,1,0,.42Zm1.95-.47c0-.46-.17-.92-.76-.92a1.15,1.15,0,0,0-1.12.92Z" transform="translate(-3.25 -24.65)"/><path id="Path_604" data-name="Path 604" class="cls-1" d="M112,56.82c0-.71-.41-.93-1-.93-.44,0-1,.2-1,.74s.32.6.72.72l.6.16c.56.15,1.08.41,1.08,1.21s-.93,1.35-1.73,1.35c-1.08,0-1.84-.47-1.77-1.57h.6c0,.81.47,1.08,1.2,1.08.55,0,1.12-.26,1.12-.86s-.36-.62-.8-.74l-.6-.16a1.15,1.15,0,0,1-1-1.12c0-.87.83-1.3,1.62-1.3s1.66.43,1.62,1.42Z" transform="translate(-3.25 -24.65)"/><path id="Path_605" data-name="Path 605" class="cls-1" d="M115.41,60h-.52l.1-.49h0a1.44,1.44,0,0,1-1.15.57c-.61,0-.9-.27-.9-.84a3.42,3.42,0,0,1,.09-.63l.4-1.84H114l-.41,1.89a2.74,2.74,0,0,0-.08.5c0,.3.25.45.57.45a1.26,1.26,0,0,0,1.15-1l.38-1.79h.53Z" transform="translate(-3.25 -24.65)"/><path id="Path_606" data-name="Path 606" class="cls-1" d="M117,56.73h.5l-.11.47h0a1.3,1.3,0,0,1,1.82-.28,1.33,1.33,0,0,1,.53,1.06,2,2,0,0,1-1.8,2.07,1,1,0,0,1-1-.57h0l-.34,1.73H116Zm1.37.39c-.81,0-1.26.94-1.26,1.61a.77.77,0,0,0,.7.84h.12c.84,0,1.28-.88,1.28-1.59a.76.76,0,0,0-.65-.86Z" transform="translate(-3.25 -24.65)"/><path id="Path_607" data-name="Path 607" class="cls-1" d="M120.65,58.51a2.64,2.64,0,0,0,0,.28.79.79,0,0,0,.79.79h0a.92.92,0,0,0,.93-.62h.53a1.41,1.41,0,0,1-1.46,1.09,1.24,1.24,0,0,1-1.36-1.1,1.34,1.34,0,0,1,0-.2,1.89,1.89,0,0,1,1.64-2.09h0c1,0,1.37.52,1.37,1.44a3,3,0,0,1,0,.42ZM122.6,58a.74.74,0,0,0-.57-.9l-.19,0a1.15,1.15,0,0,0-1.12.92Z" transform="translate(-3.25 -24.65)"/><path id="Path_608" data-name="Path 608" class="cls-1" d="M124,56.73h.5l-.16.69h0a1.39,1.39,0,0,1,1.18-.77h.19l-.12.57h-.16a.87.87,0,0,0-.32,0,1.16,1.16,0,0,0-.69.52,2.55,2.55,0,0,0-.27.76L123.9,60h-.53Z" transform="translate(-3.25 -24.65)"/><path id="Path_609" data-name="Path 609" class="cls-1" d="M128.09,57.76a.62.62,0,0,0-.59-.64h-.1a1.39,1.39,0,0,0-1.25,1.52c0,.5.2.93.8.93a1,1,0,0,0,.94-.67h.53A1.44,1.44,0,0,1,127,60.05a1.24,1.24,0,0,1-1.34-1.12.87.87,0,0,1,0-.28,1.84,1.84,0,0,1,1.66-2h.13a1.05,1.05,0,0,1,1.2.9.66.66,0,0,1,0,.2Z" transform="translate(-3.25 -24.65)"/><path id="Path_610" data-name="Path 610" class="cls-1" d="M130.76,56.65A1.21,1.21,0,0,1,132.11,58a1.89,1.89,0,0,1-1.71,2h-.08A1.29,1.29,0,0,1,129,58.86a1,1,0,0,1,0-.17,1.88,1.88,0,0,1,1.71-2Zm-.39,2.93c.78,0,1.2-.9,1.2-1.54a.81.81,0,0,0-.71-.91h-.14c-.82,0-1.24.89-1.24,1.56a.83.83,0,0,0,.75.9Z" transform="translate(-3.25 -24.65)"/><path id="Path_611" data-name="Path 611" class="cls-1" d="M133.1,56.73h.5l-.12.48h0a1.49,1.49,0,0,1,1.12-.57.74.74,0,0,1,.82.58,1.43,1.43,0,0,1,1.11-.58c.46,0,.9.2.9.73a3.41,3.41,0,0,1-.1.64L136.94,60h-.53l.45-2.05a1.34,1.34,0,0,0,0-.35.46.46,0,0,0-.47-.44h0a1.2,1.2,0,0,0-.82.44,1.58,1.58,0,0,0-.3.73L135,60h-.53l.39-1.85a3.78,3.78,0,0,0,.1-.57.4.4,0,0,0-.37-.43h-.08a1.19,1.19,0,0,0-.8.42,1.24,1.24,0,0,0-.34.73L133,60h-.53Z" transform="translate(-3.25 -24.65)"/><path id="Path_612" data-name="Path 612" class="cls-1" d="M138.42,56.73h.5l-.11.47h0a1.3,1.3,0,0,1,1.82-.28,1.28,1.28,0,0,1,.53,1.06,2,2,0,0,1-1.8,2.07,1,1,0,0,1-1-.57h0L138,61.21h-.53Zm1.38.39c-.81,0-1.27.94-1.27,1.61a.78.78,0,0,0,.71.84h.11c.84,0,1.29-.88,1.29-1.59a.77.77,0,0,0-.66-.86Z" transform="translate(-3.25 -24.65)"/><path id="Path_613" data-name="Path 613" class="cls-1" d="M144.07,60h-.52l.1-.49h0a1.44,1.44,0,0,1-1.15.57c-.61,0-.9-.27-.9-.84a3.44,3.44,0,0,1,.1-.63l.39-1.84h.53l-.41,1.89a2.74,2.74,0,0,0-.07.5c0,.3.25.45.56.45a1.28,1.28,0,0,0,1.16-1l.37-1.79h.53Z" transform="translate(-3.25 -24.65)"/><path id="Path_614" data-name="Path 614" class="cls-1" d="M146.36,56.73H147l-.1.47h-.65l-.4,1.9a1.65,1.65,0,0,0,0,.21c0,.18.16.22.32.22a1.06,1.06,0,0,0,.31-.05l-.1.48a1.58,1.58,0,0,1-.38,0c-.4,0-.72-.11-.72-.52a1.24,1.24,0,0,1,0-.27l.42-2h-.54l.1-.47h.54l.2-1h.53Z" transform="translate(-3.25 -24.65)"/><path id="Path_615" data-name="Path 615" class="cls-1" d="M147.29,57.7a1.28,1.28,0,0,1,1.4-1.05c.62,0,1.18.17,1.18.83a3,3,0,0,1-.1.59l-.21.88a2.46,2.46,0,0,0-.08.46c0,.15.06.2.15.2a.47.47,0,0,0,.17,0l-.08.39a.78.78,0,0,1-.33.07.37.37,0,0,1-.42-.32.29.29,0,0,1,0-.13h0a1.22,1.22,0,0,1-1.08.47.86.86,0,0,1-1-.74.47.47,0,0,1,0-.17c0-.94.92-1,1.63-1.06s.82-.09.82-.52-.37-.42-.66-.42-.81.16-.87.58h-.52Zm.71,1.88a1,1,0,0,0,.91-.43,2.27,2.27,0,0,0,.28-.83h0a3.33,3.33,0,0,1-1,.22c-.38.05-.72.17-.72.58s.29.46.58.46Z" transform="translate(-3.25 -24.65)"/><path id="Path_616" data-name="Path 616" class="cls-1" d="M152.81,57.76a.62.62,0,0,0-.58-.64h-.1a1.39,1.39,0,0,0-1.26,1.52c0,.5.21.93.8.93a1,1,0,0,0,.94-.67h.53a1.44,1.44,0,0,1-1.47,1.14,1.23,1.23,0,0,1-1.34-1.12,1.31,1.31,0,0,1,0-.28,1.84,1.84,0,0,1,1.67-2h.13a1.05,1.05,0,0,1,1.2.89,1.48,1.48,0,0,1,0,.21Z" transform="translate(-3.25 -24.65)"/><path id="Path_617" data-name="Path 617" class="cls-1" d="M154.21,56.73h.53L154.07,60h-.54Zm.66-.58h-.54l.14-.65H155Z" transform="translate(-3.25 -24.65)"/><path id="Path_618" data-name="Path 618" class="cls-1" d="M156.88,56.65A1.21,1.21,0,0,1,158.22,58a1.88,1.88,0,0,1-1.7,2h-.08a1.29,1.29,0,0,1-1.37-1.19v-.17a1.88,1.88,0,0,1,1.71-2Zm-.39,2.93c.77,0,1.2-.9,1.2-1.54a.82.82,0,0,0-.72-.91h-.13c-.82,0-1.24.89-1.24,1.56a.82.82,0,0,0,.73.9Zm.85-4.19h.71l-.85.89h-.44Z" transform="translate(-3.25 -24.65)"/><path id="Path_619" data-name="Path 619" class="cls-1" d="M159.2,56.73h.52l-.1.49h0a1.44,1.44,0,0,1,1.15-.57c.61,0,.9.27.9.84a2.76,2.76,0,0,1-.1.63l-.4,1.84h-.53l.42-1.89a4,4,0,0,0,.07-.5c0-.3-.25-.45-.56-.45a1.18,1.18,0,0,0-.8.37,1.33,1.33,0,0,0-.36.68L159,60h-.53Z" transform="translate(-3.25 -24.65)"/></g><path id="Path_620" data-name="Path 620" class="cls-1" d="M28.16,27.25a31.45,31.45,0,0,1,5.94,1C21.9,27.7,14.22,36,14.22,45.47c0,6.76,4,14.22,13.75,16.46A17.37,17.37,0,0,1,10.13,45c0-.11,0-.21,0-.31C10.12,34.46,18.93,27.25,28.16,27.25Z" transform="translate(-3.25 -24.65)"/><path id="Path_621" data-name="Path 621" class="cls-1" d="M21.65,24.65a25,25,0,0,1,6.41,1.21c-.83-.07-1.67-.1-2.5-.09-11.27,0-18,9.9-18,19.05,0,7.88,4.36,16.22,14.87,18.6C10,63.74,3.25,52.84,3.25,44,3.25,33.69,11.43,24.65,21.65,24.65Z" transform="translate(-3.25 -24.65)"/><path id="Path_622" data-name="Path 622" class="cls-1" d="M25.61,45.34h-1.1l-.25,1.2h1.27c.36,0,.84-.13.84-.65S26,45.34,25.61,45.34Z" transform="translate(-3.25 -24.65)"/><path id="Path_623" data-name="Path 623" class="cls-1" d="M32.21,29.72A15.38,15.38,0,1,0,47.58,45.1h0A15.38,15.38,0,0,0,32.21,29.72ZM28.36,45.91c0,1.56-1.24,2.17-2.65,2.17H22l1.33-6.45h3.32c1.4,0,1.92.49,1.92,1.42A1.47,1.47,0,0,1,27.4,44.6h0v0A1.29,1.29,0,0,1,28.36,45.91Zm5-1.74c1.12.4,1.5,1,1.5,1.78,0,1.55-1.51,2.28-2.9,2.28s-2.82-.68-2.74-2.32h1.92a.94.94,0,0,0,.25.73,1,1,0,0,0,.73.16c.38,0,.86-.2.86-.62s-.66-.53-1.55-.83-1.55-.67-1.55-1.75c0-1.45,1.41-2.12,2.71-2.12s2.61.51,2.57,2.11H33.33a.6.6,0,0,0-.23-.54,1,1,0,0,0-.58-.15c-.33,0-.76.1-.76.53s1,.51,1.6.74Zm5.73,2.46a1.14,1.14,0,0,0,1.1-1h2a3,3,0,0,1-3.3,2.6,2.61,2.61,0,0,1-2.79-2.42,2.9,2.9,0,0,1,0-.51,3.53,3.53,0,0,1,3.21-3.81l.29,0a2.44,2.44,0,0,1,2.74,2.08,2.57,2.57,0,0,1,0,.48H40.43a.81.81,0,0,0-.65-.94h-.24c-1.1,0-1.5,1.27-1.5,2.18,0,.53.13,1.37,1,1.37Z" transform="translate(-3.25 -24.65)"/><path id="Path_624" data-name="Path 624" class="cls-1" d="M26,43.17H25l-.2,1h1.12c.32,0,.71-.11.71-.51S26.33,43.17,26,43.17Z" transform="translate(-3.25 -24.65)"/></g></g></svg>