<svg xmlns="http://www.w3.org/2000/svg" viewBox="0 0 103.84 39.46"><defs><style>.cls-1{fill:none;}.cls-2{fill-rule:evenodd;}.cls-3{fill:#737574;}.cls-4{fill:#797d74;}</style></defs><g id="Layer_1" data-name="Layer 1"><g id="Group_277" data-name="Group 277"><rect id="Rectangle_63" data-name="Rectangle 63" class="cls-1" width="103.84" height="39.46"/><g id="Group_273" data-name="Group 273"><path id="Path_462" data-name="Path 462" d="M98.87,40.59H102V39.25H94.3v1.34h3.13V52.21h1.44V40.59" transform="translate(-11.88 -25.7)"/><rect id="Rectangle_64" data-name="Rectangle 64" x="75.52" y="13.55" width="1.45" height="12.97"/><path id="Path_463" data-name="Path 463" class="cls-2" d="M65.53,48.53H60l-1.57,3.68H56.85l5.71-13,.28-.6.26.6,5.56,13h-1.6ZM65,47.19,62.8,42l-2.22,5.19H65" transform="translate(-11.88 -25.7)"/><path id="Path_464" data-name="Path 464" class="cls-2" d="M74.85,40.59v4.66h1.81c1.67,0,2.82-.77,2.82-2.41s-1.34-2.25-2.84-2.25Zm3.42,5.74,3.15,5.88H79.74L76.8,46.53h-2v5.69H73.41v-13h3.42c2.13,0,4.09,1,4.09,3.59a3.47,3.47,0,0,1-2.65,3.49" transform="translate(-11.88 -25.7)"/><path id="Path_465" data-name="Path 465" d="M107.26,52.21h7V50.87h-5.57V45.78h4.77V44.44h-4.77V40.59h5.36V39.25h-6.8v13" transform="translate(-11.88 -25.7)"/><path id="Path_466" data-name="Path 466" d="M111.38,34.53l-2,2.82.86.48,2.64-2.64-1.45-.66" transform="translate(-11.88 -25.7)"/><path id="Path_467" data-name="Path 467" d="M44.08,44.51h4.4v1.34h-4.4v6.37H42.64v-13h1.44v5.26" transform="translate(-11.88 -25.7)"/><rect id="Rectangle_65" data-name="Rectangle 65" x="38.57" y="13.55" width="1.44" height="12.97"/><path id="Path_468" data-name="Path 468" class="cls-3" d="M13.13,45.73a18.81,18.81,0,0,1,31-14.25v2.87a16.51,16.51,0,1,0-.7,23.34c.24-.23.47-.46.7-.7v3a18.81,18.81,0,0,1-31-14.26" transform="translate(-11.88 -25.7)"/><path id="Path_469" data-name="Path 469" d="M37,40.25A6.16,6.16,0,0,0,33.12,39a6.62,6.62,0,0,0-6.85,6.38v.42A6.75,6.75,0,0,0,37,51.22V49.48a5.56,5.56,0,0,1-3.88,1.69A5.44,5.44,0,1,1,37,42V40.25" transform="translate(-11.88 -25.7)"/></g><g id="Group_276" data-name="Group 276"><g id="Group_274" data-name="Group 274"><path id="Path_470" data-name="Path 470" class="cls-4" d="M48.33,60c-.75,0-1.15-.49-1.15-1.33V56.92h.46v1.76c0,.58.24.89.7.89s.71-.3.71-.85v-1.8h.46V58.7C49.51,59.56,49.1,60,48.33,60Z" transform="translate(-11.88 -25.7)"/><path id="Path_471" data-name="Path 471" class="cls-4" d="M52.25,60,51,58.06c-.07-.11-.18-.3-.23-.37V60h-.44V56.92h.47L52,58.79l.26.43v-2.3h.44V60Z" transform="translate(-11.88 -25.7)"/><path id="Path_472" data-name="Path 472" class="cls-4" d="M53.58,60V56.92H54V60Z" transform="translate(-11.88 -25.7)"/><path id="Path_473" data-name="Path 473" class="cls-4" d="M56.29,60h-.48l-1.07-3.06h.5l.64,1.95c.06.18.15.45.17.56,0-.11.12-.38.17-.56l.64-1.95h.49Z" transform="translate(-11.88 -25.7)"/><path id="Path_474" data-name="Path 474" class="cls-4" d="M58,60V56.92h2v.45H58.48v.75h.88v.45h-.88v1h1.58V60Z" transform="translate(-11.88 -25.7)"/><path id="Path_475" data-name="Path 475" class="cls-4" d="M62.45,58.73,63.07,60h-.53l-.6-1.21h-.7V60h-.45V56.92h1.35a.89.89,0,0,1,1,.78v.13A.85.85,0,0,1,62.45,58.73Zm-.31-1.38h-.9v1h.9a.48.48,0,0,0,.52-.4v-.09a.48.48,0,0,0-.44-.5Z" transform="translate(-11.88 -25.7)"/><path id="Path_476" data-name="Path 476" class="cls-4" d="M64.83,60a1.42,1.42,0,0,1-1.1-.49l.33-.32a1.17,1.17,0,0,0,.8.36c.43,0,.64-.15.64-.45s-.18-.35-.69-.5-1-.36-1-.9a.89.89,0,0,1,.93-.86h.08a1.4,1.4,0,0,1,1,.42l-.33.33a.91.91,0,0,0-.71-.3c-.36,0-.51.18-.51.38s.14.32.67.48,1,.38,1,.93S65.61,60,64.83,60Z" transform="translate(-11.88 -25.7)"/><path id="Path_477" data-name="Path 477" class="cls-4" d="M66.74,60V56.92h.46V60Z" transform="translate(-11.88 -25.7)"/><path id="Path_478" data-name="Path 478" class="cls-4" d="M69.26,57.37V60H68.8V57.37h-.9v-.45h2.25v.45Z" transform="translate(-11.88 -25.7)"/><path id="Path_479" data-name="Path 479" class="cls-4" d="M72.85,60l-.26-.73H71.37l-.26.73h-.48l1.1-3.07h.49L73.34,60Zm-1.3-3.27a.3.3,0,0,1-.31-.29.31.31,0,0,1,.3-.31.3.3,0,0,1,.3.3h0a.29.29,0,0,1-.29.29Zm.66,1.42c-.07-.22-.2-.57-.23-.7,0,.13-.14.48-.22.71l-.25.7h.95Zm.2-1.42a.29.29,0,0,1-.31-.29.3.3,0,0,1,.29-.31.31.31,0,0,1,.31.3h0a.31.31,0,0,1-.3.29Z" transform="translate(-11.88 -25.7)"/><path id="Path_480" data-name="Path 480" class="cls-4" d="M75.18,57.37V60h-.46V57.37h-.89v-.45h2.24v.45Z" transform="translate(-11.88 -25.7)"/><path id="Path_481" data-name="Path 481" class="cls-4" d="M77.56,60a1.38,1.38,0,0,1-1.09-.49l.33-.32a1.17,1.17,0,0,0,.8.36c.43,0,.64-.15.64-.45s-.18-.35-.7-.5-1-.36-1-.9a.9.9,0,0,1,.94-.86h.08a1.42,1.42,0,0,1,1,.42l-.33.33a.91.91,0,0,0-.71-.3c-.36,0-.51.18-.51.38s.14.32.67.48,1,.38,1,.93S78.35,60,77.56,60Z" transform="translate(-11.88 -25.7)"/><path id="Path_482" data-name="Path 482" class="cls-4" d="M81.75,60V58.36c0-.18,0-.45,0-.53,0,.08-.12.3-.2.48L80.81,60l-.73-1.72c-.08-.18-.16-.4-.2-.48,0,.08,0,.35,0,.53V60h-.43V56.92h.47l.69,1.63c.07.18.17.4.21.53,0-.13.13-.35.2-.53l.68-1.63h.49V60Z" transform="translate(-11.88 -25.7)"/><path id="Path_483" data-name="Path 483" class="cls-4" d="M83.07,60V56.92h2v.45H83.53v.75h.88v.45h-.88v1h1.58V60Z" transform="translate(-11.88 -25.7)"/><path id="Path_484" data-name="Path 484" class="cls-4" d="M86.68,60h-.84V56.92h.84a1.53,1.53,0,0,1,0,3.06Zm0-2.61H86.3v2.17h.38a1.09,1.09,0,0,0,0-2.17Z" transform="translate(-11.88 -25.7)"/><path id="Path_485" data-name="Path 485" class="cls-4" d="M88.91,60V56.92h.46V60Z" transform="translate(-11.88 -25.7)"/><path id="Path_486" data-name="Path 486" class="cls-4" d="M90.13,60v-.44l1.5-1.81c.1-.12.26-.32.34-.4H90.22v-.42h2.24v.45L91,59.17c-.1.12-.27.32-.35.4h1.83V60Z" transform="translate(-11.88 -25.7)"/><path id="Path_487" data-name="Path 487" class="cls-4" d="M93.27,60V56.92h.46V60Z" transform="translate(-11.88 -25.7)"/><path id="Path_488" data-name="Path 488" class="cls-4" d="M96.51,60l-1.22-1.92c-.07-.11-.18-.3-.23-.37V60h-.45V56.92h.47l1.17,1.87c.08.13.21.35.25.43v-2.3H97V60Z" transform="translate(-11.88 -25.7)"/><path id="Path_489" data-name="Path 489" class="cls-4" d="M100.29,60H99.08V56.92h1.26a.77.77,0,0,1,.87.65.76.76,0,0,1,0,.15.64.64,0,0,1-.39.61.72.72,0,0,1,.52.72C101.35,59.67,101,60,100.29,60Zm0-2.64h-.82v.79h.82a.38.38,0,0,0,.43-.33v-.06a.37.37,0,0,0-.34-.4A.14.14,0,0,0,100.33,57.34Zm0,1.21h-.83v1h.82c.41,0,.56-.2.56-.5a.5.5,0,0,0-.45-.52Z" transform="translate(-11.88 -25.7)"/><path id="Path_490" data-name="Path 490" class="cls-4" d="M102.11,60V56.92h2v.45h-1.51v.75h.88v.45h-.88v1h1.58V60Z" transform="translate(-11.88 -25.7)"/><path id="Path_491" data-name="Path 491" class="cls-4" d="M106.53,58.73l.63,1.25h-.53L106,58.77h-.69V60h-.46V56.92h1.35a.89.89,0,0,1,1,.78.57.57,0,0,1,0,.13A.84.84,0,0,1,106.53,58.73Zm-.31-1.38h-.89v1h.89a.48.48,0,0,0,.52-.4v-.09a.47.47,0,0,0-.44-.5Z" transform="translate(-11.88 -25.7)"/><path id="Path_492" data-name="Path 492" class="cls-4" d="M108,60V56.92h.46v2.61H110V60Z" transform="translate(-11.88 -25.7)"/><path id="Path_493" data-name="Path 493" class="cls-4" d="M110.69,60V56.92h.46V60Z" transform="translate(-11.88 -25.7)"/><path id="Path_494" data-name="Path 494" class="cls-4" d="M113.94,60l-1.23-1.92-.22-.37V60H112V56.92h.47l1.16,1.87.26.43v-2.3h.44V60Z" transform="translate(-11.88 -25.7)"/></g><g id="Group_275" data-name="Group 275"><path id="Path_495" data-name="Path 495" class="cls-3" d="M48.33,60c-.75,0-1.15-.49-1.15-1.33V56.92h.46v1.76c0,.58.24.89.7.89s.71-.3.71-.85v-1.8h.46V58.7C49.51,59.56,49.1,60,48.33,60Z" transform="translate(-11.88 -25.7)"/><path id="Path_496" data-name="Path 496" class="cls-3" d="M52.25,60,51,58.06c-.07-.11-.18-.3-.23-.37V60h-.44V56.92h.47L52,58.79l.26.43v-2.3h.44V60Z" transform="translate(-11.88 -25.7)"/><path id="Path_497" data-name="Path 497" class="cls-3" d="M53.58,60V56.92H54V60Z" transform="translate(-11.88 -25.7)"/><path id="Path_498" data-name="Path 498" class="cls-3" d="M56.29,60h-.48l-1.07-3.06h.5l.64,1.95c.06.18.15.45.17.56,0-.11.12-.38.17-.56l.64-1.95h.49Z" transform="translate(-11.88 -25.7)"/><path id="Path_499" data-name="Path 499" class="cls-3" d="M58,60V56.92h2v.45H58.48v.75h.88v.45h-.88v1h1.58V60Z" transform="translate(-11.88 -25.7)"/><path id="Path_500" data-name="Path 500" class="cls-3" d="M62.45,58.73,63.07,60h-.53l-.6-1.21h-.7V60h-.45V56.92h1.35a.89.89,0,0,1,1,.78v.13A.85.85,0,0,1,62.45,58.73Zm-.31-1.38h-.9v1h.9a.48.48,0,0,0,.52-.4v-.09a.48.48,0,0,0-.44-.5Z" transform="translate(-11.88 -25.7)"/><path id="Path_501" data-name="Path 501" class="cls-3" d="M64.83,60a1.42,1.42,0,0,1-1.1-.49l.33-.32a1.17,1.17,0,0,0,.8.36c.43,0,.64-.15.64-.45s-.18-.35-.69-.5-1-.36-1-.9a.89.89,0,0,1,.93-.86h.08a1.4,1.4,0,0,1,1,.42l-.33.33a.91.91,0,0,0-.71-.3c-.36,0-.51.18-.51.38s.14.32.67.48,1,.38,1,.93S65.61,60,64.83,60Z" transform="translate(-11.88 -25.7)"/><path id="Path_502" data-name="Path 502" class="cls-3" d="M66.74,60V56.92h.46V60Z" transform="translate(-11.88 -25.7)"/><path id="Path_503" data-name="Path 503" class="cls-3" d="M69.26,57.37V60H68.8V57.37h-.9v-.45h2.25v.45Z" transform="translate(-11.88 -25.7)"/><path id="Path_504" data-name="Path 504" class="cls-3" d="M72.85,60l-.26-.73H71.37l-.26.73h-.48l1.1-3.07h.49L73.34,60Zm-1.3-3.27a.3.3,0,0,1-.31-.29.31.31,0,0,1,.3-.31.3.3,0,0,1,.3.3h0a.29.29,0,0,1-.29.29Zm.66,1.42c-.07-.22-.2-.57-.23-.7,0,.13-.14.48-.22.71l-.25.7h.95Zm.2-1.42a.29.29,0,0,1-.31-.29.3.3,0,0,1,.29-.31.31.31,0,0,1,.31.3h0a.31.31,0,0,1-.3.29Z" transform="translate(-11.88 -25.7)"/><path id="Path_505" data-name="Path 505" class="cls-3" d="M75.18,57.37V60h-.46V57.37h-.89v-.45h2.24v.45Z" transform="translate(-11.88 -25.7)"/><path id="Path_506" data-name="Path 506" class="cls-3" d="M77.56,60a1.38,1.38,0,0,1-1.09-.49l.33-.32a1.17,1.17,0,0,0,.8.36c.43,0,.64-.15.64-.45s-.18-.35-.7-.5-1-.36-1-.9a.9.9,0,0,1,.94-.86h.08a1.42,1.42,0,0,1,1,.42l-.33.33a.91.91,0,0,0-.71-.3c-.36,0-.51.18-.51.38s.14.32.67.48,1,.38,1,.93S78.35,60,77.56,60Z" transform="translate(-11.88 -25.7)"/><path id="Path_507" data-name="Path 507" class="cls-3" d="M81.75,60V58.36c0-.18,0-.45,0-.53,0,.08-.12.3-.2.48L80.81,60l-.73-1.72c-.08-.18-.16-.4-.2-.48,0,.08,0,.35,0,.53V60h-.43V56.92h.47l.69,1.63c.07.18.17.4.21.53,0-.13.13-.35.2-.53l.68-1.63h.49V60Z" transform="translate(-11.88 -25.7)"/><path id="Path_508" data-name="Path 508" class="cls-3" d="M83.07,60V56.92h2v.45H83.53v.75h.88v.45h-.88v1h1.58V60Z" transform="translate(-11.88 -25.7)"/><path id="Path_509" data-name="Path 509" class="cls-3" d="M86.68,60h-.84V56.92h.84a1.53,1.53,0,0,1,0,3.06Zm0-2.61H86.3v2.17h.38a1.09,1.09,0,0,0,0-2.17Z" transform="translate(-11.88 -25.7)"/><path id="Path_510" data-name="Path 510" class="cls-3" d="M88.91,60V56.92h.46V60Z" transform="translate(-11.88 -25.7)"/><path id="Path_511" data-name="Path 511" class="cls-3" d="M90.13,60v-.44l1.5-1.81c.1-.12.26-.32.34-.4H90.22v-.42h2.24v.45L91,59.17c-.1.12-.27.32-.35.4h1.83V60Z" transform="translate(-11.88 -25.7)"/><path id="Path_512" data-name="Path 512" class="cls-3" d="M93.27,60V56.92h.46V60Z" transform="translate(-11.88 -25.7)"/><path id="Path_513" data-name="Path 513" class="cls-3" d="M96.51,60l-1.22-1.92c-.07-.11-.18-.3-.23-.37V60h-.45V56.92h.47l1.17,1.87c.08.13.21.35.25.43v-2.3H97V60Z" transform="translate(-11.88 -25.7)"/><path id="Path_514" data-name="Path 514" class="cls-3" d="M100.29,60H99.08V56.92h1.26a.77.77,0,0,1,.87.65.76.76,0,0,1,0,.15.64.64,0,0,1-.39.61.72.72,0,0,1,.52.72C101.35,59.67,101,60,100.29,60Zm0-2.64h-.82v.79h.82a.38.38,0,0,0,.43-.33v-.06a.37.37,0,0,0-.34-.4A.14.14,0,0,0,100.33,57.34Zm0,1.21h-.83v1h.82c.41,0,.56-.2.56-.5a.5.5,0,0,0-.45-.52Z" transform="translate(-11.88 -25.7)"/><path id="Path_515" data-name="Path 515" class="cls-3" d="M102.11,60V56.92h2v.45h-1.51v.75h.88v.45h-.88v1h1.58V60Z" transform="translate(-11.88 -25.7)"/><path id="Path_516" data-name="Path 516" class="cls-3" d="M106.53,58.73l.63,1.25h-.53L106,58.77h-.69V60h-.46V56.92h1.35a.89.89,0,0,1,1,.78.57.57,0,0,1,0,.13A.84.84,0,0,1,106.53,58.73Zm-.31-1.38h-.89v1h.89a.48.48,0,0,0,.52-.4v-.09a.47.47,0,0,0-.44-.5Z" transform="translate(-11.88 -25.7)"/><path id="Path_517" data-name="Path 517" class="cls-3" d="M108,60V56.92h.46v2.61H110V60Z" transform="translate(-11.88 -25.7)"/><path id="Path_518" data-name="Path 518" class="cls-3" d="M110.69,60V56.92h.46V60Z" transform="translate(-11.88 -25.7)"/><path id="Path_519" data-name="Path 519" class="cls-3" d="M113.94,60l-1.23-1.92-.22-.37V60H112V56.92h.47l1.16,1.87.26.43v-2.3h.44V60Z" transform="translate(-11.88 -25.7)"/></g></g></g></g></svg>