<svg id="Layer_1" data-name="Layer 1" xmlns="http://www.w3.org/2000/svg" viewBox="0 0 146.92 44.97"><defs><style>.cls-1{fill:#505050;}.cls-2{fill:#7e8285;}.cls-3{fill:#dadada;}.cls-4{fill:#aaaeb5;}.cls-5{fill:#e32021;}.cls-6{fill:#a82b20;}.cls-7{fill:#f08466;}</style></defs><g id="CSCS"><path class="cls-1" d="M95.68,18.23a3.47,3.47,0,0,0-.8-.91,3.82,3.82,0,0,0-1.1-.61,3.93,3.93,0,0,0-1.27-.21,4.14,4.14,0,0,0-2.07.47,3.8,3.8,0,0,0-1.38,1.26A5.19,5.19,0,0,0,88.29,20,9.19,9.19,0,0,0,88,22.13a8.43,8.43,0,0,0,.25,2,5.14,5.14,0,0,0,.77,1.76,4.07,4.07,0,0,0,1.38,1.26,4.25,4.25,0,0,0,2.07.47,3.32,3.32,0,0,0,2.58-1A4.73,4.73,0,0,0,96.23,24h3.5A8.15,8.15,0,0,1,99,26.73a6.9,6.9,0,0,1-1.47,2.12,6.56,6.56,0,0,1-2.21,1.33,8,8,0,0,1-2.78.46,8.44,8.44,0,0,1-3.4-.65,7.26,7.26,0,0,1-2.61-1.81A7.91,7.91,0,0,1,85,25.48a9.82,9.82,0,0,1-.56-3.35A10.16,10.16,0,0,1,85,18.72,8,8,0,0,1,86.55,16a7.24,7.24,0,0,1,2.54-1.84,8.85,8.85,0,0,1,6-.28A6.75,6.75,0,0,1,97.23,15a6.37,6.37,0,0,1,1.58,1.85,6.78,6.78,0,0,1,.78,2.53h-3.5A2.94,2.94,0,0,0,95.68,18.23Z" transform="translate(0 0.02)"/><path class="cls-1" d="M105,26.23a2.64,2.64,0,0,0,.79.93,3.81,3.81,0,0,0,1.16.53,5.79,5.79,0,0,0,1.38.17,8.42,8.42,0,0,0,1-.08,3.87,3.87,0,0,0,1-.31,2.4,2.4,0,0,0,.81-.64,1.57,1.57,0,0,0,.32-1,1.5,1.5,0,0,0-.42-1.08,3.24,3.24,0,0,0-1.12-.69,10.8,10.8,0,0,0-1.56-.48c-.59-.14-1.18-.29-1.77-.46a14.45,14.45,0,0,1-1.8-.57,6.25,6.25,0,0,1-1.56-.86,4.31,4.31,0,0,1-1.12-1.32,4,4,0,0,1-.42-1.92,4.32,4.32,0,0,1,.54-2.2,4.86,4.86,0,0,1,1.41-1.55,6.38,6.38,0,0,1,2-.92,8.24,8.24,0,0,1,2.21-.3,10.83,10.83,0,0,1,2.47.29,6,6,0,0,1,2.1.93,4.69,4.69,0,0,1,1.46,1.64,5,5,0,0,1,.55,2.43h-3.5a2.9,2.9,0,0,0-.31-1.22,2.13,2.13,0,0,0-.7-.76,3.06,3.06,0,0,0-1-.39,5.69,5.69,0,0,0-1.23-.11,4.31,4.31,0,0,0-.88.09,2.48,2.48,0,0,0-.79.32,2,2,0,0,0-.59.58,1.56,1.56,0,0,0-.23.87,1.43,1.43,0,0,0,.19.78,1.57,1.57,0,0,0,.72.55,9.81,9.81,0,0,0,1.5.51l2.49.64c.31.06.73.18,1.28.34a6.51,6.51,0,0,1,1.62.77,4.79,4.79,0,0,1,1.39,1.41,4,4,0,0,1,.59,2.27,4.88,4.88,0,0,1-.44,2.09,4.61,4.61,0,0,1-1.3,1.67,6.11,6.11,0,0,1-2.14,1.09,10.14,10.14,0,0,1-3,.39,10.67,10.67,0,0,1-2.64-.33,6.6,6.6,0,0,1-2.25-1,5,5,0,0,1-1.55-1.82,5.39,5.39,0,0,1-.56-2.62h3.5A3.16,3.16,0,0,0,105,26.23Z" transform="translate(0 0.02)"/><path class="cls-1" d="M127.65,18.23a3.47,3.47,0,0,0-.8-.91,3.82,3.82,0,0,0-1.1-.61,3.93,3.93,0,0,0-1.27-.21,4.14,4.14,0,0,0-2.07.47A3.8,3.8,0,0,0,121,18.23a5.19,5.19,0,0,0-.77,1.81,8.66,8.66,0,0,0-.25,2.09,7.94,7.94,0,0,0,.25,2,5.14,5.14,0,0,0,.77,1.76,4.07,4.07,0,0,0,1.38,1.26,4.25,4.25,0,0,0,2.07.47,3.32,3.32,0,0,0,2.58-1A4.73,4.73,0,0,0,128.2,24h3.5a8.15,8.15,0,0,1-.71,2.78,6.81,6.81,0,0,1-1.52,2.12,6.56,6.56,0,0,1-2.21,1.33,8,8,0,0,1-2.78.46,8.44,8.44,0,0,1-3.4-.65,7.22,7.22,0,0,1-2.53-1.81,7.91,7.91,0,0,1-1.58-2.7,9.82,9.82,0,0,1-.56-3.35,10.16,10.16,0,0,1,.56-3.41A8,8,0,0,1,118.55,16a7.24,7.24,0,0,1,2.54-1.84,8.85,8.85,0,0,1,6-.28A6.8,6.8,0,0,1,129.2,15a6.37,6.37,0,0,1,1.58,1.85,6.78,6.78,0,0,1,.78,2.53h-3.5A2.87,2.87,0,0,0,127.65,18.23Z" transform="translate(0 0.02)"/><path class="cls-1" d="M136.92,26.23a2.64,2.64,0,0,0,.79.93,3.81,3.81,0,0,0,1.16.53,5.79,5.79,0,0,0,1.38.17,8.42,8.42,0,0,0,1-.08,3.87,3.87,0,0,0,1-.31,2.4,2.4,0,0,0,.81-.64,1.57,1.57,0,0,0,.32-1,1.5,1.5,0,0,0-.42-1.08,3.24,3.24,0,0,0-1.12-.69,10.8,10.8,0,0,0-1.56-.48c-.59-.14-1.18-.29-1.77-.46a14.45,14.45,0,0,1-1.8-.57,6.25,6.25,0,0,1-1.56-.86A4.31,4.31,0,0,1,134,20.37a4,4,0,0,1-.42-1.92,4.32,4.32,0,0,1,.54-2.2,4.86,4.86,0,0,1,1.41-1.55,6.38,6.38,0,0,1,2-.92,8.24,8.24,0,0,1,2.21-.3,10.83,10.83,0,0,1,2.47.29,6,6,0,0,1,2.1.93,4.69,4.69,0,0,1,1.46,1.64,5,5,0,0,1,.55,2.43h-3.5a3.06,3.06,0,0,0-.31-1.22,2.13,2.13,0,0,0-.7-.76,3.06,3.06,0,0,0-1-.39,5.69,5.69,0,0,0-1.23-.11,4.31,4.31,0,0,0-.88.09,2.48,2.48,0,0,0-.79.32,2,2,0,0,0-.59.58,1.56,1.56,0,0,0-.23.87,1.43,1.43,0,0,0,.19.78,1.57,1.57,0,0,0,.72.55,8.91,8.91,0,0,0,1.52.47l2.49.64c.31.06.73.18,1.28.34a6.51,6.51,0,0,1,1.62.77,4.79,4.79,0,0,1,1.39,1.41,4,4,0,0,1,.59,2.27,4.88,4.88,0,0,1-.44,2.09,4.61,4.61,0,0,1-1.3,1.67A6.11,6.11,0,0,1,143,30.23a10.14,10.14,0,0,1-3,.39,10.67,10.67,0,0,1-2.64-.33,6.6,6.6,0,0,1-2.25-1,5,5,0,0,1-1.55-1.82,5.39,5.39,0,0,1-.56-2.62h3.5A3.17,3.17,0,0,0,136.92,26.23Z" transform="translate(0 0.02)"/></g><g id="layer1"><g id="g98"><path id="path100" class="cls-2" d="M29.86,18.14h-7.4l-9-9h7.4Z" transform="translate(0 0.02)"/></g><g id="g102"><path id="path104" class="cls-3" d="M26.7,22.29h7.5l9.13-9.11h-7.5Z" transform="translate(0 0.02)"/></g><g id="g106"><path id="path108" class="cls-3" d="M13.33,35.86h7.5L30,26.75h-7.5Z" transform="translate(0 0.02)"/></g><g id="g110"><path id="path112" class="cls-2" d="M43.33,31.37h-7.5l-9.14-9.11h7.5Z" transform="translate(0 0.02)"/></g><g id="g114"><path id="path116" class="cls-2" d="M29.91,44.84H22.45l-9.08-9h7.45Z" transform="translate(0 0.02)"/></g><g id="g118"><path id="path120" class="cls-4" d="M29.9,44.84l-9.07-9,9-9.07,9.08,9Z" transform="translate(0 0.02)"/></g><g id="g122"><path id="path124" class="cls-4" d="M16.44,31.5l-9.07-9,9-9.07,9.08,9Z" transform="translate(0 0.02)"/></g><g id="g126"><path id="path128" class="cls-4" d="M29.81,18.05l-9.08-9,9-9.07L38.8,9Z" transform="translate(0 0.02)"/></g><g id="g130"><path id="path132" class="cls-4" d="M43.26,31.39l-9.08-9,9-9.08,9.07,9Z" transform="translate(0 0.02)"/></g><g id="g134"><path id="path136" class="cls-2" d="M16.44,31.47H9l-9-9H7.44Z" transform="translate(0 0.02)"/></g><g id="g138"><path id="path140" class="cls-3" d="M0,22.49H7.37l9-9H9Z" transform="translate(0 0.02)"/></g><g id="g142"><path id="path144" class="cls-3" d="M13.34,9.11h7.37l9-9H22.32Z" transform="translate(0 0.02)"/></g><g id="g146"><path id="path148" class="cls-5" d="M45,45,36,36l9-9.08,9.07,9Z" transform="translate(0 0.02)"/></g><g id="g150"><path id="path152" class="cls-5" d="M31.55,31.56l-9.07-9,9-9.08,9.08,9Z" transform="translate(0 0.02)"/></g><g id="g154"><path id="path156" class="cls-5" d="M44.93,18.11l-9.07-9,9-9.08,9.07,9Z" transform="translate(0 0.02)"/></g><g id="g158"><path id="path160" class="cls-5" d="M58.38,31.45l-9.08-9,9-9.07,9.08,9Z" transform="translate(0 0.02)"/></g><g id="g162"><path id="path164" class="cls-6" d="M31.55,31.56H24.1l-9-9h7.41Z" transform="translate(0 0.02)"/></g><g id="g166"><path id="path168" class="cls-6" d="M45.08,44.85h-7.4l-9-9h7.4Z" transform="translate(0 0.02)"/></g><g id="g170"><path id="path172" class="cls-6" d="M58.37,31.44H51l-9-9h7.39Z" transform="translate(0 0.02)"/></g><g id="g174"><path id="path176" class="cls-6" d="M45,18.1h-7.4l-9-9H36Z" transform="translate(0 0.02)"/></g><g id="g178"><path id="path180" class="cls-7" d="M15.14,22.57h7.41l9-9H24.12Z" transform="translate(0 0.02)"/></g><g id="g182"><path id="path184" class="cls-7" d="M28.55,9.1h7.37l9-9H37.49Z" transform="translate(0 0.02)"/></g><g id="g186"><path id="path188" class="cls-7" d="M41.93,22.44H49.3l9-9H50.91Z" transform="translate(0 0.02)"/></g><g id="g190"><path id="path192" class="cls-7" d="M28.63,35.87H36l9-9H37.61Z" transform="translate(0 0.02)"/></g></g></svg>