<svg xmlns="http://www.w3.org/2000/svg" viewBox="0 0 118.85 19.35"><g id="Layer_1" data-name="Layer 1"><path id="Path_557" data-name="Path 557" d="M79.35,48.55c-.7,3.39-3.31,3.56-3.82,3.56a2.11,2.11,0,0,1-2.35-1.87,1.79,1.79,0,0,1,0-.4,6.26,6.26,0,0,1,.14-1.23l1.62-8.08H73l-1.64,8.3V49a6,6,0,0,0-.14,1.19,3.49,3.49,0,0,0,3.25,3.7h.4a4.93,4.93,0,0,0,3.8-1.55l-.26,1.37v0h1.9l2.61-13.11h-2l-1.6,8Zm13.05-8.2A4.43,4.43,0,0,0,88.8,42l.3-1.46H87.21L84.64,53.64v0h1.92l1.6-8a4.14,4.14,0,0,1,3.76-3.57,2.18,2.18,0,0,1,1.84.91h0l1.55-1.38h0a3.5,3.5,0,0,0-2.85-1.23ZM60.76,42.17v0h6.53L58.6,52.05h0l-.34,1.6h9.27l.33-1.7H60.93l8.74-9.82h0l.33-1.6H61.11l-.35,1.64ZM95.53,53.62v0h1.92l2.61-13.15H98.18Zm26-13.27a4.83,4.83,0,0,0-3.74,1.49l1.49-7.33h-1.9l-3.84,19.11h1.92l1.6-8c.69-3.39,3.32-3.56,3.84-3.56a2.11,2.11,0,0,1,2.33,1.87h0a1.34,1.34,0,0,1,0,.4,5.57,5.57,0,0,1-.14,1.22l-1.62,8.1h1.92L125,45.36a8.2,8.2,0,0,0,.14-1.3,3.5,3.5,0,0,0-3.25-3.7h-.44Zm-12.69,0c-3.46,0-5.9,2.48-6.69,6.71a11.49,11.49,0,0,0-.18,2c0,2.92,1.76,4.74,4.61,4.74A6.19,6.19,0,0,0,110.91,52h0l-1.11-1.35h0a4,4,0,0,1-3.15,1.5,2.73,2.73,0,0,1-2.83-2.63,2.33,2.33,0,0,1,0-.46,9.89,9.89,0,0,1,.22-2,7.43,7.43,0,0,1,1.7-3.76,3.89,3.89,0,0,1,2.87-1.23,2.79,2.79,0,0,1,2.51,1.41v0l1.41-1.19h0a4.26,4.26,0,0,0-3.8-1.94Zm-9.92-3.44h1.92l.48-2.4H99.35Zm-18.61,0h1.92l.48-2.4H80.73l-.47,2.4Zm-5.11,0h1.92l.48-2.4H75.63Zm-25.56,5H45.27l1.5-7.43H10.17L6.33,53.64H20.92l.95-4.79H13.26l.51-2.64h8.61l.88-4.3H14.64l.52-2.63H28.82L25.93,53.64h6l2.87-14.36h5L37,53.64h6l1.46-7.43h4.32l-1.47,7.43h6l3.84-19.15h-6l-1.5,7.43Z" transform="translate(-6.33 -34.49)"/></g></svg>