<svg xmlns="http://www.w3.org/2000/svg" viewBox="0 0 184.13 81.87"><defs><style>.cls-1{fill:#09173e;}.cls-2{fill:#a4b711;}</style></defs><g id="Layer_1" data-name="Layer 1"><rect class="cls-1" x="0.67" y="16.47" width="10.69" height="38.34"/><path class="cls-1" d="M75.78,78.67c-5.5,0-8.84,2.91-11.35,6.14l-.22.28V79.38H53.51v38.34h10.7V96.32c0-5.23,2.87-8,7.11-8s6.88,2.75,6.89,8v21.4H88.9V92.87C88.89,84.06,84,78.68,75.78,78.67Z" transform="translate(-36.72 -62.92)"/><path class="cls-1" d="M123,84.65l-.22-.27a14.62,14.62,0,0,0-11.89-5.71c-9.07,0-17.43,7-17.44,19.81v.14c0,12.83,8.51,19.82,17.44,19.82,5.63,0,9.23-2.63,11.88-6.21l.23-.3v5.79h10.69V63.84H123Zm.14,14c0,6.47-4.29,10.77-9.44,10.79s-9.55-4.32-9.55-10.79v-.14c0-6.53,4.37-10.77,9.55-10.78s9.44,4.32,9.44,10.78Z" transform="translate(-36.72 -62.92)"/><path class="cls-1" d="M220.85,111.66l-6.23-6.31c-2.64,2.48-5.19,4.06-8.86,4.05-6,0-9.91-4.82-9.91-10.78v-.14c0-5.74,3.93-10.63,9.48-10.63,3.88,0,6.36,1.64,8.78,4.18l6.53-7c-3.57-4-8-6.35-15.23-6.35a19.68,19.68,0,0,0-20.11,20v.15a19.56,19.56,0,0,0,20,19.81C212.88,118.58,217.14,115.7,220.85,111.66Z" transform="translate(-36.72 -62.92)"/><path class="cls-1" d="M42.76,62.92a5.92,5.92,0,0,0-6,6v.05a6,6,0,0,0,12-.05v0A5.85,5.85,0,0,0,42.76,62.92Z" transform="translate(-36.72 -62.92)"/><path class="cls-1" d="M163,92.84A2.17,2.17,0,0,0,160.78,95h0a2.25,2.25,0,0,0,4.49,0v0A2.14,2.14,0,0,0,163,92.84Z" transform="translate(-36.72 -62.92)"/><path class="cls-1" d="M161.14,80.65a2.16,2.16,0,0,0-2.25,2.15h0a2.24,2.24,0,0,0,4.48,0v0A2.14,2.14,0,0,0,161.14,80.65Z" transform="translate(-36.72 -62.92)"/><path class="cls-1" d="M165.42,77.24a2.18,2.18,0,0,0-2.25,2.15v0a2.24,2.24,0,0,0,4.48,0h0A2.15,2.15,0,0,0,165.42,77.24Z" transform="translate(-36.72 -62.92)"/><path class="cls-1" d="M157.56,77a2.16,2.16,0,0,0-2.25,2.15h0a2.24,2.24,0,0,0,4.48,0v0A2.14,2.14,0,0,0,157.56,77Z" transform="translate(-36.72 -62.92)"/><path class="cls-1" d="M145,81.74a2.19,2.19,0,0,0-2.26,2.15v0a2.25,2.25,0,0,0,4.49,0h0A2.15,2.15,0,0,0,145,81.74Z" transform="translate(-36.72 -62.92)"/><path class="cls-1" d="M142,86.12a2.18,2.18,0,0,0-2.25,2.15v0A2.14,2.14,0,0,0,142,90.42a2.17,2.17,0,0,0,2.26-2.15v0A2.16,2.16,0,0,0,142,86.12Z" transform="translate(-36.72 -62.92)"/><path class="cls-1" d="M167.93,94.89A2.17,2.17,0,0,0,165.67,97h0a2.25,2.25,0,0,0,4.49,0v0A2.14,2.14,0,0,0,167.93,94.89Z" transform="translate(-36.72 -62.92)"/><path class="cls-1" d="M176.4,105.39a2.19,2.19,0,0,0-2.26,2.15v0a2.25,2.25,0,0,0,4.49,0h0A2.15,2.15,0,0,0,176.4,105.39Z" transform="translate(-36.72 -62.92)"/><path class="cls-1" d="M158.58,112.41a2.16,2.16,0,0,0-2.25,2.15v0a2.24,2.24,0,0,0,4.48,0v0A2.14,2.14,0,0,0,158.58,112.41Z" transform="translate(-36.72 -62.92)"/><path class="cls-1" d="M163.62,110.59a2.16,2.16,0,0,0-2.25,2.14v0a2.15,2.15,0,0,0,2.23,2.14,2.17,2.17,0,0,0,2.25-2.16h0A2.14,2.14,0,0,0,163.62,110.59Z" transform="translate(-36.72 -62.92)"/><path class="cls-1" d="M162.52,115.55a2.16,2.16,0,0,0-2.24,2.15v0a2.14,2.14,0,0,0,2.23,2.13,2.16,2.16,0,0,0,2.25-2.15v0A2.15,2.15,0,0,0,162.52,115.55Z" transform="translate(-36.72 -62.92)"/><path class="cls-1" d="M144.79,98a2.16,2.16,0,0,0-2.25,2.15h0a2.15,2.15,0,0,0,2.23,2.14,2.18,2.18,0,0,0,2.25-2.15v0A2.14,2.14,0,0,0,144.79,98Z" transform="translate(-36.72 -62.92)"/><path class="cls-1" d="M145,92.84A2.17,2.17,0,0,0,142.76,95v0A2.13,2.13,0,0,0,145,97.14,2.16,2.16,0,0,0,147.24,95h0A2.15,2.15,0,0,0,145,92.84Z" transform="translate(-36.72 -62.92)"/><path class="cls-1" d="M140.34,95.19a2.17,2.17,0,0,0-2.26,2.14v0a2.15,2.15,0,0,0,2.24,2.14,2.18,2.18,0,0,0,2.25-2.16h0A2.14,2.14,0,0,0,140.34,95.19Z" transform="translate(-36.72 -62.92)"/><path class="cls-1" d="M161.31,100.19v0a2.37,2.37,0,0,1,2.46-2.34,2.34,2.34,0,0,1,2.43,2.33h0a2.37,2.37,0,0,1-2.45,2.35A2.35,2.35,0,0,1,161.31,100.19Z" transform="translate(-36.72 -62.92)"/><path class="cls-1" d="M164.93,103.13a2.17,2.17,0,0,0-2.25,2.15v0a2.14,2.14,0,0,0,2.23,2.13,2.17,2.17,0,0,0,2.26-2.15h0A2.15,2.15,0,0,0,164.93,103.13Z" transform="translate(-36.72 -62.92)"/><path class="cls-1" d="M150.87,115.81v0a2.45,2.45,0,0,1,4.89,0h0a2.45,2.45,0,0,1-4.89,0Z" transform="translate(-36.72 -62.92)"/><path class="cls-1" d="M151.43,108.77a2.16,2.16,0,0,0-2.25,2.15v0a2.15,2.15,0,0,0,2.23,2.13,2.18,2.18,0,0,0,2.26-2.15v0A2.16,2.16,0,0,0,151.43,108.77Z" transform="translate(-36.72 -62.92)"/><path class="cls-1" d="M178.66,87.58a2.17,2.17,0,0,0-2.25,2.15v0a2.13,2.13,0,0,0,2.23,2.13,2.16,2.16,0,0,0,2.25-2.15h0A2.15,2.15,0,0,0,178.66,87.58Z" transform="translate(-36.72 -62.92)"/><path class="cls-1" d="M178.22,82.69A2.17,2.17,0,0,0,176,84.84v0A2.13,2.13,0,0,0,178.2,87a2.16,2.16,0,0,0,2.25-2.15h0A2.15,2.15,0,0,0,178.22,82.69Z" transform="translate(-36.72 -62.92)"/><path class="cls-1" d="M146.76,110.94a2.17,2.17,0,0,0-2.25,2.15v0a2.14,2.14,0,0,0,2.23,2.13,2.16,2.16,0,0,0,2.25-2.15h0A2.15,2.15,0,0,0,146.76,110.94Z" transform="translate(-36.72 -62.92)"/><path class="cls-1" d="M141.79,108.69a2.16,2.16,0,0,0-2.25,2.14v0a2.15,2.15,0,0,0,2.23,2.14,2.19,2.19,0,0,0,2.26-2.16h0A2.15,2.15,0,0,0,141.79,108.69Z" transform="translate(-36.72 -62.92)"/><path class="cls-1" d="M178.66,100.43a2.17,2.17,0,0,0-2.26,2.15v0a2.15,2.15,0,0,0,2.23,2.13,2.17,2.17,0,0,0,2.26-2.15h0A2.15,2.15,0,0,0,178.66,100.43Z" transform="translate(-36.72 -62.92)"/><path class="cls-1" d="M176.62,93a3.67,3.67,0,0,0-3.81,3.64v0a3.63,3.63,0,0,0,3.78,3.62,3.68,3.68,0,0,0,3.82-3.65v0A3.65,3.65,0,0,0,176.62,93Z" transform="translate(-36.72 -62.92)"/><path class="cls-1" d="M146.55,102.65a3.7,3.7,0,0,0-3.82,3.65v0a3.8,3.8,0,0,0,7.6,0v0A3.64,3.64,0,0,0,146.55,102.65Z" transform="translate(-36.72 -62.92)"/><path class="cls-1" d="M170.49,107.39a3.67,3.67,0,0,0-3.81,3.64v0a3.64,3.64,0,0,0,3.78,3.62,3.68,3.68,0,0,0,3.81-3.65v0A3.63,3.63,0,0,0,170.49,107.39Z" transform="translate(-36.72 -62.92)"/><path class="cls-1" d="M151.22,77.83a3.68,3.68,0,0,0-3.81,3.65v0a3.65,3.65,0,0,0,3.78,3.63A3.7,3.7,0,0,0,155,81.48v0A3.66,3.66,0,0,0,151.22,77.83Z" transform="translate(-36.72 -62.92)"/><path class="cls-1" d="M156.92,84.18a3.69,3.69,0,0,0-3.82,3.65v0a3.8,3.8,0,0,0,7.6,0v0A3.64,3.64,0,0,0,156.92,84.18Z" transform="translate(-36.72 -62.92)"/><path class="cls-1" d="M169.17,81.55a6.33,6.33,0,0,0-6.55,6.27v0a6.25,6.25,0,0,0,6.5,6.23,6.32,6.32,0,0,0,6.55-6.27v0A6.26,6.26,0,0,0,169.17,81.55Zm4,6.27a4,4,0,0,1-8.07,0v0a3.92,3.92,0,0,1,4-3.88,3.88,3.88,0,0,1,4,3.86Z" transform="translate(-36.72 -62.92)"/><path class="cls-1" d="M154.2,92.21a6.32,6.32,0,0,0-6.55,6.26v0a6.53,6.53,0,0,0,13,0v0A6.25,6.25,0,0,0,154.2,92.21Zm4,6.27a3.92,3.92,0,0,1-4.05,3.88,3.88,3.88,0,0,1-4-3.86v0a4,4,0,0,1,8.07,0Z" transform="translate(-36.72 -62.92)"/><path class="cls-1" d="M171.37,99.5a3.7,3.7,0,0,0-3.82,3.65v0a3.65,3.65,0,0,0,3.79,3.62,3.7,3.7,0,0,0,3.82-3.65v0A3.66,3.66,0,0,0,171.37,99.5Zm2,3.65a2,2,0,0,1-4,0h0a1.94,1.94,0,0,1,2-1.92,1.92,1.92,0,0,1,2,1.91Z" transform="translate(-36.72 -62.92)"/><path class="cls-1" d="M158.81,104.4a3.7,3.7,0,0,0-3.82,3.65v0a3.64,3.64,0,0,0,3.79,3.62,3.68,3.68,0,0,0,3.82-3.64v0A3.66,3.66,0,0,0,158.81,104.4Zm2,3.65a1.94,1.94,0,0,1-2,1.92,1.91,1.91,0,0,1-2-1.91h0a2,2,0,0,1,4,0Z" transform="translate(-36.72 -62.92)"/><path class="cls-1" d="M148.59,85.64a3.67,3.67,0,0,0-3.81,3.64v0a3.65,3.65,0,0,0,3.78,3.62,3.7,3.7,0,0,0,3.82-3.66v0A3.65,3.65,0,0,0,148.59,85.64Zm2,3.65a1.94,1.94,0,0,1-2,1.92,1.92,1.92,0,0,1-2-1.91h0a2,2,0,0,1,4,0Z" transform="translate(-36.72 -62.92)"/><path class="cls-2" d="M136.78,141.7v2.83H125V129.28H136.5v2.83h-8v3.31h7.08v2.75h-7.08v3.53Z" transform="translate(-36.72 -62.92)"/><path class="cls-2" d="M139.46,137.82v-8.54H143v8.41c0,2.89,1.26,4.09,3.4,4.09s3.4-1.2,3.4-4.09v-8.41h3.48v8.54c0,4.49-2.57,7-6.9,7S139.46,142.31,139.46,137.82Z" transform="translate(-36.72 -62.92)"/><path class="cls-2" d="M166.47,144.53l-2.94-4.25h-3.24v4.25h-3.53V129.28h6.6c4.07,0,6.62,2.11,6.62,5.53a5,5,0,0,1-3.13,4.82l3.42,4.9Zm-3.31-12.38h-2.87v5.32h2.87c2.16,0,3.25-1,3.25-2.66S165.32,132.15,163.16,132.15Z" transform="translate(-36.72 -62.92)"/><path class="cls-2" d="M171.81,136.9c0-4.53,3.53-7.88,8.35-7.88s8.34,3.33,8.34,7.88-3.55,7.89-8.34,7.89S171.81,141.44,171.81,136.9Zm13.12,0a4.78,4.78,0,1,0-4.77,4.88A4.65,4.65,0,0,0,184.93,136.9Z" transform="translate(-36.72 -62.92)"/><path class="cls-2" d="M204.38,134.81c0,3.4-2.55,5.51-6.62,5.51h-3.07v4.21h-3.53V129.28h6.6C201.83,129.28,204.38,131.39,204.38,134.81Zm-3.57,0c0-1.68-1.09-2.66-3.25-2.66h-2.87v5.3h2.87C199.72,137.45,200.81,136.47,200.81,134.81Z" transform="translate(-36.72 -62.92)"/><path class="cls-2" d="M218.7,141.7v2.83H206.89V129.28h11.52v2.83h-8v3.31h7.09v2.75h-7.09v3.53Z" transform="translate(-36.72 -62.92)"/></g></svg>