<svg xmlns="http://www.w3.org/2000/svg" viewBox="0 0 115.49 33.54"><defs><style>.cls-1{fill:#133d6b;}</style></defs><g id="Layer_1" data-name="Layer 1"><g id="Group_279" data-name="Group 279"><path id="Path_558" data-name="Path 558" class="cls-1" d="M76.35,54.23h-.47a.18.18,0,0,0-.17.17v2.09c0,.61-.31.95-.79.95s-.74-.34-.74-.95V54.41a.18.18,0,0,0-.18-.18h-.47a.18.18,0,0,0-.18.18h0v2c0,1.08.44,1.74,1.34,1.74a1.08,1.08,0,0,0,1-.49v.24a.17.17,0,0,0,.17.18h.48a.17.17,0,0,0,.18-.17h0V54.41a.18.18,0,0,0-.18-.18h0Zm-5.92-.08a1.18,1.18,0,0,0-1.06.52V52.88a.18.18,0,0,0-.18-.18h-.47a.18.18,0,0,0-.18.17h0v5a.17.17,0,0,0,.16.18h.52a.17.17,0,0,0,.18-.17V55.81c0-.62.33-1,.82-1s.8.34.8,1v2.07a.18.18,0,0,0,.18.18h.47a.17.17,0,0,0,.18-.17v-2c0-1-.46-1.75-1.4-1.75ZM71.7,32.79H69.85a.69.69,0,0,0-.69.69h0v8.8c0,2.29-1.11,3.27-2.69,3.27s-2.64-1-2.64-3.27v-8.8a.7.7,0,0,0-.69-.69H61.3a.69.69,0,0,0-.69.69h0v8.8c0,3.89,2.35,6.29,5.86,6.29s5.93-2.4,5.93-6.29v-8.8a.7.7,0,0,0-.68-.69ZM58.77,54.27h-.1a1.18,1.18,0,0,0-1,.57v-.39a.16.16,0,0,0-.16-.18H57a.18.18,0,0,0-.17.17h0v3.47a.17.17,0,0,0,.16.18h.47a.19.19,0,0,0,.19-.18V56.15c0-.74.32-1.1,1-1.1h.1a.17.17,0,0,0,.18-.17h0v-.47a.19.19,0,0,0-.16-.18Zm7,.62a.79.79,0,0,1,.8.68.13.13,0,0,0,.13.11h.53a.12.12,0,0,0,.12-.11h0v-.1a1.58,1.58,0,0,0-1.56-1.28,1.62,1.62,0,0,0-1.63,1.61v.64a1.61,1.61,0,0,0,1.48,1.74h.15a1.53,1.53,0,0,0,1.55-1.23.29.29,0,0,0,0-.13.12.12,0,0,0-.11-.12h-.54a.11.11,0,0,0-.12.1h0a.74.74,0,0,1-.79.68.84.84,0,0,1-.83-.95v-.68c0-.65.37-1,.85-1Zm-4.91.39c0-.32.29-.43.63-.43a.66.66,0,0,1,.74.48c0,.08.05.12.14.12h.48a.13.13,0,0,0,.13-.13h0v-.1a1.36,1.36,0,0,0-1.43-1c-.74,0-1.48.34-1.48,1.13,0,1.55,2.17.91,2.17,1.71,0,.36-.26.49-.74.49a.73.73,0,0,1-.78-.51.13.13,0,0,0-.12-.13h-.49a.15.15,0,0,0-.14.13.17.17,0,0,0,0,.1,1.39,1.39,0,0,0,1.48,1.06c.79,0,1.48-.3,1.48-1.16.13-1.57-2-.93-2-1.77Zm3.46-23.8a1.6,1.6,0,1,0-1.6-1.6h0a1.48,1.48,0,0,0,1.38,1.56h.24Zm4.66,0a1.6,1.6,0,1,0-1.6-1.6h0a1.48,1.48,0,0,0,1.39,1.56H69Zm-11.76,2a.69.69,0,0,0-.69-.69H54.65a.69.69,0,0,0-.69.69h0v10a1.88,1.88,0,0,1-3.75.23.88.88,0,0,1,0-.23v-.2a.69.69,0,0,0-.69-.69H47.74a.69.69,0,0,0-.69.69h0v.16a5.07,5.07,0,1,0,10.13.06v-10Zm-38.6,7.66L24,27A16.81,16.81,0,0,0,7.3,36v.1l-.24.62a6.28,6.28,0,0,0,3.11,8.32l.22.09a6.33,6.33,0,0,0,8.12-3.77h0a1.34,1.34,0,0,0,.07-.18Zm35.36,13a1.62,1.62,0,0,0-1.64,1.61v.64a1.65,1.65,0,0,0,3.3,0v-.5a1.64,1.64,0,0,0-1.51-1.75h-.15Zm.83,2.34c0,.61-.34.95-.83.95s-.81-.34-.81-.95v-.68c0-.62.35-1,.81-1a.86.86,0,0,1,.84.86.38.38,0,0,1,0,.1ZM28.49,44.86a16.15,16.15,0,0,1-18.3,10.47A16.79,16.79,0,1,0,34.28,32c-.18-.19-.37-.38-.57-.56Zm23,7.84h-3a.18.18,0,0,0-.17.18h0v5a.16.16,0,0,0,.16.18H49a.17.17,0,0,0,.18-.17v-2H51a.18.18,0,0,0,.18-.17h0v-.4a.19.19,0,0,0-.18-.19H49.13V53.47h2.31a.19.19,0,0,0,.19-.18v-.41a.19.19,0,0,0-.19-.18Zm63.28,1.53h-.47a.18.18,0,0,0-.18.18h0v2.08c0,.62-.31.95-.78.95s-.74-.33-.74-.95V54.41a.19.19,0,0,0-.19-.18h-.46a.18.18,0,0,0-.18.18h0v2c0,1.08.44,1.74,1.34,1.74a1.1,1.1,0,0,0,1-.49v.24a.17.17,0,0,0,.16.18h.48a.18.18,0,0,0,.18-.17h0V54.41a.17.17,0,0,0-.17-.18h0Zm-7.84-11.44h-2.29c-.44,0-.53.36-.58.69a2.32,2.32,0,0,1-2.53,2.07c-1.62,0-3-1.2-3-3.49v-3c0-2.28,1.31-3.53,3-3.53A2.42,2.42,0,0,1,104,37.72c.07.45.31.6.55.6h2.27a.46.46,0,0,0,.5-.43h0a.49.49,0,0,0,0-.12,5.59,5.59,0,0,0-5.85-5.23c-3.55,0-6.15,2.62-6.15,6.51v3c0,3.89,2.6,6.51,6.15,6.51a5.71,5.71,0,0,0,5.93-5.24.5.5,0,0,0-.51-.49h0Zm3.4,11.44h-.1a1.14,1.14,0,0,0-1,.57v-.39a.18.18,0,0,0-.18-.18h-.43a.18.18,0,0,0-.18.18h0v3.47a.17.17,0,0,0,.16.18H109a.19.19,0,0,0,.19-.18V56.15c0-.74.32-1.1,1-1.1h.11a.17.17,0,0,0,.17-.16h0v-.48a.17.17,0,0,0-.17-.18h0Zm-3.47,0H106v-.81a.19.19,0,0,0-.17-.19h-.46a.19.19,0,0,0-.17.19h0v.33c0,.39-.15.48-.53.48a.18.18,0,0,0-.18.18h0v.35a.18.18,0,0,0,.18.17h.53v1.9c0,.8.27,1.23,1.19,1.23h.4a.17.17,0,0,0,.17-.17h0v-.4a.17.17,0,0,0-.17-.17h-.27c-.46,0-.51-.16-.51-.6V55h.78a.19.19,0,0,0,.17-.19h0v-.39a.17.17,0,0,0-.17-.15Zm13.79-.08a1.34,1.34,0,0,0-1.19.62,1.25,1.25,0,0,0-1.13-.62,1.1,1.1,0,0,0-1,.52v-.26a.19.19,0,0,0-.19-.18h-.5a.18.18,0,0,0-.17.18h0v3.47a.16.16,0,0,0,.16.18h.48a.19.19,0,0,0,.19-.18v-2c0-.62.11-1.08.74-1.08s.74.38.74,1.08v2a.18.18,0,0,0,.17.18h.48a.17.17,0,0,0,.18-.17h0v-2c0-.66.16-1.08.78-1.08s.74.42.74,1.08v2a.16.16,0,0,0,.16.18h.54a.19.19,0,0,0,.19-.18V56c0-1.1-.25-1.86-1.38-1.86Zm-18.51,0a1.16,1.16,0,0,0-1.06.53v-.27a.17.17,0,0,0-.17-.18h-.48a.18.18,0,0,0-.17.17v3.48a.17.17,0,0,0,.16.18h.49a.18.18,0,0,0,.17-.18V55.81c0-.62.34-1,.82-1s.81.34.81,1v2.07a.17.17,0,0,0,.16.18h.46a.18.18,0,0,0,.18-.17h0v-2c0-1-.45-1.75-1.39-1.75Zm19.25-21.36H119.5a.69.69,0,0,0-.69.69h0V39H113.5V33.48a.7.7,0,0,0-.69-.69H111a.68.68,0,0,0-.68.69h0V47.66a.67.67,0,0,0,.68.68h1.85a.68.68,0,0,0,.69-.68h0v-5.6h5.26v5.6a.68.68,0,0,0,.69.68h1.85a.67.67,0,0,0,.68-.68h0V33.48a.69.69,0,0,0-.68-.69h0ZM80,54.15a1.14,1.14,0,0,0-1,.53v-.27a.18.18,0,0,0-.17-.18h-.47a.18.18,0,0,0-.18.18h0v3.47a.16.16,0,0,0,.16.18h.48a.18.18,0,0,0,.18-.17h0V55.81c0-.62.34-1,.82-1s.81.34.81,1v2.07a.17.17,0,0,0,.16.18h.49a.19.19,0,0,0,.18-.18v-2C81.41,54.85,81,54.15,80,54.15Zm4.93,3.17h-1c-.26,0-.37-.08-.37-.28a.26.26,0,0,1,.25-.27h.79a1.29,1.29,0,0,0,1.47-1.07h0a.89.89,0,0,0,0-.23V53.9a.18.18,0,0,0-.17-.18H85.5a.18.18,0,0,0-.18.18h0v.5a1.37,1.37,0,0,0-.78-.25h-.19a1.31,1.31,0,0,0-1.47,1.13h0a1.28,1.28,0,0,0,0,.19,1,1,0,0,0,.49.94.6.6,0,0,0-.52.62.62.62,0,0,0,.35.59.93.93,0,0,0-.52.88,1.19,1.19,0,0,0,1.2,1.18h1a1.19,1.19,0,0,0,.33-2.35h-.31Zm-.55-2.53h.21a.68.68,0,0,1,.72.63.66.66,0,0,1-.58.71h-.35a.63.63,0,0,1-.73-.54h0a.49.49,0,0,1,0-.12.64.64,0,0,1,.62-.68h.12Zm.4,4.24h-.61c-.51,0-.7-.21-.7-.53s.19-.56.7-.56h.6c.52,0,.74.22.74.56s-.2.53-.74.53Zm3.41-3.79c0-.32.29-.42.62-.42a.65.65,0,0,1,.74.47c0,.08,0,.12.13.12h.49a.13.13,0,0,0,.13-.13h0v-.1a1.34,1.34,0,0,0-1.43-1c-.74,0-1.48.33-1.48,1.12,0,1.56,2.17.91,2.17,1.71,0,.36-.26.49-.7.49a.73.73,0,0,1-.78-.51.12.12,0,0,0-.12-.12h-.5a.12.12,0,0,0-.13.12.17.17,0,0,0,0,.1,1.39,1.39,0,0,0,1.52,1.07c.79,0,1.48-.3,1.48-1.17C90.36,55.44,88.19,56.07,88.19,55.24Zm-2.3-7.58V46a.69.69,0,0,0-.69-.69H79.27V33.47a.68.68,0,0,0-.69-.68H76.74a.68.68,0,0,0-.69.68h0V47.66a.68.68,0,0,0,.69.68h8.44a.68.68,0,0,0,.7-.67h0Zm6.11,0V33.48a.7.7,0,0,0-.69-.69H89.46a.69.69,0,0,0-.69.69h0V47.66a.68.68,0,0,0,.69.68H91.3a.68.68,0,0,0,.69-.68h0Zm2.22,6.57H91.69a.19.19,0,0,0-.19.18v.35a.18.18,0,0,0,.18.18h1.75l-1.78,2.28a.43.43,0,0,0-.15.34v.31a.18.18,0,0,0,.18.18h2.54a.17.17,0,0,0,.17-.17h0v-.35a.18.18,0,0,0-.17-.19H92.44l1.84-2.27a.38.38,0,0,0,.11-.3v-.38a.17.17,0,0,0-.15-.15Zm3-.08a1.64,1.64,0,0,0-1.66,1.61v.64a1.64,1.64,0,0,0,1.53,1.74h.13a1.57,1.57,0,0,0,1.48-1,.28.28,0,0,0,0-.13.12.12,0,0,0-.11-.13h-.5a.25.25,0,0,0-.18.11.75.75,0,0,1-.74.47.84.84,0,0,1-.84-.85h0v-.16h2.27a.18.18,0,0,0,.25-.07h0a.27.27,0,0,0,0-.12v-.36a1.65,1.65,0,0,0-1.53-1.73h-.13ZM98,55.84H96.35v-.09a.83.83,0,1,1,1.66,0v.09Z" transform="translate(-6.5 -26.89)"/></g></g></svg>