<svg xmlns="http://www.w3.org/2000/svg" viewBox="0 0 59 59"><defs><style>.cls-1{fill:#315aa2;}.cls-2{fill:#fff;}</style></defs><g id="Layer_1" data-name="Layer 1"><g id="Group_283" data-name="Group 283"><rect id="Rectangle_67" data-name="Rectangle 67" class="cls-1" width="59" height="59"/><g id="Group_282" data-name="Group 282"><path id="Path_625" data-name="Path 625" class="cls-2" d="M83.37,68.31c.52-.6,1.07-1.23,1.45-1.6A2.29,2.29,0,0,1,86.38,66a1.65,1.65,0,0,0-1.86.5c-.25.26-.83.9-1.4,1.56-.22-.23-.43-.48-.63-.68l.6-.63A2.32,2.32,0,0,1,84.65,66a1.65,1.65,0,0,0-1.86.5l-.55.58c-.22-.25-.42-.45-.55-.58a1.63,1.63,0,0,0-1.85-.5,2.31,2.31,0,0,1,1.55.75c.18.18.38.38.6.63-.2.2-.4.45-.63.68-.57-.65-1.15-1.3-1.4-1.56a1.63,1.63,0,0,0-1.85-.5,2.26,2.26,0,0,1,1.55.76c.38.37.93,1,1.46,1.6-.5.52-1,1-1.23,1.33a2.34,2.34,0,0,1-1.38.67s.8.48,1.88-.65a12.56,12.56,0,0,0,1-1.08l.6.7a3.61,3.61,0,0,0-.33.35,2.42,2.42,0,0,1-1.38.68s.8.48,1.88-.65c0,0,.08,0,.1-.1s.08.07.1.1c1.08,1.13,1.88.65,1.88.65a2.45,2.45,0,0,1-1.38-.68c-.1-.12-.21-.24-.32-.35.17-.2.37-.45.6-.7.4.48.75.88.95,1.08,1.1,1.13,1.91.65,1.91.65a2.31,2.31,0,0,1-1.38-.67c-.28-.28-.73-.8-1.23-1.33M82.24,69c-.2-.2-.4-.45-.63-.67l.63-.7.63.7c-.23.22-.43.47-.63.67" transform="translate(-52.97 -14.7)"/><path id="Path_626" data-name="Path 626" class="cls-2" d="M62.24,35.42a.9.9,0,0,0,.9.6,1.57,1.57,0,0,0,.37-.05l.08.08a.58.58,0,0,0,.22.22s0,0,.1,0a.14.14,0,0,0,.13-.08A.16.16,0,0,0,64,36a.54.54,0,0,1-.15-.15l0,0a.86.86,0,0,0,.4-.4.78.78,0,0,0,.05-.65.34.34,0,0,0-.32-.28l0,0a.41.41,0,0,0,0-.18c-.15-.5-.6-.9-.92-.85a.21.21,0,0,0-.2-.05c-.08,0-.1.08-.13.15a.8.8,0,0,0-.22.23,1.27,1.27,0,0,0,0,1,.3.3,0,0,0,0,.15h0a.39.39,0,0,0-.12.42M64,35a.7.7,0,0,1-.05.32.8.8,0,0,1-.5.38.76.76,0,0,1-.3.05.59.59,0,0,1-.55-.3.82.82,0,0,0,.27,0,1.51,1.51,0,0,0,.48-.07A1.37,1.37,0,0,0,64,35m-1.3-1c0-.07.08-.1.1-.1a.35.35,0,0,0,.08,0h.07c.13,0,.5.23.63.63a.77.77,0,0,1,0,.4,1.07,1.07,0,0,1-.38.2,2.35,2.35,0,0,1-.37.05h0a1.66,1.66,0,0,1-.18-.35,1,1,0,0,1,0-.78" transform="translate(-52.97 -14.7)"/><path id="Path_627" data-name="Path 627" class="cls-2" d="M66,38.08a.36.36,0,0,0,.35-.23v0h.18a1.28,1.28,0,0,0,.92-.4.42.42,0,0,0,.18-.27s.1-.08.1-.15a.19.19,0,0,0-.13-.18c-.07-.35-.57-.62-1.12-.62a.25.25,0,0,0-.15,0v0a.44.44,0,0,0-.38-.23.92.92,0,0,0-.65.35,1.3,1.3,0,0,0-.2.43h0l-.2-.1a.15.15,0,0,0-.22,0h0a.16.16,0,0,0,0,.23,1.43,1.43,0,0,0,.27.15l.1,0a1,1,0,0,0,.9,1h0Zm.5-1.56c.43,0,.8.25.8.38s0,.07,0,.1a.09.09,0,0,0,0,.07.35.35,0,0,1-.07.15,1.07,1.07,0,0,1-.7.28,1.75,1.75,0,0,1-.4,0A1.58,1.58,0,0,1,66,37a1,1,0,0,1,.07-.42,1,1,0,0,1,.4-.08m-1.1.5a.93.93,0,0,1,.15-.52.53.53,0,0,1,.33-.2,1.58,1.58,0,0,0,.05,1.45.67.67,0,0,1-.53-.73" transform="translate(-52.97 -14.7)"/><path id="Path_628" data-name="Path 628" class="cls-2" d="M64.22,45.87a.38.38,0,0,0,0-.33.14.14,0,0,0,0-.17.18.18,0,0,0-.15-.1,1.16,1.16,0,0,0-1.3,0l-.13.08s0,0,0,0h0a.86.86,0,0,0-.23-.05.35.35,0,0,0-.2.05.87.87,0,0,0-.4.63,1,1,0,0,0,.05.45s0,0-.05,0-.15,0-.2,0a.15.15,0,0,0-.17.15.15.15,0,0,0,.11.18h.14l.2,0c.05,0,.07,0,.1,0a1.08,1.08,0,0,0,.87.58,1.06,1.06,0,0,0,.46-.13.36.36,0,0,0,.17-.37v0a.28.28,0,0,0,.15-.08,1.25,1.25,0,0,0,.6-.8m-1.29-.3c.38-.23.83-.18.88-.08l.08.08a.06.06,0,0,0,0,.07.2.2,0,0,1,0,.15,1.12,1.12,0,0,1-.85.75.87.87,0,0,1-.28-.32.76.76,0,0,1-.15-.4,1.18,1.18,0,0,1,.3-.25m-.7,1a1,1,0,0,1-.12-.55.46.46,0,0,1,.17-.35,1.57,1.57,0,0,0,.23.72,1.68,1.68,0,0,0,.53.53.66.66,0,0,1-.8-.35" transform="translate(-52.97 -14.7)"/><path id="Path_629" data-name="Path 629" class="cls-2" d="M58.6,46.22a.41.41,0,0,0,.13.1,0,0,0,0,0,0,0h0a.45.45,0,0,0,.1.43.89.89,0,0,0,.58.22,1.21,1.21,0,0,0,.83-.38s0,0,.07.06l.33.07a.18.18,0,0,0,.17-.15c0-.08-.07-.18-.15-.18a.35.35,0,0,1-.2-.05s0,0,0,0a1,1,0,0,0,.15-.53.74.74,0,0,0-.27-.6A.4.4,0,0,0,60,45.1c-.07,0-.12,0-.12,0h0s-.07-.08-.12-.1a1.15,1.15,0,0,0-1.26-.3.22.22,0,0,0-.17,0,.21.21,0,0,0-.05.2.61.61,0,0,0-.08.32,1.58,1.58,0,0,0,.45.9m1.6-.4a.79.79,0,0,1-.25.58.79.79,0,0,1-.57.28.39.39,0,0,1-.28-.1,1.58,1.58,0,0,0,1-1.06.42.42,0,0,1,.1.3m-1.68-.67s0,0,0-.08a.1.1,0,0,0,.07,0c.1-.1.55-.05.85.25a.9.9,0,0,1,.25.33,1.86,1.86,0,0,1-.22.35c-.11.1-.23.19-.35.28a3.88,3.88,0,0,1-.33-.23,1.1,1.1,0,0,1-.35-.7.2.2,0,0,1,.05-.15" transform="translate(-52.97 -14.7)"/><path id="Path_630" data-name="Path 630" class="cls-2" d="M65.6,54.92a.43.43,0,0,0-.15-.27.3.3,0,0,0-.08-.18.18.18,0,0,0-.2,0,1.19,1.19,0,0,0-1.13.65.54.54,0,0,0-.07.13h-.08a.37.37,0,0,0-.32.2.89.89,0,0,0,.2,1.12l0,0a.42.42,0,0,1-.17.1.19.19,0,0,0-.1.23.21.21,0,0,0,.15.1l.07,0a2.61,2.61,0,0,0,.28-.17s0-.06.07-.06a1.28,1.28,0,0,0,.6.16.83.83,0,0,0,.75-.43.38.38,0,0,0,0-.43s0,0,0,0a.54.54,0,0,0,.07-.13,1.26,1.26,0,0,0,.15-1m-1.27.35c.22-.37.65-.55.75-.5s.05,0,.07,0,0,0,.08,0,0,.05.07.13a1.17,1.17,0,0,1-.12.78,1.81,1.81,0,0,1-.25.3,1.74,1.74,0,0,1-.4-.15,1,1,0,0,1-.33-.28,1,1,0,0,1,.13-.37m-.13,1.2a.68.68,0,0,1-.38-.8,1.39,1.39,0,0,0,.53.52,1.26,1.26,0,0,0,.73.2.64.64,0,0,1-.88.08" transform="translate(-52.97 -14.7)"/><path id="Path_631" data-name="Path 631" class="cls-2" d="M62.91,57.18a.14.14,0,0,0-.17-.09h0a.46.46,0,0,1-.2,0h0a.9.9,0,0,0-.1-.45.73.73,0,0,0-.55-.47.37.37,0,0,0-.4.12l0,0-.15-.05A1.11,1.11,0,0,0,60,56.7a.18.18,0,0,0-.15.13.29.29,0,0,0,0,.2.67.67,0,0,0,.1.3,1.24,1.24,0,0,0,.83.57A.88.88,0,0,0,61,58v0a.43.43,0,0,0,.3.3.55.55,0,0,0,.22,0,1,1,0,0,0,.93-.82h.1l.3-.08a.16.16,0,0,0,.07-.22m-2.63,0a.3.3,0,0,1-.05-.15c0-.05,0-.08,0-.1s.05,0,.05-.08.45-.3.88-.2a1.27,1.27,0,0,1,.37.18,1.1,1.1,0,0,1-.05.4.88.88,0,0,1-.17.4,1.12,1.12,0,0,1-1-.45m1.83.22a.67.67,0,0,1-.6.58h-.07a1.42,1.42,0,0,0,.37-.65,2,2,0,0,0,0-.78.69.69,0,0,1,.28.28.86.86,0,0,1,0,.57" transform="translate(-52.97 -14.7)"/><path id="Path_632" data-name="Path 632" class="cls-2" d="M70.76,64.3h0a1,1,0,0,0,1-.85v0a.36.36,0,0,0-.22-.38h0s0-.12,0-.17a1.59,1.59,0,0,0-.35-1,.76.76,0,0,0-.28-.15s-.1-.12-.18-.12-.12,0-.17.1a1.14,1.14,0,0,0-.65,1.1V63h0a.36.36,0,0,0-.22.36A.76.76,0,0,0,70,64a1,1,0,0,0,.42.2s0,0,0,.05a1,1,0,0,1-.1.18.15.15,0,0,0,0,.22h0a.16.16,0,0,0,.1,0,.16.16,0,0,0,.13-.07.69.69,0,0,0,.15-.28s0-.07.05-.1m-.08-2.23h0s.08,0,.1,0a.11.11,0,0,0,.08,0,.2.2,0,0,1,.12.08,1.06,1.06,0,0,1,.2,1.12,1.49,1.49,0,0,1-.42.08l-.43-.08a2,2,0,0,1,0-.42c0-.43.28-.78.4-.78M70,63.46a1.63,1.63,0,0,0,.75.18,1.22,1.22,0,0,0,.7-.18.67.67,0,0,1-.73.5.81.81,0,0,1-.55-.18.4.4,0,0,1-.17-.32" transform="translate(-52.97 -14.7)"/><path id="Path_633" data-name="Path 633" class="cls-2" d="M69.81,65.35a.54.54,0,0,1-.15.15l0,0a.92.92,0,0,0-.82-.52.46.46,0,0,0-.2,0c-.23,0-.3.2-.3.3v0a.88.88,0,0,1-.15,0c-.5.13-.93.56-.9.9a.17.17,0,0,0-.05.2.2.2,0,0,0,.12.13.45.45,0,0,0,.25.22,1.15,1.15,0,0,0,.63.15.78.78,0,0,0,.37,0,.25.25,0,0,0,.15,0v0a.42.42,0,0,0,.3.15.28.28,0,0,0,.13,0,.78.78,0,0,0,.5-.37,1.18,1.18,0,0,0,.1-.88s0,0,.07,0a.63.63,0,0,0,.23-.23.14.14,0,0,0,0-.2l0,0a.2.2,0,0,0-.22,0m-1.33,1.33a1,1,0,0,1-.75-.07c-.08,0-.1-.08-.1-.1s0-.08,0-.08v-.1c0-.12.25-.47.65-.6a1.08,1.08,0,0,1,.4,0,.65.65,0,0,1,.18.37,1.58,1.58,0,0,1,0,.43,1.46,1.46,0,0,1-.38.18m.9-.15a.59.59,0,0,1-.25.22,1.2,1.2,0,0,0,0-.75,1.7,1.7,0,0,0-.38-.68.69.69,0,0,1,.68.58.75.75,0,0,1-.05.62" transform="translate(-52.97 -14.7)"/><path id="Path_634" data-name="Path 634" class="cls-2" d="M79.56,68.64c.1,0,.2,0,.22-.08v-.07c0-.08,0-.15-1-.35,0-.38,0-1.18-.48-1.48a.63.63,0,0,0-.3-.1.57.57,0,0,0-.5.37l-.07.1a1.51,1.51,0,0,1-.1-.42l0-.18a1.17,1.17,0,0,0-.77-1.1.6.6,0,0,0-.23,0c-.45,0-.58.42-.65.67a.66.66,0,0,1-.13.28,1.78,1.78,0,0,1-.07-.65v-.15c0-.83-.4-1.33-1.08-1.33a.55.55,0,0,0-.22,0,.68.68,0,0,0-.46.23,1.13,1.13,0,0,0-.12,1c0,.13,0,.28,0,.35a.09.09,0,0,1-.07,0c-.13,0-.23-.13-.38-.38a1.22,1.22,0,0,0-1.1-.72,1.4,1.4,0,0,0-1.15.7,1.31,1.31,0,0,0-.1,1.35,1.26,1.26,0,0,0,1.18.62h.25c.33,0,.45.1.5.23a1.49,1.49,0,0,1-.3.18c-.28.15-.63.3-.7.62a.75.75,0,0,0,.12.58,1.41,1.41,0,0,0,1.13.63,1.5,1.5,0,0,0,1-.43s.08-.1.13-.12c.17-.18.4-.38.55-.38h.05s-.05.17-.08.25a1,1,0,0,0-.07.73.68.68,0,0,0,.47.37,1.26,1.26,0,0,0,.43.08,1.34,1.34,0,0,0,1-.53l0,0,.15-.15c.15-.18.23-.28.33-.28v.1c0,.2.1.68.68.6s.8-.45,1-1.18c.3,0,.6.07.9.08m-2,.63h-.1s0-.13,0-.18,0-.45-.33-.5a.4.4,0,0,0-.15,0,.94.94,0,0,0-.7.43.47.47,0,0,1-.13.15l0,0a.89.89,0,0,1-.65.37,1.26,1.26,0,0,1-.28-.05c-.1,0-.17-.07-.17-.12a.62.62,0,0,1,.07-.33.65.65,0,0,0-.07-.83.58.58,0,0,0-.36-.12,1.47,1.47,0,0,0-.87.52s-.08.08-.13.1a1,1,0,0,1-.7.3.86.86,0,0,1-.72-.4.38.38,0,0,1-.08-.17c0-.1.3-.23.48-.33s.7-.32.55-.73a1,1,0,0,0-1-.57H72a.78.78,0,0,1-.93-.59.75.75,0,0,1,.15-.66.94.94,0,0,1,.76-.48.79.79,0,0,1,.67.48,1,1,0,0,0,.8.62,1,1,0,0,0,.3-.05c.3-.15.25-.52.23-.85s-.08-.5,0-.6,0-.05.13-.05h.17c.15,0,.58,0,.6.85v.1a1.38,1.38,0,0,0,.2,1,.5.5,0,0,0,.4.13c.35,0,.45-.36.53-.6s.15-.38.3-.33c.3.07.38.38.43.7l0,.18c0,.37.1.75.55.85h.07c.23,0,.33-.2.43-.33s.08-.15.1-.15h0c.1.08.27.3.27,1L77.88,68a28.54,28.54,0,0,1-4.79-1.48c-.25-.1-.25-.1-.28-.1l0,0s0,0,0,0h0v.05a17.47,17.47,0,0,0,5.06,1.9l.38.07c-.23.6-.48.75-.63.78" transform="translate(-52.97 -14.7)"/><path id="Path_635" data-name="Path 635" class="cls-2" d="M65,35.35l0,0,0,0h.08s.08,0,.3-.25a2.75,2.75,0,0,0,1.08.35A.82.82,0,0,0,67,35.4a.47.47,0,0,0,.25-.3.63.63,0,0,0-.13-.53.35.35,0,0,0,0-.08.84.84,0,0,1,.38.08l.2.07a1.74,1.74,0,0,0,.6.13.84.84,0,0,0,.7-.33.69.69,0,0,0,.2-.45.84.84,0,0,0-.38-.6,2.3,2.3,0,0,1-.17-.2s0,0,0,0a2,2,0,0,1,.57.22l.1,0c.83.4,1.5.18,1.73-.55a.59.59,0,0,0,0-.52,1.15,1.15,0,0,0-.77-.5l-.33-.13c0-.1.07-.25.5-.25a1.26,1.26,0,0,0,1.13-.6,1.41,1.41,0,0,0-.1-1.35,1.26,1.26,0,0,0-1.1-.7,1.3,1.3,0,0,0-1.18.85c-.18.4-.3.47-.45.47a1.66,1.66,0,0,1,0-.32,1.3,1.3,0,0,0-.2-.9.63.63,0,0,0-.45-.18l-.15,0a1.33,1.33,0,0,0-1.2,1.45,1.36,1.36,0,0,0,.07.35.34.34,0,0,1,0,.17c.1.33.18.6.08.68a.64.64,0,0,1-.2-.2.82.82,0,0,0-.63-.38.74.74,0,0,0-.52.25,1.28,1.28,0,0,0-.23,1.46l0,0a1.21,1.21,0,0,0,.05.18c.1.25.12.35.1.4a.17.17,0,0,1-.1,0,1.3,1.3,0,0,0-.33-.07.52.52,0,0,0-.5.38c-.18.45.05.95.63,1.52-.18.28-.15.33-.15.38m0-1.73s0,0,0,0a.41.41,0,0,1,.18,0,.86.86,0,0,0,.27.05.41.41,0,0,0,.33-.15.83.83,0,0,0,0-.93.88.88,0,0,1,0-.15l0,0a.76.76,0,0,1,.13-.92c.1-.1.15-.13.17-.13s.18.13.26.23.3.35.55.35a.49.49,0,0,0,.2-.05c.52-.23.35-.83.22-1.23a.65.65,0,0,1,0-.2.86.86,0,0,1,0-.75,1,1,0,0,1,.68-.43h.07c.08,0,.1,0,.1,0s.08.35.08.55,0,.78.4.8c.55.07.8-.35,1-.75a.75.75,0,0,1,.94-.52.74.74,0,0,1,.49.42.9.9,0,0,1,.07.87.77.77,0,0,1-.7.36c-.77,0-1,.4-1,.72s.36.48.63.58.45.15.5.25,0,0,0,.18c-.12.37-.35.42-.5.42a1.38,1.38,0,0,1-.57-.15L69.43,33a1.9,1.9,0,0,0-.8-.27.51.51,0,0,0-.5.3c-.15.32.13.57.3.75s.23.2.23.27,0,0-.08.1a.36.36,0,0,1-.35.15,2.34,2.34,0,0,1-.45-.07l-.2-.08a2.15,2.15,0,0,0-.5-.12.55.55,0,0,0-.45.22c-.18.23,0,.45.05.6a.56.56,0,0,0,.1.15s0,0,0,0a.44.44,0,0,1-.2,0,1.81,1.81,0,0,1-.75-.22c.18-.2.4-.48.68-.83A29.16,29.16,0,0,1,70,30.56h0c.3-.22.3-.22.3-.25v0l0-.05h0c-.05,0-.05,0-.35.23a19.8,19.8,0,0,0-3.76,3.26c-.3.37-.53.65-.68.87-.5-.52-.5-.8-.45-1" transform="translate(-52.97 -14.7)"/><path id="Path_636" data-name="Path 636" class="cls-2" d="M67.58,64.67h0a1.81,1.81,0,0,0,1.15-.57,1.11,1.11,0,0,0,.37.2c.05,0,.08,0,.1,0v0l0,0s0-.08-.25-.35c.15-.28.63-1.06.32-1.58a.46.46,0,0,0-.42-.28.82.82,0,0,0-.4.13.35.35,0,0,0-.08.05,1.67,1.67,0,0,1,.1-.4l.08-.18a1.14,1.14,0,0,0-.15-1.3.58.58,0,0,0-.45-.22,1,1,0,0,0-.63.35l-.2.17c-.05-.1.18-.5.25-.62l0-.1a1.4,1.4,0,0,0,.15-1.16,1,1,0,0,0-.63-.6,1.34,1.34,0,0,0-.3,0c-.45,0-.65.45-.77.8a1.4,1.4,0,0,1-.15.3c-.1,0-.2-.1-.23-.47a1.18,1.18,0,0,0-.32-1,1.3,1.3,0,0,0-1.58-.15,1.25,1.25,0,0,0-.73,1.1,1.43,1.43,0,0,0,.8,1.2c.4.17.48.3.45.45h-.6a.86.86,0,0,0-.68.23.63.63,0,0,0-.12.55A1.29,1.29,0,0,0,64,62.34a1,1,0,0,0,.42-.08l.2,0a2.22,2.22,0,0,1,.5-.1c.13,0,.15,0,.15,0s-.1.12-.17.2a.83.83,0,0,0-.4.55.78.78,0,0,0,.2.58,1.13,1.13,0,0,0,.88.4,3.78,3.78,0,0,0,.57-.1l0,0a.61.61,0,0,1,.18,0,1.19,1.19,0,0,1,.32-.1.11.11,0,0,1,.08,0s0,.07,0,.1-.23.62.3.82a.61.61,0,0,0,.3.08m-.63-1.5a1.71,1.71,0,0,0-.5.1l-.15.07h-.05a1,1,0,0,1-.43.1.61.61,0,0,1-.5-.22.54.54,0,0,1-.1-.2c0-.08.13-.18.23-.25s.48-.38.33-.73a.59.59,0,0,0-.6-.4,2.61,2.61,0,0,0-.63.13.41.41,0,0,0-.18,0l-.32,0c-.45,0-.76-.28-.83-.83a.16.16,0,0,1,0-.15s.08-.07.3-.07h.26a.58.58,0,0,0,.23,0c.37,0,.57-.12.6-.37.1-.58-.35-.85-.73-1a.9.9,0,0,1-.53-.75.78.78,0,0,1,.48-.68.84.84,0,0,1,1,.05.74.74,0,0,1,.2.63c0,.6.25.92.7,1h0c.33,0,.46-.35.58-.63s.2-.5.33-.5l.12,0a.56.56,0,0,1,.35.32,1,1,0,0,1-.12.75l0,.1a1.5,1.5,0,0,0-.3,1,.57.57,0,0,0,.27.3.49.49,0,0,0,.2.05.89.89,0,0,0,.55-.3c.08-.1.2-.22.28-.22s0,0,.1.1c.23.22.15.5.05.77l-.07.2c-.13.33-.26.66,0,1a.69.69,0,0,0,.25.1.93.93,0,0,0,.35-.13l.15-.07,0,.05c0,.07.1.32-.27,1l-.76-.7A26.9,26.9,0,0,1,64.51,59c-.15-.2-.15-.2-.2-.2h0s-.05,0-.05.08a18.59,18.59,0,0,0,3.31,4.23,7.56,7.56,0,0,0,.8.7,1.34,1.34,0,0,1-.78.38h-.12l-.08,0a1.21,1.21,0,0,0,0-.18.48.48,0,0,0,0-.6.63.63,0,0,0-.45-.17" transform="translate(-52.97 -14.7)"/><path id="Path_637" data-name="Path 637" class="cls-2" d="M60.51,54.09l.22,0c.25.05.33.07.38.12l-.08.08a.57.57,0,0,0-.23.77l.06.08a1.1,1.1,0,0,0,.9.38,3.5,3.5,0,0,0,.65-.08c.17.35.25.35.28.35s.07,0,.07,0l.05,0s0-.07-.05-.42c.3-.2,1-.63,1-1.2a.54.54,0,0,0-.15-.38.65.65,0,0,0-.5-.15H63c0-.07.07-.12.27-.3l.16-.12A1.13,1.13,0,0,0,64,52a.58.58,0,0,0-.6-.48,1.14,1.14,0,0,0-.4.08l-.25,0s0,0,0,0h0c0-.1.35-.3.5-.4l.1,0a1.41,1.41,0,0,0,.72-.93,1.06,1.06,0,0,0-.27-.85.65.65,0,0,0-.53-.27,1.5,1.5,0,0,0-.78.4,1.89,1.89,0,0,1-.27.2c-.08,0-.15-.16.07-.56a1.22,1.22,0,0,0,.08-1.24,1.43,1.43,0,0,0-1.2-.67h-.08a1.23,1.23,0,0,0-1.13.62,1.34,1.34,0,0,0,.15,1.4c.26.36.2.53.13.66l-.28-.18a1.36,1.36,0,0,0-.72-.3.64.64,0,0,0-.6.45,1.34,1.34,0,0,0,1,1.88.48.48,0,0,0,.18,0c.35.1.6.17.6.3l-.26.08a.79.79,0,0,0-.62.3.78.78,0,0,0-.08.6,1.23,1.23,0,0,0,1.1,1ZM59.86,53c0-.15,0-.23,0-.23s.2-.07.3-.1.62-.1.65-.48c0-.57-.53-.72-1-.85l-.15,0a1,1,0,0,1-.62-.48,1,1,0,0,1,0-.78c.08-.15.13-.15.15-.15a1.2,1.2,0,0,1,.45.23,1.38,1.38,0,0,0,.6.25.41.41,0,0,0,.33-.15,1.1,1.1,0,0,0-.1-1.25.83.83,0,0,1-.13-.9.78.78,0,0,1,.7-.38h.05a.91.91,0,0,1,.8.43.7.7,0,0,1,0,.75c-.12.2-.47.83.08,1.23a.88.88,0,0,0,.23.07,1,1,0,0,0,.6-.32c.15-.13.35-.3.47-.3s.08,0,.15.1a.6.6,0,0,1,.18.47.9.9,0,0,1-.5.58l-.1.07c-.3.18-.68.4-.73.7a.47.47,0,0,0,.1.4.41.41,0,0,0,.4.2,1,1,0,0,0,.38-.07,1.28,1.28,0,0,1,.27,0c.08,0,.1,0,.15.12.08.3-.15.5-.37.73l-.15.1c-.28.23-.55.48-.43.88s.38.27.55.27.13,0,.15,0v0c0,.1-.1.36-.67.73-.1-.25-.2-.57-.36-1a30.12,30.12,0,0,1-1-4.71c-.07-.5-.07-.5-.15-.5l-.05,0a18.23,18.23,0,0,0,.8,5.34l.38,1a2.61,2.61,0,0,1-.48,0,.63.63,0,0,1-.5-.17s0-.08,0-.08.1-.1.13-.12.35-.28.25-.55-.45-.45-.78-.5c0,0-.12,0-.2,0l0,0a.75.75,0,0,1-.73-.58" transform="translate(-52.97 -14.7)"/><path id="Path_638" data-name="Path 638" class="cls-2" d="M60.08,42.71l0,0a.44.44,0,0,1,.15.12c.22.15.27.23.27.3a.11.11,0,0,0-.07,0,.56.56,0,0,0-.58.65c0,.45.45.78,1.23,1,0,.3,0,.35,0,.38s.05.05.07.05h0c.05,0,.1,0,.18-.35.35,0,1.17-.05,1.5-.55A.51.51,0,0,0,63,44a.64.64,0,0,0-.36-.38s-.05,0-.07-.05.13-.08.38-.1l.17,0a1.17,1.17,0,0,0,1-.8c.15-.63-.4-.78-.67-.85l-.25-.08v0a1.43,1.43,0,0,1,.65-.1H64A1.31,1.31,0,0,0,65,41.09a1,1,0,0,0,.2-.88.64.64,0,0,0-.7-.58h0a4,4,0,0,0-.47,0,1,1,0,0,1-.3,0h0c0-.1,0-.25.33-.45a1.3,1.3,0,0,0,.68-1.05A1.49,1.49,0,0,0,64,37.05a1.27,1.27,0,0,0-1.6.18,1.37,1.37,0,0,0-.33,1.08c0,.42,0,.57-.17.65a2.38,2.38,0,0,1-.18-.3c-.17-.3-.37-.7-.78-.7a.67.67,0,0,0-.42.2,1.29,1.29,0,0,0-.58,1,1.38,1.38,0,0,0,.48,1.07.44.44,0,0,0,.12.15c.25.23.45.43.35.53l-.25,0a1.23,1.23,0,0,0-.42-.1c-.23,0-.48.08-.63.53a1.32,1.32,0,0,0,.5,1.4m0-1.26c0-.2.12-.2.15-.2a.65.65,0,0,1,.27.08,1.12,1.12,0,0,0,.4.1.48.48,0,0,0,.4-.2c.35-.45-.1-.88-.4-1.18l-.15-.15a1,1,0,0,1-.33-.7,1,1,0,0,1,.4-.68.23.23,0,0,1,.13-.07c.12,0,.28.27.35.45s.3.55.6.55l.15,0a1,1,0,0,0,.5-1.16,1,1,0,0,1,.2-.72.77.77,0,0,1,1-.08.91.91,0,0,1,.48.75.74.74,0,0,1-.43.63c-.68.38-.6.85-.5,1.1a.44.44,0,0,0,.45.25,2.57,2.57,0,0,0,.4-.05,2.47,2.47,0,0,1,.38,0c.2,0,.22,0,.25.18a.64.64,0,0,1-.1.5,1,1,0,0,1-.7.27h-.08a1.38,1.38,0,0,0-1,.25.59.59,0,0,0-.15.4c.05.35.4.43.63.5.38.1.38.13.33.28s-.35.37-.66.42l-.2.05c-.35,0-.7.13-.77.56-.05.27.17.4.32.5l.15.07s0,0,0,0h0c-.08.1-.28.27-1,.3.08-.25.13-.6.23-1.08a24.69,24.69,0,0,1,1.43-4.54c.2-.5.2-.5.15-.55l-.05,0a15.6,15.6,0,0,0-2,5,10.09,10.09,0,0,0-.18,1.1c-.65-.2-.8-.45-.8-.57s0-.08,0-.08a.41.41,0,0,1,.18-.05c.18,0,.43-.1.48-.38s-.18-.6-.43-.82a1.3,1.3,0,0,0-.15-.1l0,0a.77.77,0,0,1-.36-.87" transform="translate(-52.97 -14.7)"/><path id="Path_639" data-name="Path 639" class="cls-2" d="M100.66,35.82l0,0a.54.54,0,0,1-.15.15.15.15,0,0,0,0,.22.13.13,0,0,0,.12.08s.08,0,.1,0a.69.69,0,0,0,.23-.22L101,36a1.65,1.65,0,0,0,.38.05.91.91,0,0,0,.9-.6.38.38,0,0,0-.13-.42h0a.44.44,0,0,0,0-.15,1.36,1.36,0,0,0,0-1,.84.84,0,0,0-.23-.23.19.19,0,0,0-.12-.15.21.21,0,0,0-.2.05,1.13,1.13,0,0,0-.93.85.44.44,0,0,0,0,.15h0a.37.37,0,0,0-.33.28.9.9,0,0,0,.1.75.84.84,0,0,0,.35.3m.25-1.38c.13-.4.5-.67.63-.62h.07s0,0,.08,0,.07,0,.1.1a1,1,0,0,1,0,.77,1.22,1.22,0,0,1-.18.36h0l-.37-.05a1.07,1.07,0,0,1-.38-.2.77.77,0,0,1,0-.4m-.43.5a1.4,1.4,0,0,0,.66.4,1.84,1.84,0,0,0,.47.07l.28,0a.6.6,0,0,1-.55.3.93.93,0,0,1-.75-.38.43.43,0,0,1-.1-.38" transform="translate(-52.97 -14.7)"/><path id="Path_640" data-name="Path 640" class="cls-2" d="M99.43,37.05l.1,0a1.25,1.25,0,0,0,.28-.15.16.16,0,0,0,0-.23h0a.16.16,0,0,0-.22,0h0a1.24,1.24,0,0,1-.2.1h0a.93.93,0,0,0-.88-.77.38.38,0,0,0-.35.22v0a.25.25,0,0,0-.15,0c-.52,0-1,.27-1.13.62-.05,0-.12.08-.12.15a.17.17,0,0,0,.1.18.47.47,0,0,0,.18.28,1.32,1.32,0,0,0,.92.4h.18s0,0,0,0a.36.36,0,0,0,.35.23h0a1,1,0,0,0,.91-1h0M98,37.5a1,1,0,0,1-.7-.28.35.35,0,0,1-.07-.15.11.11,0,0,0,0-.07s0,0,0-.1.37-.38.8-.38a1.14,1.14,0,0,1,.4.08,1,1,0,0,1,.07.42,1.58,1.58,0,0,1-.1.43,1.75,1.75,0,0,1-.4,0m.6.25a1.58,1.58,0,0,0,0-1.45.64.64,0,0,1,.48.72.66.66,0,0,1-.53.73" transform="translate(-52.97 -14.7)"/><path id="Path_641" data-name="Path 641" class="cls-2" d="M101.19,47.18a.89.89,0,0,0,.45.12,1.1,1.1,0,0,0,.88-.57s0,0,.1,0a.64.64,0,0,0,.2,0h.12a.16.16,0,0,0,.13-.17h0c0-.1-.08-.15-.18-.15a.66.66,0,0,1-.2,0s0,0,0,0a.85.85,0,0,0,0-.45.78.78,0,0,0-.4-.62.29.29,0,0,0-.2-.05.54.54,0,0,0-.22.05s0,0,0,0h0l-.13-.07a1.1,1.1,0,0,0-1.27,0,.21.21,0,0,0-.18.1.15.15,0,0,0,0,.18.36.36,0,0,0,0,.32,1.29,1.29,0,0,0,.6.8.22.22,0,0,0,.15.08v0a.36.36,0,0,0,.18.37M102.37,46a1,1,0,0,1-.13.55.64.64,0,0,1-.8.35,1.75,1.75,0,0,0,.53-.52,1.56,1.56,0,0,0,.22-.73.48.48,0,0,1,.18.35m-1.8-.22a.38.38,0,0,1,0-.15.08.08,0,0,0,0-.08.1.1,0,0,0,0-.07.9.9,0,0,1,.9.07.91.91,0,0,1,.3.25.7.7,0,0,1-.15.4,1,1,0,0,1-.27.33,1.26,1.26,0,0,1-.38-.15,1,1,0,0,1-.48-.6" transform="translate(-52.97 -14.7)"/><path id="Path_642" data-name="Path 642" class="cls-2" d="M104.65,45.15h0s-.05,0-.12,0a.36.36,0,0,0-.28.12.78.78,0,0,0-.28.6,1.2,1.2,0,0,0,.15.53s0,0,0,0a.46.46,0,0,1-.2.05c-.07,0-.15.1-.15.18a.19.19,0,0,0,.18.15l.33-.08s0-.05.07-.05a1.19,1.19,0,0,0,.83.38.85.85,0,0,0,.57-.22.43.43,0,0,0,.1-.43l0,0a.29.29,0,0,0,.12-.1,1.47,1.47,0,0,0,.45-.9.6.6,0,0,0-.07-.32.21.21,0,0,0,0-.2.23.23,0,0,0-.18,0,1.1,1.1,0,0,0-1.25.3s-.07.07-.12.1m-.13,1.25a.79.79,0,0,1-.25-.58.42.42,0,0,1,.1-.3,1.58,1.58,0,0,0,1,1.06.66.66,0,0,1-.85-.18M105.85,45a.1.1,0,0,0,.07,0s0,0,0,.08a.25.25,0,0,1,0,.15,1.17,1.17,0,0,1-.35.7l-.33.22A3,3,0,0,1,105,46a2.64,2.64,0,0,1-.23-.35,1,1,0,0,1,.25-.33c.3-.3.76-.35.86-.25" transform="translate(-52.97 -14.7)"/><path id="Path_643" data-name="Path 643" class="cls-2" d="M100.91,55.45a.37.37,0,0,0-.32-.2h-.08a.54.54,0,0,0-.07-.13,1.19,1.19,0,0,0-1.13-.65.15.15,0,0,0-.18,0,.2.2,0,0,0-.1.18.59.59,0,0,0-.17.27,1.45,1.45,0,0,0,.17,1,.57.57,0,0,0,.08.13s0,0,0,0a.38.38,0,0,0,0,.43.81.81,0,0,0,.76.42,1.27,1.27,0,0,0,.6-.15s0,0,.07,0a1.67,1.67,0,0,0,.28.18l.07,0a.18.18,0,0,0,.15-.1.18.18,0,0,0-.1-.22.42.42,0,0,1-.17-.1l0,0a.89.89,0,0,0,.2-1.12M99.18,55c0-.07,0-.12.08-.12l0,0s.07,0,.1,0,.52.1.75.48a1.26,1.26,0,0,1,.13.37.88.88,0,0,1-.33.28,1.49,1.49,0,0,1-.4.15,1.42,1.42,0,0,1-.25-.3,1.17,1.17,0,0,1-.13-.78m1.1,1.48a.79.79,0,0,1-.45.13.46.46,0,0,1-.42-.2,1.23,1.23,0,0,0,.72-.2,1.29,1.29,0,0,0,.53-.53.67.67,0,0,1-.38.8" transform="translate(-52.97 -14.7)"/><path id="Path_644" data-name="Path 644" class="cls-2" d="M104.47,56.7a1.11,1.11,0,0,0-1.23-.37.33.33,0,0,1-.15.05l0,0a.38.38,0,0,0-.4-.12.75.75,0,0,0-.55.47.91.91,0,0,0-.1.46h0l-.2,0a.13.13,0,0,0-.19,0s0,0,0,0a.18.18,0,0,0,.07.23l.3.07h.1a1,1,0,0,0,.93.83.91.91,0,0,0,.23,0,.45.45,0,0,0,.3-.3v0a.88.88,0,0,1,.15-.05,1.42,1.42,0,0,0,.82-.58.63.63,0,0,0,.1-.3.21.21,0,0,0,.05-.2c0-.07-.07-.1-.15-.12m-2.1.7a.89.89,0,0,1,0-.58.75.75,0,0,1,.28-.28,2,2,0,0,0,0,.78A1.37,1.37,0,0,0,103,58c-.32.05-.57-.2-.67-.57m1.83-.23a1.1,1.1,0,0,1-1,.45.91.91,0,0,1-.18-.4.34.34,0,0,1,0-.49.33.33,0,0,1,.3-.08c.43-.1.85.07.88.2a.1.1,0,0,0,0,.07,0,0,0,0,0,0,.07h0a.34.34,0,0,1,0,.17" transform="translate(-52.97 -14.7)"/><path id="Path_645" data-name="Path 645" class="cls-2" d="M94.07,64.3s0,0,0,0a.86.86,0,0,0,.72-.88.34.34,0,0,0-.22-.35h0v-.18a1.19,1.19,0,0,0-.65-1.1.24.24,0,0,0-.18-.1.52.52,0,0,0-.17.13.55.55,0,0,0-.28.15,1.54,1.54,0,0,0-.35.95.57.57,0,0,0,0,.18h0a.34.34,0,0,0-.22.35,1,1,0,0,0,1,.9h0s0,0,0,.1a.61.61,0,0,0,.15.27.13.13,0,0,0,.12.08l.1,0a.16.16,0,0,0,0-.23h0a.59.59,0,0,1-.1-.17m-.58-2.16a.35.35,0,0,1,.13-.08.14.14,0,0,1,.15,0h0c.13,0,.4.36.4.78a2,2,0,0,1,0,.43l-.45.07a1.87,1.87,0,0,1-.4-.07,1.12,1.12,0,0,1-.07-.4,1.08,1.08,0,0,1,.27-.73M93,63.47a1.34,1.34,0,0,0,.73.18,1.58,1.58,0,0,0,.73-.18c0,.3-.33.5-.73.5a.68.68,0,0,1-.73-.5" transform="translate(-52.97 -14.7)"/><path id="Path_646" data-name="Path 646" class="cls-2" d="M96.33,65.42a.88.88,0,0,1-.15,0v0a.34.34,0,0,0-.3-.3.64.64,0,0,0-.23,0,.92.92,0,0,0-.8.52l0,0a.36.36,0,0,1-.15-.15.2.2,0,0,0-.23,0,.15.15,0,0,0,0,.2l0,0a.4.4,0,0,0,.22.22s0,0,.08,0a1.13,1.13,0,0,0,.1.88.75.75,0,0,0,.5.38.17.17,0,0,0,.12,0,.36.36,0,0,0,.3-.15v0a.44.44,0,0,0,.15,0,1,1,0,0,0,.38,0,1.39,1.39,0,0,0,.63-.15.43.43,0,0,0,.25-.23.18.18,0,0,0,.12-.12.17.17,0,0,0,0-.2c0-.33-.4-.78-.9-.9m-1,1.33a.43.43,0,0,1-.25-.23.81.81,0,0,1,0-.63c.1-.35.33-.57.6-.57h.08a1.6,1.6,0,0,0-.38.67,1.4,1.4,0,0,0,0,.76m1.56-.33s0,0,0,.08,0,0-.1.1a1.16,1.16,0,0,1-.78.07,1.29,1.29,0,0,1-.35-.18,1.21,1.21,0,0,1,.05-.42.77.77,0,0,1,.17-.38,1.07,1.07,0,0,1,.4,0c.4.12.7.47.66.6Z" transform="translate(-52.97 -14.7)"/><path id="Path_647" data-name="Path 647" class="cls-2" d="M92.49,64.6a1.24,1.24,0,0,0-1.1.72c-.15.26-.25.38-.38.38l-.07,0c0-.08,0-.23,0-.36a1.1,1.1,0,0,0-.12-.95.67.67,0,0,0-.45-.22c-.8-.13-1.3.37-1.3,1.3v.15a1.6,1.6,0,0,1-.08.65.56.56,0,0,1-.12-.28c-.08-.25-.2-.68-.65-.68a.85.85,0,0,0-.23,0,1.15,1.15,0,0,0-.78,1.1l0,.17a1.58,1.58,0,0,1-.1.43s0-.07-.08-.1a.59.59,0,0,0-.5-.38.88.88,0,0,0-.3.1c-.47.3-.47,1.1-.47,1.48-1.08.2-1.08.28-1.06.35v.08c0,.07.13.07.23.07.3,0,.6,0,.9-.07.25.73.6,1.13,1,1.18l.1,0c.48,0,.55-.42.58-.62V69c.1,0,.18.1.33.27l.15.15,0,0a1.36,1.36,0,0,0,1,.52,1.55,1.55,0,0,0,.43-.07.7.7,0,0,0,.47-.38,1,1,0,0,0-.07-.73c0-.07-.1-.2-.08-.22s0,0,0,0,.38.2.55.38c0,0,.08.07.13.12a1.52,1.52,0,0,0,1,.43,1.38,1.38,0,0,0,1.13-.63.72.72,0,0,0,.12-.57c-.07-.33-.43-.48-.7-.63a1.49,1.49,0,0,1-.3-.18c.05-.12.18-.22.5-.22h.13a1.28,1.28,0,0,0,1.3-.63,1.39,1.39,0,0,0-.1-1.38,1.46,1.46,0,0,0-1.16-.67m.83,1.83a.82.82,0,0,1-.75.37h-.25a1,1,0,0,0-1,.58c-.15.4.25.6.55.73s.45.22.48.32a.71.71,0,0,1-.08.18.91.91,0,0,1-.73.4,1,1,0,0,1-.7-.3s-.07-.08-.12-.1c-.28-.26-.55-.53-.88-.53a.56.56,0,0,0-.35.13.64.64,0,0,0-.07.82.62.62,0,0,1,.07.33c0,.05-.07.07-.2.12a.7.7,0,0,1-.25,0,.83.83,0,0,1-.65-.37l0,0a.44.44,0,0,1-.12-.15.92.92,0,0,0-.7-.42.26.26,0,0,0-.15,0,.46.46,0,0,0-.33.5c0,.05,0,.15,0,.18h-.1c-.15,0-.4-.18-.62-.78l.4-.08a17.22,17.22,0,0,0,5-1.9v0a0,0,0,0,1,0,0h0l0,0s0,0-.28.1A27.65,27.65,0,0,1,86.6,68l-.37.07c0-.7.17-.92.27-1h0l.1.15c.1.15.23.38.53.33s.47-.48.52-.85l0-.18c.05-.32.12-.62.42-.7s.18-.05.3.33.18.57.53.6a.45.45,0,0,0,.4-.13,1.31,1.31,0,0,0,.2-1v-.12c0-.85.45-.85.6-.85h.18c.1,0,.12,0,.12,0s.05.4,0,.6-.08.7.22.85a1.57,1.57,0,0,0,.3,0,1,1,0,0,0,.8-.63.81.81,0,0,1,.68-.48,1,1,0,0,1,.75.48.89.89,0,0,1,.08.88" transform="translate(-52.97 -14.7)"/><path id="Path_648" data-name="Path 648" class="cls-2" d="M100.94,60.31h-.6c0-.13,0-.28.47-.48a1.35,1.35,0,0,0,.78-1.17,1.25,1.25,0,0,0-.73-1.1,1.28,1.28,0,0,0-1.58.15,1.15,1.15,0,0,0-.32.95c0,.43-.15.48-.23.5a2.1,2.1,0,0,1-.15-.3c-.12-.35-.32-.8-.77-.8a.94.94,0,0,0-.3,0,1,1,0,0,0-.63.6A1.48,1.48,0,0,0,97,59.89l0,.07c.07.13.3.5.25.63a1.12,1.12,0,0,1-.2-.18,1.07,1.07,0,0,0-.63-.35.59.59,0,0,0-.45.23,1.13,1.13,0,0,0-.15,1.3l.08.17a2.92,2.92,0,0,1,.1.4.35.35,0,0,1-.08,0,.93.93,0,0,0-.4-.12.46.46,0,0,0-.42.27c-.3.53.17,1.3.32,1.58-.27.28-.25.3-.25.35l0,0s0,0,0,0l.08,0a.75.75,0,0,0,.37-.2,1.78,1.78,0,0,0,1.16.58.88.88,0,0,0,.32-.07c.5-.2.33-.65.28-.83a.29.29,0,0,1-.05-.1.11.11,0,0,1,.07,0,1.15,1.15,0,0,1,.33.1l.17,0,0,0a2.94,2.94,0,0,0,.58.1,1.11,1.11,0,0,0,.88-.4.7.7,0,0,0-.2-1.13c-.08-.07-.18-.15-.18-.2s0,0,.15,0a2.77,2.77,0,0,1,.5.1c.08,0,.13,0,.18,0a1.37,1.37,0,0,0,.45.07,1.3,1.3,0,0,0,1.3-1.25.63.63,0,0,0-.13-.55.83.83,0,0,0-.67-.23m.32.7a.85.85,0,0,1-.86.85.93.93,0,0,1-.29,0,.48.48,0,0,0-.18-.05,3.24,3.24,0,0,0-.62-.12.6.6,0,0,0-.6.37c-.15.38.15.6.32.75s.23.18.23.25a.32.32,0,0,1-.1.18.58.58,0,0,1-.5.25,1.28,1.28,0,0,1-.43-.1h0L98,63.27a1.65,1.65,0,0,0-.5-.1.59.59,0,0,0-.45.17.48.48,0,0,0,0,.6,1.21,1.21,0,0,0,0,.18l-.08,0c-.2.1-.52,0-.9-.35a9.48,9.48,0,0,0,.8-.68,18.47,18.47,0,0,0,3.31-4.26.1.1,0,0,0,0-.07h0s0,0-.2.2a26.89,26.89,0,0,1-3.34,3.81c-.32.3-.57.52-.75.7-.37-.65-.32-.9-.27-1s0,0,0,0l.15.07a.68.68,0,0,0,.35.13.55.55,0,0,0,.25-.1c.3-.3.18-.63.05-1l-.07-.2a.71.71,0,0,1,0-.8s.07-.08.1-.08.2.13.27.23a1,1,0,0,0,.55.3.65.65,0,0,0,.2-.05.55.55,0,0,0,.28-.3,1.48,1.48,0,0,0-.3-1l-.05-.08a1,1,0,0,1-.12-.77.51.51,0,0,1,.37-.33.12.12,0,0,1,.1,0c.13,0,.25.27.33.5s.25.62.57.62h0c.45-.07.7-.4.7-1a.71.71,0,0,1,.2-.62.83.83,0,0,1,1-.05.75.75,0,0,1,.47.67.87.87,0,0,1-.52.75c-.38.18-.83.46-.73,1,0,.25.23.38.6.38a.91.91,0,0,0,.23,0h.25c.22,0,.3,0,.3.08a.16.16,0,0,1,0,.15" transform="translate(-52.97 -14.7)"/><path id="Path_649" data-name="Path 649" class="cls-2" d="M105.27,49.46a1.39,1.39,0,0,0-.72.3c-.08.05-.23.15-.28.17s-.12-.3.13-.65a1.34,1.34,0,0,0,.15-1.4,1.23,1.23,0,0,0-1.13-.63h-.08a1.45,1.45,0,0,0-1.2.68,1.21,1.21,0,0,0,.08,1.23c.2.38.15.48.07.55a1.05,1.05,0,0,1-.27-.2,1.43,1.43,0,0,0-.78-.4.58.58,0,0,0-.5.28,1,1,0,0,0-.3.85,1.43,1.43,0,0,0,.73.93l.1,0c.15.1.5.3.5.4s0,0,0,0a1.11,1.11,0,0,1-.25,0,1,1,0,0,0-.42-.07.59.59,0,0,0-.58.47,1.14,1.14,0,0,0,.53,1.2l.12.13c.23.17.28.25.3.3h-.1a.69.69,0,0,0-.52.15.58.58,0,0,0-.13.38c0,.57.73,1,1,1.2-.1.35-.08.4,0,.42l.07,0h.05s.1,0,.25-.35a5.25,5.25,0,0,0,.68.08,1.1,1.1,0,0,0,.9-.38.57.57,0,0,0-.09-.8l-.08,0-.08-.08c0-.05.13-.07.38-.12l.22,0,0,0a1.24,1.24,0,0,0,1.1-1,.79.79,0,0,0-.08-.6.86.86,0,0,0-.62-.3l-.25-.05c0-.15.25-.22.6-.32a.48.48,0,0,0,.17-.05,1.44,1.44,0,0,0,.93-.7,1.52,1.52,0,0,0,0-1.2.63.63,0,0,0-.6-.43m-3.46,6.27,0,0v0Zm3.59-4.87a1,1,0,0,1-.63.48l-.15,0c-.42.12-1,.27-1,.85,0,.37.42.42.65.47s.28.05.3.1a.31.31,0,0,1,0,.23.75.75,0,0,1-.73.58l0,0c-.08,0-.15,0-.2,0-.33.05-.65.12-.78.5s.13.45.25.55.13.1.13.12,0,0,0,.08a.63.63,0,0,1-.5.17,2.61,2.61,0,0,1-.48,0c.1-.25.23-.57.38-1a18.23,18.23,0,0,0,.8-5.34l0,0c-.08,0-.08,0-.15.5a30.12,30.12,0,0,1-1,4.71c-.15.4-.25.73-.35,1-.58-.37-.68-.62-.68-.72v0s.1,0,.15,0,.45,0,.55-.28-.15-.65-.43-.87l-.15-.1c-.22-.23-.45-.43-.37-.73,0-.13.07-.13.12-.13l.3,0a1,1,0,0,0,.38.08.41.41,0,0,0,.4-.2.48.48,0,0,0,.1-.4c0-.3-.43-.53-.73-.7l-.1-.08a.87.87,0,0,1-.5-.57.56.56,0,0,1,.2-.48c0-.1.1-.1.13-.1s.32.18.47.3a1,1,0,0,0,.6.33.9.9,0,0,0,.23-.08c.55-.4.2-1,.07-1.22a.77.77,0,0,1,0-.76.93.93,0,0,1,.8-.42h0a.75.75,0,0,1,.7.37.8.8,0,0,1-.12.9,1.09,1.09,0,0,0-.1,1.26.44.44,0,0,0,.32.15,1.4,1.4,0,0,0,.6-.25,1.2,1.2,0,0,1,.45-.23s.08,0,.15.15a.93.93,0,0,1,0,.78" transform="translate(-52.97 -14.7)"/><path id="Path_650" data-name="Path 650" class="cls-2" d="M102.09,37.23a1.27,1.27,0,0,0-1.6-.18,1.49,1.49,0,0,0-.73,1.18,1.23,1.23,0,0,0,.68,1.05c.38.2.35.35.33.45h0a1,1,0,0,1-.3,0,3.56,3.56,0,0,0-.47,0,.65.65,0,0,0-.73.56v0a1.15,1.15,0,0,0,.17.88,1.42,1.42,0,0,0,1.08.45h.1a1.43,1.43,0,0,1,.65.1v0l-.25.08c-.27.07-.82.22-.67.85a1.17,1.17,0,0,0,1.05.8l.18,0c.25,0,.35.05.37.1s0,0-.07.05a.63.63,0,0,0-.35.38.44.44,0,0,0,0,.4c.32.5,1.15.55,1.5.55.07.35.12.35.17.35h0s.07,0,.07-.05.08-.08.05-.38c.78-.22,1.18-.55,1.23-1a.56.56,0,0,0-.58-.65.09.09,0,0,0-.07,0c0-.07,0-.15.27-.3a.44.44,0,0,1,.15-.12l0,0a1.3,1.3,0,0,0,.5-1.4.63.63,0,0,0-.63-.52,1,1,0,0,0-.42.1l-.28,0c-.07-.1.13-.3.38-.53a.44.44,0,0,0,.12-.15,1.38,1.38,0,0,0,.48-1.08,1.29,1.29,0,0,0-.58-1,.62.62,0,0,0-.42-.2c-.4,0-.6.4-.78.7a2.38,2.38,0,0,1-.18.3c-.15-.08-.2-.2-.17-.66a1.31,1.31,0,0,0-.33-1.07m.35,2.18.15.05c.3,0,.46-.28.6-.56s.23-.45.36-.45,0,0,.12.08a.89.89,0,0,1,.4.68,1,1,0,0,1-.33.72l-.15.13c-.3.3-.75.73-.4,1.18a.54.54,0,0,0,.4.2,1.07,1.07,0,0,0,.4-.1.69.69,0,0,1,.28-.08s.1,0,.15.2a.76.76,0,0,1-.35.88l0,0a.86.86,0,0,1-.16.1c-.25.23-.5.43-.42.83s.3.33.47.38a.35.35,0,0,1,.18,0v.07c0,.13-.15.38-.8.58a10.09,10.09,0,0,0-.18-1.1,15.49,15.49,0,0,0-2-5,.05.05,0,0,0,0,0c0,.05,0,.05.15.55a24.83,24.83,0,0,1,1.43,4.53c.1.48.15.83.23,1.08-.7,0-.9-.2-1-.3l0,0,.15-.08c.15-.1.37-.23.32-.5-.07-.43-.42-.5-.78-.55l-.2,0c-.3-.05-.57-.13-.65-.45-.05-.13-.05-.15.33-.25.22-.08.57-.15.63-.53a.62.62,0,0,0-.16-.38,1.45,1.45,0,0,0-1-.25h-.07a.91.91,0,0,1-.7-.27.64.64,0,0,1-.1-.5c0-.13,0-.18.25-.18a2.47,2.47,0,0,1,.38,0,1.75,1.75,0,0,0,.4.05.43.43,0,0,0,.45-.25c.1-.25.17-.73-.5-1.1a.71.71,0,0,1-.43-.63.9.9,0,0,1,.48-.75.79.79,0,0,1,1,.08,1,1,0,0,1,.2.72,1,1,0,0,0,.5,1.13" transform="translate(-52.97 -14.7)"/><path id="Path_651" data-name="Path 651" class="cls-2" d="M93,29.53a1.47,1.47,0,0,0-.07,1.35,1.26,1.26,0,0,0,1.13.6c.42,0,.47.15.5.25l-.33.13a1.19,1.19,0,0,0-.78.5.7.7,0,0,0,0,.53c.23.72.88,1,1.73.55l.1,0a1.8,1.8,0,0,1,.58-.23s.05,0,.05,0-.13.12-.18.2a.84.84,0,0,0-.37.6.69.69,0,0,0,.2.45.86.86,0,0,0,.7.32,2.06,2.06,0,0,0,.6-.12l.2-.08a.79.79,0,0,1,.37-.07s0,0,0,.07a.63.63,0,0,0-.12.53.42.42,0,0,0,.25.3.8.8,0,0,0,.43.12A2.42,2.42,0,0,0,99,35.16c.23.25.28.25.3.25a.08.08,0,0,0,.08,0h0l0,0c0-.05,0-.1-.15-.38.57-.57.8-1.08.62-1.53a.51.51,0,0,0-.5-.37,1.14,1.14,0,0,0-.32.07.19.19,0,0,1-.1,0c0-.08,0-.15.1-.4a1.21,1.21,0,0,0,0-.18l0,0a1.26,1.26,0,0,0-.25-1.46.68.68,0,0,0-.5-.25.82.82,0,0,0-.62.38c0,.07-.15.17-.2.17s0-.32.07-.65a.48.48,0,0,1,0-.17,1.34,1.34,0,0,0-.78-1.73,1.36,1.36,0,0,0-.35-.07.64.64,0,0,0-.6.15,1.34,1.34,0,0,0-.2.9,1.17,1.17,0,0,1,0,.32c-.15,0-.28-.07-.45-.45a1.3,1.3,0,0,0-1.18-.88,1.37,1.37,0,0,0-1.13.7m.43.25a.77.77,0,0,1,1.43.1c.17.38.42.76.9.76h.1c.4,0,.4-.48.4-.8a1.25,1.25,0,0,1,.07-.56s0,0,.08,0h.1a1,1,0,0,1,.67.42.86.86,0,0,1,0,.78.41.41,0,0,1,0,.18c-.12.4-.3,1,.23,1.23a.65.65,0,0,0,.2.05c.25,0,.4-.2.55-.36s.18-.22.25-.22.08,0,.18.1a.79.79,0,0,1,.12,1l0,0a.88.88,0,0,0-.05.15.83.83,0,0,0,0,.93.41.41,0,0,0,.32.15,1.26,1.26,0,0,0,.28,0,.41.41,0,0,1,.18,0s0,0,0,.07.05.4-.45.93c-.15-.23-.38-.5-.68-.88a21.27,21.27,0,0,0-3.76-3.26c-.3-.22-.3-.22-.35-.22h0l0,.05v.05s0,0,.3.25h0A26.46,26.46,0,0,1,98,34c.28.35.5.63.68.83a2,2,0,0,1-.75.22.44.44,0,0,1-.2,0s0,0,0,0a1.3,1.3,0,0,0,.1-.15c.08-.15.23-.38,0-.6A.56.56,0,0,0,97.4,34a1.74,1.74,0,0,0-.5.12l-.2.08a2.34,2.34,0,0,1-.45.07.36.36,0,0,1-.35-.15c-.05,0-.08-.07-.08-.1s.15-.2.23-.28.45-.42.3-.75a.53.53,0,0,0-.5-.3,2.07,2.07,0,0,0-.8.28L95,33a1.42,1.42,0,0,1-.57.15c-.15,0-.38,0-.5-.43,0-.12,0-.15,0-.17s.3-.2.5-.25.65-.23.62-.58-.2-.73-1-.73a.76.76,0,0,1-.7-.35.92.92,0,0,1,.07-.88" transform="translate(-52.97 -14.7)"/><path id="Path_652" data-name="Path 652" class="cls-2" d="M70.56,53l1.08-2.86H71l-.58,1.5c-.07.2-.17.48-.25.73-.07-.28-.15-.53-.22-.76l-.56-1.47h-.65L69.86,53Z" transform="translate(-52.97 -14.7)"/><path id="Path_653" data-name="Path 653" class="cls-2" d="M74.07,52.49H73v-.75h1v-.45H73v-.7h1.08v-.47H72.39V53h1.68Z" transform="translate(-52.97 -14.7)"/><path id="Path_654" data-name="Path 654" class="cls-2" d="M76.2,53V50.64H77v-.53H74.82v.53h.78V53Z" transform="translate(-52.97 -14.7)"/><path id="Path_655" data-name="Path 655" class="cls-2" d="M79.53,50.59v-.48H77.85V53h1.68v-.48h-1.1v-.75h1v-.45h-1v-.7Z" transform="translate(-52.97 -14.7)"/><path id="Path_656" data-name="Path 656" class="cls-2" d="M82.39,51.64l-1-1.53h-.8V53h.57V51.49a4,4,0,0,0,0-.6h0c.09.19.18.37.28.55l1,1.53h.8V50.11h-.58v1.28a5.35,5.35,0,0,0,0,.8c-.1-.18-.23-.38-.33-.55" transform="translate(-52.97 -14.7)"/><path id="Path_657" data-name="Path 657" class="cls-2" d="M85,52.54a1.72,1.72,0,0,1-.63-.12l0,.55c.2,0,.4,0,.6.05.73,0,1.23-.38,1.23-1,0-.9-1.28-.67-1.28-1.15,0-.22.15-.37.53-.37a1.55,1.55,0,0,1,.52.1l0-.53a3.17,3.17,0,0,0-.53,0c-.75,0-1.18.37-1.18.9,0,.93,1.26.68,1.26,1.18,0,.27-.25.4-.53.4" transform="translate(-52.97 -14.7)"/><path id="Path_658" data-name="Path 658" class="cls-2" d="M87.23,50.11V53h.6V51.64l1,1.33h.78l-1.23-1.48,1.18-1.38h-.73l-1,1.28V50.11Z" transform="translate(-52.97 -14.7)"/><path id="Path_659" data-name="Path 659" class="cls-2" d="M90.94,52.42h1.2l.2.55H93l-1.08-2.86h-.7L90.13,53h.6Zm.45-1.23.15-.45a3.94,3.94,0,0,0,.15.45l.3.8h-.9Z" transform="translate(-52.97 -14.7)"/><path id="Path_660" data-name="Path 660" class="cls-2" d="M94.77,50.11h-.93V53h.6V52h.25c.73,0,1.23-.4,1.23-1s-.42-.93-1.15-.93m-.08,1.46h-.25v-1h.28c.38,0,.58.2.58.47s-.23.5-.6.5" transform="translate(-52.97 -14.7)"/><path id="Path_661" data-name="Path 661" class="cls-2" d="M70.55,57.78a1.42,1.42,0,0,0,1.5-1.36.33.33,0,0,0,0-.14,1.31,1.31,0,0,0-1.17-1.45h-.23a1.44,1.44,0,0,0-1.47,1.41.14.14,0,0,0,0,.09,1.28,1.28,0,0,0,1.1,1.45,1.22,1.22,0,0,0,.27,0m0-2.43c.5,0,.8.32.8,1s-.35.93-.82.93-.78-.42-.78-1a.85.85,0,0,1,.72-.95h.08" transform="translate(-52.97 -14.7)"/><path id="Path_662" data-name="Path 662" class="cls-2" d="M74.14,57.78a2.55,2.55,0,0,0,.78-.13l0-.52a1.53,1.53,0,0,1-.6.12.83.83,0,0,1-.9-.77.38.38,0,0,1,0-.15.85.85,0,0,1,.73-1h.15a1.55,1.55,0,0,1,.6.1l.05-.53a2.46,2.46,0,0,0-.6-.07,1.43,1.43,0,0,0-1.55,1.31,1.55,1.55,0,0,0,0,.22,1.29,1.29,0,0,0,1.15,1.4h.25" transform="translate(-52.97 -14.7)"/><path id="Path_663" data-name="Path 663" class="cls-2" d="M78.38,57.73V54.87h-.6V56H76.45V54.87h-.6v2.86h.6v-1.2h1.33v1.2Z" transform="translate(-52.97 -14.7)"/><path id="Path_664" data-name="Path 664" class="cls-2" d="M81.51,56.4l1.06,1.33h.8l-1.23-1.48,1.15-1.38h-.73l-1,1.28V54.87h-.6v2.86h.6Z" transform="translate(-52.97 -14.7)"/><path id="Path_665" data-name="Path 665" class="cls-2" d="M85.15,57.78a1.45,1.45,0,0,0,1.5-1.39v-.11a1.33,1.33,0,0,0-1.19-1.45h-.24a1.46,1.46,0,0,0-1.48,1.44v.06a1.3,1.3,0,0,0,1.14,1.45h.26m0-2.43c.47,0,.8.32.8,1a.82.82,0,0,1-.71.92h-.12c-.55,0-.78-.42-.78-1a.85.85,0,0,1,.72-.95h.08" transform="translate(-52.97 -14.7)"/><path id="Path_666" data-name="Path 666" class="cls-2" d="M88.35,56.18l1,1.55h.78V54.87h-.57v1.28c0,.35,0,.63,0,.8a3.08,3.08,0,0,0-.33-.55l-1-1.53h-.8v2.86h.58V55.65a5.28,5.28,0,0,0,.27.53" transform="translate(-52.97 -14.7)"/><path id="Path_667" data-name="Path 667" class="cls-2" d="M91.86,57.3a1.67,1.67,0,0,1-.62-.12l0,.55a4,4,0,0,0,.6.05c.73,0,1.23-.38,1.23-1,0-.9-1.28-.68-1.28-1.18,0-.2.18-.35.53-.35a1.72,1.72,0,0,1,.55.1l0-.53a4.89,4.89,0,0,0-.55,0c-.75,0-1.17.38-1.17.9,0,.93,1.25.68,1.25,1.18,0,.28-.25.4-.53.4" transform="translate(-52.97 -14.7)"/><path id="Path_668" data-name="Path 668" class="cls-2" d="M95,57.73V55.4h.8v-.53H93.62v.53h.77v2.33Z" transform="translate(-52.97 -14.7)"/><path id="Path_669" data-name="Path 669" class="cls-2" d="M72.86,46.8l0,0c-1.5-.18-1.52-.48-1.55-1.73V42.89l2.51,2.73c1,1.06,1.48,1.63,2.85,1.63a6.4,6.4,0,0,0,.88-.07h.08v-.35H77.5c-.82,0-1.28-.5-2.18-1.46-.12-.12-.27-.25-.4-.4l-2.46-2.71,1-1,.23-.23a5.22,5.22,0,0,1,3-2l.08,0V38.7H73.44V39l.08,0c.32,0,.5.1.55.23s-.2.75-.88,1.53l-1.93,2V40.79c0-1.26,0-1.56,1.23-1.73h.05V38.7h-4v.36h.07c1.38.18,1.4.48,1.43,1.73v4.26c0,1.26,0,1.56-1.43,1.73l-.07,0v.32h4.33Z" transform="translate(-52.97 -14.7)"/><path id="Path_670" data-name="Path 670" class="cls-2" d="M83.85,46.8l-.08,0c-1.55-.18-1.63-.53-1.63-2V39.23h.66A2.08,2.08,0,0,1,85.19,41s0,.07,0,.11l0,.08.32,0-.17-2.38h-7.7l-.15,2.38.32,0v-.08a2.1,2.1,0,0,1,2.32-1.84h.74v5.54c0,1.48,0,1.83-1.63,2l0,0v.33h4.62Z" transform="translate(-52.97 -14.7)"/><path id="Path_671" data-name="Path 671" class="cls-2" d="M96.23,39.06h0v-.35H91.94v.35H92c1.53.23,1.53.43,1.53,1.73v1.67H89.16V40.79c0-1.3,0-1.5,1.55-1.73h.08V38.7H86.43v.36h.07c1.38.18,1.4.48,1.43,1.73v4.26c0,1.25-.05,1.56-1.43,1.73l-.07,0v.32h4.36V46.8l-.08,0c-1.55-.23-1.55-.43-1.55-1.73v-1.9h4.39v1.9c0,1.3,0,1.5-1.53,1.73l-.08,0v.33h4.34V46.8l0,0c-1.4-.18-1.4-.48-1.46-1.73V40.79c0-1.26,0-1.56,1.46-1.73" transform="translate(-52.97 -14.7)"/><path id="Path_672" data-name="Path 672" class="cls-2" d="M72.19,27.7a.89.89,0,0,0,0,.93,1,1,0,0,0,.88.4c.37.45,1,1,1.5.88a20.29,20.29,0,0,1,15.24,0c.52.15,1.12-.43,1.5-.88a1,1,0,0,0,.87-.4.89.89,0,0,0,0-.93,5.23,5.23,0,0,1,.68-.8.89.89,0,0,0,.3-.7,1,1,0,0,0-.93-.95h-.12a.11.11,0,0,1,0-.08.8.8,0,0,0-.37-1.5.76.76,0,0,0-.4.13.35.35,0,0,1-.08-.1.61.61,0,0,0,.2-.45.64.64,0,0,0-.61-.66h0a.63.63,0,0,0-.53.28l-.12-.07a.6.6,0,0,0,.12-.36.61.61,0,0,0-.6-.6.57.57,0,0,0-.55.4l-.2-.07a.69.69,0,0,0,.08-.28.54.54,0,0,0-.52-.55h0a.53.53,0,0,0-.53.45l-.12,0a.74.74,0,0,0-.73-.55.6.6,0,0,0-.23,0l-.07-.07v0a.65.65,0,0,0-.65-.63.6.6,0,0,0-.35.1.08.08,0,0,1-.08,0,.58.58,0,0,0-.57-.58.56.56,0,0,0-.5.3.37.37,0,0,0-.15,0v0a.52.52,0,0,0-.51-.53.54.54,0,0,0-.52.4h-.15a1.28,1.28,0,0,0,.1-.47,1.23,1.23,0,0,0-.67-1.1,1.48,1.48,0,0,0-.35-.13v-.95H83A.51.51,0,0,0,83,17h-.52V16.5a.51.51,0,0,0-.45,0V17h-.53a.51.51,0,0,0,0,.45H82v.95a1.55,1.55,0,0,0-.36.13,1.23,1.23,0,0,0-.67,1.1,1.52,1.52,0,0,0,.1.47h-.15a.52.52,0,0,0-1,.13v0a.4.4,0,0,0-.15,0,.56.56,0,0,0-.5-.3.59.59,0,0,0-.58.58.08.08,0,0,1-.07,0,.62.62,0,0,0-.35-.1.64.64,0,0,0-.65.63v0l-.08.08a.85.85,0,0,0-.23,0,.75.75,0,0,0-.73.55l-.1,0a.55.55,0,0,0-.55-.45.54.54,0,0,0-.53.54h0a.53.53,0,0,0,.08.27l-.2.08a.56.56,0,0,0-.55-.4.6.6,0,0,0-.6.6.55.55,0,0,0,.12.35l-.12.07a.65.65,0,0,0-1.18.34v0a.59.59,0,0,0,.2.45.25.25,0,0,1-.08.1.68.68,0,0,0-.4-.12.79.79,0,0,0-.78.81.8.8,0,0,0,.41.69.11.11,0,0,1,0,.07h-.1a1,1,0,0,0-1,1h0a.88.88,0,0,0,.3.7,5.75,5.75,0,0,1,.68.8m.8,1a.59.59,0,0,1-.58-.57.75.75,0,0,1,.1-.33.58.58,0,0,1,.48-.25.63.63,0,0,1,.5.25.75.75,0,0,1,.1.33.59.59,0,0,1-.6.57m9.25-1.9a.58.58,0,1,1,0-1.15.57.57,0,0,1,.57.57h0a.55.55,0,0,1-.55.57h0m0-4.51a.56.56,0,0,1,.57.56v0a.58.58,0,0,1-.6.55.57.57,0,0,1,0-1.13h0m-.45-.65a.45.45,0,1,1,.45.45h0a.45.45,0,0,1-.45-.45h0m.45,2a.68.68,0,0,1,.7.67v0a.67.67,0,0,1-.18.48.71.71,0,0,0-.52-.18.75.75,0,0,0-.53.18.72.72,0,0,1-.2-.48.7.7,0,0,1,.71-.7h0m9.25,5a.56.56,0,0,1-.6-.54.57.57,0,0,1,.17-.44.64.64,0,0,1,.43-.18.54.54,0,0,1,.52.38.55.55,0,0,1-.26.73.75.75,0,0,1-.26.05m.85-3.11a.64.64,0,0,1,.63.63.9.9,0,0,1-.43.62.87.87,0,0,0-.68-.32h-.07a.67.67,0,0,1-.1-.3.64.64,0,0,1,.65-.63M91.81,24a.46.46,0,0,1,.48.45v0a.47.47,0,0,1-.48.47.48.48,0,0,1-.47-.47.47.47,0,0,1,.47-.48m-.92-1.1a.35.35,0,0,1,.35.33v0a.35.35,0,0,1-.35.33h0a.34.34,0,0,1,0-.68h0m-1.13-.73a.28.28,0,0,1,0,.56.28.28,0,1,1,0-.56m-1.2-.5a.22.22,0,0,1,.22.23h0a.23.23,0,0,1-.25.2.23.23,0,0,1-.2-.2.23.23,0,0,1,.23-.23h0m-.73.66a5.09,5.09,0,0,1,3.23,2.35,2.89,2.89,0,0,1,.3,1.5c0,.14.06.29.1.43a.8.8,0,0,0-.47.57l0-.05a.87.87,0,0,0-.55-.2.89.89,0,0,0-.92.87,1,1,0,0,0,.09.41.91.91,0,0,0,1.18.45.36.36,0,0,0,.15.15.9.9,0,0,1-1.16.43,1.39,1.39,0,0,1-.85-.93,1.45,1.45,0,0,1-1.25.33.91.91,0,0,1-.7-1.06c0-.1,0-.2.07-.3a.84.84,0,0,0,.68.7.88.88,0,0,0,1-.7.87.87,0,0,0-.7-1s-.12,0-.17,0l0-.1v-.3a1,1,0,0,0,.75-1,1,1,0,0,0-.52-.9.82.82,0,0,0,.42-.73.85.85,0,0,0-.75-.85s0-.05,0-.08m-.63,2.81a.85.85,0,0,0-.23,0,1.42,1.42,0,0,1,0-.22.7.7,0,0,1,.7-.7.68.68,0,0,1,.7.67v0a.7.7,0,0,1-.55.68.83.83,0,0,0-.57-.43m1-1.88a.54.54,0,1,1-.55-.53.54.54,0,0,1,.55.52h0m-1.08-1.7a.42.42,0,0,1,.43.42h0a.45.45,0,0,1-.43.42.42.42,0,0,1-.42-.42h0a.4.4,0,0,1,.38-.43h0m-.3,4.54a.57.57,0,0,1,.58.57.58.58,0,0,1-.58.58.57.57,0,0,1-.57-.58h0a.58.58,0,0,1,.57-.57m-.65-5.27a.33.33,0,1,1-.3.3.33.33,0,0,1,.3-.3m-1-.48a.26.26,0,0,1,.26.25.28.28,0,0,1-.26.26.26.26,0,0,1-.25-.26.25.25,0,0,1,.23-.25h0m-1.17-.27a.18.18,0,0,1,.2.16v0a.2.2,0,0,1-.2.2.21.21,0,0,1-.2-.2.2.2,0,0,1,.2-.2m2.3,5,.13.23a.94.94,0,0,0-.33.52v.08c-.05,0-.1,0-.15,0a.88.88,0,1,0-.32,1.73.91.91,0,0,0,.9-.38,1.57,1.57,0,0,1,0,.3.9.9,0,0,1-1.06.7,1.35,1.35,0,0,1-1-.78,1.33,1.33,0,0,1-1.12.58.9.9,0,0,1-.9-.9h0a1,1,0,0,1,0-.3.87.87,0,0,0,.8.55.89.89,0,0,0,.9-.87.87.87,0,0,0-.88-.88h0a.26.26,0,0,0-.15,0,.36.36,0,0,1,0-.1.74.74,0,0,0,0-.25l.33-.2a17.59,17.59,0,0,0-.6-4.33s.05,0,.05,0c4.39.25,4,3.28,3.48,4.36m-3.2-5.51s0,.05,0,.07a1,1,0,0,1-.15.48h-.3c0-.05,0-.08,0-.13a.56.56,0,0,0-.28-.42Zm-.68-.8a1,1,0,0,1,.6.47h-.6Zm-.23,1a.2.2,0,1,1-.2.2.21.21,0,0,1,.2-.2m0,.6a.29.29,0,0,1,.3.3.3.3,0,0,1-.3.3.31.31,0,0,1-.3-.3.29.29,0,0,1,.28-.3h0M82,18.76v.47h-.6a.92.92,0,0,1,.6-.47m-.68.8H82a.58.58,0,0,0-.25.42c0,.05,0,.08,0,.13h-.3a.91.91,0,0,1-.15-.48s0-.05,0-.07m-.9.5a.2.2,0,0,1,.2.2.22.22,0,0,1-.2.2.2.2,0,0,1-.2-.2.19.19,0,0,1,.17-.2h0m-1.18.27a.26.26,0,0,1,.28.24h0a.28.28,0,0,1-.28.26.28.28,0,0,1-.25-.26.26.26,0,0,1,.25-.25m-1,.48a.32.32,0,0,1,.3.35.32.32,0,0,1-.3.3.33.33,0,0,1,0-.65m3.36-.1s0,0,0,0a18.76,18.76,0,0,0-.6,4.34l.33.2a.74.74,0,0,0-.05.25.36.36,0,0,1,0,.1.24.24,0,0,0-.15,0,.88.88,0,0,0-.9.85v0a.9.9,0,0,0,.9.88.86.86,0,0,0,.8-.55,1.53,1.53,0,0,1,0,.3.9.9,0,0,1-.9.9h0A1.37,1.37,0,0,1,80,27.42a1.35,1.35,0,0,1-1,.78.9.9,0,0,1-1-.7,1,1,0,0,1,0-.3.91.91,0,0,0,.9.38.88.88,0,1,0-.33-1.73h0s-.1,0-.15,0v-.08a1,1,0,0,0-.32-.53l.12-.22c-.5-1.08-.88-4.11,3.48-4.36m-3.43,5.94a.59.59,0,0,1-1.18,0,.6.6,0,0,1,.58-.6h0a.58.58,0,0,1,.58.58m-1.48-1.1A.7.7,0,0,1,77,24.18a.69.69,0,0,1,.54.69.64.64,0,0,1,0,.23.55.55,0,0,0-.22,0,.85.85,0,0,0-.58.43m.6-4a.41.41,0,0,1,.43.39v0a.42.42,0,0,1-.42.43h0a.44.44,0,0,1-.42-.43.42.42,0,0,1,.42-.42h0m-.53,1.17a.52.52,0,0,1,.52.53.54.54,0,0,1-.54.54.55.55,0,0,1-.54-.54h0a.54.54,0,0,1,.55-.53h0m-.86-1.05a.22.22,0,0,1,.23.22h0a.22.22,0,0,1-.23.2.21.21,0,0,1,0-.42h0m-1.2.5a.27.27,0,0,1,.28.27.28.28,0,1,1-.55,0,.27.27,0,0,1,.27-.27m1.93.15s0,.05,0,.07a.85.85,0,0,0-.75.85.8.8,0,0,0,.42.73,1,1,0,0,0-.52.9,1,1,0,0,0,.75,1v.3l0,.1s-.13,0-.18,0a.89.89,0,0,0-.7,1,.91.91,0,0,0,1.06.7.93.93,0,0,0,.7-.7c0,.07,0,.25,0,.3a.9.9,0,0,1-.7,1.05,1.48,1.48,0,0,1-1.26-.33,1.35,1.35,0,0,1-.85.93.89.89,0,0,1-1.15-.43.36.36,0,0,0,.15-.15.91.91,0,0,0,1.18-.45A.9.9,0,0,0,74.51,27a.84.84,0,0,0-.41-.08.85.85,0,0,0-.55.2l0,.05a.83.83,0,0,0-.48-.58,3,3,0,0,0,.1-.43,3,3,0,0,1,.3-1.5,5.09,5.09,0,0,1,3.23-2.35m-3.06.58a.34.34,0,0,1,.33.34h0a.34.34,0,0,1-.33.32.34.34,0,0,1-.35-.32h0a.35.35,0,0,1,.34-.35s0,0,0,0m-1.4,1.57a.46.46,0,0,1,.45-.47h0a.47.47,0,0,1,.47.47.49.49,0,0,1-.47.48.47.47,0,0,1-.48-.48m0,1.1a.64.64,0,0,1,.62.63.54.54,0,0,1-.1.3h-.07a.88.88,0,0,0-.68.33.89.89,0,0,1-.42-.63.64.64,0,0,1,.65-.63" transform="translate(-52.97 -14.7)"/><path id="Path_673" data-name="Path 673" class="cls-2" d="M88.71,32.36a.25.25,0,0,0,.2-.12.25.25,0,0,0-.13-.28,18.77,18.77,0,0,0-6.47-1.15h-.15A18.76,18.76,0,0,0,75.7,32a.24.24,0,0,0-.13.28.24.24,0,0,0,.28.12,17.9,17.9,0,0,1,6.31-1.12h.15a17.92,17.92,0,0,1,6.32,1.12Z" transform="translate(-52.97 -14.7)"/><path id="Path_674" data-name="Path 674" class="cls-2" d="M90,31.16l-.3-.8,0-.13-.4.08A19.18,19.18,0,0,0,82.59,29l-.35-.22-.37.22a19.35,19.35,0,0,0-6.6,1.28l-.4-.08-.05.13-.3.8.88.48.28-.33a18.77,18.77,0,0,1,6.11-1.18l.45.25.46-.25a18.77,18.77,0,0,1,6.11,1.18l.28.33Zm-14.64.07a3.11,3.11,0,0,1-.4-.22,3.12,3.12,0,0,0,.15-.43l.7.13c-.17.2-.35.42-.45.52m3.64-1-.7.15a.36.36,0,0,1-.4-.28.33.33,0,0,1,.25-.42h0l.68-.15a.36.36,0,0,1,.44.25.35.35,0,0,1-.24.44H79m3.28-.2-.72-.4.72-.42.73.42Zm4.39.08a.37.37,0,0,1-.4.28l-.7-.15a.39.39,0,0,1-.28-.43.4.4,0,0,1,.43-.28l.68.15a.37.37,0,0,1,.28.41v0m2.08.63.7-.13a3.12,3.12,0,0,0,.15.43,2.56,2.56,0,0,1-.4.22c-.1-.1-.27-.32-.45-.52" transform="translate(-52.97 -14.7)"/></g></g></g></svg>