<svg xmlns="http://www.w3.org/2000/svg" viewBox="0 0 148.02 29.19"><defs><style>.cls-1{fill:#b2a97e;}.cls-2{fill:#1c90bf;}</style></defs><g id="Layer_1" data-name="Layer 1"><path id="polygon285" class="cls-1" d="M27.54,43.37v5.3h-5.3v5.2h5.3v5.3h5.3v-5.3H38v-5.2h-5.2v-5.3Z" transform="translate(-8.93 -30.08)"/><path id="path304" class="cls-2" d="M38.14,42.77a14.67,14.67,0,1,0-16.6,16.5V54h0v-.1h0a9.41,9.41,0,1,1,11.2-11.2h.1Z" transform="translate(-8.93 -30.08)"/><g id="g7172"><g id="Group_285" data-name="Group 285"><g id="Group_284" data-name="Group 284"><g id="sps-logo-color-en"><path id="path2" class="cls-2" d="M50,43.93c-2.6,0-4.33-1.69-4.33-4.65s1.8-4.66,4.39-4.66,4.31,1.68,4.31,4.66S52.61,43.93,50,43.93Zm0-8c-1.69,0-2.67,1.22-2.67,3.4s1,3.4,2.73,3.4,2.65-1.2,2.65-3.4S51.69,35.88,50,35.88Z" transform="translate(-8.93 -30.08)"/><path id="path4" class="cls-2" d="M59.21,40c1.2.2,1.88.81,1.88,1.83,0,1.39-1.13,2.06-2.5,2.06a7.6,7.6,0,0,1-2.41-.39l-.59-.17.23-1.17.6.18a6.89,6.89,0,0,0,2.16.41c.6,0,1.13-.23,1.13-.85,0-.42-.27-.67-.94-.78l-1.28-.21c-1.2-.2-1.87-.83-1.87-1.85,0-1.39,1.14-2,2.5-2a7.84,7.84,0,0,1,2.41.38l.58.19-.22,1.18-.6-.2a7.87,7.87,0,0,0-2.15-.41c-.62,0-1.15.25-1.15.84,0,.43.27.69,1,.8Z" transform="translate(-8.93 -30.08)"/><path id="path6" class="cls-2" d="M62.51,43.83V34.61L64,34.33v9.5Z" transform="translate(-8.93 -30.08)"/><path id="path8-7" class="cls-2" d="M68.51,43.9c-2,0-3.24-1.25-3.24-3.43A3.1,3.1,0,0,1,68,37a3.37,3.37,0,0,1,.55,0c2,0,3.23,1.23,3.23,3.44a3.1,3.1,0,0,1-2.72,3.42A3.25,3.25,0,0,1,68.51,43.9Zm0-5.78c-1.18,0-1.77.86-1.77,2.35s.64,2.34,1.8,2.34,1.79-.83,1.79-2.34S69.66,38.12,68.51,38.12Z" transform="translate(-8.93 -30.08)"/><path id="path31" class="cls-2" d="M56.71,55.1H55.27V49.63a1,1,0,0,1,.81-1,7.93,7.93,0,0,1,2.16-.3c1.92,0,2.66,1,2.66,2.42V55.1H59.49V50.86a1.16,1.16,0,0,0-1-1.3,1,1,0,0,0-.34,0,5.48,5.48,0,0,0-1.45.22Z" transform="translate(-8.93 -30.08)"/><path id="path33" class="cls-2" d="M63.24,47.51a.84.84,0,1,1,0-1.67h0a.83.83,0,0,1,.83.83.84.84,0,0,1-.83.84Z" transform="translate(-8.93 -30.08)"/><path id="polygon35" class="cls-2" d="M62.52,55.1V48.38H64V55.1Z" transform="translate(-8.93 -30.08)"/><path id="path37" class="cls-2" d="M69.23,54.55a1.07,1.07,0,0,1-1.07.69,1,1,0,0,1-1-.69L65,48.38h1.56l1.64,5.24,1.7-5.24h1.53Z" transform="translate(-8.93 -30.08)"/><path id="path39" class="cls-2" d="M75.2,48.28c1.85,0,3.06,1.07,3.06,3.3a.58.58,0,0,1-.48.66h-4.3A1.78,1.78,0,0,0,75.28,54h.19a6,6,0,0,0,1.83-.32l.67-.21.21,1.12-.65.21a6.59,6.59,0,0,1-2.15.39,3.06,3.06,0,0,1-3.32-2.8,3.11,3.11,0,0,1,0-.61C72.07,49.35,73.54,48.28,75.2,48.28Zm0,1.08c-1,0-1.63.71-1.69,1.84h3.37a1.64,1.64,0,0,0-1.39-1.83Z" transform="translate(-8.93 -30.08)"/><path id="path41" class="cls-2" d="M83.17,49.54a8.14,8.14,0,0,0-2.25.25V55.1H79.51V49.64a.94.94,0,0,1,.81-1,9.45,9.45,0,0,1,2.85-.31Z" transform="translate(-8.93 -30.08)"/><path id="path43" class="cls-2" d="M87.56,51.29c1.2.2,1.88.81,1.88,1.83,0,1.39-1.13,2.07-2.5,2.07a7.91,7.91,0,0,1-2.41-.4l-.59-.17.22-1.17.6.19a7.36,7.36,0,0,0,2.18.4c.6,0,1.13-.23,1.13-.84,0-.42-.27-.68-.95-.79l-1.28-.21C84.64,52,84,51.38,84,50.36c0-1.39,1.15-2.06,2.51-2.06a8.21,8.21,0,0,1,2.41.39l.58.18-.22,1.18-.6-.2a7.94,7.94,0,0,0-2.15-.41c-.62,0-1.15.25-1.15.84,0,.43.27.69,1,.8Z" transform="translate(-8.93 -30.08)"/><path id="path45" class="cls-2" d="M91.64,47.51a.84.84,0,1,1,0-1.67h0a.83.83,0,0,1,.83.83.84.84,0,0,1-.83.84Z" transform="translate(-8.93 -30.08)"/><path id="polygon47" class="cls-2" d="M90.92,55.1V48.38h1.43V55.1Z" transform="translate(-8.93 -30.08)"/><path id="path49" class="cls-2" d="M98.1,54.94a6.41,6.41,0,0,1-1.57.23c-1.47,0-2.15-.81-2.15-2.36V49.59h-1V48.45h1V46.94l1.4-.27v1.78H97.9v1.14H95.78v3.28c0,.71.24,1.14,1,1.14a5.39,5.39,0,0,0,1.19-.2Z" transform="translate(-8.93 -30.08)"/><path id="path51" class="cls-2" d="M99,57.08,99.17,56a4.89,4.89,0,0,0,1.19.22.79.79,0,0,0,.88-.65l.08-.31-2.67-6.84h1.6L102,53.55l1.52-5.17h1.52l-2.39,7.14c-.41,1.2-1,1.82-2.2,1.82A5.08,5.08,0,0,1,99,57.08Z" transform="translate(-8.93 -30.08)"/><path id="path53" class="cls-2" d="M121.06,55.17c-2,0-3.23-1.25-3.23-3.42a3.09,3.09,0,0,1,2.71-3.43,3.5,3.5,0,0,1,.56,0c2,0,3.22,1.23,3.22,3.45a3.08,3.08,0,0,1-2.72,3.41A2.44,2.44,0,0,1,121.06,55.17Zm0-5.77c-1.18,0-1.77.86-1.77,2.35s.64,2.33,1.81,2.33,1.78-.82,1.78-2.33S122.22,49.4,121.06,49.4Z" transform="translate(-8.93 -30.08)"/><path id="path55" class="cls-2" d="M129.09,51.29c1.2.2,1.88.81,1.88,1.83,0,1.39-1.13,2.07-2.5,2.07a7.91,7.91,0,0,1-2.41-.4l-.59-.17.22-1.17.6.19a7.29,7.29,0,0,0,2.16.4c.6,0,1.13-.23,1.13-.84,0-.42-.27-.68-.94-.79l-1.28-.21c-1.2-.2-1.87-.82-1.87-1.84,0-1.39,1.15-2,2.5-2a7.88,7.88,0,0,1,2.41.38l.58.18-.22,1.18-.6-.2a7.5,7.5,0,0,0-2.15-.4c-.62,0-1.14.24-1.14.83,0,.43.27.69.95.8Z" transform="translate(-8.93 -30.08)"/><path id="path57" class="cls-2" d="M132.39,57.39V49.63a1,1,0,0,1,.8-1,7.52,7.52,0,0,1,2.11-.3c2,0,3.15,1.24,3.15,3.39s-1.06,3.43-3,3.43a5.6,5.6,0,0,1-1.62-.31v2.29ZM137,51.73c0-1.34-.53-2.22-1.83-2.22a6.06,6.06,0,0,0-1.4.2v4a6.13,6.13,0,0,0,1.47.26c1.27,0,1.77-.85,1.77-2.22Z" transform="translate(-8.93 -30.08)"/><path id="path59" class="cls-2" d="M140.53,47.5a.84.84,0,0,1-.84-.83.85.85,0,0,1,.84-.84h0a.84.84,0,0,1,.83.84A.83.83,0,0,1,140.53,47.5Z" transform="translate(-8.93 -30.08)"/><path id="polygon61" class="cls-2" d="M139.81,55.1V48.38h1.43V55.1Z" transform="translate(-8.93 -30.08)"/><path id="path63" class="cls-2" d="M147,54.94a6.41,6.41,0,0,1-1.57.23c-1.46,0-2.15-.81-2.15-2.36V49.59h-1V48.45h1V46.94l1.4-.27v1.78h2.13v1.14h-2.13v3.28c0,.71.25,1.14,1,1.14a5.3,5.3,0,0,0,1.18-.2Z" transform="translate(-8.93 -30.08)"/><path id="path65" class="cls-2" d="M153.89,55.25l-.59-.35a1.33,1.33,0,0,0-.94-.1l-.43.11a7.65,7.65,0,0,1-1.77.26c-1.45,0-2.31-.71-2.31-1.9,0-1.67,1.41-2.08,3-2.08h1.43v-.55c0-.85-.53-1.15-1.32-1.15a8.25,8.25,0,0,0-2,.37l-.63.19-.21-1.16.59-.18a7.92,7.92,0,0,1,2.41-.41c1.46,0,2.57.63,2.57,2.3v3.22l.77.47Zm-1.58-3h-1.65c-.89,0-1.4.27-1.4,1s.42.9,1.16.9a5.51,5.51,0,0,0,1.28-.2l.6-.15V52.22Z" transform="translate(-8.93 -30.08)"/><path id="path67" class="cls-2" d="M155.5,55.1V45.88L157,45.6v9.5Z" transform="translate(-8.93 -30.08)"/><path id="path69" class="cls-2" d="M52.07,46.09v5.75a1.83,1.83,0,0,1-1.58,2,1.61,1.61,0,0,1-.49,0,1.83,1.83,0,0,1-2-1.57,1.85,1.85,0,0,1,0-.47V46.09H46.31v5.7c0,2.18,1.3,3.47,3.7,3.47s3.71-1.3,3.71-3.47v-5.7Z" transform="translate(-8.93 -30.08)"/><path id="polygon71" class="cls-2" d="M109.27,46.09v9h1.63v-4h3.94v4h1.63v-9h-1.63v3.74H110.9V46.09Z" transform="translate(-8.93 -30.08)"/></g></g></g></g></g></svg>