<svg id="Layer_1" data-name="Layer 1" xmlns="http://www.w3.org/2000/svg" viewBox="0 0 65.48 64.79"><defs><style>.cls-1{fill:#2081b4;}</style></defs><g id="Group_529" data-name="Group 529"><path id="Path_1732" data-name="Path 1732" class="cls-1" d="M72.1,40.25l-6.53-6.53V17.77h0A4.62,4.62,0,0,0,61,13.15h0l-13,.06v-2.4h0a3.05,3.05,0,0,0-3.05-3.06H34.67a3.06,3.06,0,0,0-3.05,3.06v2.4l-13.25-.06h0a4.63,4.63,0,0,0-4.63,4.62V34.71H10.11a3,3,0,0,0-3,3v7.65a3,3,0,0,0,3.05,3.05H20.28a3.06,3.06,0,0,0,3-3.05V37.76h0a3.06,3.06,0,0,0-3-3H16.65V17.77a1.72,1.72,0,0,1,1.72-1.72l13.25.06v2.34a3.07,3.07,0,0,0,3.06,3.06h3.63V34.13c-.25,0-.49.08-.73.13a9.08,9.08,0,0,0-5.06,2.93A5.53,5.53,0,0,0,31.22,41a6.31,6.31,0,0,0,2,4.45,8.58,8.58,0,0,0,3.64,2.09,9.62,9.62,0,0,0,1.49.31v10a7.42,7.42,0,1,0,8.76,8.76H61A4.63,4.63,0,0,0,65.57,62V48.84l6.54-6.54A1.45,1.45,0,0,0,72.1,40.25ZM20.28,37.61a.15.15,0,0,1,.15.15v7.65a.15.15,0,0,1-.15.15H10.11a.15.15,0,0,1-.15-.15V37.76a.15.15,0,0,1,.15-.15Zm14.4-19a.16.16,0,0,1-.16-.16V10.81a.16.16,0,0,1,.16-.15H44.91a.15.15,0,0,1,.15.15v7.64a.15.15,0,0,1-.15.16Zm.54,24.76a3.47,3.47,0,0,1-1.1-2.46v0a2.63,2.63,0,0,1,.61-1.8,6.66,6.66,0,0,1,5.05-2.16,7.26,7.26,0,0,1,2.57.46,5.41,5.41,0,0,1,2.24,1.53,3,3,0,0,1,0,4.12,5.31,5.31,0,0,1-1.94,1.38,7.28,7.28,0,0,1-2.72.61,1.93,1.93,0,0,0-.34,0,7.06,7.06,0,0,1-1.94-.29,5.65,5.65,0,0,1-2.42-1.36Zm4.57,26.28a4.52,4.52,0,1,1,4.52-4.52,4.52,4.52,0,0,1-4.52,4.52ZM61,63.71H47.08a7.43,7.43,0,0,0-5.87-5.87v-10a10,10,0,0,0,2.59-.74,8.09,8.09,0,0,0,3-2.15,5.92,5.92,0,0,0,0-7.86,8.37,8.37,0,0,0-3.45-2.39,10.16,10.16,0,0,0-2.17-.55V21.51h3.7A3.06,3.06,0,0,0,48,18.45V16.11l13-.06a1.72,1.72,0,0,1,1.72,1.72v16l-6.54,6.53a1.46,1.46,0,0,0,0,2h0l6.54,6.53V62a1.72,1.72,0,0,1-1.73,1.72Zm3.17-17.52-4.91-4.91,4.91-4.91L69,41.28Z" transform="translate(-7.06 -7.75)"/><path id="Path_1733" data-name="Path 1733" class="cls-1" d="M39.79,63.39a1.74,1.74,0,1,0,1.74,1.74h0A1.74,1.74,0,0,0,39.79,63.39Z" transform="translate(-7.06 -7.75)"/></g></svg>