<svg id="Layer_1" data-name="Layer 1" xmlns="http://www.w3.org/2000/svg" viewBox="0 0 72.99 70.02"><defs><style>.cls-1{fill:#2081b4;}</style></defs><g id="Group_33" data-name="Group 33"><path id="Path_182" data-name="Path 182" class="cls-1" d="M64,51.88a1,1,0,0,0-1.28.66h0l-1.51,4.71a1,1,0,1,0,1.93.61l1.51-4.7A1,1,0,0,0,64,51.88Z" transform="translate(-3.03 -5.62)"/><path id="Path_183" data-name="Path 183" class="cls-1" d="M66.28,44.87a1,1,0,0,0-1.28.65h0l-1.51,4.66a1,1,0,0,0,1.91.67s0,0,0,0l1.51-4.67A1,1,0,0,0,66.28,44.87Z" transform="translate(-3.03 -5.62)"/><path id="Path_184" data-name="Path 184" class="cls-1" d="M55.07,24.36l4,2.89a1,1,0,0,0,1.18-1.65l-4-2.88a1,1,0,0,0-1.19,1.64Z" transform="translate(-3.03 -5.62)"/><path id="Path_185" data-name="Path 185" class="cls-1" d="M49.07,20l4,2.88a1,1,0,0,0,1.19-1.64l-4-2.89a1,1,0,0,0-1.41.25A1,1,0,0,0,49.07,20Z" transform="translate(-3.03 -5.62)"/><path id="Path_186" data-name="Path 186" class="cls-1" d="M25.29,23.09a1,1,0,0,0,.59-.2l4-2.88a1,1,0,0,0,.25-1.41,1,1,0,0,0-1.41-.25h0l-4,2.89a1,1,0,0,0-.23,1.42,1,1,0,0,0,.82.42Z" transform="translate(-3.03 -5.62)"/><path id="Path_187" data-name="Path 187" class="cls-1" d="M19.34,27.44a1,1,0,0,0,.59-.2l3.95-2.88a1,1,0,0,0-1.19-1.64l-4,2.89a1,1,0,0,0,.6,1.83Z" transform="translate(-3.03 -5.62)"/><path id="Path_188" data-name="Path 188" class="cls-1" d="M14.85,51.46a1,1,0,0,0,.65-1.28h0L14,45.52a1,1,0,1,0-1.94.58v0l1.52,4.67a1,1,0,0,0,1.26.65Z" transform="translate(-3.03 -5.62)"/><path id="Path_189" data-name="Path 189" class="cls-1" d="M16.8,58.57a1,1,0,0,0,1-1,1,1,0,0,0-.05-.3l-1.51-4.71a1,1,0,1,0-1.94.62l1.52,4.71A1,1,0,0,0,16.8,58.57Z" transform="translate(-3.03 -5.62)"/><path id="Path_190" data-name="Path 190" class="cls-1" d="M38.25,68.53H33.33a1,1,0,1,0,0,2h4.92a1,1,0,1,0,0-2Z" transform="translate(-3.03 -5.62)"/><path id="Path_191" data-name="Path 191" class="cls-1" d="M45.67,68.53H40.74a1,1,0,0,0,0,2h4.93a1,1,0,0,0,0-2Z" transform="translate(-3.03 -5.62)"/><path id="Path_192" data-name="Path 192" class="cls-1" d="M69.9,27.7a6.09,6.09,0,0,0-4.31,1.78l-3.34-2.41a1,1,0,0,0-1.18,1.64l3.34,2.42a5.94,5.94,0,0,0-.63,2.69,2.35,2.35,0,0,0,0,.26l-5.53,1.66A19.93,19.93,0,0,0,55,30.51l0-.05A20.35,20.35,0,0,0,41,23.4V17.67a6.06,6.06,0,0,0,2.76-1.54l3.29,2.4a1,1,0,1,0,1.22-1.62h0L45,14.5a6.12,6.12,0,1,0-10.93,0l-3.36,2.42a1,1,0,1,0,1.19,1.65h0l3.36-2.43A6.2,6.2,0,0,0,38,17.66V23.4A20.43,20.43,0,0,0,20.61,36.14L15.24,34.3a3.93,3.93,0,0,0,0-.49,6.06,6.06,0,0,0-.63-2.71l3.3-2.39a1,1,0,0,0-1.18-1.65l-3.31,2.4A6.12,6.12,0,1,0,10,39.87l1.25,3.91a1,1,0,1,0,1.93-.61h0L12,39.25a6.22,6.22,0,0,0,2.31-2.07L19.7,39a19.73,19.73,0,0,0-.54,4.32,1.65,1.65,0,0,0-.05.38,1.58,1.58,0,0,0,.05.38,20.26,20.26,0,0,0,4.73,12.64,1.41,1.41,0,0,0,.39.45,19.2,19.2,0,0,0,2.14,2.09L23,63.85a6.14,6.14,0,0,0-3.2-.38l-1.26-3.92a1,1,0,0,0-1.93.62l1.26,3.94a6.11,6.11,0,1,0,8.87,6.45h4.08a1,1,0,0,0,0-2H26.78a6.16,6.16,0,0,0-1.3-2.87l3.4-4.58a20.1,20.1,0,0,0,5.65,2.39l.28.07a20.28,20.28,0,0,0,4.32.55,1.58,1.58,0,0,0,.75,0,20.64,20.64,0,0,0,4.29-.53,1.44,1.44,0,0,0,.54-.14,20.11,20.11,0,0,0,5.44-2.32l3.38,4.56a6.06,6.06,0,0,0-1.29,2.87H48.12a1,1,0,1,0,0,2h4.12a6.11,6.11,0,1,0,8.83-6.47l1.29-3.91a1,1,0,0,0-1.93-.63l-1.29,3.92a6.4,6.4,0,0,0-.88-.07,6.23,6.23,0,0,0-2.29.45l-3.36-4.53a21.16,21.16,0,0,0,2.2-2.14,1.43,1.43,0,0,0,.37-.44,20.33,20.33,0,0,0,4.07-18.12L64.67,37a6.17,6.17,0,0,0,2.38,2.24l-1.29,3.93a1,1,0,0,0,.64,1.29,1,1,0,0,0,1.28-.64v0L69,39.86a6.12,6.12,0,1,0,1.85-12.09,5.82,5.82,0,0,0-.93-.07ZM6.07,33.82a3.08,3.08,0,1,1,6.15,0,3.32,3.32,0,0,1-.11.83A1.12,1.12,0,0,0,12,35a3.08,3.08,0,0,1-5.92-1.17ZM20.74,72.6a3.08,3.08,0,1,1,3.07-3.08h0A3.08,3.08,0,0,1,20.74,72.6Zm40.6-3.08a3.08,3.08,0,1,1-3.08-3.07h0a3.09,3.09,0,0,1,3.08,3.07Zm-8-15.41a34,34,0,0,0-3.88-1.41,38.13,38.13,0,0,0,1.06-7.43h6.21A17.28,17.28,0,0,1,53.39,54.11Zm-6.15,5.12a36.28,36.28,0,0,0,1.43-3.62c.86.26,1.71.55,2.55.89a17.61,17.61,0,0,1-4,2.74ZM41,61V54.3a31,31,0,0,1,4.69.57,34.4,34.4,0,0,1-2.61,5.81A18.3,18.3,0,0,1,41,61Zm-5-.3a35.3,35.3,0,0,1-2.63-5.81A31.07,31.07,0,0,1,38,54.3V61a16.28,16.28,0,0,1-2-.29ZM22.26,45.26h6.21a38.16,38.16,0,0,0,1.09,7.45,35.27,35.27,0,0,0-3.88,1.42,17.15,17.15,0,0,1-3.42-8.87Zm3.39-11.92a34.57,34.57,0,0,0,3.84,1.41,37.64,37.64,0,0,0-1,7.47h-6.2a17.21,17.21,0,0,1,3.39-8.88ZM38,26.46v6.72a32.42,32.42,0,0,1-4.71-.59,34.08,34.08,0,0,1,2.56-5.8A15.73,15.73,0,0,1,38,26.46Zm5.18.31a34.61,34.61,0,0,1,2.59,5.84,32.68,32.68,0,0,1-4.73.58V26.45a17.29,17.29,0,0,1,2.14.33Zm4.13,1.46a17.49,17.49,0,0,1,4,2.74c-.84.34-1.69.64-2.54.89a37.36,37.36,0,0,0-1.42-3.63ZM38,42.22H31.51a34.72,34.72,0,0,1,.92-6.72,34.68,34.68,0,0,0,5.55.71Zm0,3v6a34.68,34.68,0,0,0-5.47.7,34.62,34.62,0,0,1-1-6.71Zm3,0h6.51a35.05,35.05,0,0,1-1,6.69A35.68,35.68,0,0,0,41,51.27Zm0-3v-6a35.94,35.94,0,0,0,5.57-.7,34.44,34.44,0,0,1,.94,6.7ZM30.32,31.83c-.84-.26-1.68-.55-2.51-.88a17.65,17.65,0,0,1,3.89-2.69,36,36,0,0,0-1.38,3.57ZM27.85,56.52c.84-.34,1.7-.64,2.56-.9.42,1.24.9,2.45,1.44,3.64a17.32,17.32,0,0,1-4-2.74Zm22.73-14.3a38.1,38.1,0,0,0-1-7.44,35.05,35.05,0,0,0,3.87-1.41,17.27,17.27,0,0,1,3.38,8.85ZM36.44,11.74a3.08,3.08,0,1,1,3.08,3.08h0a3.09,3.09,0,0,1-3.08-3.07ZM69.9,36.89A3.08,3.08,0,1,1,73,33.82h0a3.07,3.07,0,0,1-3.07,3.07Z" transform="translate(-3.03 -5.62)"/></g></svg>