<svg id="Layer_1" data-name="Layer 1" xmlns="http://www.w3.org/2000/svg" viewBox="0 0 207.14 42.22"><defs><style>.cls-1{isolation:isolate;}.cls-2{fill:#516674;}.cls-3{fill:#039;}.cls-4{fill:#fc0;}</style></defs><g id="Co-funded_by_the_European_Union" data-name="Co-funded by the European Union" class="cls-1"><g class="cls-1"><path class="cls-2" d="M101.17,38.38a6.59,6.59,0,0,1-2.81.52,4.77,4.77,0,0,1-3.55-1.33A4.84,4.84,0,0,1,93.52,34,5.19,5.19,0,0,1,95,30.22a5.08,5.08,0,0,1,3.77-1.46,7.14,7.14,0,0,1,2.42.36v2.13a4.25,4.25,0,0,0-2.25-.59,3,3,0,0,0-2.23.87,3.23,3.23,0,0,0-.84,2.35,3.15,3.15,0,0,0,.8,2.27A2.82,2.82,0,0,0,98.8,37a4.62,4.62,0,0,0,2.37-.63Z" transform="translate(-16.11 -16.72)"/><path class="cls-2" d="M106,38.9a3.72,3.72,0,0,1-2.75-1,3.54,3.54,0,0,1-1-2.66,3.55,3.55,0,0,1,1-2.71,3.92,3.92,0,0,1,2.81-1,3.7,3.7,0,0,1,2.74,1,3.47,3.47,0,0,1,1,2.59,3.69,3.69,0,0,1-1,2.75A3.79,3.79,0,0,1,106,38.9Zm0-5.69a1.45,1.45,0,0,0-1.19.52,2.37,2.37,0,0,0-.42,1.5c0,1.34.54,2,1.63,2s1.55-.69,1.55-2.07S107.1,33.21,106.05,33.21Z" transform="translate(-16.11 -16.72)"/><path class="cls-2" d="M115,35.74h-3.74V34.23H115Z" transform="translate(-16.11 -16.72)"/><path class="cls-2" d="M121.45,30a2.21,2.21,0,0,0-.8-.17c-.7,0-1,.38-1,1.13v.75h1.6v1.59h-1.6v5.41h-2.15V33.32h-1.18V31.73h1.18v-.87a2.52,2.52,0,0,1,.77-1.93,3,3,0,0,1,2.12-.73,3.81,3.81,0,0,1,1.1.13Z" transform="translate(-16.11 -16.72)"/><path class="cls-2" d="M128.9,38.73h-2.15V37.66h0a2.46,2.46,0,0,1-2.14,1.24c-1.62,0-2.43-1-2.43-2.95V31.73h2.15v4c0,1,.39,1.48,1.18,1.48a1.16,1.16,0,0,0,.93-.41,1.63,1.63,0,0,0,.35-1.1v-4h2.15Z" transform="translate(-16.11 -16.72)"/><path class="cls-2" d="M137.48,38.73h-2.16V34.84c0-1.09-.38-1.63-1.16-1.63a1.14,1.14,0,0,0-.92.43,1.65,1.65,0,0,0-.36,1.09v4h-2.16v-7h2.16v1.1h0a2.49,2.49,0,0,1,2.25-1.28c1.55,0,2.33,1,2.33,2.89Z" transform="translate(-16.11 -16.72)"/><path class="cls-2" d="M146,38.73h-2.16v-1h0a2.42,2.42,0,0,1-2.17,1.14,2.65,2.65,0,0,1-2.11-.93,3.86,3.86,0,0,1-.8-2.59,4.17,4.17,0,0,1,.88-2.78A2.88,2.88,0,0,1,142,31.55a2,2,0,0,1,1.89,1h0V28.36H146Zm-2.12-3.41v-.53a1.63,1.63,0,0,0-.4-1.13,1.4,1.4,0,0,0-2.15.11,2.62,2.62,0,0,0-.41,1.55,2.24,2.24,0,0,0,.39,1.42,1.39,1.39,0,0,0,2.15,0A2.2,2.2,0,0,0,143.92,35.32Z" transform="translate(-16.11 -16.72)"/><path class="cls-2" d="M154.14,35.84h-4.56c.07,1,.71,1.52,1.92,1.52a3.78,3.78,0,0,0,2-.54v1.56a5.42,5.42,0,0,1-2.52.52,3.25,3.25,0,0,1-3.57-3.57,3.72,3.72,0,0,1,1-2.76,3.36,3.36,0,0,1,2.49-1,3.09,3.09,0,0,1,2.37.91,3.55,3.55,0,0,1,.83,2.47Zm-2-1.33c0-1-.4-1.5-1.22-1.5a1.14,1.14,0,0,0-.89.43,2,2,0,0,0-.47,1.07Z" transform="translate(-16.11 -16.72)"/><path class="cls-2" d="M162.28,38.73h-2.16v-1h0a2.41,2.41,0,0,1-2.17,1.14,2.65,2.65,0,0,1-2.11-.93,3.86,3.86,0,0,1-.8-2.59,4.23,4.23,0,0,1,.88-2.78,2.88,2.88,0,0,1,2.31-1.05,2,2,0,0,1,1.89,1h0V28.36h2.16Zm-2.12-3.41v-.53a1.63,1.63,0,0,0-.4-1.13,1.4,1.4,0,0,0-2.15.11,2.62,2.62,0,0,0-.4,1.55,2.24,2.24,0,0,0,.39,1.42,1.28,1.28,0,0,0,1.08.5,1.31,1.31,0,0,0,1.07-.52A2.26,2.26,0,0,0,160.16,35.32Z" transform="translate(-16.11 -16.72)"/><path class="cls-2" d="M170.15,37.91h0v.82H168V28.36h2.16v4.42h0a2.55,2.55,0,0,1,2.27-1.23,2.5,2.5,0,0,1,2.09.93,4,4,0,0,1,.73,2.55,4.36,4.36,0,0,1-.86,2.81,2.79,2.79,0,0,1-2.28,1.06A2.19,2.19,0,0,1,170.15,37.91ZM170.09,35v.72a1.64,1.64,0,0,0,.38,1.12,1.3,1.3,0,0,0,1,.44,1.34,1.34,0,0,0,1.15-.57,2.77,2.77,0,0,0,.4-1.62,2.17,2.17,0,0,0-.37-1.35,1.24,1.24,0,0,0-1.06-.49,1.4,1.4,0,0,0-1.08.48A1.89,1.89,0,0,0,170.09,35Z" transform="translate(-16.11 -16.72)"/><path class="cls-2" d="M183.31,31.73l-2.85,7.56c-.68,1.81-1.71,2.72-3.09,2.72a3.93,3.93,0,0,1-1.29-.18V40.11a1.82,1.82,0,0,0,.94.26,1.18,1.18,0,0,0,1.16-.79l.37-.87-2.85-7h2.4L179.4,36a5.36,5.36,0,0,1,.19.94h0a6.47,6.47,0,0,1,.23-.92l1.32-4.27Z" transform="translate(-16.11 -16.72)"/></g><g class="cls-1"><path class="cls-2" d="M98.16,55.64a3.18,3.18,0,0,1-1.45.26c-1.52,0-2.28-.8-2.28-2.38v-3.2H93.3v-1.6h1.13V47.21l2.16-.61v2.12h1.57v1.6H96.59v2.83c0,.73.28,1.09.86,1.09a1.5,1.5,0,0,0,.71-.2Z" transform="translate(-16.11 -16.72)"/><path class="cls-2" d="M106.09,55.72h-2.15v-4c0-1-.37-1.54-1.12-1.54a1.15,1.15,0,0,0-.93.43,1.65,1.65,0,0,0-.36,1.09v4H99.37V45.36h2.16v4.4h0a2.47,2.47,0,0,1,2.15-1.21c1.59,0,2.38,1,2.38,2.87Z" transform="translate(-16.11 -16.72)"/><path class="cls-2" d="M114.09,52.84h-4.56c.07,1,.71,1.52,1.92,1.52a3.8,3.8,0,0,0,2-.54v1.56a5.44,5.44,0,0,1-2.53.52,3.25,3.25,0,0,1-3.56-3.57,3.72,3.72,0,0,1,1-2.76,3.36,3.36,0,0,1,2.49-1,3.05,3.05,0,0,1,2.36.91,3.51,3.51,0,0,1,.84,2.47Zm-2-1.33c0-1-.41-1.5-1.22-1.5a1.17,1.17,0,0,0-.9.43,2,2,0,0,0-.46,1.07Z" transform="translate(-16.11 -16.72)"/><path class="cls-2" d="M125.33,55.72h-5.88v-9.8h5.65v1.8h-3.44V49.9h3.21v1.79h-3.21v2.24h3.67Z" transform="translate(-16.11 -16.72)"/><path class="cls-2" d="M133.34,55.72h-2.15V54.66h0A2.44,2.44,0,0,1,129,55.9c-1.62,0-2.43-1-2.43-2.95V48.72h2.15v4c0,1,.4,1.48,1.18,1.48a1.13,1.13,0,0,0,.93-.41,1.63,1.63,0,0,0,.35-1.1v-4h2.15Z" transform="translate(-16.11 -16.72)"/><path class="cls-2" d="M139.73,50.67a1.91,1.91,0,0,0-.91-.21,1.29,1.29,0,0,0-1.1.52,2.2,2.2,0,0,0-.4,1.4v3.34h-2.16v-7h2.16V50h0a1.87,1.87,0,0,1,1.84-1.42,1.54,1.54,0,0,1,.54.08Z" transform="translate(-16.11 -16.72)"/><path class="cls-2" d="M144,55.9a3.75,3.75,0,0,1-2.75-1,4,4,0,0,1,0-5.37,3.9,3.9,0,0,1,2.81-1,3.69,3.69,0,0,1,2.73,1,3.47,3.47,0,0,1,1,2.59,3.69,3.69,0,0,1-1,2.75A3.78,3.78,0,0,1,144,55.9Zm.06-5.69a1.44,1.44,0,0,0-1.19.52,2.34,2.34,0,0,0-.43,1.49c0,1.35.55,2,1.63,2s1.55-.69,1.55-2.07S145.11,50.21,144.07,50.21Z" transform="translate(-16.11 -16.72)"/><path class="cls-2" d="M151.42,54.91h0v4h-2.16V48.72h2.16v1.06h0a2.74,2.74,0,0,1,4.35-.29,3.94,3.94,0,0,1,.75,2.54,4.31,4.31,0,0,1-.87,2.81,2.84,2.84,0,0,1-2.3,1.06A2.19,2.19,0,0,1,151.42,54.91ZM151.36,52v.56a1.8,1.8,0,0,0,.38,1.18,1.24,1.24,0,0,0,1,.46,1.32,1.32,0,0,0,1.14-.57,2.7,2.7,0,0,0,.41-1.62c0-1.23-.48-1.84-1.43-1.84a1.36,1.36,0,0,0-1.09.5A2,2,0,0,0,151.36,52Z" transform="translate(-16.11 -16.72)"/><path class="cls-2" d="M164.21,52.84h-4.57c.07,1,.71,1.52,1.92,1.52a3.78,3.78,0,0,0,2-.54v1.56a5.42,5.42,0,0,1-2.52.52,3.26,3.26,0,0,1-3.57-3.57,3.76,3.76,0,0,1,1-2.76,3.39,3.39,0,0,1,2.49-1,3.09,3.09,0,0,1,2.37.91,3.51,3.51,0,0,1,.84,2.47Zm-2-1.33c0-1-.4-1.5-1.21-1.5a1.14,1.14,0,0,0-.9.43,1.87,1.87,0,0,0-.46,1.07Z" transform="translate(-16.11 -16.72)"/><path class="cls-2" d="M171.32,55.72h-2v-1h0a2.29,2.29,0,0,1-2.08,1.18,2.19,2.19,0,0,1-1.6-.58,2.08,2.08,0,0,1-.59-1.54c0-1.36.81-2.15,2.41-2.36l1.91-.25c0-.76-.42-1.15-1.25-1.15a4.24,4.24,0,0,0-2.38.75V49.14a5.58,5.58,0,0,1,1.24-.41,6.34,6.34,0,0,1,1.42-.18c2,0,3,1,3,3Zm-2-2.84v-.47l-1.28.16c-.7.09-1,.41-1,1a.8.8,0,0,0,.26.61,1,1,0,0,0,.69.23,1.26,1.26,0,0,0,1-.42A1.49,1.49,0,0,0,169.29,52.88Z" transform="translate(-16.11 -16.72)"/><path class="cls-2" d="M179.79,55.72h-2.16V51.83c0-1.08-.39-1.62-1.16-1.62a1.14,1.14,0,0,0-.92.43,1.65,1.65,0,0,0-.37,1.09v4H173v-7h2.16v1.11h0a2.49,2.49,0,0,1,2.25-1.28c1.55,0,2.33,1,2.33,2.89Z" transform="translate(-16.11 -16.72)"/><path class="cls-2" d="M193.56,51.48c0,2.94-1.37,4.42-4.12,4.42s-4-1.44-4-4.32V45.92h2.22v5.69c0,1.59.62,2.38,1.86,2.38s1.82-.77,1.82-2.3V45.92h2.21Z" transform="translate(-16.11 -16.72)"/><path class="cls-2" d="M202.24,55.72h-2.15V51.83c0-1.08-.39-1.62-1.16-1.62a1.15,1.15,0,0,0-.93.43,1.65,1.65,0,0,0-.36,1.09v4h-2.16v-7h2.16v1.11h0a2.47,2.47,0,0,1,2.25-1.28c1.55,0,2.32,1,2.32,2.89Z" transform="translate(-16.11 -16.72)"/><path class="cls-2" d="M205,47.62a1.24,1.24,0,0,1-.89-.33,1.08,1.08,0,0,1,0-1.59,1.49,1.49,0,0,1,1.79,0,1,1,0,0,1,.35.8,1,1,0,0,1-.35.8A1.29,1.29,0,0,1,205,47.62Zm1.07,8.1H204v-7h2.16Z" transform="translate(-16.11 -16.72)"/><path class="cls-2" d="M211.26,55.9a3.75,3.75,0,0,1-2.75-1,4,4,0,0,1,0-5.37,3.9,3.9,0,0,1,2.81-1,3.69,3.69,0,0,1,2.73,1,3.44,3.44,0,0,1,1,2.59,3.66,3.66,0,0,1-1,2.75A3.78,3.78,0,0,1,211.26,55.9Zm.06-5.69a1.44,1.44,0,0,0-1.19.52,2.34,2.34,0,0,0-.42,1.49c0,1.35.54,2,1.62,2s1.55-.69,1.55-2.07S212.36,50.21,211.32,50.21Z" transform="translate(-16.11 -16.72)"/><path class="cls-2" d="M223.25,55.72h-2.16V51.83c0-1.08-.38-1.62-1.16-1.62a1.14,1.14,0,0,0-.92.43,1.65,1.65,0,0,0-.36,1.09v4h-2.16v-7h2.16v1.11h0a2.49,2.49,0,0,1,2.25-1.28c1.55,0,2.33,1,2.33,2.89Z" transform="translate(-16.11 -16.72)"/></g></g><g id="Group_302" data-name="Group 302"><rect id="Rectangle_62" data-name="Rectangle 62" class="cls-3" width="64" height="42"/><g id="Group_268" data-name="Group 268"><g id="Group_145" data-name="Group 145"><g id="s"><g id="c"><path id="t" class="cls-4" d="M48,21.34l-.73,2.26,1.13.37Z" transform="translate(-16.11 -16.72)"/><g id="Group_135" data-name="Group 135"><path id="t-2" class="cls-4" d="M48,21.34l.74,2.26L47.56,24Z" transform="translate(-16.11 -16.72)"/></g></g><g id="a"><g id="Group_137" data-name="Group 137"><g id="c-2"><path id="t-3" class="cls-4" d="M50.21,23H47.83v1.19Z" transform="translate(-16.11 -16.72)"/><g id="Group_136" data-name="Group 136"><path id="t-4" class="cls-4" d="M50.21,23l-1.92,1.4-.7-1Z" transform="translate(-16.11 -16.72)"/></g></g></g><g id="Group_139" data-name="Group 139"><g id="c-3"><path id="t-5" class="cls-4" d="M49.35,25.63l-.74-2.25-1.12.36Z" transform="translate(-16.11 -16.72)"/><g id="Group_138" data-name="Group 138"><path id="t-6" class="cls-4" d="M49.35,25.63l-1.92-1.39.7-1Z" transform="translate(-16.11 -16.72)"/></g></g></g></g><g id="Group_144" data-name="Group 144"><g id="a-2"><g id="Group_141" data-name="Group 141"><g id="c-4"><path id="t-7" class="cls-4" d="M45.7,23h2.37v1.19Z" transform="translate(-16.11 -16.72)"/><g id="Group_140" data-name="Group 140"><path id="t-8" class="cls-4" d="M45.7,23l1.92,1.4.7-1Z" transform="translate(-16.11 -16.72)"/></g></g></g><g id="Group_143" data-name="Group 143"><g id="c-5"><path id="t-9" class="cls-4" d="M46.56,25.63l.73-2.25,1.13.36Z" transform="translate(-16.11 -16.72)"/><g id="Group_142" data-name="Group 142"><path id="t-10" class="cls-4" d="M46.56,25.63l1.92-1.39-.7-1Z" transform="translate(-16.11 -16.72)"/></g></g></g></g></g></g></g><g id="Group_156" data-name="Group 156"><g id="s-2"><g id="c-6"><path id="t-11" class="cls-4" d="M48,49.79l-.73,2.26,1.13.36Z" transform="translate(-16.11 -16.72)"/><g id="Group_146" data-name="Group 146"><path id="t-12" class="cls-4" d="M48,49.79l.74,2.26-1.13.36Z" transform="translate(-16.11 -16.72)"/></g></g><g id="a-3"><g id="Group_148" data-name="Group 148"><g id="c-7"><path id="t-13" class="cls-4" d="M50.21,51.43H47.83v1.18Z" transform="translate(-16.11 -16.72)"/><g id="Group_147" data-name="Group 147"><path id="t-14" class="cls-4" d="M50.21,51.43l-1.92,1.39-.7-1Z" transform="translate(-16.11 -16.72)"/></g></g></g><g id="Group_150" data-name="Group 150"><g id="c-8"><path id="t-15" class="cls-4" d="M49.35,54.08l-.74-2.25-1.12.36Z" transform="translate(-16.11 -16.72)"/><g id="Group_149" data-name="Group 149"><path id="t-16" class="cls-4" d="M49.35,54.08l-1.92-1.39.7-1Z" transform="translate(-16.11 -16.72)"/></g></g></g></g><g id="Group_155" data-name="Group 155"><g id="a-4"><g id="Group_152" data-name="Group 152"><g id="c-9"><path id="t-17" class="cls-4" d="M45.7,51.43h2.37v1.18Z" transform="translate(-16.11 -16.72)"/><g id="Group_151" data-name="Group 151"><path id="t-18" class="cls-4" d="M45.7,51.43l1.92,1.39.7-1Z" transform="translate(-16.11 -16.72)"/></g></g></g><g id="Group_154" data-name="Group 154"><g id="c-10"><path id="t-19" class="cls-4" d="M46.56,54.08l.73-2.25,1.13.36Z" transform="translate(-16.11 -16.72)"/><g id="Group_153" data-name="Group 153"><path id="t-20" class="cls-4" d="M46.56,54.08l1.92-1.39-.7-1Z" transform="translate(-16.11 -16.72)"/></g></g></g></g></g></g></g><g id="l"><g id="Group_167" data-name="Group 167"><g id="s-3"><g id="c-11"><path id="t-21" class="cls-4" d="M33.73,35.57,33,37.82l1.12.37Z" transform="translate(-16.11 -16.72)"/><g id="Group_157" data-name="Group 157"><path id="t-22" class="cls-4" d="M33.73,35.57l.73,2.25-1.12.37Z" transform="translate(-16.11 -16.72)"/></g></g><g id="a-5"><g id="Group_159" data-name="Group 159"><g id="c-12"><path id="t-23" class="cls-4" d="M36,37.21H33.61v1.18Z" transform="translate(-16.11 -16.72)"/><g id="Group_158" data-name="Group 158"><path id="t-24" class="cls-4" d="M36,37.21,34.07,38.6l-.7-1Z" transform="translate(-16.11 -16.72)"/></g></g></g><g id="Group_161" data-name="Group 161"><g id="c-13"><path id="t-25" class="cls-4" d="M35.12,39.86l-.73-2.26L33.26,38Z" transform="translate(-16.11 -16.72)"/><g id="Group_160" data-name="Group 160"><path id="t-26" class="cls-4" d="M35.12,39.86l-1.91-1.4.7-1Z" transform="translate(-16.11 -16.72)"/></g></g></g></g><g id="Group_166" data-name="Group 166"><g id="a-6"><g id="Group_163" data-name="Group 163"><g id="c-14"><path id="t-27" class="cls-4" d="M31.48,37.21h2.37v1.18Z" transform="translate(-16.11 -16.72)"/><g id="Group_162" data-name="Group 162"><path id="t-28" class="cls-4" d="M31.48,37.21l1.91,1.39.7-1Z" transform="translate(-16.11 -16.72)"/></g></g></g><g id="Group_165" data-name="Group 165"><g id="c-15"><path id="t-29" class="cls-4" d="M32.34,39.86l.73-2.26L34.2,38Z" transform="translate(-16.11 -16.72)"/><g id="Group_164" data-name="Group 164"><path id="t-30" class="cls-4" d="M32.34,39.86l1.91-1.4-.7-1Z" transform="translate(-16.11 -16.72)"/></g></g></g></g></g></g></g><g id="Group_178" data-name="Group 178"><g id="s-4"><g id="c-16"><path id="t-31" class="cls-4" d="M39.45,27.54l1.92-1.39-.7-1Z" transform="translate(-16.11 -16.72)"/><g id="Group_168" data-name="Group 168"><path id="t-32" class="cls-4" d="M39.45,27.54l.73-2.26,1.13.37Z" transform="translate(-16.11 -16.72)"/></g></g><g id="a-7"><g id="Group_170" data-name="Group 170"><g id="c-17"><path id="t-33" class="cls-4" d="M38.59,24.89l1.92,1.39.7-1Z" transform="translate(-16.11 -16.72)"/><g id="Group_169" data-name="Group 169"><path id="t-34" class="cls-4" d="M38.59,24.89H41v1.18Z" transform="translate(-16.11 -16.72)"/></g></g></g><g id="Group_172" data-name="Group 172"><g id="c-18"><path id="t-35" class="cls-4" d="M40.84,23.25l-.73,2.26,1.13.36Z" transform="translate(-16.11 -16.72)"/><g id="Group_171" data-name="Group 171"><path id="t-36" class="cls-4" d="M40.84,23.25l.74,2.26-1.13.36Z" transform="translate(-16.11 -16.72)"/></g></g></g></g><g id="Group_177" data-name="Group 177"><g id="a-8"><g id="Group_174" data-name="Group 174"><g id="c-19"><path id="t-37" class="cls-4" d="M42.24,27.54l-1.92-1.39.7-1Z" transform="translate(-16.11 -16.72)"/><g id="Group_173" data-name="Group 173"><path id="t-38" class="cls-4" d="M42.24,27.54l-.74-2.26-1.12.37Z" transform="translate(-16.11 -16.72)"/></g></g></g><g id="Group_176" data-name="Group 176"><g id="c-20"><path id="t-39" class="cls-4" d="M43.1,24.89l-1.92,1.39-.7-1Z" transform="translate(-16.11 -16.72)"/><g id="Group_175" data-name="Group 175"><path id="t-40" class="cls-4" d="M43.09,24.89H40.72v1.18Z" transform="translate(-16.11 -16.72)"/></g></g></g></g></g></g></g><g id="Group_189" data-name="Group 189"><g id="s-5"><g id="c-21"><path id="t-41" class="cls-4" d="M37,32.75l-.73-2.26-1.13.37Z" transform="translate(-16.11 -16.72)"/><g id="Group_179" data-name="Group 179"><path id="t-42" class="cls-4" d="M37,32.74l-1.91-1.39.7-1Z" transform="translate(-16.11 -16.72)"/></g></g><g id="a-9"><g id="Group_181" data-name="Group 181"><g id="c-22"><path id="t-43" class="cls-4" d="M34.24,32.74l1.92-1.39-.7-1Z" transform="translate(-16.11 -16.72)"/><g id="Group_180" data-name="Group 180"><path id="t-44" class="cls-4" d="M34.24,32.75,35,30.49l1.12.37Z" transform="translate(-16.11 -16.72)"/></g></g></g><g id="Group_183" data-name="Group 183"><g id="c-23"><path id="t-45" class="cls-4" d="M33.38,30.09l1.92,1.4.7-1Z" transform="translate(-16.11 -16.72)"/><g id="Group_182" data-name="Group 182"><path id="t-46" class="cls-4" d="M33.38,30.09h2.37v1.19Z" transform="translate(-16.11 -16.72)"/></g></g></g></g><g id="Group_188" data-name="Group 188"><g id="a-10"><g id="Group_185" data-name="Group 185"><g id="c-24"><path id="t-47" class="cls-4" d="M37.89,30.09,36,31.49l-.7-1Z" transform="translate(-16.11 -16.72)"/><g id="Group_184" data-name="Group 184"><path id="t-48" class="cls-4" d="M37.89,30.09H35.52v1.19Z" transform="translate(-16.11 -16.72)"/></g></g></g><g id="Group_187" data-name="Group 187"><g id="c-25"><path id="t-49" class="cls-4" d="M35.64,28.46l.73,2.25-1.13.37Z" transform="translate(-16.11 -16.72)"/><g id="Group_186" data-name="Group 186"><path id="t-50" class="cls-4" d="M35.64,28.46l-.74,2.25,1.13.37Z" transform="translate(-16.11 -16.72)"/></g></g></g></g></g></g></g><g id="Group_200" data-name="Group 200"><g id="s-6"><g id="c-26"><path id="t-51" class="cls-4" d="M37.89,44.32H35.52V45.5Z" transform="translate(-16.11 -16.72)"/><g id="Group_190" data-name="Group 190"><path id="t-52" class="cls-4" d="M37.89,44.32,36,45.71l-.7-1Z" transform="translate(-16.11 -16.72)"/></g></g><g id="a-11"><g id="Group_192" data-name="Group 192"><g id="c-27"><path id="t-53" class="cls-4" d="M37,47l-.73-2.26-1.13.37Z" transform="translate(-16.11 -16.72)"/><g id="Group_191" data-name="Group 191"><path id="t-54" class="cls-4" d="M37,47l-1.91-1.39.7-1Z" transform="translate(-16.11 -16.72)"/></g></g></g><g id="Group_194" data-name="Group 194"><g id="c-28"><path id="t-55" class="cls-4" d="M34.24,47l1.92-1.39-.7-1Z" transform="translate(-16.11 -16.72)"/><g id="Group_193" data-name="Group 193"><path id="t-56" class="cls-4" d="M34.24,47,35,44.71l1.12.37Z" transform="translate(-16.11 -16.72)"/></g></g></g></g><g id="Group_199" data-name="Group 199"><g id="a-12"><g id="Group_196" data-name="Group 196"><g id="c-29"><path id="t-57" class="cls-4" d="M35.64,42.68l.73,2.26-1.13.36Z" transform="translate(-16.11 -16.72)"/><g id="Group_195" data-name="Group 195"><path id="t-58" class="cls-4" d="M35.64,42.68l-.74,2.26L36,45.3Z" transform="translate(-16.11 -16.72)"/></g></g></g><g id="Group_198" data-name="Group 198"><g id="c-30"><path id="t-59" class="cls-4" d="M33.38,44.32h2.37V45.5Z" transform="translate(-16.11 -16.72)"/><g id="Group_197" data-name="Group 197"><path id="t-60" class="cls-4" d="M33.38,44.32l1.92,1.39.7-1Z" transform="translate(-16.11 -16.72)"/></g></g></g></g></g></g></g><g id="Group_211" data-name="Group 211"><g id="s-7"><g id="c-31"><path id="t-61" class="cls-4" d="M43.09,49.52H40.72v1.19Z" transform="translate(-16.11 -16.72)"/><g id="Group_201" data-name="Group 201"><path id="t-62" class="cls-4" d="M43.1,49.52l-1.92,1.4-.7-1Z" transform="translate(-16.11 -16.72)"/></g></g><g id="a-13"><g id="Group_203" data-name="Group 203"><g id="c-32"><path id="t-63" class="cls-4" d="M42.24,52.18l-.74-2.26-1.12.37Z" transform="translate(-16.11 -16.72)"/><g id="Group_202" data-name="Group 202"><path id="t-64" class="cls-4" d="M42.24,52.17l-1.92-1.39.7-1Z" transform="translate(-16.11 -16.72)"/></g></g></g><g id="Group_205" data-name="Group 205"><g id="c-33"><path id="t-65" class="cls-4" d="M39.45,52.17l1.92-1.39-.7-1Z" transform="translate(-16.11 -16.72)"/><g id="Group_204" data-name="Group 204"><path id="t-66" class="cls-4" d="M39.45,52.18l.73-2.26,1.13.37Z" transform="translate(-16.11 -16.72)"/></g></g></g></g><g id="Group_210" data-name="Group 210"><g id="a-14"><g id="Group_207" data-name="Group 207"><g id="c-34"><path id="t-67" class="cls-4" d="M40.84,47.89l.74,2.25-1.13.37Z" transform="translate(-16.11 -16.72)"/><g id="Group_206" data-name="Group 206"><path id="t-68" class="cls-4" d="M40.84,47.89l-.73,2.25,1.13.37Z" transform="translate(-16.11 -16.72)"/></g></g></g><g id="Group_209" data-name="Group 209"><g id="c-35"><path id="t-69" class="cls-4" d="M38.59,49.52H41v1.19Z" transform="translate(-16.11 -16.72)"/><g id="Group_208" data-name="Group 208"><path id="t-70" class="cls-4" d="M38.59,49.52l1.92,1.4.7-1Z" transform="translate(-16.11 -16.72)"/></g></g></g></g></g></g></g></g><g id="Group_267" data-name="Group 267"><g id="l-2"><g id="Group_222" data-name="Group 222"><g id="s-8"><g id="c-36"><path id="t-71" class="cls-4" d="M62.18,35.57l.73,2.25-1.13.37Z" transform="translate(-16.11 -16.72)"/><g id="Group_212" data-name="Group 212"><path id="t-72" class="cls-4" d="M62.18,35.57l-.74,2.25,1.13.37Z" transform="translate(-16.11 -16.72)"/></g></g><g id="a-15"><g id="Group_214" data-name="Group 214"><g id="c-37"><path id="t-73" class="cls-4" d="M59.92,37.21h2.37v1.18Z" transform="translate(-16.11 -16.72)"/><g id="Group_213" data-name="Group 213"><path id="t-74" class="cls-4" d="M59.92,37.21l1.92,1.39.7-1Z" transform="translate(-16.11 -16.72)"/></g></g></g><g id="Group_216" data-name="Group 216"><g id="c-38"><path id="t-75" class="cls-4" d="M60.78,39.86l.74-2.26,1.12.37Z" transform="translate(-16.11 -16.72)"/><g id="Group_215" data-name="Group 215"><path id="t-76" class="cls-4" d="M60.78,39.86l1.92-1.4-.7-1Z" transform="translate(-16.11 -16.72)"/></g></g></g></g><g id="Group_221" data-name="Group 221"><g id="a-16"><g id="Group_218" data-name="Group 218"><g id="c-39"><path id="t-77" class="cls-4" d="M64.43,37.21H62.06v1.18Z" transform="translate(-16.11 -16.72)"/><g id="Group_217" data-name="Group 217"><path id="t-78" class="cls-4" d="M64.43,37.21,62.51,38.6l-.7-1Z" transform="translate(-16.11 -16.72)"/></g></g></g><g id="Group_220" data-name="Group 220"><g id="c-40"><path id="t-79" class="cls-4" d="M63.57,39.86l-.73-2.26L61.71,38Z" transform="translate(-16.11 -16.72)"/><g id="Group_219" data-name="Group 219"><path id="t-80" class="cls-4" d="M63.57,39.86l-1.92-1.4.7-1Z" transform="translate(-16.11 -16.72)"/></g></g></g></g></g></g></g><g id="Group_233" data-name="Group 233"><g id="s-9"><g id="c-41"><path id="t-81" class="cls-4" d="M56.46,27.54l-1.92-1.39.7-1Z" transform="translate(-16.11 -16.72)"/><g id="Group_223" data-name="Group 223"><path id="t-82" class="cls-4" d="M56.46,27.54l-.73-2.26-1.13.37Z" transform="translate(-16.11 -16.72)"/></g></g><g id="a-17"><g id="Group_225" data-name="Group 225"><g id="c-42"><path id="t-83" class="cls-4" d="M57.32,24.89,55.4,26.28l-.7-1Z" transform="translate(-16.11 -16.72)"/><g id="Group_224" data-name="Group 224"><path id="t-84" class="cls-4" d="M57.32,24.89H55v1.18Z" transform="translate(-16.11 -16.72)"/></g></g></g><g id="Group_227" data-name="Group 227"><g id="c-43"><path id="t-85" class="cls-4" d="M55.07,23.25l.73,2.26-1.13.36Z" transform="translate(-16.11 -16.72)"/><g id="Group_226" data-name="Group 226"><path id="t-86" class="cls-4" d="M55.07,23.25l-.74,2.26,1.13.36Z" transform="translate(-16.11 -16.72)"/></g></g></g></g><g id="Group_232" data-name="Group 232"><g id="a-18"><g id="Group_229" data-name="Group 229"><g id="c-44"><path id="t-87" class="cls-4" d="M53.67,27.54l1.92-1.39-.7-1Z" transform="translate(-16.11 -16.72)"/><g id="Group_228" data-name="Group 228"><path id="t-88" class="cls-4" d="M53.67,27.54l.73-2.26,1.13.37Z" transform="translate(-16.11 -16.72)"/></g></g></g><g id="Group_231" data-name="Group 231"><g id="c-45"><path id="t-89" class="cls-4" d="M52.81,24.89l1.92,1.39.7-1Z" transform="translate(-16.11 -16.72)"/><g id="Group_230" data-name="Group 230"><path id="t-90" class="cls-4" d="M52.81,24.89h2.37v1.18Z" transform="translate(-16.11 -16.72)"/></g></g></g></g></g></g></g><g id="Group_244" data-name="Group 244"><g id="s-10"><g id="c-46"><path id="t-91" class="cls-4" d="M58.88,32.75l.73-2.26,1.13.37Z" transform="translate(-16.11 -16.72)"/><g id="Group_234" data-name="Group 234"><path id="t-92" class="cls-4" d="M58.88,32.74l1.92-1.39-.7-1Z" transform="translate(-16.11 -16.72)"/></g></g><g id="a-19"><g id="Group_236" data-name="Group 236"><g id="c-47"><path id="t-93" class="cls-4" d="M61.66,32.74l-1.91-1.39.7-1Z" transform="translate(-16.11 -16.72)"/><g id="Group_235" data-name="Group 235"><path id="t-94" class="cls-4" d="M61.66,32.75l-.73-2.26-1.13.37Z" transform="translate(-16.11 -16.72)"/></g></g></g><g id="Group_238" data-name="Group 238"><g id="c-48"><path id="t-95" class="cls-4" d="M62.53,30.09l-1.92,1.4-.7-1Z" transform="translate(-16.11 -16.72)"/><g id="Group_237" data-name="Group 237"><path id="t-96" class="cls-4" d="M62.53,30.09H60.15v1.19Z" transform="translate(-16.11 -16.72)"/></g></g></g></g><g id="Group_243" data-name="Group 243"><g id="a-20"><g id="Group_240" data-name="Group 240"><g id="c-49"><path id="t-97" class="cls-4" d="M58,30.09l1.91,1.4.7-1Z" transform="translate(-16.11 -16.72)"/><g id="Group_239" data-name="Group 239"><path id="t-98" class="cls-4" d="M58,30.09h2.37v1.19Z" transform="translate(-16.11 -16.72)"/></g></g></g><g id="Group_242" data-name="Group 242"><g id="c-50"><path id="t-99" class="cls-4" d="M60.27,28.46l-.73,2.25,1.13.37Z" transform="translate(-16.11 -16.72)"/><g id="Group_241" data-name="Group 241"><path id="t-100" class="cls-4" d="M60.27,28.46,61,30.71l-1.12.37Z" transform="translate(-16.11 -16.72)"/></g></g></g></g></g></g></g><g id="Group_255" data-name="Group 255"><g id="s-11"><g id="c-51"><path id="t-101" class="cls-4" d="M58,44.32h2.37V45.5Z" transform="translate(-16.11 -16.72)"/><g id="Group_245" data-name="Group 245"><path id="t-102" class="cls-4" d="M58,44.32l1.91,1.39.7-1Z" transform="translate(-16.11 -16.72)"/></g></g><g id="a-21"><g id="Group_247" data-name="Group 247"><g id="c-52"><path id="t-103" class="cls-4" d="M58.88,47l.73-2.26,1.13.37Z" transform="translate(-16.11 -16.72)"/><g id="Group_246" data-name="Group 246"><path id="t-104" class="cls-4" d="M58.88,47l1.92-1.39-.7-1Z" transform="translate(-16.11 -16.72)"/></g></g></g><g id="Group_249" data-name="Group 249"><g id="c-53"><path id="t-105" class="cls-4" d="M61.66,47l-1.91-1.39.7-1Z" transform="translate(-16.11 -16.72)"/><g id="Group_248" data-name="Group 248"><path id="t-106" class="cls-4" d="M61.66,47l-.73-2.26-1.13.37Z" transform="translate(-16.11 -16.72)"/></g></g></g></g><g id="Group_254" data-name="Group 254"><g id="a-22"><g id="Group_251" data-name="Group 251"><g id="c-54"><path id="t-107" class="cls-4" d="M60.27,42.68l-.73,2.26,1.13.36Z" transform="translate(-16.11 -16.72)"/><g id="Group_250" data-name="Group 250"><path id="t-108" class="cls-4" d="M60.27,42.68,61,44.94l-1.12.36Z" transform="translate(-16.11 -16.72)"/></g></g></g><g id="Group_253" data-name="Group 253"><g id="c-55"><path id="t-109" class="cls-4" d="M62.53,44.32H60.16V45.5Z" transform="translate(-16.11 -16.72)"/><g id="Group_252" data-name="Group 252"><path id="t-110" class="cls-4" d="M62.53,44.32l-1.92,1.39-.7-1Z" transform="translate(-16.11 -16.72)"/></g></g></g></g></g></g></g><g id="Group_266" data-name="Group 266"><g id="s-12"><g id="c-56"><path id="t-111" class="cls-4" d="M52.81,49.52h2.37v1.19Z" transform="translate(-16.11 -16.72)"/><g id="Group_256" data-name="Group 256"><path id="t-112" class="cls-4" d="M52.81,49.52l1.92,1.4.7-1Z" transform="translate(-16.11 -16.72)"/></g></g><g id="a-23"><g id="Group_258" data-name="Group 258"><g id="c-57"><path id="t-113" class="cls-4" d="M53.67,52.18l.73-2.26,1.13.37Z" transform="translate(-16.11 -16.72)"/><g id="Group_257" data-name="Group 257"><path id="t-114" class="cls-4" d="M53.67,52.17l1.92-1.39-.7-1Z" transform="translate(-16.11 -16.72)"/></g></g></g><g id="Group_260" data-name="Group 260"><g id="c-58"><path id="t-115" class="cls-4" d="M56.46,52.17l-1.92-1.39.7-1Z" transform="translate(-16.11 -16.72)"/><g id="Group_259" data-name="Group 259"><path id="t-116" class="cls-4" d="M56.46,52.18l-.73-2.26-1.13.37Z" transform="translate(-16.11 -16.72)"/></g></g></g></g><g id="Group_265" data-name="Group 265"><g id="a-24"><g id="Group_262" data-name="Group 262"><g id="c-59"><path id="t-117" class="cls-4" d="M55.07,47.89l-.74,2.25,1.13.37Z" transform="translate(-16.11 -16.72)"/><g id="Group_261" data-name="Group 261"><path id="t-118" class="cls-4" d="M55.07,47.89l.73,2.25-1.13.37Z" transform="translate(-16.11 -16.72)"/></g></g></g><g id="Group_264" data-name="Group 264"><g id="c-60"><path id="t-119" class="cls-4" d="M57.32,49.52H55v1.19Z" transform="translate(-16.11 -16.72)"/><g id="Group_263" data-name="Group 263"><path id="t-120" class="cls-4" d="M57.32,49.52l-1.92,1.4-.7-1Z" transform="translate(-16.11 -16.72)"/></g></g></g></g></g></g></g></g></g></g></g></svg>