<svg xmlns="http://www.w3.org/2000/svg" viewBox="0 0 64 42"><defs><style>.cls-1{fill:#19338f;}.cls-2{fill:#fccc12;}</style></defs><g id="Layer_1" data-name="Layer 1"><g id="Group_269" data-name="Group 269"><rect id="Rectangle_62" data-name="Rectangle 62" class="cls-1" width="64" height="42"/><g id="Group_268" data-name="Group 268"><g id="Group_145" data-name="Group 145"><g id="s"><g id="c"><path id="t" class="cls-2" d="M90.55,18.69l-.73,2.25,1.12.37Z" transform="translate(-58.7 -14.07)"/><g id="Group_135" data-name="Group 135"><path id="t-2" class="cls-2" d="M90.55,18.69l.73,2.25-1.13.37Z" transform="translate(-58.7 -14.07)"/></g></g><g id="a"><g id="Group_137" data-name="Group 137"><g id="c-2"><path id="t-3" class="cls-2" d="M92.8,20.32H90.43v1.19Z" transform="translate(-58.7 -14.07)"/><g id="Group_136" data-name="Group 136"><path id="t-4" class="cls-2" d="M92.8,20.32l-1.92,1.4-.7-1Z" transform="translate(-58.7 -14.07)"/></g></g></g><g id="Group_139" data-name="Group 139"><g id="c-3"><path id="t-5" class="cls-2" d="M91.94,23l-.73-2.26-1.13.37Z" transform="translate(-58.7 -14.07)"/><g id="Group_138" data-name="Group 138"><path id="t-6" class="cls-2" d="M91.94,23,90,21.58l.7-1Z" transform="translate(-58.7 -14.07)"/></g></g></g></g><g id="Group_144" data-name="Group 144"><g id="a-2"><g id="Group_141" data-name="Group 141"><g id="c-4"><path id="t-7" class="cls-2" d="M88.29,20.32h2.37v1.19Z" transform="translate(-58.7 -14.07)"/><g id="Group_140" data-name="Group 140"><path id="t-8" class="cls-2" d="M88.29,20.32l1.92,1.4.7-1Z" transform="translate(-58.7 -14.07)"/></g></g></g><g id="Group_143" data-name="Group 143"><g id="c-5"><path id="t-9" class="cls-2" d="M89.15,23l.74-2.26,1.12.37Z" transform="translate(-58.7 -14.07)"/><g id="Group_142" data-name="Group 142"><path id="t-10" class="cls-2" d="M89.15,23l1.92-1.39-.7-1Z" transform="translate(-58.7 -14.07)"/></g></g></g></g></g></g></g><g id="Group_156" data-name="Group 156"><g id="s-2"><g id="c-6"><path id="t-11" class="cls-2" d="M90.55,47.13l-.73,2.26,1.12.36Z" transform="translate(-58.7 -14.07)"/><g id="Group_146" data-name="Group 146"><path id="t-12" class="cls-2" d="M90.55,47.13l.73,2.26-1.13.36Z" transform="translate(-58.7 -14.07)"/></g></g><g id="a-3"><g id="Group_148" data-name="Group 148"><g id="c-7"><path id="t-13" class="cls-2" d="M92.8,48.77H90.43V50Z" transform="translate(-58.7 -14.07)"/><g id="Group_147" data-name="Group 147"><path id="t-14" class="cls-2" d="M92.8,48.77l-1.92,1.39-.7-.95Z" transform="translate(-58.7 -14.07)"/></g></g></g><g id="Group_150" data-name="Group 150"><g id="c-8"><path id="t-15" class="cls-2" d="M91.94,51.42l-.73-2.25-1.13.36Z" transform="translate(-58.7 -14.07)"/><g id="Group_149" data-name="Group 149"><path id="t-16" class="cls-2" d="M91.94,51.42,90,50l.7-1Z" transform="translate(-58.7 -14.07)"/></g></g></g></g><g id="Group_155" data-name="Group 155"><g id="a-4"><g id="Group_152" data-name="Group 152"><g id="c-9"><path id="t-17" class="cls-2" d="M88.29,48.77h2.37V50Z" transform="translate(-58.7 -14.07)"/><g id="Group_151" data-name="Group 151"><path id="t-18" class="cls-2" d="M88.29,48.77l1.92,1.39.7-.95Z" transform="translate(-58.7 -14.07)"/></g></g></g><g id="Group_154" data-name="Group 154"><g id="c-10"><path id="t-19" class="cls-2" d="M89.15,51.42l.74-2.25,1.12.36Z" transform="translate(-58.7 -14.07)"/><g id="Group_153" data-name="Group 153"><path id="t-20" class="cls-2" d="M89.15,51.42,91.07,50l-.7-1Z" transform="translate(-58.7 -14.07)"/></g></g></g></g></g></g></g><g id="l"><g id="Group_167" data-name="Group 167"><g id="s-3"><g id="c-11"><path id="t-21" class="cls-2" d="M76.32,32.91l-.73,2.26,1.13.36Z" transform="translate(-58.7 -14.07)"/><g id="Group_157" data-name="Group 157"><path id="t-22" class="cls-2" d="M76.32,32.91l.74,2.26-1.13.36Z" transform="translate(-58.7 -14.07)"/></g></g><g id="a-5"><g id="Group_159" data-name="Group 159"><g id="c-12"><path id="t-23" class="cls-2" d="M78.58,34.55H76.2v1.18Z" transform="translate(-58.7 -14.07)"/><g id="Group_158" data-name="Group 158"><path id="t-24" class="cls-2" d="M78.58,34.55l-1.92,1.39L76,35Z" transform="translate(-58.7 -14.07)"/></g></g></g><g id="Group_161" data-name="Group 161"><g id="c-13"><path id="t-25" class="cls-2" d="M77.72,37.2,77,34.94l-1.12.37Z" transform="translate(-58.7 -14.07)"/><g id="Group_160" data-name="Group 160"><path id="t-26" class="cls-2" d="M77.72,37.2,75.8,35.81l.7-1Z" transform="translate(-58.7 -14.07)"/></g></g></g></g><g id="Group_166" data-name="Group 166"><g id="a-6"><g id="Group_163" data-name="Group 163"><g id="c-14"><path id="t-27" class="cls-2" d="M74.07,34.55h2.37v1.18Z" transform="translate(-58.7 -14.07)"/><g id="Group_162" data-name="Group 162"><path id="t-28" class="cls-2" d="M74.07,34.55,76,35.94l.7-1Z" transform="translate(-58.7 -14.07)"/></g></g></g><g id="Group_165" data-name="Group 165"><g id="c-15"><path id="t-29" class="cls-2" d="M74.93,37.2l.73-2.26,1.13.37Z" transform="translate(-58.7 -14.07)"/><g id="Group_164" data-name="Group 164"><path id="t-30" class="cls-2" d="M74.93,37.2l1.92-1.39-.7-1Z" transform="translate(-58.7 -14.07)"/></g></g></g></g></g></g></g><g id="Group_178" data-name="Group 178"><g id="s-4"><g id="c-16"><path id="t-31" class="cls-2" d="M82,24.88,84,23.49l-.7-1Z" transform="translate(-58.7 -14.07)"/><g id="Group_168" data-name="Group 168"><path id="t-32" class="cls-2" d="M82,24.88l.74-2.25L83.9,23Z" transform="translate(-58.7 -14.07)"/></g></g><g id="a-7"><g id="Group_170" data-name="Group 170"><g id="c-17"><path id="t-33" class="cls-2" d="M81.18,22.23l1.92,1.39.7-1Z" transform="translate(-58.7 -14.07)"/><g id="Group_169" data-name="Group 169"><path id="t-34" class="cls-2" d="M81.18,22.23h2.37v1.19Z" transform="translate(-58.7 -14.07)"/></g></g></g><g id="Group_172" data-name="Group 172"><g id="c-18"><path id="t-35" class="cls-2" d="M83.44,20.59l-.74,2.26,1.13.36Z" transform="translate(-58.7 -14.07)"/><g id="Group_171" data-name="Group 171"><path id="t-36" class="cls-2" d="M83.44,20.59l.73,2.26L83,23.21Z" transform="translate(-58.7 -14.07)"/></g></g></g></g><g id="Group_177" data-name="Group 177"><g id="a-8"><g id="Group_174" data-name="Group 174"><g id="c-19"><path id="t-37" class="cls-2" d="M84.83,24.88l-1.92-1.39.7-1Z" transform="translate(-58.7 -14.07)"/><g id="Group_173" data-name="Group 173"><path id="t-38" class="cls-2" d="M84.83,24.88l-.73-2.25L83,23Z" transform="translate(-58.7 -14.07)"/></g></g></g><g id="Group_176" data-name="Group 176"><g id="c-20"><path id="t-39" class="cls-2" d="M85.69,22.23l-1.92,1.39-.7-1Z" transform="translate(-58.7 -14.07)"/><g id="Group_175" data-name="Group 175"><path id="t-40" class="cls-2" d="M85.69,22.23H83.32v1.19Z" transform="translate(-58.7 -14.07)"/></g></g></g></g></g></g></g><g id="Group_189" data-name="Group 189"><g id="s-5"><g id="c-21"><path id="t-41" class="cls-2" d="M79.62,30.09l-.73-2.26-1.13.37Z" transform="translate(-58.7 -14.07)"/><g id="Group_179" data-name="Group 179"><path id="t-42" class="cls-2" d="M79.63,30.09l-1.92-1.4.7-1Z" transform="translate(-58.7 -14.07)"/></g></g><g id="a-9"><g id="Group_181" data-name="Group 181"><g id="c-22"><path id="t-43" class="cls-2" d="M76.84,30.09l1.91-1.4-.7-1Z" transform="translate(-58.7 -14.07)"/><g id="Group_180" data-name="Group 180"><path id="t-44" class="cls-2" d="M76.84,30.09l.73-2.26,1.13.37Z" transform="translate(-58.7 -14.07)"/></g></g></g><g id="Group_183" data-name="Group 183"><g id="c-23"><path id="t-45" class="cls-2" d="M76,27.44l1.91,1.39.7-1Z" transform="translate(-58.7 -14.07)"/><g id="Group_182" data-name="Group 182"><path id="t-46" class="cls-2" d="M76,27.44h2.37v1.18Z" transform="translate(-58.7 -14.07)"/></g></g></g></g><g id="Group_188" data-name="Group 188"><g id="a-10"><g id="Group_185" data-name="Group 185"><g id="c-24"><path id="t-47" class="cls-2" d="M80.49,27.44l-1.92,1.39-.7-1Z" transform="translate(-58.7 -14.07)"/><g id="Group_184" data-name="Group 184"><path id="t-48" class="cls-2" d="M80.49,27.44H78.11v1.18Z" transform="translate(-58.7 -14.07)"/></g></g></g><g id="Group_187" data-name="Group 187"><g id="c-25"><path id="t-49" class="cls-2" d="M78.23,25.8,79,28.05l-1.12.37Z" transform="translate(-58.7 -14.07)"/><g id="Group_186" data-name="Group 186"><path id="t-50" class="cls-2" d="M78.23,25.8l-.73,2.25,1.12.37Z" transform="translate(-58.7 -14.07)"/></g></g></g></g></g></g></g><g id="Group_200" data-name="Group 200"><g id="s-6"><g id="c-26"><path id="t-51" class="cls-2" d="M80.49,41.66H78.11v1.19Z" transform="translate(-58.7 -14.07)"/><g id="Group_190" data-name="Group 190"><path id="t-52" class="cls-2" d="M80.49,41.66l-1.92,1.39-.7-1Z" transform="translate(-58.7 -14.07)"/></g></g><g id="a-11"><g id="Group_192" data-name="Group 192"><g id="c-27"><path id="t-53" class="cls-2" d="M79.62,44.31l-.73-2.25-1.13.36Z" transform="translate(-58.7 -14.07)"/><g id="Group_191" data-name="Group 191"><path id="t-54" class="cls-2" d="M79.63,44.31l-1.92-1.39.7-1Z" transform="translate(-58.7 -14.07)"/></g></g></g><g id="Group_194" data-name="Group 194"><g id="c-28"><path id="t-55" class="cls-2" d="M76.84,44.31l1.91-1.39-.7-1Z" transform="translate(-58.7 -14.07)"/><g id="Group_193" data-name="Group 193"><path id="t-56" class="cls-2" d="M76.84,44.31l.73-2.25,1.13.36Z" transform="translate(-58.7 -14.07)"/></g></g></g></g><g id="Group_199" data-name="Group 199"><g id="a-12"><g id="Group_196" data-name="Group 196"><g id="c-29"><path id="t-57" class="cls-2" d="M78.23,40,79,42.28l-1.12.36Z" transform="translate(-58.7 -14.07)"/><g id="Group_195" data-name="Group 195"><path id="t-58" class="cls-2" d="M78.23,40l-.73,2.26,1.12.36Z" transform="translate(-58.7 -14.07)"/></g></g></g><g id="Group_198" data-name="Group 198"><g id="c-30"><path id="t-59" class="cls-2" d="M76,41.66h2.37v1.19Z" transform="translate(-58.7 -14.07)"/><g id="Group_197" data-name="Group 197"><path id="t-60" class="cls-2" d="M76,41.66l1.91,1.39.7-1Z" transform="translate(-58.7 -14.07)"/></g></g></g></g></g></g></g><g id="Group_211" data-name="Group 211"><g id="s-7"><g id="c-31"><path id="t-61" class="cls-2" d="M85.69,46.87H83.32v1.18Z" transform="translate(-58.7 -14.07)"/><g id="Group_201" data-name="Group 201"><path id="t-62" class="cls-2" d="M85.69,46.87l-1.92,1.39-.7-1Z" transform="translate(-58.7 -14.07)"/></g></g><g id="a-13"><g id="Group_203" data-name="Group 203"><g id="c-32"><path id="t-63" class="cls-2" d="M84.83,49.52l-.73-2.26L83,47.63Z" transform="translate(-58.7 -14.07)"/><g id="Group_202" data-name="Group 202"><path id="t-64" class="cls-2" d="M84.83,49.52l-1.92-1.4.7-1Z" transform="translate(-58.7 -14.07)"/></g></g></g><g id="Group_205" data-name="Group 205"><g id="c-33"><path id="t-65" class="cls-2" d="M82,49.52,84,48.12l-.7-1Z" transform="translate(-58.7 -14.07)"/><g id="Group_204" data-name="Group 204"><path id="t-66" class="cls-2" d="M82,49.52l.74-2.26,1.12.37Z" transform="translate(-58.7 -14.07)"/></g></g></g></g><g id="Group_210" data-name="Group 210"><g id="a-14"><g id="Group_207" data-name="Group 207"><g id="c-34"><path id="t-67" class="cls-2" d="M83.44,45.23l.73,2.25L83,47.85Z" transform="translate(-58.7 -14.07)"/><g id="Group_206" data-name="Group 206"><path id="t-68" class="cls-2" d="M83.44,45.23l-.74,2.25,1.13.37Z" transform="translate(-58.7 -14.07)"/></g></g></g><g id="Group_209" data-name="Group 209"><g id="c-35"><path id="t-69" class="cls-2" d="M81.18,46.87h2.37v1.18Z" transform="translate(-58.7 -14.07)"/><g id="Group_208" data-name="Group 208"><path id="t-70" class="cls-2" d="M81.18,46.87l1.92,1.39.7-1Z" transform="translate(-58.7 -14.07)"/></g></g></g></g></g></g></g></g><g id="Group_267" data-name="Group 267"><g id="l-2"><g id="Group_222" data-name="Group 222"><g id="s-8"><g id="c-36"><path id="t-71" class="cls-2" d="M104.77,32.91l.73,2.26-1.12.36Z" transform="translate(-58.7 -14.07)"/><g id="Group_212" data-name="Group 212"><path id="t-72" class="cls-2" d="M104.77,32.91,104,35.17l1.13.36Z" transform="translate(-58.7 -14.07)"/></g></g><g id="a-15"><g id="Group_214" data-name="Group 214"><g id="c-37"><path id="t-73" class="cls-2" d="M102.52,34.55h2.37v1.18Z" transform="translate(-58.7 -14.07)"/><g id="Group_213" data-name="Group 213"><path id="t-74" class="cls-2" d="M102.52,34.55l1.91,1.39.7-1Z" transform="translate(-58.7 -14.07)"/></g></g></g><g id="Group_216" data-name="Group 216"><g id="c-38"><path id="t-75" class="cls-2" d="M103.38,37.2l.73-2.26,1.13.37Z" transform="translate(-58.7 -14.07)"/><g id="Group_215" data-name="Group 215"><path id="t-76" class="cls-2" d="M103.38,37.2l1.92-1.39-.7-1Z" transform="translate(-58.7 -14.07)"/></g></g></g></g><g id="Group_221" data-name="Group 221"><g id="a-16"><g id="Group_218" data-name="Group 218"><g id="c-39"><path id="t-77" class="cls-2" d="M107,34.55h-2.37v1.18Z" transform="translate(-58.7 -14.07)"/><g id="Group_217" data-name="Group 217"><path id="t-78" class="cls-2" d="M107,34.55l-1.92,1.39-.7-1Z" transform="translate(-58.7 -14.07)"/></g></g></g><g id="Group_220" data-name="Group 220"><g id="c-40"><path id="t-79" class="cls-2" d="M106.16,37.2l-.73-2.26-1.13.37Z" transform="translate(-58.7 -14.07)"/><g id="Group_219" data-name="Group 219"><path id="t-80" class="cls-2" d="M106.16,37.2l-1.91-1.39.7-1Z" transform="translate(-58.7 -14.07)"/></g></g></g></g></g></g></g><g id="Group_233" data-name="Group 233"><g id="s-9"><g id="c-41"><path id="t-81" class="cls-2" d="M99.05,24.88l-1.92-1.39.7-1Z" transform="translate(-58.7 -14.07)"/><g id="Group_223" data-name="Group 223"><path id="t-82" class="cls-2" d="M99.05,24.88l-.73-2.25L97.19,23Z" transform="translate(-58.7 -14.07)"/></g></g><g id="a-17"><g id="Group_225" data-name="Group 225"><g id="c-42"><path id="t-83" class="cls-2" d="M99.91,22.23,98,23.62l-.7-1Z" transform="translate(-58.7 -14.07)"/><g id="Group_224" data-name="Group 224"><path id="t-84" class="cls-2" d="M99.91,22.23H97.54v1.19Z" transform="translate(-58.7 -14.07)"/></g></g></g><g id="Group_227" data-name="Group 227"><g id="c-43"><path id="t-85" class="cls-2" d="M97.66,20.59l.73,2.26-1.12.36Z" transform="translate(-58.7 -14.07)"/><g id="Group_226" data-name="Group 226"><path id="t-86" class="cls-2" d="M97.66,20.59l-.73,2.26,1.12.36Z" transform="translate(-58.7 -14.07)"/></g></g></g></g><g id="Group_232" data-name="Group 232"><g id="a-18"><g id="Group_229" data-name="Group 229"><g id="c-44"><path id="t-87" class="cls-2" d="M96.27,24.88l1.91-1.39-.7-1Z" transform="translate(-58.7 -14.07)"/><g id="Group_228" data-name="Group 228"><path id="t-88" class="cls-2" d="M96.27,24.88,97,22.63l1.13.36Z" transform="translate(-58.7 -14.07)"/></g></g></g><g id="Group_231" data-name="Group 231"><g id="c-45"><path id="t-89" class="cls-2" d="M95.4,22.23l1.92,1.39.7-1Z" transform="translate(-58.7 -14.07)"/><g id="Group_230" data-name="Group 230"><path id="t-90" class="cls-2" d="M95.4,22.23h2.38v1.19Z" transform="translate(-58.7 -14.07)"/></g></g></g></g></g></g></g><g id="Group_244" data-name="Group 244"><g id="s-10"><g id="c-46"><path id="t-91" class="cls-2" d="M101.47,30.09l.73-2.26,1.13.37Z" transform="translate(-58.7 -14.07)"/><g id="Group_234" data-name="Group 234"><path id="t-92" class="cls-2" d="M101.47,30.09l1.92-1.4-.7-1Z" transform="translate(-58.7 -14.07)"/></g></g><g id="a-19"><g id="Group_236" data-name="Group 236"><g id="c-47"><path id="t-93" class="cls-2" d="M104.26,30.09l-1.92-1.4.7-1Z" transform="translate(-58.7 -14.07)"/><g id="Group_235" data-name="Group 235"><path id="t-94" class="cls-2" d="M104.26,30.09l-.73-2.26-1.13.37Z" transform="translate(-58.7 -14.07)"/></g></g></g><g id="Group_238" data-name="Group 238"><g id="c-48"><path id="t-95" class="cls-2" d="M105.12,27.44l-1.92,1.39-.7-1Z" transform="translate(-58.7 -14.07)"/><g id="Group_237" data-name="Group 237"><path id="t-96" class="cls-2" d="M105.12,27.44h-2.37v1.18Z" transform="translate(-58.7 -14.07)"/></g></g></g></g><g id="Group_243" data-name="Group 243"><g id="a-20"><g id="Group_240" data-name="Group 240"><g id="c-49"><path id="t-97" class="cls-2" d="M100.61,27.44l1.92,1.39.7-1Z" transform="translate(-58.7 -14.07)"/><g id="Group_239" data-name="Group 239"><path id="t-98" class="cls-2" d="M100.61,27.44H103v1.18Z" transform="translate(-58.7 -14.07)"/></g></g></g><g id="Group_242" data-name="Group 242"><g id="c-50"><path id="t-99" class="cls-2" d="M102.87,25.8l-.74,2.25,1.13.37Z" transform="translate(-58.7 -14.07)"/><g id="Group_241" data-name="Group 241"><path id="t-100" class="cls-2" d="M102.87,25.8l.73,2.25-1.13.37Z" transform="translate(-58.7 -14.07)"/></g></g></g></g></g></g></g><g id="Group_255" data-name="Group 255"><g id="s-11"><g id="c-51"><path id="t-101" class="cls-2" d="M100.61,41.66H103v1.19Z" transform="translate(-58.7 -14.07)"/><g id="Group_245" data-name="Group 245"><path id="t-102" class="cls-2" d="M100.61,41.66l1.92,1.39.7-1Z" transform="translate(-58.7 -14.07)"/></g></g><g id="a-21"><g id="Group_247" data-name="Group 247"><g id="c-52"><path id="t-103" class="cls-2" d="M101.47,44.31l.73-2.25,1.13.36Z" transform="translate(-58.7 -14.07)"/><g id="Group_246" data-name="Group 246"><path id="t-104" class="cls-2" d="M101.47,44.31l1.92-1.39-.7-1Z" transform="translate(-58.7 -14.07)"/></g></g></g><g id="Group_249" data-name="Group 249"><g id="c-53"><path id="t-105" class="cls-2" d="M104.26,44.31l-1.92-1.39.7-1Z" transform="translate(-58.7 -14.07)"/><g id="Group_248" data-name="Group 248"><path id="t-106" class="cls-2" d="M104.26,44.31l-.73-2.25-1.13.36Z" transform="translate(-58.7 -14.07)"/></g></g></g></g><g id="Group_254" data-name="Group 254"><g id="a-22"><g id="Group_251" data-name="Group 251"><g id="c-54"><path id="t-107" class="cls-2" d="M102.87,40l-.74,2.26,1.13.36Z" transform="translate(-58.7 -14.07)"/><g id="Group_250" data-name="Group 250"><path id="t-108" class="cls-2" d="M102.87,40l.73,2.26-1.13.36Z" transform="translate(-58.7 -14.07)"/></g></g></g><g id="Group_253" data-name="Group 253"><g id="c-55"><path id="t-109" class="cls-2" d="M105.12,41.66h-2.37v1.19Z" transform="translate(-58.7 -14.07)"/><g id="Group_252" data-name="Group 252"><path id="t-110" class="cls-2" d="M105.12,41.66l-1.92,1.39-.7-1Z" transform="translate(-58.7 -14.07)"/></g></g></g></g></g></g></g><g id="Group_266" data-name="Group 266"><g id="s-12"><g id="c-56"><path id="t-111" class="cls-2" d="M95.4,46.87h2.38v1.18Z" transform="translate(-58.7 -14.07)"/><g id="Group_256" data-name="Group 256"><path id="t-112" class="cls-2" d="M95.4,46.87l1.92,1.39.7-1Z" transform="translate(-58.7 -14.07)"/></g></g><g id="a-23"><g id="Group_258" data-name="Group 258"><g id="c-57"><path id="t-113" class="cls-2" d="M96.27,49.52,97,47.26l1.13.37Z" transform="translate(-58.7 -14.07)"/><g id="Group_257" data-name="Group 257"><path id="t-114" class="cls-2" d="M96.27,49.52l1.91-1.4-.7-1Z" transform="translate(-58.7 -14.07)"/></g></g></g><g id="Group_260" data-name="Group 260"><g id="c-58"><path id="t-115" class="cls-2" d="M99.05,49.52l-1.92-1.4.7-1Z" transform="translate(-58.7 -14.07)"/><g id="Group_259" data-name="Group 259"><path id="t-116" class="cls-2" d="M99.05,49.52l-.73-2.26-1.13.37Z" transform="translate(-58.7 -14.07)"/></g></g></g></g><g id="Group_265" data-name="Group 265"><g id="a-24"><g id="Group_262" data-name="Group 262"><g id="c-59"><path id="t-117" class="cls-2" d="M97.66,45.23l-.73,2.25,1.12.37Z" transform="translate(-58.7 -14.07)"/><g id="Group_261" data-name="Group 261"><path id="t-118" class="cls-2" d="M97.66,45.23l.73,2.25-1.12.37Z" transform="translate(-58.7 -14.07)"/></g></g></g><g id="Group_264" data-name="Group 264"><g id="c-60"><path id="t-119" class="cls-2" d="M99.91,46.87H97.54v1.18Z" transform="translate(-58.7 -14.07)"/><g id="Group_263" data-name="Group 263"><path id="t-120" class="cls-2" d="M99.91,46.87,98,48.26l-.7-1Z" transform="translate(-58.7 -14.07)"/></g></g></g></g></g></g></g></g></g></g></g></g></svg>