<svg id="Layer_1" data-name="Layer 1" xmlns="http://www.w3.org/2000/svg" viewBox="0 0 71.12 68.9"><defs><style>.cls-1{fill:#2081b4;}</style></defs><path id="Path_193" data-name="Path 193" class="cls-1" d="M75.42,50.15a3.68,3.68,0,0,0-3.64-3.69H61.24V42.92h0a2.9,2.9,0,0,0-2.92-2.87H42.91a3.29,3.29,0,0,0-1.79-1.8v-4.6h7.5a1.23,1.23,0,0,0,1.2-1.27,1.24,1.24,0,0,0-1.2-1.2H43v-2h8.68a3.69,3.69,0,0,0,3.69-3.69V9.26h0a3.67,3.67,0,0,0-3.69-3.65H28.06a3.66,3.66,0,0,0-3.64,3.65V25.53a3.66,3.66,0,0,0,3.64,3.69h8.69v2h-5.6a1.24,1.24,0,0,0,0,2.47h7.5v4.63a3.26,3.26,0,0,0-1.75,1.77H21.44a2.9,2.9,0,0,0-2.91,2.87v3.55H8A3.67,3.67,0,0,0,4.3,50.16V66.43A3.64,3.64,0,0,0,8,70.08h8.73v2H11a1.24,1.24,0,0,0,0,2.48H28.5a1.24,1.24,0,0,0,0-2.48H22.86v-2h8.69a3.66,3.66,0,0,0,3.68-3.65V50.15h0a3.69,3.69,0,0,0-3.68-3.69H21V42.92a.43.43,0,0,1,.44-.4H36.91a3.24,3.24,0,0,0,6,0H58.32a.42.42,0,0,1,.44.4v3.54H48.18a3.68,3.68,0,0,0-3.65,3.69V66.43a3.66,3.66,0,0,0,3.65,3.64h8.69v2h-5.6a1.24,1.24,0,0,0,0,2.47H68.69a1.24,1.24,0,0,0,0-2.47h-5.6v-2h8.68a3.64,3.64,0,0,0,3.65-3.64V50.15ZM28.06,26.26a.71.71,0,0,1-.68-.73V9.26A.67.67,0,0,1,28,8.58H51.66a.7.7,0,0,1,.72.68V25.54a.74.74,0,0,1-.72.72Zm11.16,3H40.5v1.95H39.22Zm-7.68,20.2a.75.75,0,0,1,.73.72V66.43a.72.72,0,0,1-.73.68H8a.67.67,0,0,1-.68-.65V50.15A.7.7,0,0,1,8,49.43ZM20.38,72H19.15v-2h1.24Zm27.8-4.92a.67.67,0,0,1-.68-.65V50.15a.7.7,0,0,1,.68-.72H71.77a.7.7,0,0,1,.68.72V66.43a.67.67,0,0,1-.65.68H48.18ZM60.61,72H59.34v-2h1.27Z" transform="translate(-4.3 -5.61)"/></svg>