<svg id="Layer_1" data-name="Layer 1" xmlns="http://www.w3.org/2000/svg" viewBox="0 0 65.4 69.36"><defs><style>.cls-1{fill:#2081b4;}</style></defs><g id="Group_34" data-name="Group 34"><path id="Path_194" data-name="Path 194" class="cls-1" d="M47.78,41a7.92,7.92,0,1,0-7.92,7.92h0A7.92,7.92,0,0,0,47.78,41ZM35.22,41a4.65,4.65,0,1,1,4.64,4.64A4.65,4.65,0,0,1,35.22,41Z" transform="translate(-7.15 -5.23)"/><path id="Path_195" data-name="Path 195" class="cls-1" d="M52.46,54.73a10.21,10.21,0,0,0-7.33-3.07H34.68A10.46,10.46,0,0,0,24.23,62.11v9.63a2.84,2.84,0,0,0,2.85,2.85H52.6a2.86,2.86,0,0,0,2.86-2.85V62.11h0A10.45,10.45,0,0,0,52.46,54.73Zm-17.78.21H45.13a7,7,0,0,1,7,7v9.36H48.94V62.15a1.35,1.35,0,1,0-2.7,0v9.17H33.44V62.15a1.35,1.35,0,0,0-2.7-.16.43.43,0,0,0,0,.16v9.17H27.5V62.11a7.18,7.18,0,0,1,7.18-7.17Z" transform="translate(-7.15 -5.23)"/><path id="Path_196" data-name="Path 196" class="cls-1" d="M69.29,35.89a29.28,29.28,0,0,0-3.51-15.2,5.61,5.61,0,0,0-6.93-8.52,29.46,29.46,0,0,0-38,0,5.61,5.61,0,0,0-6.93,8.52,29.28,29.28,0,0,0-3.51,15.2A5.61,5.61,0,0,0,12.77,46.6h.15a29.53,29.53,0,0,0,8.56,11.11,1.64,1.64,0,0,0,2.05-2.56h0A26.23,26.23,0,0,1,16,45.55a5.61,5.61,0,0,0,2.16-6L36.13,28.71a5.6,5.6,0,0,0,7.42,0l18,10.9a5.61,5.61,0,0,0,2.17,5.92,26.2,26.2,0,0,1-7.48,9.6,1.64,1.64,0,1,0,2,2.56h0A29.43,29.43,0,0,0,66.79,46.6h.15a5.61,5.61,0,0,0,2.34-10.71ZM66,35.46a5.48,5.48,0,0,0-2.83,1.36L45.29,26a5.44,5.44,0,0,0,.18-1.45v-.14L56.9,20.45A5.6,5.6,0,0,0,63,22.52a26,26,0,0,1,3,12.94ZM63.77,17.15a2.34,2.34,0,0,1-.83,1.78l-.07,0a1.35,1.35,0,0,0-.27.2A2.34,2.34,0,1,1,63.46,16a2.41,2.41,0,0,1,.31,1.17ZM56.5,14.48a5.55,5.55,0,0,0-.68,2.67,1.27,1.27,0,0,0,0,.2l-11.4,3.91a5.6,5.6,0,0,0-7.81-1.33,5.68,5.68,0,0,0-1.34,1.34L23.9,17.37v-.22a5.65,5.65,0,0,0-.67-2.67,26.34,26.34,0,0,1,33.27,0Zm-38.21.33a2.34,2.34,0,0,1,2.25,3l-.06.14c0,.05,0,.08,0,.12a2.32,2.32,0,0,1-3.05,1.25,1.66,1.66,0,0,1-.27-.13,1.35,1.35,0,0,0-.27-.2l-.07,0a2.34,2.34,0,0,1-.28-3.29,2.37,2.37,0,0,1,1.79-.83Zm-1.61,7.71a5.59,5.59,0,0,0,6.14-2.06l11.43,3.92v.13a5.41,5.41,0,0,0,.18,1.39L16.5,36.79a5.64,5.64,0,0,0-2.79-1.34,26,26,0,0,1,3-12.93ZM10.44,41a2.33,2.33,0,0,1,4.15-1.46,1.74,1.74,0,0,0,.31.5,2.33,2.33,0,0,1-1.16,3.08l-.05,0a2,2,0,0,0-.35.09l-.12.06a2.33,2.33,0,0,1-2.74-1.85,2.12,2.12,0,0,1,0-.44ZM39.86,26.84A2.34,2.34,0,1,1,42,23.54a1.68,1.68,0,0,0,.17.49,2.38,2.38,0,0,1-.21,1.53,1.27,1.27,0,0,0-.13.19.56.56,0,0,0-.09.17,2.37,2.37,0,0,1-1.86.93ZM67,43.32a2.28,2.28,0,0,1-.45,0l-.12-.05a1.06,1.06,0,0,0-.35-.09,2.33,2.33,0,1,1,1.84-4.29A2.34,2.34,0,0,1,67,43.33Z" transform="translate(-7.15 -5.23)"/></g></svg>