<svg id="Layer_1" data-name="Layer 1" xmlns="http://www.w3.org/2000/svg" viewBox="0 0 71.12 72.53"><defs><style>.cls-1{fill:#2081b4;}</style></defs><path id="Path_178" data-name="Path 178" class="cls-1" d="M69.37,64.64A6.05,6.05,0,0,0,63.57,69H56.46a1.17,1.17,0,0,1-1.15-1.16V58.18h0a9.51,9.51,0,0,0,3.53-18.33,8.84,8.84,0,0,0-3.5-7.77l-.07,0V20.32a1.17,1.17,0,0,1,1.15-1.16h7.12a6,6,0,1,0,0-3.45H56.46a4.61,4.61,0,0,0-4.61,4.61h0V30.46a8.75,8.75,0,0,0-1.53-.18,10.48,10.48,0,0,0-8.74-9.56V16.07a6.06,6.06,0,1,0-3.46,0v4.66a10.47,10.47,0,0,0-8.43,7.83A10,10,0,0,0,29.44,30a14.76,14.76,0,0,0-1.63.17V20.32h0a4.6,4.6,0,0,0-4.61-4.61h-7a6,6,0,1,0,0,3.45H23.2a1.17,1.17,0,0,1,1.16,1.16V31.09A14.82,14.82,0,0,0,17.3,52.78a14.9,14.9,0,0,0,4,4.23h0a6.36,6.36,0,0,0,3,1.13v9.68A1.17,1.17,0,0,1,23.2,69h-7a6,6,0,1,0,0,3.45h7.05a4.61,4.61,0,0,0,4.62-4.61h0V58.17h10.3V62.7a6.06,6.06,0,1,0,3.45,0V58.18H51.84v9.64a4.6,4.6,0,0,0,4.61,4.61h7.11a6.05,6.05,0,1,0,5.8-7.79Zm0-49.82a2.6,2.6,0,1,1-2.6,2.6,2.6,2.6,0,0,1,2.6-2.6Zm-59,5.2A2.6,2.6,0,1,1,13,17.19a2,2,0,0,0,0,.49A2.6,2.6,0,0,1,10.37,20ZM42.46,68.49a2.6,2.6,0,1,1-2.85-2.58,2,2,0,0,0,.49,0,2.59,2.59,0,0,1,2.36,2.58ZM37.27,10.26a2.6,2.6,0,1,1,2.6,2.6,2.59,2.59,0,0,1-2.6-2.6ZM19.13,41a11.75,11.75,0,0,1,10.53-7.53,9.13,9.13,0,0,0,.41,1.35,1.73,1.73,0,0,0,3.23-1.23,7,7,0,0,1,13.13-5,6.86,6.86,0,0,1,.46,2.28,8.52,8.52,0,0,0-1.46.7,1.72,1.72,0,0,0,1.77,3h0a5.46,5.46,0,0,1,8.06,6.11l0,.06s0,0,0,0,0,0,0,0,0,.06,0,.1,0,0,0,.08V41a.22.22,0,0,0,0,.08v.09s0,.05,0,.08a.19.19,0,0,1,0,.08.24.24,0,0,0,0,.09.24.24,0,0,0,0,.08.37.37,0,0,0,0,.09l0,.07,0,.08,0,.07,0,.08a.25.25,0,0,1,0,.07l0,.07,0,.07.05.06.06.07s0,0,.05,0l.06.06.07.06.06,0a.18.18,0,0,1,.07.05l.07,0,.08,0,.07,0,.09,0,.07,0,.09,0h0l.1,0h0a6,6,0,0,1-1.23,12H25a2.88,2.88,0,0,1-1.65-.54h0A11.49,11.49,0,0,1,19.13,41ZM10.37,73.29A2.6,2.6,0,1,1,13,70.46,2,2,0,0,0,13,71,2.59,2.59,0,0,1,10.37,73.29Zm59,0A2.6,2.6,0,1,1,72,70.69,2.59,2.59,0,0,1,69.37,73.29Z" transform="translate(-4.3 -4.21)"/></svg>