<svg xmlns="http://www.w3.org/2000/svg" xmlns:xlink="http://www.w3.org/1999/xlink" viewBox="0 0 974.25 548.72"><defs><style>.cls-1{opacity:0.5;}.cls-2{opacity:0.08;}.cls-3{fill:url(#linear-gradient);}.cls-4{fill:url(#linear-gradient-2);}.cls-5{fill:url(#linear-gradient-3);}.cls-6{fill:url(#linear-gradient-4);}.cls-7{fill:url(#linear-gradient-5);}.cls-8{fill:url(#linear-gradient-6);}.cls-9{fill:url(#linear-gradient-7);}.cls-10{fill:url(#linear-gradient-8);}.cls-11{fill:url(#linear-gradient-9);}.cls-12{fill:url(#linear-gradient-10);}.cls-13{fill:url(#linear-gradient-11);}.cls-14{fill:url(#linear-gradient-12);}.cls-15{fill:url(#linear-gradient-13);}.cls-16{fill:url(#linear-gradient-14);}.cls-17{fill:url(#linear-gradient-15);}.cls-18{fill:url(#linear-gradient-16);}.cls-19{fill:url(#linear-gradient-17);}.cls-20{fill:url(#linear-gradient-18);}.cls-21{fill:url(#linear-gradient-19);}.cls-22{fill:url(#linear-gradient-20);}.cls-23{fill:url(#linear-gradient-21);}.cls-24{fill:url(#linear-gradient-22);}.cls-25{fill:url(#linear-gradient-23);}.cls-26{fill:url(#linear-gradient-24);}.cls-27{fill:url(#linear-gradient-25);}.cls-28{fill:url(#linear-gradient-26);}.cls-29{fill:url(#linear-gradient-27);}.cls-30{fill:url(#linear-gradient-28);}.cls-31{fill:url(#linear-gradient-29);}.cls-32{fill:url(#linear-gradient-30);}.cls-33{fill:url(#linear-gradient-31);}.cls-34{fill:url(#linear-gradient-32);}.cls-35,.cls-42,.cls-46,.cls-53,.cls-58,.cls-61{opacity:0.4;}.cls-35,.cls-36,.cls-38,.cls-40,.cls-42,.cls-43,.cls-45,.cls-46,.cls-48,.cls-50,.cls-52,.cls-53,.cls-54,.cls-56,.cls-57,.cls-58,.cls-59,.cls-61{isolation:isolate;}.cls-35{fill:url(#linear-gradient-33);}.cls-36,.cls-38,.cls-40,.cls-43,.cls-45,.cls-48,.cls-50,.cls-52,.cls-54,.cls-56,.cls-57,.cls-59{opacity:0.7;}.cls-36{fill:url(#linear-gradient-34);}.cls-37{fill:url(#linear-gradient-35);}.cls-38{fill:url(#linear-gradient-36);}.cls-39{fill:url(#linear-gradient-37);}.cls-40{fill:url(#linear-gradient-38);}.cls-41{fill:url(#linear-gradient-39);}.cls-42{fill:url(#linear-gradient-40);}.cls-43{fill:url(#linear-gradient-41);}.cls-44{fill:url(#linear-gradient-42);}.cls-45{fill:url(#linear-gradient-43);}.cls-46{fill:url(#linear-gradient-44);}.cls-47{fill:url(#linear-gradient-45);}.cls-48{fill:url(#linear-gradient-46);}.cls-49{fill:url(#linear-gradient-47);}.cls-50{fill:url(#linear-gradient-48);}.cls-51{fill:url(#linear-gradient-49);}.cls-52{fill:url(#linear-gradient-50);}.cls-53{fill:url(#linear-gradient-51);}.cls-54{fill:url(#linear-gradient-52);}.cls-55{fill:url(#linear-gradient-53);}.cls-56{fill:url(#linear-gradient-54);}.cls-57{fill:url(#linear-gradient-55);}.cls-58{fill:url(#linear-gradient-56);}.cls-59{fill:url(#linear-gradient-57);}.cls-60{fill:url(#linear-gradient-58);}.cls-61{fill:url(#linear-gradient-59);}.cls-62{fill:url(#linear-gradient-60);}.cls-63{fill:url(#linear-gradient-61);}.cls-64{opacity:0.15;}.cls-65{fill:url(#linear-gradient-62);}.cls-66{fill:url(#linear-gradient-63);}.cls-67{opacity:0.3;}.cls-68{fill:url(#linear-gradient-64);}.cls-69{fill:url(#linear-gradient-65);}.cls-70{fill:url(#linear-gradient-66);}.cls-71{fill:url(#linear-gradient-67);}.cls-72{fill:#2297bf;}.cls-73{fill:#a6d0da;}.cls-74{fill:none;}</style><linearGradient id="linear-gradient" x1="1075.99" y1="274.77" x2="1076.99" y2="274.77" gradientTransform="matrix(103.51, 0, 0, -89.64, -111007.24, 24932.72)" gradientUnits="userSpaceOnUse"><stop offset="0" stop-color="#2297bf"/><stop offset="0.5" stop-color="#80bc22"/><stop offset="1" stop-color="#2297bf"/></linearGradient><linearGradient id="linear-gradient-2" x1="1075.99" y1="274.77" x2="1076.99" y2="274.77" gradientTransform="matrix(103.51, 0, 0, -89.64, -111086.03, 24979.66)" xlink:href="#linear-gradient"/><linearGradient id="linear-gradient-3" x1="1075.99" y1="274.77" x2="1076.99" y2="274.77" gradientTransform="matrix(103.51, 0, 0, -89.65, -111007.24, 24749.89)" xlink:href="#linear-gradient"/><linearGradient id="linear-gradient-4" x1="1075.99" y1="274.77" x2="1076.99" y2="274.77" gradientTransform="matrix(103.52, 0, 0, -89.64, -110774.11, 24794.08)" xlink:href="#linear-gradient"/><linearGradient id="linear-gradient-5" x1="1075.99" y1="274.77" x2="1076.99" y2="274.77" gradientTransform="matrix(103.51, 0, 0, -89.65, -110690.92, 24749.61)" xlink:href="#linear-gradient"/><linearGradient id="linear-gradient-6" x1="1079.49" y1="274.77" x2="1079.49" y2="274.77" gradientTransform="matrix(103.51, 0, 0, -89.64, -110608.91, 24794.08)" gradientUnits="userSpaceOnUse"><stop offset="0" stop-color="#2297bf"/><stop offset="0.5" stop-color="#ec1883"/><stop offset="1" stop-color="#2297bf"/></linearGradient><linearGradient id="linear-gradient-7" x1="1079.49" y1="274.77" x2="1079.49" y2="274.77" gradientTransform="matrix(103.51, 0, 0, -89.65, -110608.91, 24887.98)" xlink:href="#linear-gradient-6"/><linearGradient id="linear-gradient-8" x1="1075.99" y1="274.77" x2="1076.99" y2="274.77" gradientTransform="matrix(103.51, 0, 0, -89.64, -110690.92, 24932.71)" xlink:href="#linear-gradient"/><linearGradient id="linear-gradient-9" x1="1075.99" y1="274.77" x2="1076.99" y2="274.77" gradientTransform="matrix(103.51, 0, 0, -89.65, -110690.92, 25027.45)" xlink:href="#linear-gradient"/><linearGradient id="linear-gradient-10" x1="1079.49" y1="274.77" x2="1079.49" y2="274.77" gradientTransform="matrix(103.51, 0, 0, -89.64, -110608.91, 25071.36)" xlink:href="#linear-gradient"/><linearGradient id="linear-gradient-11" x1="1075.99" y1="274.77" x2="1076.99" y2="274.77" gradientTransform="matrix(103.51, 0, 0, -89.65, -110526.85, 25027.45)" xlink:href="#linear-gradient"/><linearGradient id="linear-gradient-12" x1="1075.99" y1="274.77" x2="1076.99" y2="274.77" gradientTransform="matrix(103.51, 0, 0, -89.64, -110450.2, 24979.66)" xlink:href="#linear-gradient-6"/><linearGradient id="linear-gradient-13" x1="1075.99" y1="274.77" x2="1076.99" y2="274.77" gradientTransform="matrix(103.51, 0, 0, -89.64, -110526.85, 24841.3)" xlink:href="#linear-gradient-6"/><linearGradient id="linear-gradient-14" x1="1075.99" y1="274.77" x2="1076.99" y2="274.77" gradientTransform="matrix(103.51, 0, 0, -89.64, -110450.2, 24887.69)" xlink:href="#linear-gradient-6"/><linearGradient id="linear-gradient-15" x1="1075.99" y1="274.77" x2="1076.99" y2="274.77" gradientTransform="matrix(103.51, 0, 0, -89.65, -110526.85, 24749.89)" xlink:href="#linear-gradient"/><linearGradient id="linear-gradient-16" x1="1075.99" y1="274.77" x2="1076.99" y2="274.77" gradientTransform="matrix(103.51, 0, 0, -89.64, -110450.2, 24702.11)" xlink:href="#linear-gradient-6"/><linearGradient id="linear-gradient-17" x1="1077.15" y1="274.77" x2="1077.15" y2="274.77" gradientTransform="matrix(103.51, 0, 0, -89.65, -110370.39, 24749.89)" xlink:href="#linear-gradient-6"/><linearGradient id="linear-gradient-18" x1="1077.15" y1="274.77" x2="1077.15" y2="274.77" gradientTransform="matrix(103.51, 0, 0, -89.64, -110367.14, 24841.3)" xlink:href="#linear-gradient-6"/><linearGradient id="linear-gradient-19" x1="1075.99" y1="274.77" x2="1076.99" y2="274.77" gradientTransform="matrix(103.52, 0, 0, -89.64, -110774.11, 25071.36)" xlink:href="#linear-gradient"/><linearGradient id="linear-gradient-20" x1="1075.99" y1="274.77" x2="1076.99" y2="274.77" gradientTransform="matrix(103.52, 0, 0, -89.64, -110774.11, 24979.66)" xlink:href="#linear-gradient"/><linearGradient id="linear-gradient-21" x1="1075.99" y1="274.77" x2="1076.99" y2="274.77" gradientTransform="matrix(103.51, 0, 0, -89.64, -111245.79, 24794.08)" xlink:href="#linear-gradient-6"/><linearGradient id="linear-gradient-22" x1="1075.99" y1="274.77" x2="1076.99" y2="274.77" gradientTransform="matrix(103.51, 0, 0, -89.65, -111086.03, 24887.7)" xlink:href="#linear-gradient-6"/><linearGradient id="linear-gradient-23" x1="1084.95" y1="274.77" x2="1084.95" y2="274.77" gradientTransform="matrix(103.51, 0, 0, -89.64, -111168.09, 24841.3)" xlink:href="#linear-gradient-6"/><linearGradient id="linear-gradient-24" x1="1075.99" y1="274.77" x2="1076.99" y2="274.77" gradientTransform="matrix(103.51, 0, 0, -89.65, -111245.79, 24887.98)" xlink:href="#linear-gradient-6"/><linearGradient id="linear-gradient-25" x1="1082.61" y1="274.77" x2="1082.61" y2="274.77" gradientTransform="matrix(103.51, 0, 0, -89.64, -110926.26, 24979.66)" xlink:href="#linear-gradient"/><linearGradient id="linear-gradient-26" x1="1075.99" y1="274.77" x2="1076.99" y2="274.77" gradientTransform="matrix(103.52, 0, 0, -89.65, -110852.87, 25026.35)" xlink:href="#linear-gradient"/><linearGradient id="linear-gradient-27" x1="1075.99" y1="274.77" x2="1076.99" y2="274.77" gradientTransform="matrix(103.52, 0, 0, -89.64, -110853.92, 24841.3)" xlink:href="#linear-gradient"/><linearGradient id="linear-gradient-28" x1="1082.61" y1="274.77" x2="1082.61" y2="274.77" gradientTransform="matrix(103.51, 0, 0, -89.64, -110926.26, 24794.08)" xlink:href="#linear-gradient"/><linearGradient id="linear-gradient-29" x1="1075.99" y1="274.77" x2="1076.99" y2="274.77" gradientTransform="matrix(103.51, 0, 0, -89.64, -111007.21, 24841.3)" xlink:href="#linear-gradient"/><linearGradient id="linear-gradient-30" x1="1075.99" y1="274.77" x2="1076.99" y2="274.77" gradientTransform="matrix(103.52, 0, 0, -89.64, -110852.87, 24932.99)" xlink:href="#linear-gradient"/><linearGradient id="linear-gradient-31" x1="1077.15" y1="274.77" x2="1077.15" y2="274.77" gradientTransform="matrix(103.51, 0, 0, -89.65, -110370.39, 25026.35)" xlink:href="#linear-gradient-6"/><linearGradient id="linear-gradient-32" x1="1083.33" y1="274.54" x2="1083.33" y2="274.54" gradientTransform="matrix(90.4, 0, 0, -78.3, -96797.78, 21797.03)" xlink:href="#linear-gradient"/><linearGradient id="linear-gradient-33" x1="1074.94" y1="274.54" x2="1075.94" y2="274.54" gradientTransform="matrix(90.4, 0, 0, -78.29, -96877.66, 21841.21)" xlink:href="#linear-gradient-6"/><linearGradient id="linear-gradient-34" x1="1083.33" y1="274.54" x2="1083.33" y2="274.54" gradientTransform="matrix(90.4, 0, 0, -78.29, -96797.78, 21611.71)" xlink:href="#linear-gradient"/><linearGradient id="linear-gradient-35" x1="1074.94" y1="274.54" x2="1075.94" y2="274.54" gradientTransform="matrix(90.4, 0, 0, -78.29, -96558.06, 21657)" xlink:href="#linear-gradient"/><linearGradient id="linear-gradient-36" x1="1074.94" y1="274.54" x2="1075.94" y2="274.54" gradientTransform="matrix(90.4, 0, 0, -78.29, -96478.18, 21611.71)" xlink:href="#linear-gradient"/><linearGradient id="linear-gradient-37" x1="1074.94" y1="274.54" x2="1075.94" y2="274.54" gradientTransform="matrix(90.4, 0, 0, -78.29, -96398.29, 21657)" xlink:href="#linear-gradient"/><linearGradient id="linear-gradient-38" x1="1074.94" y1="274.54" x2="1075.94" y2="274.54" gradientTransform="matrix(90.4, 0, 0, -78.29, -96398.29, 21749.53)" xlink:href="#linear-gradient"/><linearGradient id="linear-gradient-39" x1="1074.94" y1="274.54" x2="1075.94" y2="274.54" gradientTransform="matrix(90.4, 0, 0, -78.3, -96478.18, 21797.03)" xlink:href="#linear-gradient"/><linearGradient id="linear-gradient-40" x1="1074.94" y1="274.54" x2="1075.94" y2="274.54" gradientTransform="matrix(90.4, 0, 0, -78.29, -96478.18, 21887.33)" xlink:href="#linear-gradient"/><linearGradient id="linear-gradient-41" x1="1074.94" y1="274.54" x2="1075.94" y2="274.54" gradientTransform="matrix(90.4, 0, 0, -78.29, -96398.29, 21934)" xlink:href="#linear-gradient"/><linearGradient id="linear-gradient-42" x1="1074.94" y1="274.54" x2="1075.94" y2="274.54" gradientTransform="matrix(90.4, 0, 0, -78.29, -96318.41, 21887.33)" xlink:href="#linear-gradient"/><linearGradient id="linear-gradient-43" x1="1077.07" y1="274.54" x2="1077.07" y2="274.54" gradientTransform="matrix(90.4, 0, 0, -78.29, -96238.52, 21841.21)" xlink:href="#linear-gradient-6"/><linearGradient id="linear-gradient-44" x1="1074.94" y1="274.54" x2="1075.94" y2="274.54" gradientTransform="matrix(90.4, 0, 0, -78.29, -96318.41, 21702.85)" xlink:href="#linear-gradient-6"/><linearGradient id="linear-gradient-45" x1="1077.07" y1="274.54" x2="1077.07" y2="274.54" gradientTransform="matrix(90.4, 0, 0, -78.29, -96238.52, 21749.53)" xlink:href="#linear-gradient-6"/><linearGradient id="linear-gradient-46" x1="1074.94" y1="274.54" x2="1075.94" y2="274.54" gradientTransform="matrix(90.4, 0, 0, -78.29, -96318.41, 21611.71)" xlink:href="#linear-gradient"/><linearGradient id="linear-gradient-47" x1="1077.07" y1="274.54" x2="1077.07" y2="274.54" gradientTransform="matrix(90.4, 0, 0, -78.29, -96238.52, 21563.93)" xlink:href="#linear-gradient-6"/><linearGradient id="linear-gradient-48" x1="1076.18" y1="274.54" x2="1076.18" y2="274.54" gradientTransform="matrix(90.4, 0, 0, -78.29, -96158.57, 21611.71)" xlink:href="#linear-gradient-6"/><linearGradient id="linear-gradient-49" x1="1074.94" y1="274.54" x2="1075.94" y2="274.54" gradientTransform="matrix(90.4, 0, 0, -78.29, -96558.06, 21934)" xlink:href="#linear-gradient"/><linearGradient id="linear-gradient-50" x1="1074.94" y1="274.54" x2="1075.94" y2="274.54" gradientTransform="matrix(90.4, 0, 0, -78.29, -96558.06, 21841.21)" xlink:href="#linear-gradient"/><linearGradient id="linear-gradient-51" x1="1086.01" y1="274.54" x2="1086.01" y2="274.54" gradientTransform="matrix(90.4, 0, 0, -78.29, -97037.41, 21657)" xlink:href="#linear-gradient-6"/><linearGradient id="linear-gradient-52" x1="1074.94" y1="274.54" x2="1075.94" y2="274.54" gradientTransform="matrix(90.4, 0, 0, -78.29, -96877.66, 21749.53)" xlink:href="#linear-gradient-6"/><linearGradient id="linear-gradient-53" x1="1074.94" y1="274.54" x2="1075.94" y2="274.54" gradientTransform="matrix(90.4, 0, 0, -78.29, -96957.51, 21702.85)" xlink:href="#linear-gradient-6"/><linearGradient id="linear-gradient-54" x1="1086.01" y1="274.54" x2="1086.01" y2="274.54" gradientTransform="matrix(90.4, 0, 0, -78.29, -97037.41, 21749.53)" xlink:href="#linear-gradient-6"/><linearGradient id="linear-gradient-55" x1="1074.94" y1="274.54" x2="1075.94" y2="274.54" gradientTransform="matrix(90.4, 0, 0, -78.29, -96717.86, 21841.21)" xlink:href="#linear-gradient"/><linearGradient id="linear-gradient-56" x1="1074.94" y1="274.54" x2="1075.94" y2="274.54" gradientTransform="matrix(90.4, 0, 0, -78.29, -96637.98, 21887.33)" xlink:href="#linear-gradient"/><linearGradient id="linear-gradient-57" x1="1074.94" y1="274.54" x2="1075.94" y2="274.54" gradientTransform="matrix(90.4, 0, 0, -78.29, -96637.98, 21702.85)" xlink:href="#linear-gradient"/><linearGradient id="linear-gradient-58" x1="1074.94" y1="274.54" x2="1075.94" y2="274.54" gradientTransform="matrix(90.4, 0, 0, -78.29, -96717.86, 21657)" xlink:href="#linear-gradient"/><linearGradient id="linear-gradient-59" x1="1083.33" y1="274.54" x2="1083.33" y2="274.54" gradientTransform="matrix(90.4, 0, 0, -78.29, -96797.78, 21702.85)" xlink:href="#linear-gradient"/><linearGradient id="linear-gradient-60" x1="1074.94" y1="274.54" x2="1075.94" y2="274.54" gradientTransform="matrix(90.4, 0, 0, -78.3, -96637.98, 21797.03)" xlink:href="#linear-gradient"/><linearGradient id="linear-gradient-61" x1="1076.18" y1="274.54" x2="1076.18" y2="274.54" gradientTransform="matrix(90.4, 0, 0, -78.29, -96158.57, 21887.33)" xlink:href="#linear-gradient-6"/><linearGradient id="linear-gradient-62" x1="1083.12" y1="276.18" x2="1083.12" y2="276.18" gradientTransform="matrix(1596.21, 0, 0, -468.18, -1727755.37, 129490.41)" xlink:href="#linear-gradient"/><linearGradient id="linear-gradient-63" x1="1081.69" y1="276" x2="1082.69" y2="276" gradientTransform="matrix(475.07, 0, 0, -373.14, -513791.64, 103351.39)" xlink:href="#linear-gradient"/><linearGradient id="linear-gradient-64" x1="1083.18" y1="275.89" x2="1083.18" y2="275.89" gradientTransform="matrix(1210.52, 0, 0, -355.07, -1310064.48, 98298)" xlink:href="#linear-gradient"/><linearGradient id="linear-gradient-65" x1="1081.19" y1="275.88" x2="1082.19" y2="275.88" gradientTransform="matrix(360.27, 0, 0, -282.97, -389429.11, 78273.41)" xlink:href="#linear-gradient"/><linearGradient id="linear-gradient-66" x1="1082.54" y1="276.02" x2="1083.54" y2="276.02" gradientTransform="matrix(1019.51, 0, 0, -303.77, -1103064.22, 84046.03)" xlink:href="#linear-gradient"/><linearGradient id="linear-gradient-67" x1="1080.8" y1="275.78" x2="1081.8" y2="275.78" gradientTransform="matrix(303.48, 0, 0, -238.34, -327756.16, 66040.88)" xlink:href="#linear-gradient"/></defs><g id="Layer_1" data-name="Layer 1"><g id="Group_272" data-name="Group 272" class="cls-1"><g id="Group_293" data-name="Group 293"><g id="Group_292" data-name="Group 292"><g id="Group_271" data-name="Group 271"><g id="Group_4" data-name="Group 4" class="cls-2"><g id="Group_2" data-name="Group 2"><path id="Path_34" data-name="Path 34" class="cls-3" d="M473.48,302,447.6,346.81H395.85L370,302l25.88-44.82H447.6ZM371,302l25.36,43.93h50.73L472.45,302l-25.36-43.93H396.36Z" transform="translate(-87.19 -0.53)"/><path id="Path_35" data-name="Path 35" class="cls-4" d="M393.6,348.11l-25.88,44.82H316l-25.87-44.82L316,303.29h51.76Zm-102.48,0,25.35,43.94H367.2l25.37-43.94L367.2,304.18H316.47Z" transform="translate(-87.19 -0.53)"/><path id="Path_36" data-name="Path 36" class="cls-5" d="M473.48,117.5,447.6,162.33H395.85L370,117.5l25.88-44.82H447.6ZM371,117.5l25.36,43.94h50.73l25.36-43.94L447.09,73.57H396.36Z" transform="translate(-87.19 -0.53)"/><path id="Path_37" data-name="Path 37" class="cls-6" d="M713.13,163.62l-25.87,44.83H635.5l-25.88-44.83,25.88-44.81h51.76Zm-102.48,0L636,207.56h50.72l25.37-43.94L686.74,119.7H636Z" transform="translate(-87.19 -0.53)"/><path id="Path_38" data-name="Path 38" class="cls-7" d="M793,117.5l-25.88,44.83H715.38L689.5,117.5l25.88-44.82h51.75Zm-102.48,0,25.36,43.94h50.73L792,117.5,766.63,73.57H715.9Z" transform="translate(-87.19 -0.53)"/><path id="Path_39" data-name="Path 39" class="cls-8" d="M872.9,163.62,847,208.45H795.27l-25.88-44.83,25.88-44.81H847Zm-102.48,0,25.36,43.94h50.74l25.36-43.94L846.5,119.7H795.78Z" transform="translate(-87.19 -0.53)"/><path id="Path_40" data-name="Path 40" class="cls-9" d="M872.9,255.87,847,300.69H795.27l-25.88-44.82L795.27,211H847Zm-102.48,0,25.36,43.93h50.74l25.36-43.93-25.37-43.94H795.78Z" transform="translate(-87.19 -0.53)"/><path id="Path_41" data-name="Path 41" class="cls-10" d="M793,302l-25.89,44.82H715.38L689.5,302l25.88-44.82h51.75Zm-102.48,0,25.36,43.93h50.73L792,302l-25.36-43.93H715.9Z" transform="translate(-87.19 -0.53)"/><path id="Path_42" data-name="Path 42" class="cls-11" d="M793,394.23l-25.88,44.83H715.38L689.5,394.24l25.88-44.83h51.75Zm-102.48,0,25.36,43.93h50.73L792,394.23,766.63,350.3H715.9Z" transform="translate(-87.19 -0.53)"/><path id="Path_43" data-name="Path 43" class="cls-12" d="M872.9,440.35,847,485.18H795.27l-25.88-44.83,25.88-44.82H847Zm-102.48,0,25.36,43.94h50.74l25.36-43.94L846.5,396.42H795.78Z" transform="translate(-87.19 -0.53)"/><path id="Path_44" data-name="Path 44" class="cls-13" d="M952.78,394.23l-25.87,44.83H875.15l-25.88-44.83,25.88-44.82h51.76Zm-102.48,0,25.36,43.93h50.73l25.37-43.93L926.39,350.3H875.67Z" transform="translate(-87.19 -0.53)"/><path id="Path_45" data-name="Path 45" class="cls-14" d="M1032.67,348.11l-25.88,44.82H955l-25.88-44.82L955,303.29h51.75Zm-102.48,0,25.36,43.94h50.73l25.37-43.94-25.37-43.93H955.55Z" transform="translate(-87.19 -0.53)"/><path id="Path_46" data-name="Path 46" class="cls-15" d="M952.78,209.75,926.9,254.57H875.15l-25.88-44.82,25.88-44.83h51.76Zm-102.48,0,25.36,43.93h50.73l25.37-43.93-25.37-43.94H875.67Z" transform="translate(-87.19 -0.53)"/><path id="Path_47" data-name="Path 47" class="cls-16" d="M1032.67,255.87l-25.88,44.82H955l-25.88-44.83L955,211h51.75Zm-102.48,0,25.36,43.93h50.73l25.37-43.93-25.37-43.94H955.55Z" transform="translate(-87.19 -0.53)"/><path id="Path_48" data-name="Path 48" class="cls-17" d="M952.78,117.5,926.9,162.33H875.15L849.27,117.5l25.88-44.82h51.76Zm-102.48,0,25.36,43.94h50.73l25.37-43.94L926.39,73.57H875.67Z" transform="translate(-87.19 -0.53)"/><path id="Path_49" data-name="Path 49" class="cls-18" d="M1032.67,71.38l-25.88,44.83H955L929.16,71.39,955,26.57h51.75Zm-102.48,0,25.36,43.93h50.73l25.37-43.93-25.37-43.93H955.55Z" transform="translate(-87.19 -0.53)"/><path class="cls-19" d="M1059.52,161.44h-24.09l-25.36-43.94,25.36-43.93h23.88v-.25s0-.08,0-.11,0-.08,0-.11,0-.28,0-.42h-24.41L1009,117.5l25.88,44.83h24.6Z" transform="translate(-87.19 -0.53)"/><path class="cls-20" d="M1059.61,253.68h-24.18l-25.36-43.93,25.36-43.94h24.09v-.89h-24.6L1009,209.75l25.88,44.82h24.59C1059.54,254.27,1059.58,254,1059.61,253.68Z" transform="translate(-87.19 -0.53)"/><path id="Path_52" data-name="Path 52" class="cls-21" d="M713.13,440.35l-25.87,44.83H635.5l-25.88-44.83,25.88-44.82h51.75Zm-102.48,0L636,484.29h50.72l25.37-43.94-25.37-43.93H636Z" transform="translate(-87.19 -0.53)"/><path id="Path_53" data-name="Path 53" class="cls-22" d="M713.13,348.11l-25.87,44.82H635.5l-25.88-44.82,25.88-44.82h51.75Zm-102.48,0L636,392.05h50.72l25.37-43.94-25.37-43.93H636Z" transform="translate(-87.19 -0.53)"/><path id="Path_54" data-name="Path 54" class="cls-23" d="M233.83,163.62,208,208.45H156.2l-25.88-44.83,25.88-44.81H208Zm-102.49,0,25.37,43.94h50.73l25.36-43.94L207.44,119.7H156.71Z" transform="translate(-87.19 -0.53)"/><path id="Path_55" data-name="Path 55" class="cls-24" d="M393.6,255.87l-25.88,44.82H316l-25.87-44.82L316,211h51.76Zm-102.48,0,25.35,43.93H367.2l25.37-43.93L367.2,211.93H316.47Z" transform="translate(-87.19 -0.53)"/><path id="Path_56" data-name="Path 56" class="cls-25" d="M313.71,209.75l-25.87,44.82H236.08L210.2,209.75l25.88-44.83h51.76Zm-102.48,0,25.36,43.93h50.73l25.36-43.93-25.36-43.94H236.59Z" transform="translate(-87.19 -0.53)"/><path id="Path_57" data-name="Path 57" class="cls-26" d="M233.83,255.87,208,300.69H156.2l-25.88-44.82L156.2,211H208Zm-102.49,0,25.37,43.93h50.73l25.36-43.93-25.36-43.94H156.71Z" transform="translate(-87.19 -0.53)"/><path id="Path_58" data-name="Path 58" class="cls-27" d="M553.37,348.11l-25.88,44.82H475.73l-25.87-44.82,25.87-44.82h51.76Zm-102.49,0,25.37,43.94H527l25.37-43.94L527,304.18H476.25Z" transform="translate(-87.19 -0.53)"/><path id="Path_59" data-name="Path 59" class="cls-28" d="M633.25,394.23l-25.88,44.83H555.62l-25.89-44.82,25.89-44.83h51.75Zm-102.49,0,25.37,43.93h50.73l25.36-43.93L606.86,350.3H556.13Z" transform="translate(-87.19 -0.53)"/><path id="Path_60" data-name="Path 60" class="cls-29" d="M633.25,209.75l-25.88,44.82H555.62l-25.89-44.82,25.88-44.83h51.76Zm-102.49,0,25.37,43.93h50.73l25.36-43.93-25.36-43.94H556.13Z" transform="translate(-87.19 -0.53)"/><path id="Path_61" data-name="Path 61" class="cls-30" d="M553.37,163.62l-25.88,44.83H475.73l-25.87-44.83,25.87-44.81h51.76Zm-102.49,0,25.37,43.94H527l25.37-43.94L527,119.7H476.25Z" transform="translate(-87.19 -0.53)"/><path id="Path_62" data-name="Path 62" class="cls-31" d="M473.48,209.75,447.6,254.57H395.85L370,209.75l25.88-44.83H447.6Zm-102.48,0,25.36,43.93h50.73l25.36-43.93-25.36-43.94H396.36Z" transform="translate(-87.19 -0.53)"/><path id="Path_63" data-name="Path 63" class="cls-32" d="M633.25,302l-25.88,44.82H555.62L529.73,302l25.88-44.83h51.76Zm-102.49,0,25.37,43.93h50.73L632.22,302l-25.36-43.93H556.13Z" transform="translate(-87.19 -0.53)"/><path class="cls-33" d="M1060.89,438.16h-25.46l-25.36-43.93,25.36-43.93h26v-.89h-26.52L1009,394.24l25.88,44.82h26C1060.89,438.76,1060.89,438.46,1060.89,438.16Z" transform="translate(-87.19 -0.53)"/></g><g id="Group_3" data-name="Group 3"><path id="Path_65" data-name="Path 65" class="cls-34" d="M399.12,262.84,376.52,302l22.6,39.15h45.2L466.92,302l-22.6-39.15Z" transform="translate(-87.19 -0.53)"/><path id="Path_66" data-name="Path 66" class="cls-35" d="M319.24,309l-22.6,39.14,22.6,39.14h45.2L387,348.11,364.44,309Z" transform="translate(-87.19 -0.53)"/><path id="Path_67" data-name="Path 67" class="cls-36" d="M399.12,78.36l-22.6,39.14,22.6,39.15h45.2l22.6-39.15-22.6-39.14Z" transform="translate(-87.19 -0.53)"/><path id="Path_68" data-name="Path 68" class="cls-37" d="M638.77,124.48l-22.6,39.14,22.6,39.15H684l22.6-39.15L684,124.48Z" transform="translate(-87.19 -0.53)"/><path id="Path_69" data-name="Path 69" class="cls-38" d="M718.66,78.36l-22.6,39.14,22.6,39.15h45.2l22.6-39.15-22.6-39.14Z" transform="translate(-87.19 -0.53)"/><path id="Path_70" data-name="Path 70" class="cls-39" d="M798.55,124.48,776,163.62l22.6,39.15h45.2l22.6-39.15-22.6-39.14Z" transform="translate(-87.19 -0.53)"/><path id="Path_71" data-name="Path 71" class="cls-40" d="M798.55,216.72,776,255.87,798.55,295h45.2l22.6-39.14-22.6-39.15Z" transform="translate(-87.19 -0.53)"/><path id="Path_72" data-name="Path 72" class="cls-41" d="M718.66,262.84,696.06,302l22.6,39.15h45.2L786.46,302l-22.6-39.15Z" transform="translate(-87.19 -0.53)"/><path id="Path_73" data-name="Path 73" class="cls-42" d="M718.66,355.09l-22.6,39.14,22.6,39.15h45.2l22.6-39.15-22.6-39.14Z" transform="translate(-87.19 -0.53)"/><path id="Path_74" data-name="Path 74" class="cls-43" d="M798.55,401.21,776,440.35l22.6,39.15h45.2l22.6-39.15-22.6-39.14Z" transform="translate(-87.19 -0.53)"/><path id="Path_75" data-name="Path 75" class="cls-44" d="M878.43,355.09l-22.6,39.14,22.6,39.15h45.2l22.6-39.15-22.6-39.14Z" transform="translate(-87.19 -0.53)"/><path id="Path_76" data-name="Path 76" class="cls-45" d="M958.31,309l-22.6,39.14,22.6,39.14h45.2l22.6-39.14L1003.51,309Z" transform="translate(-87.19 -0.53)"/><path id="Path_77" data-name="Path 77" class="cls-46" d="M878.43,170.6l-22.6,39.15,22.6,39.14h45.2l22.6-39.14-22.6-39.15Z" transform="translate(-87.19 -0.53)"/><path id="Path_78" data-name="Path 78" class="cls-47" d="M958.31,216.72l-22.6,39.15L958.31,295h45.2l22.6-39.14-22.6-39.15Z" transform="translate(-87.19 -0.53)"/><path id="Path_79" data-name="Path 79" class="cls-48" d="M878.43,78.36l-22.6,39.14,22.6,39.15h45.2l22.6-39.15-22.6-39.14Z" transform="translate(-87.19 -0.53)"/><path id="Path_80" data-name="Path 80" class="cls-49" d="M958.31,32.24,935.72,71.38l22.6,39.14h45.2l22.6-39.14-22.6-39.14Z" transform="translate(-87.19 -0.53)"/><path class="cls-50" d="M1059.42,140.27c-.1-5.4-.07-10.78,0-16.19,0-1.88.08-3.76.14-5.65a13.87,13.87,0,0,1-.3-2.75V78.36H1038.2l-22.6,39.14,22.6,39.15h21.33C1059.54,151.19,1059.53,145.73,1059.42,140.27Z" transform="translate(-87.19 -0.53)"/><path id="Path_83" data-name="Path 83" class="cls-51" d="M638.77,401.21l-22.6,39.14,22.6,39.15H684l22.6-39.15L684,401.21Z" transform="translate(-87.19 -0.53)"/><path id="Path_84" data-name="Path 84" class="cls-52" d="M638.77,309l-22.6,39.14,22.6,39.14H684l22.6-39.14L684,309Z" transform="translate(-87.19 -0.53)"/><path id="Path_85" data-name="Path 85" class="cls-53" d="M159.47,124.48l-22.6,39.14,22.6,39.15h45.2l22.6-39.15-22.6-39.14Z" transform="translate(-87.19 -0.53)"/><path id="Path_86" data-name="Path 86" class="cls-54" d="M319.24,216.72l-22.6,39.15L319.24,295h45.2L387,255.87l-22.6-39.15Z" transform="translate(-87.19 -0.53)"/><path id="Path_87" data-name="Path 87" class="cls-55" d="M239.36,170.6l-22.6,39.15,22.6,39.14h45.2l22.6-39.14-22.6-39.15Z" transform="translate(-87.19 -0.53)"/><path id="Path_88" data-name="Path 88" class="cls-56" d="M159.47,216.72l-22.6,39.15L159.47,295h45.2l22.6-39.14-22.6-39.15Z" transform="translate(-87.19 -0.53)"/><path id="Path_89" data-name="Path 89" class="cls-57" d="M479,309l-22.6,39.14L479,387.25h45.2l22.6-39.14L524.21,309Z" transform="translate(-87.19 -0.53)"/><path id="Path_90" data-name="Path 90" class="cls-58" d="M558.89,355.09l-22.6,39.14,22.6,39.15h45.2l22.6-39.15-22.6-39.14Z" transform="translate(-87.19 -0.53)"/><path id="Path_91" data-name="Path 91" class="cls-59" d="M558.89,170.6l-22.6,39.15,22.6,39.14h45.2l22.6-39.14-22.6-39.15Z" transform="translate(-87.19 -0.53)"/><path id="Path_92" data-name="Path 92" class="cls-60" d="M479,124.48l-22.6,39.14L479,202.77h45.2l22.6-39.15L524.2,124.48Z" transform="translate(-87.19 -0.53)"/><path id="Path_93" data-name="Path 93" class="cls-61" d="M399.12,170.6l-22.6,39.15,22.6,39.14h45.2l22.6-39.14-22.6-39.15Z" transform="translate(-87.19 -0.53)"/><path id="Path_94" data-name="Path 94" class="cls-62" d="M558.89,262.84,536.29,302l22.6,39.15h45.2L626.69,302l-22.6-39.15Z" transform="translate(-87.19 -0.53)"/><path class="cls-63" d="M1061.42,355.09H1038.2l-22.6,39.14,22.6,39.15h22.71C1061,407.28,1061.34,381.18,1061.42,355.09Z" transform="translate(-87.19 -0.53)"/></g></g><g id="Group_5" data-name="Group 5" class="cls-64"><path class="cls-65" d="M1059.4,276.3h-41.17a10.74,10.74,0,0,0-10.91-10.19,9.8,9.8,0,0,0-4.16.93L965.3,201.39a13.73,13.73,0,0,0,6.24-11.76,13.52,13.52,0,0,0-6.41-11.33l37.65-65.1a11.73,11.73,0,0,0,5.05,1.14,11.86,11.86,0,0,0,11.46-10.85h40v-2.35l-40.12,0a11.72,11.72,0,0,0-11.79-10.35,14.45,14.45,0,0,0-4.54,1L964.93,26a13.73,13.73,0,0,0,.54-23.09l-2.29-1.27A14.23,14.23,0,0,0,957.5.53a13.8,13.8,0,0,0-13.49,13l.12,2.37A13.75,13.75,0,0,0,958,28.07a16,16,0,0,0,4.79-1l38,65.91a11.71,11.71,0,0,0-.08,19L963.05,177.2a13.15,13.15,0,0,0-5.47-1.06,13.71,13.71,0,0,0-13.45,12.52H869.78a13.67,13.67,0,0,0-13.88-11.89,13.94,13.94,0,0,0-5.47,1.23l-38-65.9A11.72,11.72,0,0,0,812.61,93l-2-1.18a11,11,0,0,0-5.17-1.15A11.64,11.64,0,0,0,794,101.06H714.45a10.18,10.18,0,0,0-10.26-9.63,9.65,9.65,0,0,0-4,.88l-2,1.28a10.19,10.19,0,0,0-3.94,8.14,9.94,9.94,0,0,0,4.25,8L658.73,178.6a12.37,12.37,0,0,0-5.22-1.15,11.75,11.75,0,0,0-11.46,10.65l.05,2.38A11.82,11.82,0,0,0,653.94,201a14,14,0,0,0,4.28-.94l12.14,21.1L696,265.89a13.76,13.76,0,0,0-3.5,19.14,13.6,13.6,0,0,0,3.29,3.35l-36.88,63.4a14,14,0,0,0-5.82-1.22,13.87,13.87,0,0,0-13.5,12.68l0,2.42A13.74,13.74,0,1,0,661,352.93l36.84-63.31A14.29,14.29,0,0,0,704,291a13.75,13.75,0,0,0,13.4-12.34h78a10.12,10.12,0,0,0,10.19,9,10.72,10.72,0,0,0,3.9-.89l2-1.27a10.18,10.18,0,0,0,4-8.15,10,10,0,0,0-4.08-7.89L850,202.84a13.92,13.92,0,0,0,6.41,1.4A13.7,13.7,0,0,0,869.9,191l74.22,0a13.79,13.79,0,0,0,15,12.46,14,14,0,0,0,3.93-1L1001,268.36a10.73,10.73,0,0,0-4.2,8.7,10.51,10.51,0,0,0,4.84,8.7l-37.31,64.55a15.31,15.31,0,0,0-7.25-1.66,15.49,15.49,0,0,0-15.2,15.15l.13,2.38a15.49,15.49,0,1,0,24.36-14.6l37.39-64.71a10.35,10.35,0,0,0,3.94.68,10.66,10.66,0,0,0,10.36-8.88l41.59,0Q1059.5,277.5,1059.4,276.3ZM958,25.69h0a11.4,11.4,0,1,1,11.16-11.64h0A11.45,11.45,0,0,1,958,25.69Zm40.24,77.07a9.41,9.41,0,0,1,9.21-9.59h.05a9.4,9.4,0,1,1-9.26,9.59ZM805.38,93.08a9.38,9.38,0,0,1,9.6,9.16v.06a9.41,9.41,0,0,1-9.16,9.55h0a9.39,9.39,0,0,1-.44-18.77ZM653.59,198.36a9.41,9.41,0,1,1,9.5-9.5V189A9.41,9.41,0,0,1,653.59,198.36Zm50.34,90.2a11.34,11.34,0,0,1-11.55-11.12h0a11.32,11.32,0,0,1,11.1-11.53h0a11.33,11.33,0,0,1,.43,22.66Zm109.21-10.74a7.71,7.71,0,0,1-15.42,0v-.17a7.71,7.71,0,0,1,15.42.17Zm31.67-79.55a13.53,13.53,0,0,0,3,3.16l-38.54,66.71a10.07,10.07,0,0,0-13.14,5.45,10.22,10.22,0,0,0-.69,2.66l-78-.08a13.75,13.75,0,0,0-14-12.69,14,14,0,0,0-5.3,1.14l-37.78-65.74a11.68,11.68,0,0,0,3.07-16.23,12,12,0,0,0-2.73-2.82L700.57,111a10.71,10.71,0,0,0,3.95.76,10,10,0,0,0,9.72-8.06H794a11.64,11.64,0,0,0,11.84,10.56,11.79,11.79,0,0,0,4.45-1l38,65.94A13.72,13.72,0,0,0,844.81,198.27Zm113.18,3a11.38,11.38,0,1,1,11.18-11.57h0A11.38,11.38,0,0,1,958,201.25Zm12.45,162.43v.2a13.15,13.15,0,1,1,0-.2Z" transform="translate(-87.19 -0.53)"/><path id="Path_97" data-name="Path 97" class="cls-66" d="M562.26,190.15l0-2.36a10.12,10.12,0,1,0-16.1,9.62l-39.47,67.71a11.35,11.35,0,0,0-5.22-1.22A11.8,11.8,0,0,0,490,274.79l-77.77-.3a11.66,11.66,0,0,0-16.58-9.57l-2,1.2a11.93,11.93,0,0,0-4.84,9.69,11.72,11.72,0,0,0,4.93,9.23l-1.11,1.89-36.95,63.45a14,14,0,0,0-5.71-1.12,13.72,13.72,0,0,0-13.44,12.67l-74.53-.33A13.73,13.73,0,0,0,248,349a13.42,13.42,0,0,0-5.18,1.11l-36.56-63.93A13.73,13.73,0,0,0,209.4,267a14,14,0,0,0-3.28-3.23l38.5-66.06a11.92,11.92,0,0,0,5.08,1.17,11.29,11.29,0,0,0,11-9.87l.1-2.56a11.34,11.34,0,0,0-22.63,1.25,11.17,11.17,0,0,0,4.45,8.76l-38.55,66.15a14.2,14.2,0,0,0-6-1.35,13.78,13.78,0,0,0-13.4,12.19l-77.38-.3a10.1,10.1,0,1,0-16.3,9.64l2,1.3a10.23,10.23,0,0,0,4.55,1,10.09,10.09,0,0,0,9.86-9.58l77.19.34a13.74,13.74,0,0,0,13.92,12.92,14,14,0,0,0,5.52-1.26l36.55,63.84a13.74,13.74,0,0,0-.09,22.68l-38,65.19a12.27,12.27,0,0,0-5.51-1.3,11.72,11.72,0,0,0-11.42,10.68V451A11.74,11.74,0,0,0,209,449.47a11.5,11.5,0,0,0-4.5-8.94l38.06-65.33a13.72,13.72,0,0,0,18.19-6.73,13.53,13.53,0,0,0,1.2-4.5l74.53.34a13.73,13.73,0,0,0,13.93,12.43,12.74,12.74,0,0,0,5.08-1.06l36.7,64.17a13.7,13.7,0,0,0-.43,22.54L353.1,528.63a10.82,10.82,0,0,0-4.16-.81,10.13,10.13,0,0,0,.38,20.26,11.54,11.54,0,0,0,3.63-.77l2.08-1.12a10.09,10.09,0,0,0,4.2-8.41,10,10,0,0,0-4.1-7.93l38.64-66.2a14.23,14.23,0,0,0,6.28,1.4,13.81,13.81,0,0,0,13.45-13l72.2.34a15.39,15.39,0,0,0,22.05,12.78l37.48,65.62a10,10,0,0,0-4.35,8.51,10.18,10.18,0,0,0,4.11,7.93l2.08,1.21a10.55,10.55,0,0,0,4.11.83A10.14,10.14,0,0,0,550.8,529h0a9.22,9.22,0,0,0-3.44.73L509.83,464a15.52,15.52,0,0,0,6.77-13.11,15.33,15.33,0,0,0-6.77-12.47l37.91-65.14a10.41,10.41,0,0,0,4.56,1,10.2,10.2,0,0,0,9.86-8.95l0-2.37A10.05,10.05,0,0,0,552,354a10.4,10.4,0,0,0-3.88.88l-39.75-69.55a11.65,11.65,0,0,0,.34-19l39.46-67.66a9.63,9.63,0,0,0,4.26.87A10.05,10.05,0,0,0,562.26,190.15ZM550.85,531.34a7.74,7.74,0,1,1-7.6,7.88,7.74,7.74,0,0,1,7.6-7.88Zm-194,6.44a7.73,7.73,0,1,1-7.92-7.55H349a7.69,7.69,0,0,1,7.87,7.5h0v0ZM105.05,274.83a7.62,7.62,0,1,1-7.6-7.64,7.63,7.63,0,0,1,7.6,7.64Zm135.47-87.19a9,9,0,1,1,0,.06Zm19.09,174.87a11.37,11.37,0,1,1-11.56-11.17h0a11.35,11.35,0,0,1,11.56,11.12v.05Zm284.75,1.8a7.74,7.74,0,0,1,7.59-7.89H552a7.72,7.72,0,1,1-7.65,7.89Zm-144.8,75.63a11.29,11.29,0,1,1-.16,0Zm10.36-164.52a9.38,9.38,0,1,1-9.57-9.19h0a9.34,9.34,0,0,1,9.56,9.12Zm80.13,1.79a11.71,11.71,0,0,0,11.8,10.24,12.84,12.84,0,0,0,4.11-.86l39.85,69.64a10.07,10.07,0,0,0-1.64,14.15,9.94,9.94,0,0,0,1.54,1.57l-38,65.23A15.45,15.45,0,0,0,485.7,449.8l-72.3-.29a13.74,13.74,0,0,0-13.88-12,13.88,13.88,0,0,0-5.27,1.16L357.6,374.56a13.73,13.73,0,0,0,6.28-11.8,13.58,13.58,0,0,0-6.19-11.22l38-65.23a12,12,0,0,0,5,1.05,11.67,11.67,0,0,0,11.4-10.44ZM560,189.28a7.74,7.74,0,1,1-7.88-7.6h0a7.79,7.79,0,0,1,7.85,7.6Z" transform="translate(-87.19 -0.53)"/></g><g id="Group_6" data-name="Group 6" class="cls-67"><path class="cls-68" d="M1059.11,272h-28.27a10.38,10.38,0,0,0-14.19-8.73l-29-50.14a7.57,7.57,0,0,0,3.18-6.05,7.69,7.69,0,0,0-3.54-6.56l-1.64-.8a7.4,7.4,0,0,0-2.38-.46,7.67,7.67,0,0,0-7.66,6.31l-59.12,0a10.43,10.43,0,1,0-16.77,9.89L872.26,263a10.81,10.81,0,0,0-4.08-.9A10.4,10.4,0,0,0,857.59,272l-58.54,0a8.08,8.08,0,0,0-7.86-6.72,7.63,7.63,0,0,0-3,.51l-28.35-49.08a11.73,11.73,0,1,0-18.48-11.07l-.1,1.8a11.74,11.74,0,0,0,11.52,11.49,11.54,11.54,0,0,0,5.5-1.26l28.3,48.95a8,8,0,0,0-3.67,6.6,8.11,8.11,0,0,0,3.18,6.6l-28.77,49.89A10.44,10.44,0,0,0,743,338.44l-56.3,0a10.4,10.4,0,0,0-10.2-10,10.74,10.74,0,0,0-4.86,1.06L642.39,279a7.57,7.57,0,0,0,3.1-6,7.69,7.69,0,0,0-3-6.18l-1.54-1a8.4,8.4,0,0,0-3-.67,7.67,7.67,0,0,0-7.72,6.85H571a10.43,10.43,0,0,0-10.16-9.36,10.74,10.74,0,0,0-4.7,1l-27.94-48A10.42,10.42,0,1,0,512.05,206l0,1.83a10.53,10.53,0,0,0,10.24,9.63,10.82,10.82,0,0,0,4.41-.94l28,48.08a10.43,10.43,0,0,0,.16,17.06l-19.44,33.92-9.2,16a10.55,10.55,0,0,0-3.24-.7,9,9,0,0,0-9,8l0,1.8a8.91,8.91,0,0,0,8.69,8.08,9.47,9.47,0,0,0,4-.86l30.16,52.2a7.53,7.53,0,0,0-3.22,6.08,7.74,7.74,0,0,0,3,6.18l1.55,1a7.06,7.06,0,0,0,3,.67,7.71,7.71,0,0,0,7.78-7.3h60.35a8.83,8.83,0,0,0,8.62,7.85,8.18,8.18,0,0,0,3.92-.87l1.55-.9a8.85,8.85,0,0,0-.16-14.44l28.84-50a10.47,10.47,0,0,0,14.67-8.08H743a10.41,10.41,0,0,0,10.2,9.5,10.09,10.09,0,0,0,4.16-.81l28.54,49.43a8.88,8.88,0,0,0-2,12.39,9,9,0,0,0,2.05,2l-28.81,50a12.16,12.16,0,0,0-3.63-.74,10.42,10.42,0,0,0-10.53,9.2l-.1,1.8A10.49,10.49,0,0,0,753.11,483a10.82,10.82,0,0,0,4.31-.87l1.74-1a10.41,10.41,0,0,0-.42-17.51l28.78-49.85a11,11,0,0,0,3.44.78,8.9,8.9,0,0,0,8.94-7.86l60.42-.06a7.62,7.62,0,0,0,7.46,6.78,6.45,6.45,0,0,0,3-.57l1.58-.87a7.73,7.73,0,0,0,3.18-6.08,7.4,7.4,0,0,0-3.12-6.28l30.16-52.27a7.5,7.5,0,0,0,3,.61,8.09,8.09,0,0,0,8.27-7.72h61.34a7.67,7.67,0,0,0,15.26-1,7.6,7.6,0,0,0-3.1-6.28l29.1-50.43a9.58,9.58,0,0,0,3.84.8,10.37,10.37,0,0,0,10.55-9.56h28.39C1059.19,273.14,1059.14,272.55,1059.11,272ZM752.82,217.16h0a10,10,0,0,1,.16-19.9h.19a9.95,9.95,0,0,1-.35,19.89ZM637.92,267a5.94,5.94,0,0,1,5.76,6,5.87,5.87,0,1,1-5.76-6Zm-85.86,6h0a8.63,8.63,0,1,1,8.5,8.75h-.07A8.6,8.6,0,0,1,552.06,273ZM522.61,347h0a7.13,7.13,0,1,1,7.25-7A7.13,7.13,0,0,1,522.6,347ZM645,405.76h0a7.08,7.08,0,0,1-7.18,7h0a7.12,7.12,0,1,1,7.2-7Zm-3.54-8.29a9.07,9.07,0,0,0-3.37-.74,8.84,8.84,0,0,0-9,8H568.63a7.63,7.63,0,0,0-7.37-6.12,8,8,0,0,0-3,.58L528.08,347A8.85,8.85,0,0,0,530,334.59a9.15,9.15,0,0,0-2.14-2.07l28.64-49.85a10.72,10.72,0,0,0,4,.87,10.42,10.42,0,0,0,10.58-9.63l59.16-.06A7.62,7.62,0,0,0,640.72,280l29.22,50.59a10.41,10.41,0,0,0-2,14.57,10.74,10.74,0,0,0,2.41,2.3Zm120.44,75.19v0a8.48,8.48,0,1,1-8.47-8.5A8.49,8.49,0,0,1,761.93,472.69ZM983.23,201h0a5.88,5.88,0,1,1-6,5.76A5.87,5.87,0,0,1,983.23,201ZM859.35,272.34a8.63,8.63,0,1,1,8.5,8.78,8.65,8.65,0,0,1-8.5-8.78ZM753.21,348a8.61,8.61,0,1,1,8.75-8.46A8.61,8.61,0,0,1,753.21,348Zm45,57.72a7.13,7.13,0,0,1-7.26,7h0a7.13,7.13,0,1,1,7.26-7Zm72.72-7a8.52,8.52,0,0,0-2.87-.61,7.66,7.66,0,0,0-7.75,6.79l-58,0H800a8.72,8.72,0,0,0-9.22-8.22,8.62,8.62,0,0,0-3.3.85l-28.54-49.36a10.31,10.31,0,0,0,4.86-8.59,10.45,10.45,0,0,0-4.73-8.92l28.7-49.8a7.46,7.46,0,0,0,3.15.7,8.14,8.14,0,0,0,8.28-7.72h58.47a10.41,10.41,0,0,0,10.14,9.11,10.93,10.93,0,0,0,4.12-.74l29.39,50.89a8.07,8.07,0,0,0-.26,13.39Zm34.73-52.52h0a6.28,6.28,0,0,1-6.21-6.35v-.06a6.33,6.33,0,1,1,6.25,6.41ZM985.8,332a7.42,7.42,0,0,0-2.9-.68,7.69,7.69,0,0,0-7.75,7l-61.44,0a8.08,8.08,0,0,0-7.82-6.7,8.87,8.87,0,0,0-2.8.45l-29.42-51a10.41,10.41,0,0,0,.17-17.28l27.39-47.5a10.59,10.59,0,0,0,4.76,1.26,10.42,10.42,0,0,0,10.59-10.23v-.1h59A7.7,7.7,0,0,0,983,214.6a7.94,7.94,0,0,0,2.93-.55l28.94,50.05a10.43,10.43,0,0,0,0,17.57Zm43.25-59a8.6,8.6,0,0,1-8.73,8.47h0a8.63,8.63,0,1,1,8.75-8.5Z" transform="translate(-87.19 -0.53)"/><path id="Path_99" data-name="Path 99" class="cls-69" d="M445.89,332a7.34,7.34,0,0,0-3.23.66l-29.92-51.32A8.83,8.83,0,0,0,414.62,269a9.1,9.1,0,0,0-2.14-2.06l30.14-52.74a7.82,7.82,0,0,0,2.94.66,7.63,7.63,0,0,0,7.7-6.78l0-1.8a7.73,7.73,0,0,0-7.47-6.8,8,8,0,0,0-3.46.78l-28.75-49.4a11.63,11.63,0,0,0,5.14-9.46,11.8,11.8,0,0,0-5.14-9.95l28.47-49.84a6.9,6.9,0,0,0,2.61.55A7.69,7.69,0,1,0,445,66.81a8,8,0,0,0-3.12.63l-1.58.92a7.71,7.71,0,0,0-3.12,6,7.63,7.63,0,0,0,3.3,6.46L412,130.59a11.65,11.65,0,0,0-16.72,9.69l-54.76.26a10.46,10.46,0,0,0-10.2-9.87,10.79,10.79,0,0,0-4.77,1.06l-29.3-50.2a7.58,7.58,0,0,0,3.12-6,7.69,7.69,0,0,0-3.19-6.38l-1.58-.85a8.67,8.67,0,0,0-2.76-.58,7.69,7.69,0,0,0-.29,15.37,8.35,8.35,0,0,0,3.16-.62l29.3,50.24a10.37,10.37,0,0,0-2.38,14.48,10.51,10.51,0,0,0,2.71,2.61l-27.84,48.67a9.59,9.59,0,0,0-3.85-.8,10.41,10.41,0,0,0-10.56,9.42l-56.52.26a10.4,10.4,0,0,0-11.3-9.42,10.27,10.27,0,0,0-3.4.91L182,149.27a8.73,8.73,0,0,0,3.42-6.78,8.9,8.9,0,0,0-17.76-1.18v1.84a8.89,8.89,0,0,0,8.66,8.1,9.35,9.35,0,0,0,4.18-1l28.79,49.44a10.4,10.4,0,0,0,.07,17.2l-27.72,48.41a10.6,10.6,0,0,0-4.18-1,10.44,10.44,0,0,0-10.57,9.79l-58.53.27a7.65,7.65,0,0,0-7.48-7.26,7.73,7.73,0,0,0-3.45.76l-1.54,1a7.66,7.66,0,1,0,12.36,7.3L167,276a10.32,10.32,0,0,0,14.74,8.22L211,334.37a8.48,8.48,0,0,0-3.38,6.64,8.6,8.6,0,0,0,17.17.95l-.08-1.94a8.57,8.57,0,0,0-8.33-7.49,9,9,0,0,0-3.85.89l-29.2-50.1a10.43,10.43,0,0,0,.12-17l27.72-48.47a10.23,10.23,0,0,0,3.93.84,10.42,10.42,0,0,0,10.56-9.58l56.52-.25a10.42,10.42,0,0,0,14.52,8.76l28,48.12.84,1.43a8.92,8.92,0,0,0-3.74,7,9,9,0,0,0,3.67,7.35l1.54.91a8.84,8.84,0,0,0,11.76-4.21,9,9,0,0,0,.82-3.05l59-.22a8.93,8.93,0,0,0,8.69,8.25,8.53,8.53,0,0,0,4-.92l29.93,51.35a7.66,7.66,0,1,0,12.21,7.3l0-1.8A7.62,7.62,0,0,0,445.89,332ZM439,74.42a5.87,5.87,0,1,1,5.76,6h0a5.88,5.88,0,0,1-5.76-6ZM291.63,81.24a5.86,5.86,0,1,1,6-5.73h0a5.84,5.84,0,0,1-5.93,5.73h-.05Zm-191,199.47a5.89,5.89,0,1,1,6-5.8,5.89,5.89,0,0,1-6,5.8ZM216.3,334.34a6.83,6.83,0,1,1-6.93,6.72h0a6.85,6.85,0,0,1,6.93-6.71Zm-1.21-117.43a8.62,8.62,0,1,1,8.76-8.48h0a8.62,8.62,0,0,1-8.76,8.47Zm230.69-15.55a5.85,5.85,0,1,1-5.94,5.76,5.85,5.85,0,0,1,5.94-5.76ZM321.52,141a8.62,8.62,0,1,1,8.48,8.76h0a8.64,8.64,0,0,1-8.47-8.77Zm9.06,140.5A8.45,8.45,0,1,1,339,273a8.44,8.44,0,0,1-8.46,8.43Zm8.95-8.11a8.88,8.88,0,0,0-8.66-7.92,9.11,9.11,0,0,0-3.81.8l-28.83-49.47a10.42,10.42,0,0,0,3-14.44,10.21,10.21,0,0,0-3-3L326,150.67a10.4,10.4,0,0,0,13.72-5.33,10,10,0,0,0,.8-2.88l54.84-.23A11.72,11.72,0,0,0,412,151.81l28.79,49.47A7.63,7.63,0,0,0,439.71,212a7.81,7.81,0,0,0,1.19,1.18L410.68,266a9.77,9.77,0,0,0-3.12-.66,8.89,8.89,0,0,0-8.95,7.77Zm106.14,72.22a5.86,5.86,0,1,1,.11,0Z" transform="translate(-87.19 -0.53)"/></g><g id="Group_7" data-name="Group 7"><path class="cls-70" d="M1059.36,256.45h-23.58a8.74,8.74,0,0,0-8.87-8.08,9,9,0,0,0-3.24.67l-24.5-42.43a6.46,6.46,0,1,0-10.25-6.12l-51.65,0a6.84,6.84,0,0,0-7-6.51,6.42,6.42,0,0,0-2.52.52l-25.38-44a6.4,6.4,0,0,0,1.41-9,6.61,6.61,0,0,0-1.48-1.46l-1.32-.74a6.09,6.09,0,0,0-2.56-.5,6.5,6.5,0,0,0-6.29,5.71l-50.83,0a7.49,7.49,0,0,0-10.47-6l-24.26-42a8.71,8.71,0,0,0,.37-14.7L805.51,81A8.76,8.76,0,0,0,794,85.52a9.06,9.06,0,0,0-.71,3l0,1.51a8.82,8.82,0,0,0,8.9,7.76,9.11,9.11,0,0,0,3-.62l24.29,42.11a7.34,7.34,0,0,0-3.16,6.24,7.42,7.42,0,0,0,3.09,5.91l-24,41.59a8.92,8.92,0,0,0-3.5-.65,8.8,8.8,0,0,0-8.6,8H745.86a8.84,8.84,0,0,0-8.85-7.63,8.66,8.66,0,0,0-3.5.84L709.2,151.49a7.48,7.48,0,0,0,.15-12.16l-1.3-.74a7,7,0,0,0-3.3-.75,7.5,7.5,0,0,0-7.29,6.61h-50.8a6.46,6.46,0,0,0-9.1-5.57l-1.29.8a6.42,6.42,0,0,0-1.24,9,6.49,6.49,0,0,0,1.41,1.36L611,194a7.28,7.28,0,0,0-3.3-.75,7.5,7.5,0,0,0-7.34,6.81l0,1.49a7.49,7.49,0,0,0,7.55,6.72,7.05,7.05,0,0,0,2.71-.58l7.78,13.48,16.33,28.56a8.74,8.74,0,0,0-2.28,12.14,8.84,8.84,0,0,0,2.21,2.23l-23.62,40.5a8.62,8.62,0,0,0-3.68-.77,8.84,8.84,0,0,0-8.6,8.08v1.54a8.79,8.79,0,1,0,13.65-8.13L636,264.88a8.49,8.49,0,0,0,3.93.87,8.81,8.81,0,0,0,8.6-7.9h49.82a6.41,6.41,0,0,0,6.51,5.77,5.84,5.84,0,0,0,2.54-.55l1.27-.8a6.36,6.36,0,0,0,1.3-8.9,6.59,6.59,0,0,0-1.35-1.34l24.61-42.58a9,9,0,0,0,4.08.94,8.82,8.82,0,0,0,8.6-8.45l47.4,0a8.78,8.78,0,0,0,8.9,8,8.46,8.46,0,0,0,3.21-.67l24.24,42.05a6.84,6.84,0,0,0-2.71,5.52,6.92,6.92,0,0,0,3.11,5.59l-23.82,41.24a9.51,9.51,0,0,0-4.65-1.09,9.9,9.9,0,0,0-9.69,9.7l.08,1.51a9.89,9.89,0,1,0,15.56-9.35l23.88-41.31a7.23,7.23,0,0,0,2.51.45,6.91,6.91,0,0,0,6.64-5.7l49.27,0a8.8,8.8,0,0,0,8.93,8.35,9,9,0,0,0,3.45-.8l23.15,40.1a8.58,8.58,0,0,0-3.36,7,8.78,8.78,0,0,0,17.45,1.27l49.79.05a6.52,6.52,0,0,0,6.49,5.32,7.39,7.39,0,0,0,2-.38l1.39-.67a6.54,6.54,0,0,0,3-5.54,6.47,6.47,0,0,0-2.68-5.1l24.41-42.24a8.44,8.44,0,0,0,3.4.62,8.78,8.78,0,0,0,8.55-8l23.47,0C1059.28,257.46,1059.32,257,1059.36,256.45ZM802.18,96.31h0a7.26,7.26,0,1,1,7.11-7.41A7.27,7.27,0,0,1,802.18,96.31ZM614.84,312.5h0a7.27,7.27,0,1,1-7.4-7.14A7.26,7.26,0,0,1,614.84,312.51Zm84-167a6,6,0,0,1,5.87-6.1h0a6,6,0,1,1-5.87,6.12ZM608,206.76h0a5.89,5.89,0,1,1,5.9-5.87A5.89,5.89,0,0,1,608,206.76Zm31.94,57.47h0a7.26,7.26,0,1,1,7.13-7.38A7.26,7.26,0,0,1,639.93,264.23Zm67.27-13.05a6.1,6.1,0,0,0-2.56-.47,6.47,6.47,0,0,0-6.27,5.64l-49.82,0a8.79,8.79,0,0,0-8.9-8.13,8.43,8.43,0,0,0-3.38.74l-24.13-42a7.49,7.49,0,0,0,1.91-10.41,7.8,7.8,0,0,0-1.69-1.75l25.43-44a6.51,6.51,0,0,0,8.75-4.7l50.91,0a7.48,7.48,0,0,0,10.44,6.11l24.29,42.12a8.78,8.78,0,0,0-2.26,12.21,9.11,9.11,0,0,0,1.91,2Zm30.1-42.31h0a7.26,7.26,0,1,1,7.11-7.41A7.26,7.26,0,0,1,737.3,208.87Zm72.84,103.39v.07a8.45,8.45,0,1,1,0-.07ZM930.25,195.45h.11a5.35,5.35,0,1,1-.11,0ZM827.92,145.56v0a6.15,6.15,0,1,1,6.13,6.16A6.14,6.14,0,0,1,827.92,145.53Zm-25.7,62.91h0a7.27,7.27,0,1,1,7.13-7.4A7.27,7.27,0,0,1,802.22,208.47Zm38.45,47.9a6.89,6.89,0,0,0-9.62-5.91l-24.19-41.91a8.77,8.77,0,0,0-.07-14.77l24-41.54a7.86,7.86,0,0,0,3.23.7,7.5,7.5,0,0,0,7.31-6.91H892.2a6.43,6.43,0,0,0,6.49,5.72,6.25,6.25,0,0,0,2.41-.52l25.38,44a6.74,6.74,0,0,0-2.89,5.69,6.87,6.87,0,0,0,3.11,5.62l-24.76,42.8a9,9,0,0,0-3.48-.65,8.85,8.85,0,0,0-8.55,7.68Zm58.18,8.36h-.1a7,7,0,1,1,.1,0Zm99.15,42a5.84,5.84,0,0,0-2.48-.45,6.44,6.44,0,0,0-6.31,6.07l-49.62,0v-.05a8.79,8.79,0,0,0-8.93-8.6,8.45,8.45,0,0,0-4,1.05l-23.07-40a8.79,8.79,0,0,0,2.29-12.21,8.44,8.44,0,0,0-2.42-2.38l24.78-42.88a7.2,7.2,0,0,0,2.34.37,6.81,6.81,0,0,0,6.61-5.64l51.73,0a6.47,6.47,0,0,0,6.52,5.89,7.47,7.47,0,0,0,2.46-.52l24.46,42.37a8.76,8.76,0,0,0,0,14.79Z" transform="translate(-87.19 -0.53)"/><path id="Path_102" data-name="Path 102" class="cls-71" d="M543.08,319a6.53,6.53,0,0,0,6.29-5.72l0-1.54a6.46,6.46,0,0,0-9-5.14L515,262.17a7.5,7.5,0,0,0,1.91-10.42,7.92,7.92,0,0,0-1.68-1.74l25.18-43.2a6.87,6.87,0,0,0,2.76.55,6.44,6.44,0,0,0,6.31-6l-.07-1.49A6.45,6.45,0,1,0,539.11,206L513.9,249.24a7.19,7.19,0,0,0-3.31-.77,7.51,7.51,0,0,0-7.33,7l-49.68-.17a7.49,7.49,0,0,0-7.58-6.84,7.94,7.94,0,0,0-3,.7l-1.29.77a7.49,7.49,0,0,0,.05,12.11l-.7,1.17-23.6,40.57a8.41,8.41,0,0,0-3.63-.75,8.81,8.81,0,0,0-8.62,8.08l-47.56-.2a8.77,8.77,0,0,0-9.43-8.06,9.07,9.07,0,0,0-2.8.7L322.05,262.7a8.77,8.77,0,0,0,2-12.24,8.91,8.91,0,0,0-2.12-2.08l24.59-42.19a7.12,7.12,0,0,0,10.26-5.57l.05-1.61a7.25,7.25,0,1,0-11.6,6.39l-24.63,42.21a8.76,8.76,0,0,0-12.41,7l-49.42-.2a6.4,6.4,0,0,0-6.43-5.3,6.47,6.47,0,0,0-6.37,6.58h0a6.35,6.35,0,0,0,2.39,4.84l1.29.85a6.35,6.35,0,0,0,2.91.64,6.43,6.43,0,0,0,6.31-6.11l49.3.22a8.76,8.76,0,0,0,9.22,8.25,8.94,8.94,0,0,0,3.21-.81l23.31,40.77a8.84,8.84,0,0,0-3.83,7.4,8.68,8.68,0,0,0,3.8,7.09l-24.26,41.66a7.35,7.35,0,0,0-3.5-.84,7.48,7.48,0,0,0-7.31,6.83V368a7.5,7.5,0,1,0,12.08-6.69l24.32-41.71a9.17,9.17,0,0,0,3.83.8,8.82,8.82,0,0,0,8.57-8l47.58.17a8.77,8.77,0,0,0,12.13,7.28l23.44,41A8.8,8.8,0,0,0,438.36,373a8.9,8.9,0,0,0,2.12,2.21l-24.65,42.34a5.94,5.94,0,0,0-2.66-.55,6.47,6.47,0,1,0,2.58,12.46l1.32-.75a6.44,6.44,0,0,0,1.48-9,6.09,6.09,0,0,0-1.4-1.42l24.66-42.29a9.35,9.35,0,0,0,4,.9,8.8,8.8,0,0,0,8.6-8.3l46.11.2a9.86,9.86,0,0,0,14.1,8.18l24,41.88a6.43,6.43,0,0,0-1.69,8.94,6.3,6.3,0,0,0,1.52,1.57l1.32.77a6.27,6.27,0,0,0,2.63.52,6.46,6.46,0,1,0-2.44-12.47l-24-42a9.87,9.87,0,0,0,2.63-13.71,10.12,10.12,0,0,0-2.63-2.63l24.24-41.61A6.4,6.4,0,0,0,543.08,319ZM343.91,199.77a5.84,5.84,0,1,1,5.82,5.85,5.84,5.84,0,0,1-5.82-5.85Zm-26.84,63a6.71,6.71,0,1,1,6.72-6.69,6.69,6.69,0,0,1-6.72,6.69ZM322.27,367a6,6,0,1,1-6.12-5.89,6.06,6.06,0,0,1,6.11,5.89ZM349,318.84a7.27,7.27,0,1,1,7.14-7.41h0v0a7.28,7.28,0,0,1-7.14,7.39ZM542.16,419.31a4.95,4.95,0,1,1-4.87,5h0A5,5,0,0,1,542.16,419.31ZM510.62,250a6,6,0,0,1,.4,12h-.2a6,6,0,0,1-.2-12Zm-70.5,6a6,6,0,1,1,12-.19,6,6,0,0,1-12,.19Zm-26,63a7.26,7.26,0,1,1,7.13-7.39,7.28,7.28,0,0,1-7.13,7.39Zm31.7,56.35a6.55,6.55,0,1,1,6.56-6.53,6.55,6.55,0,0,1-6.56,6.53h0Zm73-7.48a8.37,8.37,0,1,1-8.53-8.2h0a8.35,8.35,0,0,1,8.52,8.17v0Zm20.13-50.44-24.26,41.69a10.32,10.32,0,0,0-4.43-1,10,10,0,0,0-9.67,9.05l-46.16-.17a8.77,8.77,0,0,0-8.88-7.66,8.48,8.48,0,0,0-3.33.72l-23.47-40.94a8.79,8.79,0,0,0,.1-14.74l24.27-41.67a7.65,7.65,0,0,0,3.23.68,7.48,7.48,0,0,0,7.28-6.67l49.74.2a7.49,7.49,0,0,0,7.56,6.52,7,7,0,0,0,2.64-.55l25.42,44.52a6.41,6.41,0,0,0-1.06,9,6.5,6.5,0,0,0,1,1Z" transform="translate(-87.19 -0.53)"/></g></g></g></g></g><g id="Group_294" data-name="Group 294"><path id="Path_731" data-name="Path 731" class="cls-72" d="M375.55,261.35H369.1a1.73,1.73,0,0,0-1.73,1.73v4.71a1.73,1.73,0,0,0,1.73,1.73h6.45a1.73,1.73,0,0,0,1.73-1.73v-4.71h0A1.73,1.73,0,0,0,375.55,261.35Zm-6.45,6.46a0,0,0,0,1,0,0v-4.71a0,0,0,0,1,0,0h6.45l0,0v4.71l0,0Z" transform="translate(-87.19 -0.53)"/><path id="Path_732" data-name="Path 732" class="cls-72" d="M388.78,261.35h-6.45a1.73,1.73,0,0,0-1.73,1.73v4.71a1.73,1.73,0,0,0,1.73,1.73h6.45a1.73,1.73,0,0,0,1.73-1.73v-4.71h0A1.73,1.73,0,0,0,388.78,261.35Zm-6.45,6.46,0,0h0v-4.71l0,0h6.45a0,0,0,0,1,0,0v4.71a0,0,0,0,1,0,0h-6.45Z" transform="translate(-87.19 -0.53)"/><path id="Path_733" data-name="Path 733" class="cls-72" d="M372.3,260.83h0a.85.85,0,0,0,.86-.85l0-3.73h0l0,0h11.48V260a.85.85,0,0,0,.85.85.86.86,0,0,0,.86-.85v-3.75h11.5s0,0,0,0V260a.86.86,0,0,0,1.72,0v-3.73h0a1.74,1.74,0,0,0-1.73-1.73H386.38v-1.36h6.39a4.61,4.61,0,0,0,1.72-8.89,4.32,4.32,0,0,0-4-4.61h-.14a5.07,5.07,0,0,0-10-.81,4.62,4.62,0,0,0-.11.63,7.23,7.23,0,0,0-6.7,9.15,7.13,7.13,0,0,0,2.52,3.77,3.67,3.67,0,0,0,2.23.77h6.37v1.36H373.2a1.73,1.73,0,0,0-1.73,1.71h0l0,3.74a.85.85,0,0,0,.85.86Zm3.08-16.13a5.58,5.58,0,0,1,5-3.52c.06.23.12.46.2.68a.87.87,0,0,0,.8.55.73.73,0,0,0,.3-.06.84.84,0,0,0,.5-1.1,3.36,3.36,0,0,1,6.29-2.38,3.23,3.23,0,0,1,.21,1.07,4.62,4.62,0,0,0-.67.33.85.85,0,0,0,.88,1.46,2.6,2.6,0,0,1,3.85,2.92v.06h0s0,0,0,.05V245a.06.06,0,0,0,0,0v0a.06.06,0,0,0,0,0v0l0,0v0l0,0,0,0,0,0,0,0,0,0,0,0,0,0,0,0,0,0,0,0,0,0,0,0,0,0h0l0,0h0l0,0h0l.05,0h0a2.9,2.9,0,0,1-.58,5.73H378.31a1.91,1.91,0,0,1-1.19-.41,5.55,5.55,0,0,1-1.74-6.34Z" transform="translate(-87.19 -0.53)"/><path id="Path_734" data-name="Path 734" class="cls-72" d="M403.71,263.08a1.72,1.72,0,0,0-1.73-1.73h-6.45a1.73,1.73,0,0,0-1.73,1.73v4.71a1.73,1.73,0,0,0,1.73,1.73H402a1.73,1.73,0,0,0,1.73-1.73v-4.71Zm-8.18,4.73,0,0v-4.71l0,0H402l0,0v4.71l0,0Z" transform="translate(-87.19 -0.53)"/></g><g id="Group_295" data-name="Group 295"><path id="Path_735" data-name="Path 735" class="cls-72" d="M495,307.42a1.21,1.21,0,0,0-1.21-1.22h-9.45l-.06,0h0l0,0h0l0,0h0l-.05,0L480,310.52h0l0,.05,0,.05h0a.75.75,0,0,0-.07.12h0a.19.19,0,0,1,0,.07h0s0,0,0,.06h0a.13.13,0,0,0,0,.06h0V311h0v1.22h-8.14v-.86h0a1.31,1.31,0,0,0-1.08-1.29h0l-.94-.12-.05-.13.57-.75h0v0h0l0,0a1.3,1.3,0,0,0-.18-1.63l-1.11-1.11h0a1.3,1.3,0,0,0-1.63-.18l0,0h-.05l-.75.57-.13-.05-.12-.94h0v0a1.29,1.29,0,0,0-1.29-1.07h-.86V300h20.65v4.7a.72.72,0,0,0,.72.72h0a.73.73,0,0,0,.73-.72l0-8.77h0a1.84,1.84,0,0,0-1.83-1.83h-19.9a1.84,1.84,0,0,0-1.83,1.83v15.94a1.83,1.83,0,0,0,1.83,1.83H469a.73.73,0,0,0,.73-.72.73.73,0,0,0-.73-.73h-1.52a3.3,3.3,0,0,0-3.22-3.37h-.15v-2.8h.74l.16,1.23v.12l0,0v0l0,.05h0l0,.05h0l.09.1,0,0,0,0,0,0,0,0,0,0,0,0h0l0,0h0l.05,0h0a4.22,4.22,0,0,1,.76.32h0l.06,0h0l.08,0h0l.15,0h.27l0,0h0l0,0h0l0,0h0l1-.74.93.94-.75,1v0l0,0,0,0,0,0v0l0,0V310l0,0s0,0,0,.05h0a4.22,4.22,0,0,1,.32.76v.05s0,0,0,.05h0l0,.06h0l0,0h0l0,0h0l0,0h0l.05,0h0l.05,0h0l0,0h.09l.06,0H469l1.23.16v7.3a1.4,1.4,0,0,0-.47,1.94,1.42,1.42,0,0,0,1.94.47,1.51,1.51,0,0,0,.47-.47h7.66v4.54h0a1.21,1.21,0,0,0,1.22,1.21h12.76a1.22,1.22,0,0,0,1.22-1.21V307.42Zm-31-8.86v-2.62a.38.38,0,0,1,.38-.38h19.9a.38.38,0,0,1,.38.38v2.62Zm1.38,12.32a1.87,1.87,0,0,1,.54,1.38h-1.54a.38.38,0,0,1-.38-.38v-1.54a1.88,1.88,0,0,1,1.38.54Zm15.84,14.19,0-13.31h2.9a1.21,1.21,0,0,0,1.22-1.22v-2.9h8.21v17.43Zm2.65-14.76h-1.64l1.64-1.64Zm-11.75,9a1.36,1.36,0,0,0-.51-.5v-5.1h8.15v5.6Z" transform="translate(-87.19 -0.53)"/><path id="Path_736" data-name="Path 736" class="cls-72" d="M470.33,296.26h-1.65a0,0,0,0,0-.05.05v1.45a.05.05,0,0,0,.05.05h1.64a.05.05,0,0,0,.05-.05v-1.45A0,0,0,0,0,470.33,296.26Z" transform="translate(-87.19 -0.53)"/><path id="Path_737" data-name="Path 737" class="cls-72" d="M466.89,296.26h-1.64a0,0,0,0,0-.05.05v1.45a.05.05,0,0,0,.05.05h1.64a.05.05,0,0,0,.05-.05v-1.45a0,0,0,0,0-.05-.05Z" transform="translate(-87.19 -0.53)"/></g><path id="Path_738" data-name="Path 738" class="cls-72" d="M589.65,255.07h-.12l-1.72-4.52a1.64,1.64,0,0,0,.52-2.26,1.66,1.66,0,0,0-2.26-.52l-.18.14-5.37-4.32a1.22,1.22,0,0,0-2.24-1s0,.08,0,.13l-9.09-.38a1.45,1.45,0,0,0-1.69-1.18,1.44,1.44,0,0,0-1.14,1.87l-6.4,3.66a1.22,1.22,0,0,0-1.77,1.68l-1.51,2.37a1.59,1.59,0,0,0-1.12,3,2.07,2.07,0,0,0,.43.1l.62,5a1.22,1.22,0,0,0,.93,2.26,1.28,1.28,0,0,0,.52-.4l4.07,1.59a.86.86,0,0,0,0,.23,1.5,1.5,0,0,0,1.49,1.51,1.52,1.52,0,0,0,1-.37l2,1.49a1.22,1.22,0,1,0,2.27.9,1.15,1.15,0,0,0,.08-.41l3.89-.93a1.67,1.67,0,0,0,1.53,1l.27,0,2.52,6.8a1.22,1.22,0,1,0,1.81.44l.85-.76a1.22,1.22,0,1,0,1.32-2.05,1.06,1.06,0,0,0-.51-.19l-.27-1.77a1.36,1.36,0,0,0,.85-1.27h0l3.37-.87a1.21,1.21,0,0,0,2.18-.14h.12l-.1-.06a1.16,1.16,0,0,0,.08-.42,1.21,1.21,0,0,0-.62-1.05l.49-1.92h0a1.38,1.38,0,0,0,1-2.34l1.63-2.6a1.22,1.22,0,1,0,.71-2.34,1,1,0,0,0-.35-.05Zm-3,4.57a1.38,1.38,0,0,0-1.35,1.13l-3.92.22,7.33-3.85-1.62,2.57A1.62,1.62,0,0,0,586.67,259.64Zm-19,4.73a1.24,1.24,0,0,0-.74.25l-2-1.49a.3.3,0,0,0,0-.1l7.58,1.05-3.83.92A1.21,1.21,0,0,0,567.65,264.37Zm-5.53-12.66a2,2,0,0,0,1.47,1.31l-.08,2.3-5.89-2.71a2.34,2.34,0,0,0,0-.26Zm26.3,4.63,0,.21-7.37,3.87-.14-.15,2.89-5Zm-23.36,6.05a1.55,1.55,0,0,0-.2-.63l2.36-2.16a2,2,0,0,0,2.45.08L572.9,263a1.65,1.65,0,0,0-.21.42Zm3.56-18.61,3.76,3a1.88,1.88,0,0,0-.21,1.23l-3.79,1.29-.27-5.23a1.56,1.56,0,0,0,.51-.27Zm10.09.35a1,1,0,0,0,.23.12l-.4,3.63-2.53-.3a1.89,1.89,0,0,0-.27-.89Zm6.6,5.18a2.34,2.34,0,0,0,.05.3l-5,2.56a2.52,2.52,0,0,0-1.49-1l.28-2.53Zm-11,13a1.65,1.65,0,0,0-.92.27l-3.23-3.35a2.5,2.5,0,0,0,.21-.35l5,1.48-.74,2-.29,0Zm-.22-12.69a1.81,1.81,0,0,0,.83-.19l1.6,2.29a2.62,2.62,0,0,0-.71,1.11l-3.78-.66,1.44-2.65a1.87,1.87,0,0,0,.62.1Zm1.62,3.85v.11a2.35,2.35,0,0,0,.11.75l-5.59,2.53a2,2,0,0,0-.46-.5l1.94-3.58Zm-6.52,2.59a1.82,1.82,0,0,0-.46-.11l-.19-3.72,2.49.43Zm1.36,2.2a2.11,2.11,0,0,0,0-.26,2,2,0,0,0-.08-.55l5.59-2.53a2.59,2.59,0,0,0,1,.9l-1.48,3.93Zm7.1-2.21a2.3,2.3,0,0,0,.58.07h.22l.85,3.91a1.53,1.53,0,0,0-.69.64l-2.43-.72Zm2.28,3.83-.85-3.91a2.52,2.52,0,0,0,1.52-1.49l2.57.61L580.38,260a1.41,1.41,0,0,0-.45-.07Zm-1.74-8.82a2.38,2.38,0,0,0-1.13.29l-1.6-2.29a1.89,1.89,0,0,0,.49-.83l2.53.3Zm-5.8-2.45a2,2,0,0,0,.51.6l-1.54,2.85-2.85-.5-.08-1.61Zm-4.54,2.84-1.89-.33h0a1.55,1.55,0,0,0,0-.31l1.86-.63Zm-3.6,1.6a2,2,0,0,0,1.6-1.29l2,.35.2,3.87a2,2,0,0,0-1.27.87l-2.65-1.23Zm2.29,4.39a2,2,0,0,0,.26,1.69l-2.36,2.15a1.45,1.45,0,0,0-.49-.22l.18-4.73Zm8.65,5.12.76-2,2.48.73s0,.08,0,.11a1.24,1.24,0,0,0,0,.33L575.66,263a1.72,1.72,0,0,0-.48-.45Zm8.33-8.06-2.76-.65a2.47,2.47,0,0,0-.14-1.11l5-2.55a2,2,0,0,0,.2.21Zm1.87-5.83-6.2-.72.4-3.62a1.21,1.21,0,0,0,.52-.22l5.38,4.32a1.73,1.73,0,0,0-.1.24Zm-7.09-5-3,2.56a1.93,1.93,0,0,0-2.53.05l-3.76-3,.09-.24,9.09.37a1.13,1.13,0,0,0,.08.24Zm-10.83.44.28,5.41-2,.69a2,2,0,0,0-.66-.71l2.37-5.39Zm-10.11,9.12,6.13,2.83-.19,5a2.07,2.07,0,0,0-.33.1l-5.71-7.81.1-.12ZM576,263.88a2.93,2.93,0,0,0-.05-.29l2.79-1.28a1.52,1.52,0,0,0,2.12.29l.1-.09,3.38,2.38Zm12.94-8.57a1.19,1.19,0,0,0-.34.4l-4.41-1.05,2.25-3.93a1.82,1.82,0,0,0,.52.08l.26,0Zm-22.08-11.5-2.37,5.39a2,2,0,0,0-1.87.52L560.2,248a1.23,1.23,0,0,0,.07-.42,1,1,0,0,0,0-.3l6.4-3.65a1.81,1.81,0,0,0,.21.18Zm-8.15,4.94a1.24,1.24,0,0,0,1.13-.22l2.41,1.72a1.9,1.9,0,0,0-.2.81l-4.47.65a1.54,1.54,0,0,0-.38-.59Zm-.44,11.33V260a1.22,1.22,0,0,0-1-1.21l-.62-5,.14-.06,5.71,7.82a1,1,0,0,0-.13.16Zm16.92,5.35a1.61,1.61,0,0,0,.44-.38l2.83,1.48a1.24,1.24,0,0,0,0,.33,1.36,1.36,0,0,0,1.24,1.36l.27,1.78a1.21,1.21,0,0,0-.63,1.6l0,.06-.85.76a1.21,1.21,0,0,0-.66-.19h-.1Zm4.6.06a1.35,1.35,0,0,0-1,.47L576,264.53l7.79,1-2.84.73a1.35,1.35,0,0,0-1.2-.72Zm5.76-1.34a1.24,1.24,0,0,0-.75.28L581.32,262a1.4,1.4,0,0,0,.1-.35l3.93-.21a1.37,1.37,0,0,0,.68.81Z" transform="translate(-87.19 -0.53)"/><g id="Group_296" data-name="Group 296"><path id="Path_739" data-name="Path 739" class="cls-72" d="M285,323.63l0,0,0,0a7.76,7.76,0,0,0,1.75-5.51h0l-.58-7.61v0a2.49,2.49,0,0,0-2.48-2.27h0a2.65,2.65,0,0,0-1.31.38,2.57,2.57,0,0,0-3.24-.44,2.4,2.4,0,0,0-.4-.38,2.54,2.54,0,0,0-2.26-.39v-4.48a2.51,2.51,0,0,0-5,0v8.92c-.22,0-.45,0-.67,0h0a3,3,0,0,0-2.9,3c0,.11,0,.22,0,.33h0a14,14,0,0,0,4.8,8.55.47.47,0,0,1,.14.28v.53a1.49,1.49,0,0,0-.56,1.16v1.89a1.48,1.48,0,0,0,1.48,1.48h10.1a1.48,1.48,0,0,0,1.48-1.48V325.6h0a1.46,1.46,0,0,0-.56-1.16v-.52A.86.86,0,0,1,285,323.63Zm-10.87,3.5V326h9.39v1.17Zm-4.4-12.29h0A1,1,0,0,1,270,314a1.15,1.15,0,0,1,.82-.4,4.92,4.92,0,0,1,.67,0v.82a.92.92,0,0,0-.46,1.21.93.93,0,0,0,.84.55,1,1,0,0,0,.38-.08,1.88,1.88,0,0,0,1-1.15h0a1.4,1.4,0,0,0,.06-.5V302.84h0a.71.71,0,0,1,.36-.58.67.67,0,0,1,.67,0,.65.65,0,0,1,.31.58h0v6.93a.07.07,0,0,0,0,.05v0s0,0,0,.05,0,0,0,0,0,0,0,0l0,0,0,0,0,0,0,0,0,0,0,0,0,0,0,0,0,0,0,0,0,0,0,0,0,0,0,0,0,0,.05,0,0,0h0l0,0h.54l.06,0h0l0,0h0l.05,0,0,0,.05,0,0,0,0,0,0,0a.08.08,0,0,1,0,0l0,0,0,0,0,0,0-.05v0l0,0v0s0,0,0,0v-.05s0,0,0,0a.07.07,0,0,0,0-.05v-.09h0a.72.72,0,0,1,.43-.6.71.71,0,0,1,.95.34.68.68,0,0,1,.06.4v.29s0,0,0,0,0,0,0,0,0,0,0,0l0,0,0,0,0,0,0,0a.08.08,0,0,0,0,0l0,0,0,0,0,0,0,0,0,0,0,0,0,0,0,0,0,0,0,0,0,0,0,0,0,0,0,0h.5l.05,0h.08l0,0,0,0,0,0,0,0,0,0,0,0,0,0,0,0,0,0,0,0,0,0,0,0,0,0,0-.06v0l0-.07v0s0,0,0-.05v-.09h0a.78.78,0,0,1,.88-.62.77.77,0,0,1,.62.82s0,.06,0,.1h0v.32s0,0,0,0l0,0s0,0,0,.05l0,0a.05.05,0,0,0,0,0l0,0,0,0,0,0,0,0,0,0,0,0,0,0,0,0,0,0,0,0,0,0,0,0,0,0,.05,0h.52l.05,0h.08l0,0,0,0h0l0,0,0,0,0,0,0,0,0,0,0,0,0,0,0,0,0,0,0,0,0,0,0,0,0,0,0,0,0,0v0l0,0v-.13h0s0-.08,0-.12a.66.66,0,0,1,.75-.55.67.67,0,0,1,.56.6l.58,7.58a6,6,0,0,1-1.3,4.18,2.26,2.26,0,0,0-.7,1.54v.21h-8.27v-.21a2.3,2.3,0,0,0-.66-1.56h0l0,0,0,0a12.18,12.18,0,0,1-4.22-7.44Z" transform="translate(-87.19 -0.53)"/><path id="Path_740" data-name="Path 740" class="cls-72" d="M291.94,291.82a3.69,3.69,0,0,0-3.7,3.68L280,298.63a6.49,6.49,0,0,0-10.51-2,6.89,6.89,0,0,0-.62.7l-3.23-2.17a3.71,3.71,0,1,0-1.07,1.49L268,299a6.53,6.53,0,0,0,1.41,6.81.93.93,0,0,0,1.3,0,.91.91,0,0,0,0-1.3h0a4.65,4.65,0,1,1,6.68,0,.92.92,0,0,0,1.32,1.28h0a6.41,6.41,0,0,0,1.83-4.59,6.61,6.61,0,0,0,0-.76l8.21-3.11a3.7,3.7,0,1,0,3.24-5.47Zm-29.75,3.85a1.86,1.86,0,1,1,1.86-1.86h0a1.86,1.86,0,0,1-1.86,1.86Zm29.75,1.71a1.86,1.86,0,1,1,1.86-1.86,1.86,1.86,0,0,1-1.86,1.86Z" transform="translate(-87.19 -0.53)"/></g><g id="Group_297" data-name="Group 297"><path id="Path_741" data-name="Path 741" class="cls-72" d="M673.26,202.69l3.11-2.95.07-.06,4.36-4.13h0l0,0v0l0,0,0,0,0,0v0l0,0v-.48l0,0v-.06h0l0,0v0l0,0,0,0h0l0,0h0l0,0h0l0,0h0l0,0h-.54l0,0h0a2.78,2.78,0,0,1-2.64.08,12.4,12.4,0,0,1-5.1-6.39h0s0,0,0,0v0l0,0v0l0,0,0,0h0l0,0h0l0,0,0,0,0,0,0,0h0l0,0h-.45l0,0h-.08l0,0h0l0,0,0,0h0l0,0h0l-3.14,3,0,0-7.89,7.52h0l0,0h0l0,0h0a.72.72,0,0,0-.09.2v0a.81.81,0,0,0,0,.22h0v0a.08.08,0,0,0,0,0h0s0,0,0,.05h0l0,.05v0l0,0,0,0v0l0,0h0l.05,0h0l0,0,0,0h0l0,0h.44l.07,0a2.6,2.6,0,0,1,2.54.31,17.73,17.73,0,0,1,3.1,4,.6.6,0,0,0,.09.15,16.75,16.75,0,0,1,1.2,2.62h0v0l0,0v0l0,0h0l0,0h0s0,0,0,0h0l0,0h0l0,0h0l0,0,0,0h0l.06,0h.41l0,0h0l0,0,0,0h0l0,0h0l0,0h0l4.31-4.08Zm-4.6,2.6c-.23-.53-.48-1.06-.75-1.56l2.46-2.35c.44.35.9.68,1.37,1Zm-3-4.85,1.85-1.75a21.88,21.88,0,0,0,1.86,1.87l-2.14,2a18.38,18.38,0,0,0-1.57-2.14Zm-1.4-1.49h0a3.47,3.47,0,0,0-1.81-.78l2.77-2.65a22.41,22.41,0,0,0,1.5,2.2l-1.89,1.8c-.18-.18-.36-.37-.55-.54Zm4.09-6.45a16.77,16.77,0,0,0,1.43,2.28l-2.15,2a19.55,19.55,0,0,1-1.49-2.22Zm3.1-2.95a13.57,13.57,0,0,0,1.32,2.39l-2,1.95a15.59,15.59,0,0,1-1.41-2.3Zm-.3,6.84a15.23,15.23,0,0,0,1.3,1.24l-2.15,2.05a22,22,0,0,1-1.87-1.87l2.15-2c.18.21.37.42.56.62Zm.14,4.1,2.17-2.06c.46.34.94.65,1.43.95l-2.22,2.1c-.47-.31-.94-.64-1.38-1Zm5.43-4.79h0l0,0h0a4.08,4.08,0,0,0,1.49.44l-2.42,2.29a14.84,14.84,0,0,1-1.45-.93l2.09-2a1.88,1.88,0,0,0,.23.16Zm-1.28-.92-2.06,2a16.33,16.33,0,0,1-1.87-1.85l2.05-1.94a13,13,0,0,0,1.88,1.83Z" transform="translate(-87.19 -0.53)"/><path id="Path_742" data-name="Path 742" class="cls-72" d="M685.41,208.44h0V189.2l0,0v0l0,0,0,0,0,0,0,0,0,0,0,0,0,0,0,0,0,0,0,0,0,0h0l0,0h0l-11.93-5.6h0l-.06,0h-.08l-.06,0h-.29l-15.07,4.13h0l0,0h-.06l0,0h0l0,0,0,0,0,0h0l0,0,0,0,0,0,0,0,0,0,0,0,0,0,0,0v19.13a.71.71,0,0,0,.4.82l12.78,6h0l.06,0h0l.07,0h.37l14.23-4.5h0l.05,0h.08l0,0h0l0,0h0l0,0h0l0,0v0l0,0h0l0,0v0l0,0v-.08a.13.13,0,0,0,0-.06v0s0,0,0-.05v0h0v0h0Zm-14.9,3.73-10.75-5,5.9-1.62a.72.72,0,1,0-.38-1.39h0L658.42,206V188.54L672,184.81v1.8a.7.7,0,0,0,.72.71.71.71,0,0,0,.72-.71V185L684,189.92V207.3l-9.24-4.45a.72.72,0,0,0-.62,1.3l8.63,4.16Z" transform="translate(-87.19 -0.53)"/></g><g id="Group_298" data-name="Group 298"><path id="Path_743" data-name="Path 743" class="cls-72" d="M778.55,132.91A10.19,10.19,0,0,0,764,147.2l-.87,1.24a2.85,2.85,0,0,0-1.56,1.1h0l-3.87,5.51h0a2.88,2.88,0,0,0,.74,4,2.92,2.92,0,0,0,2.11.47,2.89,2.89,0,0,0,1.85-1.16h0l3.87-5.51h0a2.92,2.92,0,0,0,.49-1.86l1-1.34a10.19,10.19,0,0,0,10.82-16.74Zm-13.07,17.5h0a.05.05,0,0,0,0,0l0,0,0,0s0,.08,0,.12v.05a.71.71,0,0,0,0,.14v.11h0a1.49,1.49,0,0,1-.23,1.11l-3.87,5.5a1.45,1.45,0,0,1-2,.35h0a1.47,1.47,0,0,1-.38-2l3.87-5.5a1.46,1.46,0,0,1,1-.6h0l.06,0h0l.06,0h0l0,0h0l.05,0h0l0,0h0l0,0h0l.05-.05h0l0-.05h0l.92-1.32a10.44,10.44,0,0,0,1.37.9Zm5.87-1.5a8.79,8.79,0,1,1,8.79-8.79,8.8,8.8,0,0,1-8.79,8.79Z" transform="translate(-87.19 -0.53)"/><path id="Path_744" data-name="Path 744" class="cls-72" d="M777.3,142.59h-.09v-6.82a.7.7,0,0,0-1.4,0v6.82h-2V138a.7.7,0,0,0-1.4,0v4.59h-2v-8.72a.7.7,0,1,0-1.4,0v8.72h-2v-2a.7.7,0,1,0-1.4,0v2h-.26a.7.7,0,0,0,0,1.4h11.93a.7.7,0,1,0,0-1.4h0Z" transform="translate(-87.19 -0.53)"/></g><g id="Group_299" data-name="Group 299"><path id="Path_745" data-name="Path 745" class="cls-72" d="M869.29,195.91a12.42,12.42,0,0,0-5.57,4,12.79,12.79,0,0,0-2.12,3.82,5.27,5.27,0,0,0-3.68-2.64.59.59,0,0,0-.69.48.6.6,0,0,0,.48.69,4,4,0,0,1,3.33,3.84h0v.25l0,0v0l0,0,0,0,0,0v0l0,0,0,0,0,0h0l0,0h0l0,0h.52l0,0h0l0,0h0l0,0h0l0,0h0l0,0,0,0,0,0h0v-.06l0,0v-.14h0a11.66,11.66,0,0,1,7.45-9.13.59.59,0,0,0,.37-.75.6.6,0,0,0-.76-.37Z" transform="translate(-87.19 -0.53)"/><path id="Path_746" data-name="Path 746" class="cls-72" d="M878.88,197.61a2.34,2.34,0,0,0-2.26,1.75H870.7a.6.6,0,1,0,0,1.19h5.93a2.34,2.34,0,1,0,2.25-2.94Zm0,3.48a1.15,1.15,0,1,1,1.15-1.15h0A1.16,1.16,0,0,1,878.88,201.09Z" transform="translate(-87.19 -0.53)"/><path id="Path_747" data-name="Path 747" class="cls-72" d="M878.88,204.9a2.34,2.34,0,0,0-2.26,1.75H870.7a.6.6,0,0,0-.6.6.59.59,0,0,0,.6.59h.64V211l0,0H855.58l0,0h0V194h3.86a1.22,1.22,0,0,0,1.22-1.22V188.9l10.68,0s0,0,0,0V192h-.64a.6.6,0,0,0,0,1.19h5.93a2.33,2.33,0,1,0,0-1.19h-4.09V188.9h0a1.22,1.22,0,0,0-1.21-1.22h0l-11.27,0h-.24l0,0h0l0,0h0l0,0h0s0,0,0,0l-5.08,5.05h0l0,0,0,0,0,0v0l0,0v.28h0V211a1.21,1.21,0,0,0,1.21,1.21h15.74a1.22,1.22,0,0,0,1.2-1.21v-3.12h4.1a2.34,2.34,0,1,0,2.25-2.94Zm0-13.43a1.15,1.15,0,1,1-1.14,1.15h0A1.15,1.15,0,0,1,878.88,191.47Zm-19.43,1.27s0,0,0,0h-3l3.05-3Zm19.43,15.64a1.15,1.15,0,1,1,1.15-1.15h0A1.15,1.15,0,0,1,878.88,208.38Z" transform="translate(-87.19 -0.53)"/></g><path id="Path_748" data-name="Path 748" class="cls-72" d="M974.05,250.32a4.88,4.88,0,0,0-1-2.92,10.35,10.35,0,0,0-5.36-3.57l-.51-.17-.07,0h-.37l0,0h0l0,0,0,0,0,0,0,0,0,0-.06.05-1.56,1.48a22.6,22.6,0,0,0-6.72-.24l-.37.05-4.17-3.88V240h0a1.05,1.05,0,0,0-1-1h-6.19a1.05,1.05,0,0,0-1,1V243a1,1,0,0,0,1,1h6.19a1,1,0,0,0,1-1v-.1l2.7,2.51a18.9,18.9,0,0,0-4.53,1.47,5.18,5.18,0,0,0-.57.31l-.1.06h0l0,0h0l0,0h0l0,.05h0l0,0h0l0,0h0l0,0v0s0,0,0,0v0l0,0v0a.13.13,0,0,1,0,.06h0v2.51a9.27,9.27,0,0,0-2.23,2,5,5,0,0,0-1.19,3.23v6.24h0a5.56,5.56,0,0,0,2.3,4.37,13.6,13.6,0,0,0,4.25,2.18,21.45,21.45,0,0,0,6.36,1.05h.33a24.27,24.27,0,0,0,6-.8,15.45,15.45,0,0,0,3.07-1.18c1.25-.65,4.16-2.49,4.31-5.6h0V250.32Zm-27.48-7.5v-2.65h5.88v2.65Zm25.32,5.41a3.65,3.65,0,0,1,.73,2.09,3.22,3.22,0,0,1-.38,1.48,5.35,5.35,0,0,1-1,1.36,9.65,9.65,0,0,1-2.9,1.86h0l-6.48-4.78,5.33-5.09.08,0a9.17,9.17,0,0,1,4.65,3Zm-19.66.77,7.76,4v1.21l-7.76-4Zm15.26,13.65-6.07-4.47v-2.8h0v-3.64l6.07,4.48Zm-7.5-4.6-8.77,3.47v-1.63l8.77-3.48Zm.61,1.3,6.09,4.49a20.94,20.94,0,0,1-7.91.79,17.76,17.76,0,0,1-5.9-1.5l-.8-.4Zm-2.94-12.76,1.26,1.17a.6.6,0,0,0,.83-.09.59.59,0,0,0,0-.77l-.53-.49a20.89,20.89,0,0,1,4.4.15l-3.39,3.24h0l0,0,0,0,0,0h0l0,0,0,0,0,0,0,0v1.33l-6.89-3.53a19.63,19.63,0,0,1,4.56-1.24Zm-8,6.52a8.35,8.35,0,0,1,1.87-1.64l7.42,3.8-8.34,3.3a5.3,5.3,0,0,1-1.72-2.49,3.1,3.1,0,0,1-.1-.68v-.05a3.76,3.76,0,0,1,.87-2.24Zm-.87,8.57v-2.91a8.78,8.78,0,0,0,1,1v4.43a3.78,3.78,0,0,1-1-2.48Zm17.49,5.42a20.77,20.77,0,0,1-11.92-.23,13.57,13.57,0,0,1-3.16-1.47v-1.51c.34.19.7.37,1.06.54a19.06,19.06,0,0,0,6.38,1.63,22.38,22.38,0,0,0,8.83-1v1.64c-.39.14-.78.26-1.19.37Zm2.78-1.06-.16.07v-9.79a10.82,10.82,0,0,0,3.31-2.14,5,5,0,0,0,.39-.41v7.89c-.13,2.36-2.52,3.85-3.54,4.38Z" transform="translate(-87.19 -0.53)"/><rect class="cls-73" x="574.09" y="174.67" width="1.48" height="51.96" transform="translate(285.79 774.53) rotate(-89.88)"/><rect class="cls-73" x="573.42" y="287.08" width="1.5" height="51.26" transform="translate(173.05 885.69) rotate(-89.88)"/><path class="cls-74" d="M1059,.53q.4,128,0,255" transform="translate(-87.19 -0.53)"/></g></svg>