<svg id="Layer_1" data-name="Layer 1" xmlns="http://www.w3.org/2000/svg" xmlns:xlink="http://www.w3.org/1999/xlink" viewBox="0 0 997.07 586"><defs><style>.cls-1{fill:none;}.cls-2{opacity:0.5;}.cls-3{clip-path:url(#clip-path);}.cls-39,.cls-4,.cls-41,.cls-43,.cls-46,.cls-48,.cls-51,.cls-53,.cls-56,.cls-58,.cls-60,.cls-61,.cls-63{opacity:0.7;}.cls-5{opacity:0.08;}.cls-6{fill:url(#linear-gradient);}.cls-7{fill:url(#linear-gradient-2);}.cls-8{fill:url(#linear-gradient-3);}.cls-9{fill:url(#linear-gradient-4);}.cls-10{fill:url(#linear-gradient-5);}.cls-11{fill:url(#linear-gradient-6);}.cls-12{fill:url(#linear-gradient-7);}.cls-13{fill:url(#linear-gradient-8);}.cls-14{fill:url(#linear-gradient-9);}.cls-15{fill:url(#linear-gradient-10);}.cls-16{fill:url(#linear-gradient-11);}.cls-17{fill:url(#linear-gradient-12);}.cls-18{fill:url(#linear-gradient-13);}.cls-19{fill:url(#linear-gradient-14);}.cls-20{fill:url(#linear-gradient-15);}.cls-21{fill:url(#linear-gradient-16);}.cls-22{fill:url(#linear-gradient-17);}.cls-23{fill:url(#linear-gradient-18);}.cls-24{fill:url(#linear-gradient-19);}.cls-25{fill:url(#linear-gradient-20);}.cls-26{fill:url(#linear-gradient-21);}.cls-27{fill:url(#linear-gradient-22);}.cls-28{fill:url(#linear-gradient-23);}.cls-29{fill:url(#linear-gradient-24);}.cls-30{fill:url(#linear-gradient-25);}.cls-31{fill:url(#linear-gradient-26);}.cls-32{fill:url(#linear-gradient-27);}.cls-33{fill:url(#linear-gradient-28);}.cls-34{fill:url(#linear-gradient-29);}.cls-35{fill:url(#linear-gradient-30);}.cls-36{fill:url(#linear-gradient-31);}.cls-37{fill:url(#linear-gradient-32);}.cls-38,.cls-45,.cls-49,.cls-54,.cls-57,.cls-62,.cls-65{opacity:0.4;}.cls-38,.cls-39,.cls-41,.cls-43,.cls-45,.cls-46,.cls-48,.cls-49,.cls-51,.cls-53,.cls-54,.cls-56,.cls-57,.cls-58,.cls-60,.cls-61,.cls-62,.cls-63,.cls-65{isolation:isolate;}.cls-38{fill:url(#linear-gradient-33);}.cls-39{fill:url(#linear-gradient-34);}.cls-40{fill:url(#linear-gradient-35);}.cls-41{fill:url(#linear-gradient-36);}.cls-42{fill:url(#linear-gradient-37);}.cls-43{fill:url(#linear-gradient-38);}.cls-44{fill:url(#linear-gradient-39);}.cls-45{fill:url(#linear-gradient-40);}.cls-46{fill:url(#linear-gradient-41);}.cls-47{fill:url(#linear-gradient-42);}.cls-48{fill:url(#linear-gradient-43);}.cls-49{fill:url(#linear-gradient-44);}.cls-50{fill:url(#linear-gradient-45);}.cls-51{fill:url(#linear-gradient-46);}.cls-52{fill:url(#linear-gradient-47);}.cls-53{fill:url(#linear-gradient-48);}.cls-54{fill:url(#linear-gradient-49);}.cls-55{fill:url(#linear-gradient-50);}.cls-56{fill:url(#linear-gradient-51);}.cls-57{fill:url(#linear-gradient-52);}.cls-58{fill:url(#linear-gradient-53);}.cls-59{fill:url(#linear-gradient-54);}.cls-60{fill:url(#linear-gradient-55);}.cls-61{fill:url(#linear-gradient-56);}.cls-62{fill:url(#linear-gradient-57);}.cls-63{fill:url(#linear-gradient-58);}.cls-64{fill:url(#linear-gradient-59);}.cls-65{fill:url(#linear-gradient-60);}.cls-66{fill:url(#linear-gradient-61);}.cls-67{fill:url(#linear-gradient-62);}.cls-68{opacity:0.15;}.cls-69{fill:url(#linear-gradient-63);}.cls-70{fill:url(#linear-gradient-64);}.cls-71{opacity:0.3;}.cls-72{fill:url(#linear-gradient-65);}.cls-73{fill:url(#linear-gradient-66);}.cls-74{fill:url(#linear-gradient-67);}.cls-75{fill:url(#linear-gradient-68);}.cls-76{opacity:0.9;}.cls-77{fill:url(#linear-gradient-69);}.cls-78{fill:url(#linear-gradient-70);}.cls-79{fill:url(#linear-gradient-71);}.cls-80{fill:url(#linear-gradient-72);}.cls-81{fill:url(#linear-gradient-73);}.cls-82{fill:url(#linear-gradient-74);}.cls-83{fill:url(#linear-gradient-75);}.cls-84{fill:url(#linear-gradient-76);}.cls-85{fill:url(#linear-gradient-77);}.cls-86{fill:url(#linear-gradient-78);}.cls-87{fill:url(#linear-gradient-79);}.cls-88{fill:url(#linear-gradient-80);}.cls-89{fill:url(#linear-gradient-81);}.cls-90{fill:url(#linear-gradient-82);}.cls-91{fill:url(#linear-gradient-83);}.cls-92{fill:url(#linear-gradient-84);}.cls-93{fill:url(#linear-gradient-85);}.cls-94{fill:url(#linear-gradient-86);}.cls-95{fill:url(#linear-gradient-87);}.cls-96{fill:url(#linear-gradient-88);}.cls-97{fill:url(#linear-gradient-89);}.cls-98{fill:url(#linear-gradient-90);}.cls-99{fill:url(#linear-gradient-91);}.cls-100{fill:url(#linear-gradient-92);}.cls-101{fill:url(#linear-gradient-93);}.cls-102{fill:url(#linear-gradient-94);}.cls-103{fill:url(#linear-gradient-95);}.cls-104{fill:url(#linear-gradient-96);}.cls-105{fill:url(#linear-gradient-97);}.cls-106{fill:url(#linear-gradient-98);}.cls-107{fill:url(#linear-gradient-99);}.cls-108{fill:url(#linear-gradient-100);}.cls-109{fill:url(#linear-gradient-101);}.cls-110{fill:url(#linear-gradient-102);}.cls-111{fill:url(#linear-gradient-103);}</style><clipPath id="clip-path"><polyline class="cls-1" points="995.81 -82.88 995.81 621.78 -174.3 621.78 -174.3 -82.88"/></clipPath><linearGradient id="linear-gradient" x1="950.8" y1="308.97" x2="958.03" y2="308.97" gradientTransform="matrix(103.51, 0, 0, -89.64, -98228.98, 28012.82)" gradientUnits="userSpaceOnUse"><stop offset="0" stop-color="#009eff"/><stop offset="0.5" stop-color="#ff1e9b"/><stop offset="1" stop-color="#009eff"/></linearGradient><linearGradient id="linear-gradient-2" x1="951.57" y1="308.97" x2="958.81" y2="308.97" gradientTransform="matrix(103.51, 0, 0, -89.64, -98308.86, 28058.95)" xlink:href="#linear-gradient"/><linearGradient id="linear-gradient-3" x1="950.8" y1="308.97" x2="958.03" y2="308.97" gradientTransform="matrix(103.51, 0, 0, -89.65, -98228.98, 27829.26)" xlink:href="#linear-gradient"/><linearGradient id="linear-gradient-4" x1="948.48" y1="308.97" x2="955.72" y2="308.97" gradientTransform="matrix(103.52, 0, 0, -89.64, -97994.13, 27873.22)" xlink:href="#linear-gradient"/><linearGradient id="linear-gradient-5" x1="947.71" y1="308.97" x2="954.95" y2="308.97" gradientTransform="matrix(103.51, 0, 0, -89.65, -97909.44, 27828.95)" xlink:href="#linear-gradient"/><linearGradient id="linear-gradient-6" x1="946.94" y1="308.97" x2="954.18" y2="308.97" gradientTransform="matrix(103.51, 0, 0, -89.64, -97831.43, 27873.22)" xlink:href="#linear-gradient"/><linearGradient id="linear-gradient-7" x1="946.94" y1="308.97" x2="954.18" y2="308.97" gradientTransform="matrix(103.51, 0, 0, -89.65, -97831.43, 27967.31)" xlink:href="#linear-gradient"/><linearGradient id="linear-gradient-8" x1="947.71" y1="308.97" x2="954.95" y2="308.97" gradientTransform="matrix(103.51, 0, 0, -89.64, -97909.44, 28012.82)" xlink:href="#linear-gradient"/><linearGradient id="linear-gradient-9" x1="947.71" y1="308.97" x2="954.95" y2="308.97" gradientTransform="matrix(103.51, 0, 0, -89.64, -97909.44, 28105.06)" xlink:href="#linear-gradient"/><linearGradient id="linear-gradient-10" x1="946.94" y1="308.97" x2="954.18" y2="308.97" gradientTransform="matrix(103.51, 0, 0, -89.64, -97831.43, 28150.57)" xlink:href="#linear-gradient"/><linearGradient id="linear-gradient-11" x1="946.17" y1="308.97" x2="953.4" y2="308.97" gradientTransform="matrix(103.51, 0, 0, -89.64, -97751.55, 28105.06)" xlink:href="#linear-gradient"/><linearGradient id="linear-gradient-12" x1="945.39" y1="308.97" x2="952.63" y2="308.97" gradientTransform="matrix(103.51, 0, 0, -89.64, -97672.66, 28058.95)" xlink:href="#linear-gradient"/><linearGradient id="linear-gradient-13" x1="946.17" y1="308.97" x2="953.4" y2="308.97" gradientTransform="matrix(103.51, 0, 0, -89.64, -97751.55, 27920.58)" xlink:href="#linear-gradient"/><linearGradient id="linear-gradient-14" x1="945.39" y1="308.97" x2="952.63" y2="308.97" gradientTransform="matrix(103.51, 0, 0, -89.65, -97672.66, 27967.01)" xlink:href="#linear-gradient"/><linearGradient id="linear-gradient-15" x1="946.17" y1="308.97" x2="953.4" y2="308.97" gradientTransform="matrix(103.51, 0, 0, -89.65, -97751.55, 27829.26)" xlink:href="#linear-gradient"/><linearGradient id="linear-gradient-16" x1="945.39" y1="308.97" x2="952.63" y2="308.97" gradientTransform="matrix(103.51, 0, 0, -89.64, -97672.66, 27781.28)" xlink:href="#linear-gradient"/><linearGradient id="linear-gradient-17" x1="944.62" y1="308.97" x2="951.86" y2="308.97" gradientTransform="matrix(103.51, 0, 0, -89.65, -97589.9, 27829.26)" xlink:href="#linear-gradient"/><linearGradient id="linear-gradient-18" x1="944.62" y1="308.97" x2="951.86" y2="308.97" gradientTransform="matrix(103.51, 0, 0, -89.64, -97589.9, 27920.58)" xlink:href="#linear-gradient"/><linearGradient id="linear-gradient-19" x1="948.48" y1="308.97" x2="955.72" y2="308.97" gradientTransform="matrix(103.52, 0, 0, -89.64, -97994.13, 28150.57)" xlink:href="#linear-gradient"/><linearGradient id="linear-gradient-20" x1="948.48" y1="308.97" x2="955.72" y2="308.97" gradientTransform="matrix(103.52, 0, 0, -89.64, -97994.13, 28058.94)" xlink:href="#linear-gradient"/><linearGradient id="linear-gradient-21" x1="953.11" y1="308.97" x2="960.35" y2="308.97" gradientTransform="matrix(103.51, 0, 0, -89.64, -98470.57, 27873.22)" xlink:href="#linear-gradient"/><linearGradient id="linear-gradient-22" x1="951.57" y1="308.97" x2="958.81" y2="308.97" gradientTransform="matrix(103.51, 0, 0, -89.65, -98308.86, 27967.01)" xlink:href="#linear-gradient"/><linearGradient id="linear-gradient-23" x1="952.34" y1="308.97" x2="959.58" y2="308.97" gradientTransform="matrix(103.51, 0, 0, -89.64, -98390.65, 27920.58)" xlink:href="#linear-gradient"/><linearGradient id="linear-gradient-24" x1="953.11" y1="308.97" x2="960.35" y2="308.97" gradientTransform="matrix(103.51, 0, 0, -89.65, -98470.57, 27967.31)" xlink:href="#linear-gradient"/><linearGradient id="linear-gradient-25" x1="950.02" y1="308.97" x2="957.26" y2="308.97" gradientTransform="matrix(103.51, 0, 0, -89.64, -98149.06, 28058.95)" xlink:href="#linear-gradient"/><linearGradient id="linear-gradient-26" x1="949.25" y1="308.97" x2="956.49" y2="308.97" gradientTransform="matrix(103.52, 0, 0, -89.64, -98075.93, 28105.06)" xlink:href="#linear-gradient"/><linearGradient id="linear-gradient-27" x1="949.25" y1="308.97" x2="956.49" y2="308.97" gradientTransform="matrix(103.52, 0, 0, -89.64, -98075.93, 27920.58)" xlink:href="#linear-gradient"/><linearGradient id="linear-gradient-28" x1="950.02" y1="308.97" x2="957.26" y2="308.97" gradientTransform="matrix(103.51, 0, 0, -89.64, -98149.06, 27873.22)" xlink:href="#linear-gradient"/><linearGradient id="linear-gradient-29" x1="950.8" y1="308.97" x2="958.03" y2="308.97" gradientTransform="matrix(103.51, 0, 0, -89.64, -98228.98, 27920.58)" xlink:href="#linear-gradient"/><linearGradient id="linear-gradient-30" x1="949.25" y1="308.97" x2="956.49" y2="308.97" gradientTransform="matrix(103.52, 0, 0, -89.64, -98075.93, 28012.2)" xlink:href="#linear-gradient"/><linearGradient id="linear-gradient-31" x1="944.62" y1="308.97" x2="951.86" y2="308.97" gradientTransform="matrix(103.51, 0, 0, -89.64, -97589.9, 28105.06)" xlink:href="#linear-gradient"/><linearGradient id="linear-gradient-32" x1="949.34" y1="308.9" x2="957.63" y2="308.9" gradientTransform="matrix(90.4, 0, 0, -78.3, -85632.38, 24501.17)" xlink:href="#linear-gradient"/><linearGradient id="linear-gradient-33" x1="950.22" y1="308.9" x2="958.51" y2="308.9" gradientTransform="matrix(90.4, 0, 0, -78.29, -85712.27, 24545.13)" xlink:href="#linear-gradient"/><linearGradient id="linear-gradient-34" x1="949.34" y1="308.9" x2="957.63" y2="308.9" gradientTransform="matrix(90.4, 0, 0, -78.29, -85632.38, 24315.76)" xlink:href="#linear-gradient"/><linearGradient id="linear-gradient-35" x1="946.69" y1="308.9" x2="954.98" y2="308.9" gradientTransform="matrix(90.4, 0, 0, -78.29, -85392.68, 24360.95)" xlink:href="#linear-gradient"/><linearGradient id="linear-gradient-36" x1="945.8" y1="308.9" x2="954.09" y2="308.9" gradientTransform="matrix(90.4, 0, 0, -78.29, -85312.79, 24315.76)" xlink:href="#linear-gradient"/><linearGradient id="linear-gradient-37" x1="944.92" y1="308.9" x2="953.21" y2="308.9" gradientTransform="matrix(90.4, 0, 0, -78.29, -85232.9, 24360.95)" xlink:href="#linear-gradient"/><linearGradient id="linear-gradient-38" x1="944.92" y1="308.9" x2="953.21" y2="308.9" gradientTransform="matrix(90.4, 0, 0, -78.29, -85232.9, 24453.51)" xlink:href="#linear-gradient"/><linearGradient id="linear-gradient-39" x1="945.8" y1="308.9" x2="954.09" y2="308.9" gradientTransform="matrix(90.4, 0, 0, -78.3, -85312.79, 24501.17)" xlink:href="#linear-gradient"/><linearGradient id="linear-gradient-40" x1="945.8" y1="308.9" x2="954.09" y2="308.9" gradientTransform="matrix(90.4, 0, 0, -78.29, -85312.79, 24591.25)" xlink:href="#linear-gradient"/><linearGradient id="linear-gradient-41" x1="944.92" y1="308.9" x2="953.21" y2="308.9" gradientTransform="matrix(90.4, 0, 0, -78.29, -85232.9, 24637.99)" xlink:href="#linear-gradient"/><linearGradient id="linear-gradient-42" x1="944.04" y1="308.9" x2="952.33" y2="308.9" gradientTransform="matrix(90.4, 0, 0, -78.29, -85153.02, 24591.25)" xlink:href="#linear-gradient"/><linearGradient id="linear-gradient-43" x1="943.15" y1="308.9" x2="951.44" y2="308.9" gradientTransform="matrix(90.4, 0, 0, -78.29, -85073.14, 24545.13)" xlink:href="#linear-gradient"/><linearGradient id="linear-gradient-44" x1="944.04" y1="308.9" x2="952.33" y2="308.9" gradientTransform="matrix(90.4, 0, 0, -78.29, -85153.02, 24406.76)" xlink:href="#linear-gradient"/><linearGradient id="linear-gradient-45" x1="943.15" y1="308.9" x2="951.44" y2="308.9" gradientTransform="matrix(90.4, 0, 0, -78.29, -85073.14, 24453.51)" xlink:href="#linear-gradient"/><linearGradient id="linear-gradient-46" x1="944.04" y1="308.9" x2="952.33" y2="308.9" gradientTransform="matrix(90.4, 0, 0, -78.29, -85153.02, 24315.76)" xlink:href="#linear-gradient"/><linearGradient id="linear-gradient-47" x1="943.15" y1="308.9" x2="951.44" y2="308.9" gradientTransform="matrix(90.4, 0, 0, -78.29, -85073.14, 24267.78)" xlink:href="#linear-gradient"/><linearGradient id="linear-gradient-48" x1="942.27" y1="308.9" x2="950.56" y2="308.9" gradientTransform="matrix(90.4, 0, 0, -78.29, -84998.06, 24315.76)" xlink:href="#linear-gradient"/><linearGradient id="linear-gradient-49" x1="942.27" y1="308.9" x2="950.56" y2="308.9" gradientTransform="matrix(90.4, 0, 0, -78.29, -84998.06, 24406.76)" xlink:href="#linear-gradient"/><linearGradient id="linear-gradient-50" x1="946.69" y1="308.9" x2="954.98" y2="308.9" gradientTransform="matrix(90.4, 0, 0, -78.29, -85392.68, 24637.99)" xlink:href="#linear-gradient"/><linearGradient id="linear-gradient-51" x1="946.69" y1="308.9" x2="954.98" y2="308.9" gradientTransform="matrix(90.4, 0, 0, -78.29, -85392.68, 24545.13)" xlink:href="#linear-gradient"/><linearGradient id="linear-gradient-52" x1="951.99" y1="308.9" x2="960.28" y2="308.9" gradientTransform="matrix(90.4, 0, 0, -78.29, -85872.04, 24360.95)" xlink:href="#linear-gradient"/><linearGradient id="linear-gradient-53" x1="950.22" y1="308.9" x2="958.51" y2="308.9" gradientTransform="matrix(90.4, 0, 0, -78.29, -85712.27, 24453.51)" xlink:href="#linear-gradient"/><linearGradient id="linear-gradient-54" x1="951.11" y1="308.9" x2="959.4" y2="308.9" gradientTransform="matrix(90.4, 0, 0, -78.29, -85792.15, 24406.76)" xlink:href="#linear-gradient"/><linearGradient id="linear-gradient-55" x1="951.99" y1="308.9" x2="960.28" y2="308.9" gradientTransform="matrix(90.4, 0, 0, -78.29, -85872.04, 24453.51)" xlink:href="#linear-gradient"/><linearGradient id="linear-gradient-56" x1="948.46" y1="308.9" x2="956.74" y2="308.9" gradientTransform="matrix(90.4, 0, 0, -78.29, -85552.44, 24545.13)" xlink:href="#linear-gradient"/><linearGradient id="linear-gradient-57" x1="947.57" y1="308.9" x2="955.86" y2="308.9" gradientTransform="matrix(90.4, 0, 0, -78.29, -85472.59, 24591.25)" xlink:href="#linear-gradient"/><linearGradient id="linear-gradient-58" x1="947.57" y1="308.9" x2="955.86" y2="308.9" gradientTransform="matrix(90.4, 0, 0, -78.29, -85472.59, 24406.76)" xlink:href="#linear-gradient"/><linearGradient id="linear-gradient-59" x1="948.46" y1="308.9" x2="956.74" y2="308.9" gradientTransform="matrix(90.4, 0, 0, -78.29, -85552.44, 24360.95)" xlink:href="#linear-gradient"/><linearGradient id="linear-gradient-60" x1="949.34" y1="308.9" x2="957.63" y2="308.9" gradientTransform="matrix(90.4, 0, 0, -78.29, -85632.38, 24406.76)" xlink:href="#linear-gradient"/><linearGradient id="linear-gradient-61" x1="947.57" y1="308.9" x2="955.86" y2="308.9" gradientTransform="matrix(90.4, 0, 0, -78.3, -85472.59, 24501.17)" xlink:href="#linear-gradient"/><linearGradient id="linear-gradient-62" x1="942.27" y1="308.9" x2="950.56" y2="308.9" gradientTransform="matrix(90.4, 0, 0, -78.29, -84998.06, 24591.25)" xlink:href="#linear-gradient"/><linearGradient id="linear-gradient-63" x1="959.55" y1="309.36" x2="960.02" y2="309.36" gradientTransform="matrix(1596.21, 0, 0, -468.18, -1531458.34, 145084.71)" xlink:href="#linear-gradient"/><linearGradient id="linear-gradient-64" x1="958.86" y1="309.34" x2="960.43" y2="309.34" gradientTransform="matrix(475.06, 0, 0, -373.14, -455322.34, 115800.56)" xlink:href="#linear-gradient"/><linearGradient id="linear-gradient-65" x1="959.41" y1="309.33" x2="960.03" y2="309.33" gradientTransform="matrix(1210.52, 0, 0, -355.07, -1161188.8, 110151.86)" xlink:href="#linear-gradient"/><linearGradient id="linear-gradient-66" x1="958.37" y1="309.3" x2="960.45" y2="309.3" gradientTransform="matrix(360.27, 0, 0, -282.97, -345086.61, 87743.34)" xlink:href="#linear-gradient"/><linearGradient id="linear-gradient-67" x1="959.15" y1="309.31" x2="959.88" y2="309.31" gradientTransform="matrix(1019.51, 0, 0, -299.04, -977667.61, 92738.3)" xlink:href="#linear-gradient"/><linearGradient id="linear-gradient-68" x1="957.49" y1="309.27" x2="959.96" y2="309.27" gradientTransform="matrix(303.48, 0, 0, -238.33, -290389.27, 74034.82)" xlink:href="#linear-gradient"/><linearGradient id="linear-gradient-69" x1="920.09" y1="308.38" x2="950.64" y2="308.38" gradientTransform="matrix(24.52, 0, 0, -40.35, -22374.46, 12712.4)" xlink:href="#linear-gradient"/><linearGradient id="linear-gradient-70" x1="888.67" y1="276.82" x2="942.78" y2="276.82" gradientTransform="matrix(13.85, 0, 0, -1.32, -12117.48, 646.34)" xlink:href="#linear-gradient"/><linearGradient id="linear-gradient-71" x1="903.73" y1="276.9" x2="946.56" y2="276.9" gradientTransform="matrix(17.5, 0, 0, -1.33, -15627.71, 652.36)" xlink:href="#linear-gradient"/><linearGradient id="linear-gradient-72" x1="808.29" y1="276.79" x2="922.68" y2="276.79" gradientTransform="matrix(6.55, 0, 0, -1.32, -5107.23, 640.97)" xlink:href="#linear-gradient"/><linearGradient id="linear-gradient-73" x1="903.55" y1="281.31" x2="946.51" y2="281.31" gradientTransform="matrix(17.44, 0, 0, -1.53, -15573.67, 684.21)" xlink:href="#linear-gradient"/><linearGradient id="linear-gradient-74" x1="888.82" y1="276.8" x2="942.82" y2="276.8" gradientTransform="matrix(13.88, 0, 0, -1.32, -12145.37, 623.73)" xlink:href="#linear-gradient"/><linearGradient id="linear-gradient-75" x1="808.3" y1="277.09" x2="922.69" y2="277.09" gradientTransform="matrix(6.55, 0, 0, -1.33, -5107.7, 632.43)" xlink:href="#linear-gradient"/><linearGradient id="linear-gradient-76" x1="924.04" y1="307.58" x2="942.62" y2="307.58" gradientTransform="matrix(40.33, 0, 0, -23.08, -37078.12, 7309.26)" xlink:href="#linear-gradient"/><linearGradient id="linear-gradient-77" x1="920.34" y1="307.73" x2="940.79" y2="307.73" gradientTransform="matrix(36.64, 0, 0, -25.11, -33533.25, 7947.71)" xlink:href="#linear-gradient"/><linearGradient id="linear-gradient-78" x1="918.57" y1="308.38" x2="938.69" y2="308.38" gradientTransform="matrix(37.25, 0, 0, -40.38, -34032.71, 12723.78)" xlink:href="#linear-gradient"/><linearGradient id="linear-gradient-79" x1="928.19" y1="305.94" x2="948.69" y2="305.94" gradientTransform="matrix(36.54, 0, 0, -12.31, -33728.05, 4043.83)" xlink:href="#linear-gradient"/><linearGradient id="linear-gradient-80" x1="898.79" y1="305.79" x2="937.75" y2="305.79" gradientTransform="matrix(19.23, 0, 0, -11.8, -17094.19, 3874.43)" xlink:href="#linear-gradient"/><linearGradient id="linear-gradient-81" x1="903.54" y1="305.31" x2="939.53" y2="305.31" gradientTransform="matrix(20.82, 0, 0, -10.42, -18626.52, 3434.74)" xlink:href="#linear-gradient"/><linearGradient id="linear-gradient-82" x1="765.13" y1="302.4" x2="888.06" y2="302.4" gradientTransform="matrix(6.1, 0, 0, -6.12, -4477.13, 2105.03)" xlink:href="#linear-gradient"/><linearGradient id="linear-gradient-83" x1="851.46" y1="301.69" x2="911.29" y2="301.69" gradientTransform="matrix(12.53, 0, 0, -5.56, -10476.75, 1841.47)" xlink:href="#linear-gradient"/><linearGradient id="linear-gradient-84" x1="802.9" y1="301.34" x2="889.17" y2="301.34" gradientTransform="matrix(8.69, 0, 0, -5.32, -6786.05, 1762.07)" xlink:href="#linear-gradient"/><linearGradient id="linear-gradient-85" x1="814.92" y1="300.26" x2="894.61" y2="300.26" gradientTransform="matrix(9.4, 0, 0, -4.7, -7473.02, 1563.03)" xlink:href="#linear-gradient"/><linearGradient id="linear-gradient-86" x1="462.33" y1="293.75" x2="734.62" y2="293.75" gradientTransform="matrix(2.75, 0, 0, -2.75, -1084.41, 960.53)" xlink:href="#linear-gradient"/><linearGradient id="linear-gradient-87" x1="902.84" y1="304.1" x2="934.17" y2="304.1" gradientTransform="matrix(23.92, 0, 0, -8.06, -21407.16, 2614.47)" xlink:href="#linear-gradient"/><linearGradient id="linear-gradient-88" x1="850.73" y1="303.85" x2="910.22" y2="303.85" gradientTransform="matrix(12.6, 0, 0, -7.71, -10531.45, 2497.29)" xlink:href="#linear-gradient"/><linearGradient id="linear-gradient-89" x1="859.08" y1="303.11" x2="914.04" y2="303.11" gradientTransform="matrix(13.63, 0, 0, -6.81, -11523.02, 2211.89)" xlink:href="#linear-gradient"/><linearGradient id="linear-gradient-90" x1="614.03" y1="298.65" x2="801.37" y2="298.65" gradientTransform="matrix(4, 0, 0, -4, -2268.25, 1340.79)" xlink:href="#linear-gradient"/><linearGradient id="linear-gradient-91" x1="848.58" y1="301.69" x2="908.47" y2="301.69" gradientTransform="matrix(12.51, 0, 0, -5.56, -10428.63, 1842.4)" xlink:href="#linear-gradient"/><linearGradient id="linear-gradient-92" x1="799.37" y1="301.34" x2="885.64" y2="301.34" gradientTransform="matrix(8.69, 0, 0, -5.32, -6755.45, 1762.07)" xlink:href="#linear-gradient"/><linearGradient id="linear-gradient-93" x1="811.54" y1="300.26" x2="891.3" y2="300.26" gradientTransform="matrix(9.39, 0, 0, -4.7, -7435.67, 1563.03)" xlink:href="#linear-gradient"/><linearGradient id="linear-gradient-94" x1="451.71" y1="293.75" x2="723.76" y2="293.75" gradientTransform="matrix(2.76, 0, 0, -2.75, -1056.74, 960.54)" xlink:href="#linear-gradient"/><linearGradient id="linear-gradient-95" x1="938.49" y1="308.38" x2="957.06" y2="308.38" gradientTransform="matrix(40.34, 0, 0, -40.35, -37674.53, 12768.99)" xlink:href="#linear-gradient"/><linearGradient id="linear-gradient-96" x1="867.76" y1="305.78" x2="931.41" y2="305.78" gradientTransform="matrix(11.78, 0, 0, -11.77, -10032.71, 3926.52)" xlink:href="#linear-gradient"/><linearGradient id="linear-gradient-97" x1="907.27" y1="307.34" x2="943.89" y2="307.34" gradientTransform="matrix(20.46, 0, 0, -20.46, -18378.58, 6616.58)" xlink:href="#linear-gradient"/><linearGradient id="linear-gradient-98" x1="933.67" y1="307.81" x2="952.24" y2="307.81" gradientTransform="matrix(40.34, 0, 0, -26.28, -37479.07, 8415.1)" xlink:href="#linear-gradient"/><linearGradient id="linear-gradient-99" x1="909.54" y1="302.54" x2="944.61" y2="302.54" gradientTransform="matrix(21.37, 0, 0, -6.25, -19246.19, 2200.85)" xlink:href="#linear-gradient"/><linearGradient id="linear-gradient-100" x1="848.43" y1="305.69" x2="913.75" y2="305.69" gradientTransform="matrix(11.47, 0, 0, -11.47, -9546.16, 3725.25)" xlink:href="#linear-gradient"/><linearGradient id="linear-gradient-101" x1="865.11" y1="303.58" x2="920.73" y2="303.58" gradientTransform="matrix(13.47, 0, 0, -7.35, -11465.95, 2426.36)" xlink:href="#linear-gradient"/><linearGradient id="linear-gradient-102" x1="892.16" y1="307.15" x2="932.06" y2="307.15" gradientTransform="matrix(18.78, 0, 0, -18.78, -16563.26, 5984.55)" xlink:href="#linear-gradient"/><linearGradient id="linear-gradient-103" x1="911.69" y1="308.1" x2="940.25" y2="308.1" gradientTransform="matrix(26.24, 0, 0, -32.05, -23733.91, 10091.68)" xlink:href="#linear-gradient"/></defs><g id="Group_24" data-name="Group 24" class="cls-2"><g class="cls-3"><g id="Group_23" data-name="Group 23"><g id="Group_22" data-name="Group 22" class="cls-4"><g id="Group_4" data-name="Group 4" class="cls-5"><g id="Group_2" data-name="Group 2"><path id="Path_34" data-name="Path 34" class="cls-6" d="M410.66,315.58,384.78,360.4H333l-25.88-44.82L333,270.76h51.75Zm-102.48,0,25.37,43.94h50.72l25.36-43.94-25.36-43.93H333.55Z"/><path id="Path_35" data-name="Path 35" class="cls-7" d="M330.78,361.71,304.9,406.53H253.14l-25.87-44.82,25.88-44.83H304.9Zm-102.48,0,25.36,43.93h50.72l25.37-43.93-25.37-43.94H253.66Z"/><path id="Path_36" data-name="Path 36" class="cls-8" d="M410.66,131.09l-25.88,44.83H333l-25.88-44.83L333,86.27h51.75Zm-102.48,0L333.55,175h50.72l25.36-43.94L384.27,87.16H333.55Z"/><path id="Path_37" data-name="Path 37" class="cls-9" d="M650.32,177.22,624.44,222H572.68L546.8,177.22l25.88-44.82h51.76Zm-102.49,0,25.36,43.93h50.73l25.37-43.93-25.37-43.93H573.19Z"/><path id="Path_38" data-name="Path 38" class="cls-10" d="M730.2,131.09l-25.89,44.83H652.56l-25.87-44.83,25.87-44.82h51.75Zm-102.49,0L653.08,175h50.73l25.36-43.94L703.81,87.16H653.08Z"/><path id="Path_39" data-name="Path 39" class="cls-11" d="M810.08,177.22,784.2,222H732.45l-25.88-44.82,25.88-44.82H784.2Zm-102.48,0L733,221.15h50.73l25.37-43.93-25.37-43.93H733Z"/><path id="Path_40" data-name="Path 40" class="cls-12" d="M810.08,269.46,784.2,314.28H732.45l-25.88-44.82,25.88-44.83H784.2Zm-102.48,0L733,313.39h50.73l25.37-43.93-25.37-43.93H733Z"/><path id="Path_41" data-name="Path 41" class="cls-13" d="M730.2,315.58,704.31,360.4H652.56l-25.87-44.82,25.87-44.82h51.75Zm-102.49,0,25.37,43.94h50.73l25.36-43.94-25.36-43.93H653.08Z"/><path id="Path_42" data-name="Path 42" class="cls-14" d="M730.2,407.83l-25.89,44.82H652.56l-25.87-44.82L652.56,363h51.75Zm-102.49,0,25.37,43.93h50.73l25.36-43.93-25.36-43.94H653.08Z"/><path id="Path_43" data-name="Path 43" class="cls-15" d="M810.08,453.94,784.2,498.77H732.45l-25.88-44.83,25.88-44.81H784.2Zm-102.48,0L733,497.88h50.73l25.37-43.94L783.69,410H733Z"/><path id="Path_44" data-name="Path 44" class="cls-16" d="M890,407.83l-25.88,44.82H812.33l-25.88-44.82L812.33,363h51.76Zm-102.49,0,25.37,43.93h50.73l25.36-43.93-25.36-43.94H812.85Z"/><path id="Path_45" data-name="Path 45" class="cls-17" d="M969.85,361.71,944,406.53H892.22l-25.88-44.82,25.88-44.83H944Zm-102.48,0,25.36,43.93h50.73l25.37-43.93-25.37-43.94H892.73Z"/><path id="Path_46" data-name="Path 46" class="cls-18" d="M890,223.34l-25.88,44.82H812.33l-25.88-44.82,25.88-44.82h51.76Zm-102.49,0,25.37,43.93h50.73l25.36-43.93-25.36-43.93H812.85Z"/><path id="Path_47" data-name="Path 47" class="cls-19" d="M969.85,269.46,944,314.28H892.22l-25.88-44.82,25.88-44.83H944Zm-102.48,0,25.36,43.93h50.73l25.37-43.93-25.37-43.93H892.73Z"/><path id="Path_48" data-name="Path 48" class="cls-20" d="M890,131.09l-25.88,44.83H812.33l-25.88-44.83,25.88-44.82h51.76Zm-102.49,0L812.85,175h50.73l25.36-43.94L863.58,87.16H812.85Z"/><path id="Path_49" data-name="Path 49" class="cls-21" d="M969.85,85,944,129.8H892.22L866.34,85l25.88-44.82H944ZM867.37,85l25.36,43.93h50.73L968.83,85,943.46,41H892.73Z"/><path id="Path_50" data-name="Path 50" class="cls-22" d="M1049.73,131.09l-25.87,44.83H972.1l-25.88-44.83L972.1,86.27h51.76Zm-102.48,0L972.61,175h50.73l25.37-43.94-25.37-43.93H972.61Z"/><path id="Path_51" data-name="Path 51" class="cls-23" d="M1049.73,223.34l-25.87,44.82H972.1l-25.88-44.82,25.88-44.82h51.76Zm-102.48,0,25.36,43.93h50.73l25.37-43.93-25.36-43.93H972.61Z"/><path id="Path_52" data-name="Path 52" class="cls-24" d="M650.32,453.94l-25.88,44.83H572.68L546.8,453.94l25.88-44.81h51.76Zm-102.49,0,25.36,43.94h50.73l25.37-43.94L623.92,410H573.19Z"/><path id="Path_53" data-name="Path 53" class="cls-25" d="M650.32,361.71l-25.88,44.82H572.68L546.8,361.71l25.88-44.83h51.76Zm-102.49,0,25.36,43.93h50.73l25.37-43.93-25.37-43.94H573.19Z"/><path id="Path_54" data-name="Path 54" class="cls-26" d="M171,177.22,145.13,222H93.38L67.5,177.22,93.38,132.4h51.75Zm-102.48,0,25.36,43.93h50.73L170,177.22l-25.37-43.93H93.89Z"/><path id="Path_55" data-name="Path 55" class="cls-27" d="M330.78,269.46,304.9,314.28H253.14l-25.87-44.82,25.87-44.83H304.9Zm-102.48,0,25.36,43.93h50.72l25.37-43.93-25.37-43.93H253.66Z"/><path id="Path_56" data-name="Path 56" class="cls-28" d="M250.89,223.34,225,268.16H173.26l-25.88-44.82,25.88-44.82H225Zm-102.48,0,25.36,43.93H224.5l25.37-43.93L224.5,179.41H173.77Z"/><path id="Path_57" data-name="Path 57" class="cls-29" d="M171,269.46l-25.88,44.82H93.38L67.5,269.46l25.88-44.83h51.75Zm-102.48,0,25.36,43.93h50.73L170,269.46l-25.37-43.93H93.89Z"/><path id="Path_58" data-name="Path 58" class="cls-30" d="M490.55,361.71l-25.88,44.82H412.92L387,361.71l25.88-44.83h51.75Zm-102.48,0,25.36,43.93h50.72l25.37-43.93-25.37-43.94H413.43Z"/><path id="Path_59" data-name="Path 59" class="cls-31" d="M570.43,407.83l-25.88,44.82H492.8l-25.88-44.82L492.8,363h51.75Zm-102.48,0,25.36,43.93H544l25.36-43.93L544,363.89H493.31Z"/><path id="Path_60" data-name="Path 60" class="cls-32" d="M570.43,223.34l-25.88,44.82H492.8l-25.88-44.82,25.88-44.82h51.75Zm-102.48,0,25.36,43.93H544l25.36-43.93L544,179.41H493.31Z"/><path id="Path_61" data-name="Path 61" class="cls-33" d="M490.55,177.22,464.67,222H412.92L387,177.22l25.88-44.82h51.75Zm-102.48,0,25.36,43.93h50.72l25.37-43.93-25.37-43.93H413.43Z"/><path id="Path_62" data-name="Path 62" class="cls-34" d="M410.66,223.34l-25.88,44.82H333l-25.88-44.82L333,178.52h51.75Zm-102.48,0,25.37,43.93h50.72l25.36-43.93-25.36-43.93H333.55Z"/><path id="Path_63" data-name="Path 63" class="cls-35" d="M570.43,315.58,544.55,360.4H492.8l-25.88-44.82,25.88-44.82h51.75Zm-102.48,0,25.36,43.94H544l25.36-43.94L544,271.65H493.31Z"/><path id="Path_64" data-name="Path 64" class="cls-36" d="M1049.73,407.83l-25.87,44.82H972.1l-25.88-44.82L972.1,363h51.76Zm-102.48,0,25.36,43.93h50.73l25.37-43.93-25.36-43.94H972.61Z"/></g><g id="Group_3" data-name="Group 3"><path id="Path_65" data-name="Path 65" class="cls-37" d="M336.31,276.43l-22.6,39.15,22.6,39.15h45.2l22.6-39.15-22.6-39.15Z"/><path id="Path_66" data-name="Path 66" class="cls-38" d="M256.42,322.56l-22.6,39.15,22.6,39.14h45.2l22.6-39.14-22.6-39.15Z"/><path id="Path_67" data-name="Path 67" class="cls-39" d="M336.31,92l-22.6,39.14,22.6,39.15h45.2l22.6-39.15L381.51,92Z"/><path id="Path_68" data-name="Path 68" class="cls-40" d="M576,138.07l-22.6,39.15L576,216.36h45.2l22.6-39.14-22.6-39.15Z"/><path id="Path_69" data-name="Path 69" class="cls-41" d="M655.84,92l-22.6,39.14,22.6,39.15H701l22.6-39.15L701,92Z"/><path id="Path_70" data-name="Path 70" class="cls-42" d="M735.73,138.07l-22.6,39.15,22.6,39.14h45.2l22.6-39.14-22.6-39.15Z"/><path id="Path_71" data-name="Path 71" class="cls-43" d="M735.73,230.32l-22.6,39.14,22.6,39.15h45.2l22.6-39.15-22.6-39.14Z"/><path id="Path_72" data-name="Path 72" class="cls-44" d="M655.84,276.43l-22.6,39.15,22.6,39.15H701l22.6-39.15L701,276.43Z"/><path id="Path_73" data-name="Path 73" class="cls-45" d="M655.84,368.68l-22.6,39.14L655.84,447H701l22.6-39.15L701,368.68Z"/><path id="Path_74" data-name="Path 74" class="cls-46" d="M735.73,414.8l-22.6,39.14,22.6,39.15h45.2l22.6-39.15-22.6-39.14Z"/><path id="Path_75" data-name="Path 75" class="cls-47" d="M815.61,368.68,793,407.82,815.61,447h45.2l22.6-39.15-22.6-39.14Z"/><path id="Path_76" data-name="Path 76" class="cls-48" d="M895.49,322.56l-22.6,39.15,22.6,39.14h45.2l22.6-39.14-22.6-39.15Z"/><path id="Path_77" data-name="Path 77" class="cls-49" d="M815.61,184.19,793,223.34l22.6,39.14h45.2l22.6-39.14-22.6-39.15Z"/><path id="Path_78" data-name="Path 78" class="cls-50" d="M895.49,230.32l-22.6,39.14,22.6,39.15h45.2l22.6-39.15-22.6-39.14Z"/><path id="Path_79" data-name="Path 79" class="cls-51" d="M815.61,92,793,131.09l22.6,39.15h45.2l22.6-39.15L860.81,92Z"/><path id="Path_80" data-name="Path 80" class="cls-52" d="M895.49,45.83,872.89,85l22.6,39.14h45.2L963.29,85l-22.6-39.15Z"/><path id="Path_81" data-name="Path 81" class="cls-53" d="M975.38,92l-22.6,39.14,22.6,39.15h45.2l22.6-39.15L1020.58,92Z"/><path id="Path_82" data-name="Path 82" class="cls-54" d="M975.38,184.19l-22.6,39.15,22.6,39.14h45.2l22.6-39.14-22.6-39.15Z"/><path id="Path_83" data-name="Path 83" class="cls-55" d="M576,414.8l-22.6,39.14L576,493.09h45.2l22.6-39.15-22.6-39.14Z"/><path id="Path_84" data-name="Path 84" class="cls-56" d="M576,322.56l-22.6,39.15L576,400.85h45.2l22.6-39.14-22.6-39.15Z"/><path id="Path_85" data-name="Path 85" class="cls-57" d="M96.65,138.07l-22.6,39.15,22.6,39.14h45.2l22.6-39.14-22.6-39.15Z"/><path id="Path_86" data-name="Path 86" class="cls-58" d="M256.42,230.32l-22.6,39.14,22.6,39.15h45.2l22.6-39.15-22.6-39.14Z"/><path id="Path_87" data-name="Path 87" class="cls-59" d="M176.54,184.19l-22.6,39.15,22.6,39.14h45.2l22.6-39.14-22.6-39.15Z"/><path id="Path_88" data-name="Path 88" class="cls-60" d="M96.65,230.32l-22.6,39.14,22.6,39.15h45.2l22.6-39.15-22.6-39.14Z"/><path id="Path_89" data-name="Path 89" class="cls-61" d="M416.19,322.56l-22.6,39.15,22.6,39.14h45.2L484,361.71l-22.6-39.15Z"/><path id="Path_90" data-name="Path 90" class="cls-62" d="M496.07,368.68l-22.6,39.14L496.07,447h45.2l22.6-39.15-22.6-39.14Z"/><path id="Path_91" data-name="Path 91" class="cls-63" d="M496.07,184.19l-22.6,39.15,22.6,39.14h45.2l22.6-39.14-22.6-39.15Z"/><path id="Path_92" data-name="Path 92" class="cls-64" d="M416.19,138.07l-22.6,39.15,22.6,39.14h45.2L484,177.22l-22.6-39.15Z"/><path id="Path_93" data-name="Path 93" class="cls-65" d="M336.31,184.19l-22.6,39.15,22.6,39.14h45.2l22.6-39.14-22.6-39.15Z"/><path id="Path_94" data-name="Path 94" class="cls-66" d="M496.07,276.43l-22.6,39.15,22.6,39.15h45.2l22.6-39.15-22.6-39.15Z"/><path id="Path_95" data-name="Path 95" class="cls-67" d="M975.38,368.68l-22.6,39.14L975.38,447h45.2l22.6-39.15-22.6-39.14Z"/></g></g><g id="Group_5" data-name="Group 5" class="cls-68"><path id="Path_96" data-name="Path 96" class="cls-69" d="M2150.86,452.8,2113,387.07a9.68,9.68,0,0,0,3.6-7.64,9.56,9.56,0,0,0-4.11-7.64l38.1-66a14.72,14.72,0,0,0,7.05,1.53,15.42,15.42,0,0,0,15.11-14.73l0-2.37A15.49,15.49,0,0,0,2157,276.43a16.82,16.82,0,0,0-6.2,1.4l-36.87-64a12.29,12.29,0,1,0-19.32-11.2l-79,0a10.17,10.17,0,0,0-10.18-9,11.18,11.18,0,0,0-3.57.77l-2.12,1.15a10,10,0,0,0-.17,16.3L1960.87,279a13.42,13.42,0,0,0-5.82-1.2,13.78,13.78,0,0,0-13.45,12.44h-73.8a12.15,12.15,0,0,0-18-9.13l-38-65.91a13.86,13.86,0,0,0,5.89-11.54,13.57,13.57,0,0,0-6.14-11.12l38.74-67.1a10.79,10.79,0,0,0,4.54,1,10.08,10.08,0,0,0,9.81-9V115a10.06,10.06,0,0,0-10.19-8.83,10.22,10.22,0,0,0-4.07.94l-2,1.28a10.25,10.25,0,0,0-3.86,8.06,9.87,9.87,0,0,0,3.82,7.63l-38.83,67.23a13.83,13.83,0,0,0-5.81-1.14,13.66,13.66,0,0,0-13.37,12.39h-74.87A12.23,12.23,0,0,0,1703.09,192,12.37,12.37,0,0,0,1691,204.5a12.21,12.21,0,0,0,4.54,9.25L1657.3,280a12.17,12.17,0,0,0-16,6.43,11.76,11.76,0,0,0-.92,3.63h-78.86a10,10,0,0,0-10.23-9.13,9.27,9.27,0,0,0-4,.94l-38.36-66.5a14,14,0,0,0,6-11.64,13.66,13.66,0,0,0-6.28-11.28l37.69-65.15a11.48,11.48,0,0,0,5.22,1.1,12.31,12.31,0,0,0-.47-24.61,11.21,11.21,0,0,0-4.8,1.07l-2,1.18a12.22,12.22,0,0,0,0,20l-37.68,65.23a14,14,0,0,0-5.64-1.06,13.73,13.73,0,0,0-13.41,12.23h-78.13a10.18,10.18,0,0,0-10.15-8.54,9.86,9.86,0,0,0-3.35.68l-40.44-70a10.13,10.13,0,0,0,2.78-14,10,10,0,0,0-2.87-2.84l-2.2-1.06a9.84,9.84,0,0,0-3.56-.6,10.13,10.13,0,1,0,.37,20.25h0a9.42,9.42,0,0,0,3.32-.64l40.4,70a10.12,10.12,0,0,0-.29,16.46l-38.93,67.36a13.07,13.07,0,0,0-5.26-1.19,12.39,12.39,0,0,0-12,11.68h-76.27A13.68,13.68,0,0,0,1247,277.37a12.53,12.53,0,0,0-5,1.06l-38.36-66.5a10.11,10.11,0,1,0-16-9.6h-80.88a10.68,10.68,0,0,0-10.91-10.18,9.87,9.87,0,0,0-3.9.81L1052,124a9.81,9.81,0,0,0,4.12-8.28,10.21,10.21,0,0,0-4.2-8l-2.08-1.15a8.58,8.58,0,0,0-4-.76,10.06,10.06,0,0,0-9.84,9l-79.66-.09a11.73,11.73,0,0,0-11.79-10.35,14.53,14.53,0,0,0-4.55,1L902.11,39.63a13.74,13.74,0,0,0,.55-23.09l-2.3-1.28a14.41,14.41,0,0,0-5.68-1.14,13.81,13.81,0,0,0-13.49,13l.12,2.38a13.77,13.77,0,0,0,13.88,12.14,16.67,16.67,0,0,0,4.79-1l38,65.9a11.68,11.68,0,0,0-.08,19l-37.65,65.18a13.22,13.22,0,0,0-5.48-1.06,13.72,13.72,0,0,0-13.45,12.52H807a13.79,13.79,0,0,0-19.35-10.65l-38-65.91a11.7,11.7,0,0,0,2.92-16.28,11.88,11.88,0,0,0-2.71-2.77l-2-1.19a11.14,11.14,0,0,0-5.17-1.15,11.66,11.66,0,0,0-11.37,10.35H651.63A10.17,10.17,0,0,0,641.37,105a9.49,9.49,0,0,0-4,.88l-2,1.28a10.17,10.17,0,0,0-4,8.14,10,10,0,0,0,4.25,8l-39.77,68.83a12.52,12.52,0,0,0-5.22-1.14,11.74,11.74,0,0,0-11.46,10.65l0,2.38a11.82,11.82,0,0,0,11.84,10.52,14,14,0,0,0,4.28-.94l12.14,21.1,25.63,44.73A13.75,13.75,0,0,0,633,302l-36.88,63.41a14.22,14.22,0,0,0-5.82-1.24,13.87,13.87,0,0,0-13.49,12.7l0,2.41a13.74,13.74,0,1,0,21.35-12.73L635,303.22a14.29,14.29,0,0,0,6.2,1.35,13.75,13.75,0,0,0,13.41-12.34h78a10.1,10.1,0,0,0,10.19,9,10.72,10.72,0,0,0,3.9-.89l2-1.27a10.17,10.17,0,0,0,4-8.15,10,10,0,0,0-4.08-7.89l38.54-66.63a13.92,13.92,0,0,0,6.41,1.4,13.68,13.68,0,0,0,13.44-13.2l74.23,0a13.79,13.79,0,0,0,18.93,11.5L938.18,282a10.73,10.73,0,0,0-4.2,8.7,10.51,10.51,0,0,0,4.84,8.7L901.51,363.9a15.25,15.25,0,0,0-7.26-1.65,15.49,15.49,0,0,0-15.2,15.14l.13,2.38a15.49,15.49,0,1,0,24.36-14.6l37.39-64.71a10.06,10.06,0,0,0,4,.68,10.65,10.65,0,0,0,10.36-8.87l77.19,0a13.7,13.7,0,0,0,14,13,14.27,14.27,0,0,0,5.39-1.18L1088,366.87a13.76,13.76,0,1,0,22.11,13l78,0a10.12,10.12,0,0,0,10.11,8.32,9.82,9.82,0,0,0,3.13-.6l2.17-1.06a10.19,10.19,0,0,0,4.67-8.66,10,10,0,0,0-4.2-8l38.23-66.12a13.69,13.69,0,0,0,17.79-7.64,13.94,13.94,0,0,0,.92-3.86h76.36a12.3,12.3,0,0,0,12.39,10.57A11.93,11.93,0,0,0,1354,302l39.59,68.7a10,10,0,0,0-2.1,14,9.59,9.59,0,0,0,2.19,2.17l-39.51,68.37a12.69,12.69,0,0,0-5.35-1.19,12.36,12.36,0,0,0-12,11v2.34a12.28,12.28,0,1,0,19.44-11l39.5-68.4a10.42,10.42,0,0,0,4.08.84,10.14,10.14,0,0,0,9.85-9h79.23a12.39,12.39,0,0,0,12.48,11.49,11.74,11.74,0,0,0,4.45-1l2.08-1.1a12.23,12.23,0,0,0,0-20.54l39.6-68.54a10.8,10.8,0,0,0,4.24.8,10.11,10.11,0,0,0,9.85-8.7h78.86a12.35,12.35,0,0,0,12.43,11.3,11.66,11.66,0,0,0,4.54-1l36.66,63.58a15.47,15.47,0,0,0,.14,24.87l2,1.27a15.47,15.47,0,0,0,22.54-12.35l74.82,0a10.1,10.1,0,1,0,16.33-9.42l39.47-68.28a12.59,12.59,0,0,0,6.5,1.78,12.32,12.32,0,0,0,12-11.63h73.67a13.8,13.8,0,0,0,14,12.65A12.87,12.87,0,0,0,1961,304l38.16,66.12a10.83,10.83,0,0,0-4.38,8.87,10.7,10.7,0,0,0,21.31,1.14h81.52a9.54,9.54,0,0,0,9.68,9,8.88,8.88,0,0,0,3.69-.8l37.9,65.69a15.25,15.25,0,0,0-6.8,13,15.45,15.45,0,0,0,15.67,15.22h.08a15.62,15.62,0,0,0,15.2-14.51l0-2.42a15.49,15.49,0,0,0-15.75-14A15.25,15.25,0,0,0,2150.86,452.8ZM907.62,377.48a12.89,12.89,0,1,1,0-.2ZM734.9,291.24a7.63,7.63,0,1,1,0,.18Zm-94.22-11.75A11.33,11.33,0,1,1,629.56,291h0a11.32,11.32,0,0,1,11.1-11.54Zm-40.4-76.86a9.21,9.21,0,1,1,0-.18ZM743,125.44a9.38,9.38,0,1,1,9.16-9.6v0a9.39,9.39,0,0,1-9.15,9.55Zm42.52,67.34A13.73,13.73,0,0,0,782,211.86a14,14,0,0,0,3,3.17l-38.53,66.71a10.06,10.06,0,0,0-13.14,5.44,10.19,10.19,0,0,0-.69,2.67l-78-.09a13.76,13.76,0,0,0-14-12.69,14.07,14.07,0,0,0-5.31,1.15l-37.77-65.74a11.68,11.68,0,0,0,.34-19l39.81-68.88a10.63,10.63,0,0,0,4,.76,10.05,10.05,0,0,0,9.72-8.06h79.78a11.68,11.68,0,0,0,16.29,9.59ZM895.14,39.28A11.4,11.4,0,1,1,906.3,27.65h0a11.44,11.44,0,0,1-11.15,11.63Zm295.08,339a7.77,7.77,0,1,1,7.93,7.6h0a7.82,7.82,0,0,1-7.89-7.59Zm-155.44-86.44A11.35,11.35,0,1,1,1046.32,303a11.36,11.36,0,0,1-11.54-11.16ZM906.35,203.27a11.38,11.38,0,1,1-11.56-11.18A11.37,11.37,0,0,1,906.35,203.27ZM954.18,116a9.4,9.4,0,1,1-9.54-9.2A9.4,9.4,0,0,1,954.18,116Zm135.54,78.13a10.87,10.87,0,0,0-4.53,8.92,10.72,10.72,0,0,0,4.88,8.74l-38.75,67.1a14.43,14.43,0,0,0-5.44-1,13.69,13.69,0,0,0-13.36,12H955.41A10.74,10.74,0,0,0,944.5,279.7a10,10,0,0,0-4.15.94L902.49,215a13.73,13.73,0,0,0,6.24-11.76,13.57,13.57,0,0,0-6.41-11.33L940,126.79a11.63,11.63,0,0,0,5,1.15,11.89,11.89,0,0,0,11.47-10.86h3l76.52,0a10.1,10.1,0,0,0,10.22,8.95,10.88,10.88,0,0,0,3.78-.8Zm14.57,8.58a8.35,8.35,0,0,1-16.69.39V203a8.35,8.35,0,0,1,16.69-.3Zm135.5,76.86a13.75,13.75,0,0,0,0,23.17l-38.15,66a10.4,10.4,0,0,0-3.86-.71,10.14,10.14,0,0,0-9.85,9.54h-77.75v-.13a13.73,13.73,0,0,0-14-13.49,14.06,14.06,0,0,0-6.28,1.66l-36.11-62.64a13.7,13.7,0,0,0-.22-22.79L1092.44,213a12.18,12.18,0,0,0,3.69.6,10.65,10.65,0,0,0,10.32-8.83l81,0a10.16,10.16,0,0,0,10.23,9.25,9.71,9.71,0,0,0,3.82-.89Zm18.75,11.33A11.33,11.33,0,1,1,1247,279.71a11.33,11.33,0,0,1,11.53,11.16Zm91.38-166.95a7.75,7.75,0,1,1,7.57-7.87A7.75,7.75,0,0,1,1349.92,123.92Zm49.6,247.16a7.75,7.75,0,1,1-7.6,7.9,7.83,7.83,0,0,1,7.61-7.91Zm7.6-167.17a7.74,7.74,0,1,1-7.89-7.6,7.73,7.73,0,0,1,7.89,7.6v0Zm94.26,11.46a11.38,11.38,0,1,1,11.16-11.59h0a11.49,11.49,0,0,1-11.16,11.58Zm43.89,67.78a10.16,10.16,0,0,0-3.91,8.1,10.4,10.4,0,0,0,3.82,7.68l-39.68,68.71a12.32,12.32,0,0,0-16.51,10h-79.36a10,10,0,0,0-10.14-8.92,9.06,9.06,0,0,0-3.7.81l-39.59-68.67a12.2,12.2,0,0,0,.3-20.2l38.92-67.3a10.4,10.4,0,0,0,4.15.84,10.13,10.13,0,0,0,9.89-9.37l78,0a13.8,13.8,0,0,0,14,12.9,14,14,0,0,0,5.39-1.24Zm14,7.76a7.75,7.75,0,1,1-7.9-7.6h0a7.72,7.72,0,0,1,7.89,7.52v.07ZM1846.92,116.4a7.75,7.75,0,1,1,7.9,7.64A7.75,7.75,0,0,1,1846.92,116.4ZM1703.09,365.56a13.09,13.09,0,1,1-12.85,13.37A13.09,13.09,0,0,1,1703.09,365.56Zm10.15-161.48a9.94,9.94,0,1,1-10.07-9.69,10,10,0,0,1,10.07,9.69Zm134.48,78.46a12.41,12.41,0,0,0-4.36,9.51,12.16,12.16,0,0,0,4.11,8.91L1808,369.42a9.43,9.43,0,0,0-4.63-1.06,10.1,10.1,0,0,0-9.85,9.33h-74.72a15.53,15.53,0,0,0-15.7-14.55,15.23,15.23,0,0,0-7,1.87l-36.59-63.4a12.27,12.27,0,0,0,3.43-17,12.13,12.13,0,0,0-3.47-3.45l38.12-66.08a12.1,12.1,0,0,0,6,1.48,12.25,12.25,0,0,0,12.06-11.62l74.74,0a13.67,13.67,0,0,0,13.91,12.65,14.32,14.32,0,0,0,5.36-1.19Zm17.87,9.13a9.93,9.93,0,1,1-10.14-9.71h0a9.9,9.9,0,0,1,10.1,9.7v0Zm139.71,78.77a8.48,8.48,0,0,1,8.53,8.23,8.38,8.38,0,0,1-16.76.3,8.48,8.48,0,0,1,8.23-8.53Zm8.06-166.79a7.71,7.71,0,0,1-7.47,7.94h-.08a7.72,7.72,0,1,1-.23-15.43,7.73,7.73,0,0,1,7.78,7.49Zm130.85,88.48A13.11,13.11,0,1,1,2157.57,305h0a13.13,13.13,0,0,1-13.32-12.86Zm-34,78.52a9.46,9.46,0,0,0-12.44,7.17h-81.65a10.8,10.8,0,0,0-10.83-9.76,13.24,13.24,0,0,0-4.07.93L1963,302.83a13.71,13.71,0,0,0,.17-22.57l38.67-67a10.49,10.49,0,0,0,4,.73,10.13,10.13,0,0,0,9.8-9h79a12.33,12.33,0,0,0,17.28,10.1L2148.74,279a15.75,15.75,0,0,0-6.92,13.25,15.3,15.3,0,0,0,6.54,12.3Zm-3,16.12a7.15,7.15,0,1,1,7-7.29v.08a7.15,7.15,0,0,1-7,7.21Z"/><path id="Path_97" data-name="Path 97" class="cls-70" d="M499.44,203.74l-.05-2.36a10.12,10.12,0,1,0-16.1,9.63l-39.47,67.7a11.21,11.21,0,0,0-5.21-1.21,11.79,11.79,0,0,0-11.47,10.88l-77.76-.3a11.65,11.65,0,0,0-16.59-9.56l-2,1.2a11.86,11.86,0,0,0-4.83,9.68,11.68,11.68,0,0,0,4.92,9.23l-1.1,1.89-37,63.45a13.77,13.77,0,0,0-19.15,11.56l-74.53-.34a13.73,13.73,0,0,0-13.92-12.63,13.16,13.16,0,0,0-5.17,1.12l-36.57-63.94a13.72,13.72,0,0,0,3.12-19.17,13.88,13.88,0,0,0-3.26-3.23l38.5-66a11.69,11.69,0,0,0,5.07,1.16,11.29,11.29,0,0,0,11-9.87L198,200a11.34,11.34,0,0,0-22.63,1.26,11.17,11.17,0,0,0,4.45,8.76l-38.55,66.15A13.6,13.6,0,0,0,121.79,287l-77.38-.3a10.1,10.1,0,1,0-16.3,9.63l2,1.31a10.22,10.22,0,0,0,4.55,1,10.08,10.08,0,0,0,9.86-9.57l77.19.34a13.75,13.75,0,0,0,13.93,12.91,14,14,0,0,0,5.51-1.25l36.56,63.83a13.72,13.72,0,0,0-.1,22.68l-37.95,65.19a12.28,12.28,0,0,0-5.52-1.3,11.72,11.72,0,0,0-11.42,10.68v2.42a11.75,11.75,0,0,0,23.42-1.55,11.54,11.54,0,0,0-4.5-8.94l38.06-65.34a13.72,13.72,0,0,0,19.39-11.22l74.52.34a13.73,13.73,0,0,0,13.93,12.43,13,13,0,0,0,5.08-1.06l36.71,64.17a13.68,13.68,0,0,0-3.88,19,13.94,13.94,0,0,0,3.44,3.58l-38.64,66.24a10.78,10.78,0,0,0-4.16-.81,10.13,10.13,0,0,0,.38,20.26,11.61,11.61,0,0,0,3.64-.77l2.08-1.12a10.11,10.11,0,0,0,.1-16.34L331,477.24a14.24,14.24,0,0,0,6.29,1.4,13.8,13.8,0,0,0,13.44-13l72.2.34a15.38,15.38,0,0,0,16.41,14.28,15.19,15.19,0,0,0,5.64-1.5l37.49,65.62a10.06,10.06,0,0,0-4.36,8.51,10.21,10.21,0,0,0,4.12,7.93l2.08,1.21a10.32,10.32,0,0,0,4.1.82,10.13,10.13,0,1,0-.38-20.26,9.26,9.26,0,0,0-3.44.73L447,477.56a15.55,15.55,0,0,0,6.77-13.11A15.39,15.39,0,0,0,447,452l37.91-65.14a10.4,10.4,0,0,0,4.55,1,10.2,10.2,0,0,0,9.86-8.95l0-2.37a10.06,10.06,0,0,0-10.16-9,10.35,10.35,0,0,0-3.87.88l-39.75-69.55a11.64,11.64,0,0,0,.33-19l39.47-67.66a9.59,9.59,0,0,0,4.25.87A10.05,10.05,0,0,0,499.44,203.74ZM488,544.94a7.74,7.74,0,1,1-7.6,7.88,7.74,7.74,0,0,1,7.6-7.88Zm-194,6.43a7.74,7.74,0,1,1-7.92-7.54h0a7.7,7.7,0,0,1,7.88,7.5v0ZM42.23,288.43a7.74,7.74,0,1,1-7.88-7.64A7.74,7.74,0,0,1,42.23,288.43ZM177.7,201.24a9,9,0,1,1,9.13,8.85,9,9,0,0,1-9.13-8.85Zm19.09,174.87a11.37,11.37,0,1,1-11.55-11.17h0a11.32,11.32,0,0,1,11.55,11.11v.06Zm284.76,1.79a7.72,7.72,0,0,1,7.58-7.88h.06a7.71,7.71,0,1,1-7.64,7.88Zm-144.8,75.64a11.09,11.09,0,1,1-.17,0ZM347.1,289a9.38,9.38,0,1,1-9.57-9.19h0a9.36,9.36,0,0,1,9.57,9.12Zm80.13,1.79A11.7,11.7,0,0,0,439,301a12.43,12.43,0,0,0,4.12-.86L483,369.82A10.08,10.08,0,0,0,481.35,384a10,10,0,0,0,1.54,1.57l-38,65.23a15.46,15.46,0,0,0-22.05,12.63l-72.3-.3a13.74,13.74,0,0,0-13.88-12,13.88,13.88,0,0,0-5.27,1.16l-36.65-64.12a13.74,13.74,0,0,0,.09-23l38-65.23a12,12,0,0,0,5,1.05,11.67,11.67,0,0,0,11.4-10.44Zm69.93-87.92a7.74,7.74,0,1,1-7.85-7.6A7.79,7.79,0,0,1,497.16,202.88Z"/></g><g id="Group_6" data-name="Group 6" class="cls-71"><path id="Path_98" data-name="Path 98" class="cls-72" d="M1647.75,165a11.75,11.75,0,0,0,11.94-10.65l0-1.84a11.75,11.75,0,0,0-23.47.55,11.57,11.57,0,0,0,5.16,9.88l-28.75,49.82a6.72,6.72,0,0,0-2.8-.61,7.23,7.23,0,0,0-7.33,6.82H1540.7a8.11,8.11,0,0,0-16.16.88,8.21,8.21,0,0,0,3.32,6.72l-28.94,50.14a9.74,9.74,0,0,0-4.08-.9,10.45,10.45,0,0,0-10.59,9.59h-55.87a9.33,9.33,0,0,0-9.14-8.81,9.49,9.49,0,0,0-4.93,1.34l-29.93-51.78A7.66,7.66,0,1,0,1372,219l-56.74,0a11.73,11.73,0,0,0-12.73-10.64,11.86,11.86,0,0,0-4.36,1.27l-1.54,1a11.73,11.73,0,0,0-2.53,16.4,11.34,11.34,0,0,0,2.43,2.46l-27.81,48.21a8.86,8.86,0,0,0-3.44-.78,9.38,9.38,0,0,0-9.43,8.57H1196a7.67,7.67,0,0,0-7.47-6.6,8.27,8.27,0,0,0-3.22.61l-30-52a9.28,9.28,0,0,0,0-15.58l-1.58-.84a9.12,9.12,0,0,0-3.38-.74,9.4,9.4,0,0,0-9.46,8.72h-60.09a7.54,7.54,0,0,0-8.23-6.79,7.86,7.86,0,0,0-2.33.61l-30-51.88a9.2,9.2,0,0,0,3.86-7.34,9.32,9.32,0,0,0-18.6-1v1.76a9.39,9.39,0,0,0,9.12,8.38,9.61,9.61,0,0,0,4-.9l30,51.85a7.6,7.6,0,0,0-1.7,10.63,7.38,7.38,0,0,0,1.64,1.66l-30,52.1a9.15,9.15,0,0,0-3.31-.68,9.34,9.34,0,0,0-9.4,8H968a10.38,10.38,0,0,0-11.26-9.42,10.2,10.2,0,0,0-2.93.7l-29-50.14a7.61,7.61,0,0,0,3.19-6.06,7.72,7.72,0,0,0-3.54-6.56l-1.64-.8a7.5,7.5,0,0,0-2.39-.45,7.66,7.66,0,0,0-7.66,6.31l-59.12,0A10.43,10.43,0,1,0,836.91,229l-27.46,47.56a11.1,11.1,0,0,0-4.09-.9,10.4,10.4,0,0,0-10.59,9.89l-58.54,0a8.08,8.08,0,0,0-7.86-6.73,7.85,7.85,0,0,0-3,.51L697,230.32a11.74,11.74,0,1,0-18.48-11.08l-.1,1.8a11.75,11.75,0,0,0,17,10.24l28.3,49a8,8,0,0,0-3.67,6.6,8.11,8.11,0,0,0,3.18,6.6l-28.77,49.88A10.46,10.46,0,0,0,680.16,352l-56.29,0a10.38,10.38,0,0,0-10.2-10,10.52,10.52,0,0,0-4.87,1.06l-29.22-50.53a7.58,7.58,0,0,0,.06-12.17l-1.54-1a8.19,8.19,0,0,0-3-.68,7.68,7.68,0,0,0-7.73,6.86H508.22a10.43,10.43,0,0,0-10.16-9.37,10.88,10.88,0,0,0-4.7,1l-27.94-48a10.42,10.42,0,1,0-16.18-9.66l0,1.84a10.53,10.53,0,0,0,10.24,9.62,10.66,10.66,0,0,0,4.41-.94l28,48.09a10.44,10.44,0,0,0-2.38,14.56,10.58,10.58,0,0,0,2.54,2.5l-19.43,33.92-9.21,16a10.34,10.34,0,0,0-3.25-.71,9,9,0,0,0-9,8l0,1.8a8.9,8.9,0,0,0,8.69,8.07,9.32,9.32,0,0,0,4-.86l30.15,52.2a7.56,7.56,0,0,0-3.21,6.08,7.69,7.69,0,0,0,3,6.18l1.54,1a7.41,7.41,0,0,0,3,.67,7.73,7.73,0,0,0,7.79-7.3h60.34a8.85,8.85,0,0,0,8.63,7.85,8.45,8.45,0,0,0,3.92-.87l1.55-.9A8.88,8.88,0,0,0,582.35,414a9,9,0,0,0-2.09-2l28.84-50a10.46,10.46,0,0,0,14.67-8.08h56.39a10.4,10.4,0,0,0,10.2,9.5,10,10,0,0,0,4.15-.81L723.06,412a8.88,8.88,0,0,0,.06,14.42l-28.81,50a12.16,12.16,0,0,0-3.63-.74,10.42,10.42,0,0,0-10.52,9.2l-.1,1.8a10.47,10.47,0,0,0,10.23,9.88,10.81,10.81,0,0,0,4.31-.86l1.74-1a10.4,10.4,0,0,0-.42-17.51l28.78-49.85a11,11,0,0,0,3.44.77,8.89,8.89,0,0,0,8.94-7.85l60.42-.07A7.63,7.63,0,0,0,805,427a6.45,6.45,0,0,0,3-.57l1.58-.87a7.73,7.73,0,0,0,3.18-6.09,7.4,7.4,0,0,0-3.12-6.27l30.15-52.27a7.59,7.59,0,0,0,3,.61,8.09,8.09,0,0,0,8.27-7.72h61.34a7.67,7.67,0,0,0,15.26-1,7.58,7.58,0,0,0-3.1-6.28l29.1-50.43a9.58,9.58,0,0,0,3.84.8A10.37,10.37,0,0,0,968,287.34h57.84a9.4,9.4,0,0,0,9.14,8.86,10,10,0,0,0,4-.9l29.52,51.08a7.68,7.68,0,0,0-1.58,10.75,7.58,7.58,0,0,0,1.8,1.73L1038.08,412a7,7,0,0,0-2.51-.49,7.68,7.68,0,0,0-.29,15.36,7.52,7.52,0,0,0,2.7-.46l1.67-.8a7.69,7.69,0,0,0,.07-12.81l30.67-53.1a7.37,7.37,0,0,0,2.54.51,7.71,7.71,0,0,0,7.69-6.47h59.25A10.42,10.42,0,0,0,1150,363a10.69,10.69,0,0,0,4.29-.8l28.57,49.47a9.27,9.27,0,0,0-2.29,12.9,9.58,9.58,0,0,0,2.29,2.29l1.55.9a8.63,8.63,0,0,0,3.64.81,9.34,9.34,0,0,0,.51-18.67h-.16a8.87,8.87,0,0,0-4,.83l-28.58-49.4a10.35,10.35,0,0,0,4.76-8.56,10.56,10.56,0,0,0-4.54-8.82l29.1-50.43a6.9,6.9,0,0,0,3.06.71,7.59,7.59,0,0,0,7.75-6.92h59.8a9.21,9.21,0,0,0,12.8,7.63l29,50.24a9.25,9.25,0,0,0-3.43,7,9.37,9.37,0,0,0,9.16,9.49,9.27,9.27,0,0,0,9.37-8h56.78a10.4,10.4,0,0,0,14.54,8.52l29.45,51a7.5,7.5,0,0,0-2.9,5.79,7.76,7.76,0,0,0,2.93,6.11l1.54,1a8.07,8.07,0,0,0,3.1.71,7.62,7.62,0,0,0,7.72-6.7v-1.8a7.65,7.65,0,0,0-7.43-6.86,8.23,8.23,0,0,0-3.45.77l-29.38-50.88a10.33,10.33,0,0,0,4.66-8.43,10.53,10.53,0,0,0-4.47-8.76l28.84-50a9.21,9.21,0,0,0,12.52-3.57,9.11,9.11,0,0,0,1.09-3.35h56a10.44,10.44,0,0,0,10.21,9.43,10,10,0,0,0,4.4-.9l29.39,50.86a7.58,7.58,0,0,0-1.67,10.6,7.87,7.87,0,0,0,1.79,1.76l1.61.86a8.18,8.18,0,0,0,2.7.59,7.72,7.72,0,0,0,7.73-6.8l59.9,0a9.32,9.32,0,1,0,14.65-8.5l28-48.5a12.72,12.72,0,0,0,4.7,1.06,11.75,11.75,0,0,0,11.88-10.5l0-1.8a11.7,11.7,0,0,0-11.46-11.17,11.23,11.23,0,0,0-5.34,1.16l-28.9-50a7.2,7.2,0,0,0,1.86-10,7.36,7.36,0,0,0-1.47-1.58l28.73-49.85A11.73,11.73,0,0,0,1647.75,165ZM690,230.77a10,10,0,0,1,.15-19.9h.2a10,10,0,0,1-.35,19.9Zm-114.9,49.82a6,6,0,0,1,5.76,6,5.88,5.88,0,1,1-5.76-6Zm-85.87,6a8.63,8.63,0,1,1,8.5,8.76h-.07a8.61,8.61,0,0,1-8.43-8.76ZM459.79,360.6a7.13,7.13,0,1,1,7.24-7,7.16,7.16,0,0,1-7.24,7Zm122.43,58.77a7.09,7.09,0,0,1-7.19,7h0a7.12,7.12,0,0,1,.25-14.23h0a7.09,7.09,0,0,1,7,7.23v0Zm-3.54-8.3a9,9,0,0,0-3.38-.75,8.85,8.85,0,0,0-9,8H505.81a7.63,7.63,0,0,0-7.37-6.12,8.08,8.08,0,0,0-3,.58l-30.19-52.23a8.85,8.85,0,0,0,1.88-12.38,8.59,8.59,0,0,0-2.14-2.07l28.64-49.85a10.75,10.75,0,0,0,4,.86,10.44,10.44,0,0,0,10.59-9.62l59.15-.06a7.66,7.66,0,0,0,7.44,6.72,7.46,7.46,0,0,0,3-.58l29.22,50.59a10.4,10.4,0,0,0-2,14.57,10.28,10.28,0,0,0,2.4,2.3Zm120.43,75.21a8.63,8.63,0,1,1-8.46-8.82,8.61,8.61,0,0,1,8.46,8.82Zm221.3-271.67a5.88,5.88,0,1,1-6,5.76,5.86,5.86,0,0,1,6-5.76ZM805.29,277.46a8.63,8.63,0,1,1-8.75,8.5v0A8.64,8.64,0,0,1,805.29,277.46Zm-114.9,84.1a8.61,8.61,0,0,1,.29-17.22h0a8.61,8.61,0,1,1-.29,17.22Zm37.75,64.72a7.13,7.13,0,1,1,7.26-7A7.13,7.13,0,0,1,728.14,426.28Zm80-14a8.27,8.27,0,0,0-2.86-.6,7.66,7.66,0,0,0-7.76,6.78l-58,0h-2.31a9,9,0,0,0-8.7-8.23,8.79,8.79,0,0,0-3.83.87l-28.54-49.37a10.29,10.29,0,0,0,4.86-8.59,10.43,10.43,0,0,0-4.73-8.92l28.7-49.8a7.37,7.37,0,0,0,3.16.71,8.15,8.15,0,0,0,8.27-7.72h58.47A10.43,10.43,0,0,0,805,296.52a10.75,10.75,0,0,0,4.12-.75l29.39,50.89a8.12,8.12,0,0,0-3.7,6.63,8.2,8.2,0,0,0,3.44,6.76Zm34.69-52.52a6.28,6.28,0,0,1-6.21-6.35v-.06a6.33,6.33,0,1,1,6.24,6.41ZM923,345.63a7.46,7.46,0,0,0-2.9-.68,7.7,7.7,0,0,0-7.76,7l-61.44,0a8.08,8.08,0,0,0-7.82-6.7,8.88,8.88,0,0,0-2.8.46l-29.42-50.95a10.39,10.39,0,0,0,.17-17.28L838.41,230a10.86,10.86,0,0,0,4.76,1.26,10.43,10.43,0,0,0,10.59-10.24V221h59a7.7,7.7,0,0,0,7.47,7.24,7.93,7.93,0,0,0,2.93-.54l28.94,50a10.42,10.42,0,0,0,0,17.57Zm34.5-50.5a8.63,8.63,0,1,1,8.75-8.5v0a8.61,8.61,0,0,1-8.74,8.46Zm83.8,124.14a5.84,5.84,0,0,1-5.93,5.76h0a5.88,5.88,0,1,1,6-5.77Zm26.1-199.42a5.88,5.88,0,1,1,5.77,6h0a5.88,5.88,0,0,1-5.76-6Zm5.54,138.53a5.86,5.86,0,1,1,6-5.77,5.86,5.86,0,0,1-6,5.77Zm85.93-5.67a8.61,8.61,0,1,1-8.46-8.79,8.61,8.61,0,0,1,8.46,8.79Zm-4.34-9.65a10.72,10.72,0,0,0-4.09-.94,10.45,10.45,0,0,0-10.59,9.79l-59.15,0a7.69,7.69,0,0,0-7.5-7.11,7.8,7.8,0,0,0-3.16.64l-29.51-51.05a9.23,9.23,0,0,0,2.31-12.86,9.36,9.36,0,0,0-2.53-2.45l30-52.08a6.79,6.79,0,0,0,2.8.61,7.59,7.59,0,0,0,7.69-6.76H1141a9.33,9.33,0,0,0,12.52,7.56l30.1,52.11a7.89,7.89,0,0,0-2.9,5.83,7.69,7.69,0,0,0,3,6.14Zm33.8-50.66a5.86,5.86,0,1,1,6-5.76,5.86,5.86,0,0,1-6,5.76Zm230.11,120.79a5.89,5.89,0,1,1-6,5.79h0a5.88,5.88,0,0,1,6-5.79Zm-124.81-193.3a10,10,0,1,1,9.76,10.14h0a9.92,9.92,0,0,1-9.75-10.07Zm9.79,140a7.52,7.52,0,1,1,7.66-7.38A7.52,7.52,0,0,1,1303.41,359.86Zm80.72-16.74a10.52,10.52,0,0,0-4.06-.9,10.35,10.35,0,0,0-10.55,9.58l-56.68,0a9.26,9.26,0,0,0-13.68-7.69L1270.26,294a9.31,9.31,0,0,0,2.66-12.89,9.41,9.41,0,0,0-2.63-2.63L1298,230.44a11.47,11.47,0,0,0,5.31,1.41,11.78,11.78,0,0,0,11.91-11h56.66a7.67,7.67,0,0,0,7.47,7.08,7.25,7.25,0,0,0,3.51-.81l30,51.92a9.2,9.2,0,0,0-3.12,6.76,9.37,9.37,0,0,0,3.31,7.2ZM1419,293.43a7.52,7.52,0,1,1,7.66-7.37,7.52,7.52,0,0,1-7.66,7.37Zm107.37-73.58a6.36,6.36,0,1,1,6.25,6.48,6.36,6.36,0,0,1-6.25-6.48Zm6.4,138.68a5.83,5.83,0,0,1-5.76-5.91v0a5.84,5.84,0,1,1,5.76,5.95ZM1648,276a9.93,9.93,0,1,1-10.1,9.76h0A9.93,9.93,0,0,1,1648,276Zm-7,.35a11.61,11.61,0,0,0-5,9.33,11.94,11.94,0,0,0,5.24,10.05l-27.93,48.44a9.33,9.33,0,0,0-13.1,7.66h-59.9A7.67,7.67,0,0,0,1533,345a7.8,7.8,0,0,0-3,.54l-29.32-50.82a10.42,10.42,0,0,0-.13-17.12l28.94-50.17a9.59,9.59,0,0,0,3.08.7,8.19,8.19,0,0,0,8.21-7.4h61.92a7.14,7.14,0,0,0,9.43,5.44Zm-25.91-56.9a5.43,5.43,0,1,1-5.38-5.47h.06a5.48,5.48,0,0,1,5.32,5.47Z"/><path id="Path_99" data-name="Path 99" class="cls-73" d="M383.07,345.62a7.37,7.37,0,0,0-3.23.66L349.92,295a8.84,8.84,0,0,0-.26-14.41l30.14-52.73a8.07,8.07,0,0,0,2.94.66,7.63,7.63,0,0,0,7.7-6.79l0-1.8a7.73,7.73,0,0,0-7.48-6.78,7.81,7.81,0,0,0-3.46.77l-28.75-49.4a11.63,11.63,0,0,0,5.14-9.46,11.77,11.77,0,0,0-5.14-9.94l28.47-49.85a6.85,6.85,0,0,0,2.6.55,7.69,7.69,0,0,0,.3-15.37A8,8,0,0,0,379,81l-1.58.91a7.67,7.67,0,0,0,.18,12.48l-28.42,49.76a11.65,11.65,0,0,0-16.72,9.69l-54.76.25a10.46,10.46,0,0,0-10.2-9.86,10.65,10.65,0,0,0-4.77,1.06l-29.29-50.2a7.67,7.67,0,0,0-.08-12.4l-1.58-.85a9,9,0,0,0-2.75-.59,7.69,7.69,0,0,0-.29,15.37,8.11,8.11,0,0,0,3.15-.61l29.3,50.24a10.37,10.37,0,0,0,.34,17.09l-27.84,48.67a9.51,9.51,0,0,0-3.86-.81,10.42,10.42,0,0,0-10.56,9.42l-56.52.26a10.41,10.41,0,0,0-11.3-9.42,10.65,10.65,0,0,0-3.4.91l-28.86-49.55a8.75,8.75,0,0,0,3.41-6.78,8.91,8.91,0,0,0-17.76-1.17v1.83a8.89,8.89,0,0,0,8.66,8.1,9.36,9.36,0,0,0,4.19-1l28.78,49.45a10.39,10.39,0,0,0-2.69,14.45,10.61,10.61,0,0,0,2.76,2.75l-27.72,48.4a10.59,10.59,0,0,0-4.18-.95,10.43,10.43,0,0,0-10.57,9.79L45.58,288a7.65,7.65,0,0,0-7.48-7.26,7.74,7.74,0,0,0-3.45.77l-1.54,1a7.66,7.66,0,1,0,12.36,7.3l58.68-.22a10.32,10.32,0,0,0,14.74,8.22L148.12,348a8.49,8.49,0,0,0-3.37,6.64,8.6,8.6,0,0,0,17.17.95l-.08-1.94a8.56,8.56,0,0,0-8.33-7.49,9,9,0,0,0-3.85.89l-29.2-50.1A10.41,10.41,0,0,0,123,282.41a10.26,10.26,0,0,0-2.44-2.48l27.73-48.48a10,10,0,0,0,3.92.84,10.41,10.41,0,0,0,10.56-9.57l56.52-.26a10.42,10.42,0,0,0,14.52,8.76l28,48.12.84,1.43a8.87,8.87,0,0,0-3.74,7,9,9,0,0,0,3.66,7.35l1.54.91a8.84,8.84,0,0,0,11.76-4.21,8.75,8.75,0,0,0,.82-3.05l59-.22a8.94,8.94,0,0,0,8.69,8.25,8.5,8.5,0,0,0,4-.92l29.93,51.35a7.66,7.66,0,1,0,12.21,7.3l0-1.8A7.63,7.63,0,0,0,383.07,345.62ZM376.14,88a5.87,5.87,0,1,1,5.76,6h0A5.89,5.89,0,0,1,376.14,88ZM228.81,94.83a5.85,5.85,0,1,1,6-5.73h0a5.83,5.83,0,0,1-5.93,5.72Zm-191,199.48a5.89,5.89,0,1,1,6-5.8A5.9,5.9,0,0,1,37.84,294.31Zm115.64,53.62a6.83,6.83,0,1,1-6.93,6.72h0A6.86,6.86,0,0,1,153.48,347.93ZM152.27,230.5A8.62,8.62,0,1,1,161,222h0a8.63,8.63,0,0,1-8.76,8.48ZM383,215a5.85,5.85,0,1,1-5.94,5.76A5.85,5.85,0,0,1,383,215ZM258.7,154.55a8.62,8.62,0,1,1,8.48,8.76h0a8.64,8.64,0,0,1-8.48-8.77Zm9.07,140.5a7.1,7.1,0,1,1,7.26-7,7.1,7.1,0,0,1-7.26,7h0Zm8.94-8.11a8.87,8.87,0,0,0-8.65-7.92,9.13,9.13,0,0,0-3.82.8l-28.83-49.47a10.41,10.41,0,0,0-.07-17.46l27.8-48.63a10.38,10.38,0,0,0,14.52-8.21l54.84-.23a11.71,11.71,0,0,0,16.72,9.58L378,214.87a7.65,7.65,0,0,0-1.11,10.75,7.75,7.75,0,0,0,1.19,1.17L347.86,279.6a9.44,9.44,0,0,0-3.11-.65,8.87,8.87,0,0,0-8.95,7.77Zm106.14,72.22a6,6,0,1,1,.11,0Z"/></g><g id="Group_7" data-name="Group 7"><path id="Path_101" data-name="Path 101" class="cls-74" d="M1555.51,382.09a9.89,9.89,0,0,0-10-9,10,10,0,0,0-4,1l-24.21-42a6,6,0,0,0,1-8.45,5.87,5.87,0,0,0-1.36-1.27l24.34-42.13a10.3,10.3,0,0,0,4.5,1,9.88,9.88,0,0,0,9.67-9.43l-.05-1.54a9.85,9.85,0,0,0-10-8.8,9.67,9.67,0,0,0-4,.9l-23.56-40.84a7.85,7.85,0,1,0-12.31-7.19l-50.48,0a6.43,6.43,0,0,0-6.52-5.7,6.6,6.6,0,0,0-2.23.48l-1.37.72a6.4,6.4,0,0,0-.13,10.41L1420.08,263a8.78,8.78,0,0,0-12.28,7.18h-47.16a7.9,7.9,0,0,0-7.9-6.78,7.61,7.61,0,0,0-3.58,1l-24.29-42.11a8.77,8.77,0,0,0,2.18-12.21,8.86,8.86,0,0,0-2.33-2.28l24.76-42.86a6.25,6.25,0,0,0,2.88.67,6.48,6.48,0,0,0,6.29-5.77l0-1.51a6.38,6.38,0,0,0-7.06-5.63,6.54,6.54,0,0,0-2,.58l-1.29.82a6.46,6.46,0,0,0-2.47,5.15,6.36,6.36,0,0,0,2.42,4.9L1323.38,207a9,9,0,0,0-3.7-.72,8.8,8.8,0,0,0-8.56,7.91h-47.8a7.84,7.84,0,1,0-12.7,7.16l-24.44,42.31a8,8,0,0,0-3.13-.6,7.87,7.87,0,0,0-7.63,7l-50.39,0a6.38,6.38,0,0,0-6.92-5.82,6.27,6.27,0,0,0-2.2.6l-24.51-42.49a8.74,8.74,0,0,0,2.35-12.14,8.51,8.51,0,0,0-2.53-2.47l24.06-41.64a7.49,7.49,0,0,0,3.36.7,7.86,7.86,0,1,0-.23-15.71h-.07a7.82,7.82,0,0,0-3.08.7l-1.32.77a7.85,7.85,0,0,0,0,12.8L1129.88,207a8.63,8.63,0,0,0-3.58-.7,8.75,8.75,0,0,0-8.55,7.81h-50a6.39,6.39,0,0,0-6.46-5.45,5.72,5.72,0,0,0-2.16.45l-25.83-44.75a6.44,6.44,0,0,0-.07-10.78l-1.37-.68a6.25,6.25,0,0,0-2.27-.37,6.47,6.47,0,0,0,.25,12.93,5.94,5.94,0,0,0,2.09-.42l25.83,44.72a6.55,6.55,0,0,0-2.83,5.49,6.38,6.38,0,0,0,2.63,5l-24.86,43a8.18,8.18,0,0,0-3.38-.72,7.88,7.88,0,0,0-7.68,7.45H973a8.75,8.75,0,0,0-8.88-8.07,8.53,8.53,0,0,0-3.23.67L936.35,220.2a6.46,6.46,0,1,0-10.24-6.11l-51.66,0a6.84,6.84,0,0,0-7-6.51,6.34,6.34,0,0,0-2.51.52l-25.38-44a6.4,6.4,0,0,0,1.4-8.95,6.22,6.22,0,0,0-1.48-1.46l-1.32-.75a6.25,6.25,0,0,0-2.56-.5,6.5,6.5,0,0,0-6.29,5.72l-50.83,0a7.55,7.55,0,0,0-7.58-6.61,7.38,7.38,0,0,0-2.89.65l-24.26-42a8.69,8.69,0,0,0,.37-14.69l-1.46-.84a8.75,8.75,0,0,0-11.52,4.55,8.6,8.6,0,0,0-.71,3l0,1.52a8.83,8.83,0,0,0,8.9,7.75,9.17,9.17,0,0,0,3.06-.62l24.29,42.11a7.31,7.31,0,0,0-3.16,6.24,7.4,7.4,0,0,0,3.08,5.92l-24,41.59a8.92,8.92,0,0,0-3.5-.65,8.79,8.79,0,0,0-8.6,8H683a8.84,8.84,0,0,0-8.85-7.63,8.7,8.7,0,0,0-3.51.84l-24.31-42.13a7.47,7.47,0,0,0,1.88-10.39,7.65,7.65,0,0,0-1.73-1.77l-1.3-.75a7.12,7.12,0,0,0-3.3-.74,7.51,7.51,0,0,0-7.29,6.61H583.85a6.46,6.46,0,0,0-9.1-5.57l-1.29.8a6.4,6.4,0,0,0,.17,10.34l-25.41,44a7.25,7.25,0,0,0-3.3-.75,7.51,7.51,0,0,0-7.33,6.81l0,1.5a7.5,7.5,0,0,0,7.56,6.71,7.23,7.23,0,0,0,2.71-.57l7.78,13.47L572,263.33a8.74,8.74,0,0,0-2.28,12.14,8.52,8.52,0,0,0,2.21,2.23L548.3,318.2A8.72,8.72,0,0,0,536,325.51v1.54a8.79,8.79,0,1,0,13.65-8.13l23.54-40.44a8.49,8.49,0,0,0,3.93.87,8.82,8.82,0,0,0,8.6-7.91h49.81a6.41,6.41,0,0,0,6.52,5.77,5.83,5.83,0,0,0,2.53-.55l1.27-.8a6.36,6.36,0,0,0,1.3-8.9,6.13,6.13,0,0,0-1.35-1.34L670.43,223a9,9,0,0,0,4.08.94,8.82,8.82,0,0,0,8.6-8.45l47.4,0a8.78,8.78,0,0,0,8.9,8,8.39,8.39,0,0,0,3.21-.67l24.24,42.05a6.84,6.84,0,0,0-2.71,5.51,6.94,6.94,0,0,0,3.11,5.6l-23.82,41.24a9.52,9.52,0,0,0-4.65-1.1,9.9,9.9,0,0,0-9.69,9.7l.07,1.52a9.89,9.89,0,1,0,15.57-9.35l23.88-41.32a6.81,6.81,0,0,0,9.15-5.24l49.27,0a8.8,8.8,0,0,0,8.93,8.36,9.16,9.16,0,0,0,3.45-.8l23.14,40.1a8.59,8.59,0,0,0-3.35,7,8.78,8.78,0,0,0,17.45,1.26l49.79.05a6.5,6.5,0,0,0,6.49,5.32,7.23,7.23,0,0,0,2-.37l1.4-.67a6.56,6.56,0,0,0,3-5.54,6.46,6.46,0,0,0-2.69-5.1L961,278.89a8.7,8.7,0,0,0,3.41.62,8.79,8.79,0,0,0,8.55-8l48.8,0a7.84,7.84,0,0,0,7.91,6.76,7.53,7.53,0,0,0,2.76-.57l25.3,43.87a6.41,6.41,0,0,0-1.32,9,6.28,6.28,0,0,0,1.4,1.37l-25.26,43.68a7.78,7.78,0,0,0-10.36,3.71,7.57,7.57,0,0,0-.7,2.55v1.56a7.83,7.83,0,1,0,12.4-7l25.23-43.65a6.46,6.46,0,0,0,8.9-5.25l50.61,0a7.88,7.88,0,0,0,7.95,7.33,8.9,8.9,0,0,0,2.84-.6l1.34-.74a7.8,7.8,0,0,0,0-13.13L1156,276.63a6.42,6.42,0,0,0,9-5h50.39a7.88,7.88,0,0,0,8,7.19,7.71,7.71,0,0,0,2.88-.62l23.39,40.59a9.92,9.92,0,0,0-1.91,13.9,9.72,9.72,0,0,0,2,2l1.29.8a10,10,0,0,0,4.72,1.09,9.93,9.93,0,0,0,9.67-9l47.78,0a6.46,6.46,0,0,0,12.83-1.14,6.37,6.37,0,0,0-2.36-4.85L1348.85,278a7.81,7.81,0,0,0,11.83-6.31l47.08,0a8.76,8.76,0,0,0,8.9,8.08,8.86,8.86,0,0,0,3.48-.77l24.37,42.26a6.84,6.84,0,1,0,10.81,6.39l52,0a6.11,6.11,0,0,0,6.19,5.74,6.46,6.46,0,0,0,2.37-.55l24.18,41.94a9.89,9.89,0,1,0,15.42,8.82ZM1347.29,159.18a5,5,0,1,1,5,4.87,4.95,4.95,0,0,1-5-4.87Zm-195.14-.1a6.34,6.34,0,1,1,6.46,6.21,6.34,6.34,0,0,1-6.46-6.21ZM1029.84,164a5,5,0,1,1,4.85-5h0a4.91,4.91,0,0,1-4.8,5h-.05ZM739.37,109.91a7.26,7.26,0,1,1,7.11-7.41A7.27,7.27,0,0,1,739.37,109.91ZM552,326.11a7.27,7.27,0,1,1-7.41-7.14h0A7.27,7.27,0,0,1,552,326.1h0ZM641.94,153a6,6,0,1,1-5.86,6.12v0a6,6,0,0,1,5.86-6.09Zm-96.8,67.4a6,6,0,1,1,5.9-6.12,6,6,0,0,1-5.9,6.12Zm32,57.47a7.26,7.26,0,1,1,7.14-7.38h0a7.28,7.28,0,0,1-7.14,7.38Zm67.27-13.05a6.07,6.07,0,0,0-2.56-.47,6.46,6.46,0,0,0-6.26,5.64l-49.82,0a8.79,8.79,0,0,0-8.9-8.12,8.36,8.36,0,0,0-3.38.74l-24.14-42a7.48,7.48,0,0,0,1.91-10.41,7.39,7.39,0,0,0-1.69-1.75l25.44-44a6.62,6.62,0,0,0,2.53.44,6.49,6.49,0,0,0,6.22-5.14l50.91,0a7.5,7.5,0,0,0,10.44,6.12L669.37,208a8.77,8.77,0,0,0-2.26,12.21,8.68,8.68,0,0,0,1.91,2Zm30.1-42.31a7.26,7.26,0,1,1,7.11-7.41,7.27,7.27,0,0,1-7.11,7.41Zm72.84,103.46a8.2,8.2,0,1,1,0-.07ZM867.54,209a5.25,5.25,0,1,1-.11,0ZM765.1,159.13a6,6,0,1,1,6.09,5.89A6,6,0,0,1,765.1,159.13Zm-25.7,62.94a7.27,7.27,0,1,1,7.13-7.41,7.27,7.27,0,0,1-7.13,7.41ZM777.85,270a6.88,6.88,0,0,0-7.27-6.48,7.09,7.09,0,0,0-2.35.56L744,222.14a8.69,8.69,0,0,0,4-7.51,8.79,8.79,0,0,0-4.07-7.26l24-41.53a8,8,0,0,0,3.23.7,7.51,7.51,0,0,0,7.31-6.92h50.86a6.43,6.43,0,0,0,6.49,5.72,6.07,6.07,0,0,0,2.41-.52l25.38,44a6.71,6.71,0,0,0-2.88,5.69,6.84,6.84,0,0,0,3.1,5.62l-24.76,42.81a8.78,8.78,0,0,0-12,7Zm58.07,8.35a7.09,7.09,0,1,1,.11,0Zm32.2,55a7.27,7.27,0,1,1,7.13-7.41,7.27,7.27,0,0,1-7.13,7.41Zm67.06-13a5.84,5.84,0,0,0-2.48-.44,6.43,6.43,0,0,0-6.32,6.06l-49.62,0v-.05a8.76,8.76,0,0,0-8.92-8.6,8.37,8.37,0,0,0-4,1l-23.06-40a8.79,8.79,0,0,0-.13-14.59l24.78-42.87a7.39,7.39,0,0,0,2.34.37,6.82,6.82,0,0,0,6.61-5.64l51.73,0a6.46,6.46,0,0,0,6.51,5.89,7.12,7.12,0,0,0,2.46-.52l24.47,42.38a8.76,8.76,0,0,0,0,14.79ZM964.39,278a7.26,7.26,0,1,1,7.11-7.41,7.26,7.26,0,0,1-7.11,7.41Zm71.22,104.63a6.34,6.34,0,1,1-6.46-6.22,6.33,6.33,0,0,1,6.46,6.22Zm90.71-174.78a7.27,7.27,0,1,1-7.13,7.41,7.27,7.27,0,0,1,7.13-7.41Zm-69.8,7.38a4.85,4.85,0,1,1,0,.05v-.05Zm-26.9,61.55a6.34,6.34,0,1,1,6.21-6.46v.05a6.3,6.3,0,0,1-6.19,6.41Zm32.09,54.94a4.94,4.94,0,1,1,4.85-5,4.94,4.94,0,0,1-4.85,5Zm71.1-4.85a6.35,6.35,0,1,1-6.49-6.21,6.35,6.35,0,0,1,6.49,6.21Zm-3.6-7.2a7.34,7.34,0,0,0-2.89-.53,7.85,7.85,0,0,0-7.63,6.89L1068,326a6.47,6.47,0,0,0-6.48-5.69,6.23,6.23,0,0,0-2.37.52L1033.87,277a7.78,7.78,0,0,0,2.21-10.8,8,8,0,0,0-2-2.1l24.86-43a5.93,5.93,0,0,0,2.66.54,6.47,6.47,0,0,0,6.31-6h49.82a8.81,8.81,0,0,0,8.92,8.25,8.47,8.47,0,0,0,3.46-.8l24.53,42.56a6.4,6.4,0,0,0-1.1,9,6.19,6.19,0,0,0,1.08,1.09Zm29.51-44a5,5,0,1,1,4.84-5.05,4.95,4.95,0,0,1-4.84,5.05Zm161-67.87a7.26,7.26,0,1,1-7.13,7.38,7.25,7.25,0,0,1,7.13-7.38Zm-70.47,7.61a6.34,6.34,0,1,1,6.46,6.24,6.34,6.34,0,0,1-6.46-6.24v0Zm-25.93,61.87a6.34,6.34,0,1,1,6.22-6.46A6.33,6.33,0,0,1,1223.32,277.28ZM1255.74,335a8.37,8.37,0,1,1,8.22-8.5h0a8.34,8.34,0,0,1-8.18,8.5Zm68.78-8.55a4.95,4.95,0,1,1-5-4.85h0a5,5,0,0,1,5,4.85Zm-2.14-5.7a6.18,6.18,0,0,0-2.93-.67,6.42,6.42,0,0,0-6.29,6l-47.73,0a9.87,9.87,0,0,0-10-9.27,9.58,9.58,0,0,0-4.47,1.17l-23.39-40.5a7.82,7.82,0,0,0,3.5-6.66,7.92,7.92,0,0,0-3.53-6.44l24.36-42.16a7.76,7.76,0,0,0,3.83,1,7.87,7.87,0,0,0,7.68-7.46l47.73,0a8.75,8.75,0,0,0,8.9,8.08,8.6,8.6,0,0,0,3.46-.74l24.36,42.18a7.8,7.8,0,0,0-1,11,7.22,7.22,0,0,0,.82.84Zm30.63-43.2a6.34,6.34,0,1,1,6.21-6.46,6.33,6.33,0,0,1-6.21,6.46Zm192.36-14.66a8.37,8.37,0,1,1-8.2,8.53v0a8.42,8.42,0,0,1,8.2-8.51ZM1513.2,208.7a6.34,6.34,0,1,1-6.24,6.46,6.34,6.34,0,0,1,6.24-6.46Zm-69.48,6.41a5,5,0,1,1,5.07,4.85h0a5,5,0,0,1-5-4.85Zm-27.07,63.15a7.26,7.26,0,1,1,7.13-7.39,7.27,7.27,0,0,1-7.13,7.39Zm32,53.84a5.32,5.32,0,1,1,5.22-5.42h0a5.34,5.34,0,0,1-5.23,5.41Zm58.81-6h-52.13a6.84,6.84,0,0,0-6.93-6.19,6.12,6.12,0,0,0-2.59.58l-24.36-42.26a8.78,8.78,0,0,0,2.31-12.19,8.87,8.87,0,0,0-2.23-2.26L1446.28,221a6.44,6.44,0,0,0,8.37-3.64,6.84,6.84,0,0,0,.41-1.6h50.46a7.81,7.81,0,0,0,11,6.43L1540.1,263a9.87,9.87,0,0,0-.27,16.31l-24.42,42.23a5.64,5.64,0,0,0-2.08-.34,6.08,6.08,0,0,0-5.85,4.89Zm6,5.75a4.57,4.57,0,1,1,4.5-4.65,4.58,4.58,0,0,1-4.5,4.65h0Zm32.32,59.48a8.38,8.38,0,1,1,8.2-8.55v0a8.42,8.42,0,0,1-8.2,8.52Z"/><path id="Path_102" data-name="Path 102" class="cls-75" d="M480.26,332.57a6.54,6.54,0,0,0,6.29-5.72l0-1.54a6.43,6.43,0,0,0-6.52-5.67,6.58,6.58,0,0,0-2.43.52l-25.41-44.4a7.47,7.47,0,0,0,.23-12.15l25.18-43.2a6.86,6.86,0,0,0,2.76.54,6.45,6.45,0,0,0,6.31-6l-.07-1.49a6.46,6.46,0,1,0-10.3,6.11l-25.2,43.26a7.06,7.06,0,0,0-3.31-.77,7.5,7.5,0,0,0-7.33,7l-49.67-.18a7.49,7.49,0,0,0-7.58-6.83,7.81,7.81,0,0,0-3,.7l-1.29.77A7.49,7.49,0,0,0,377.25,274a7.64,7.64,0,0,0,1.66,1.65l-.7,1.16-23.59,40.57a8.55,8.55,0,0,0-3.63-.74,8.82,8.82,0,0,0-8.63,8.08l-47.55-.2a8.76,8.76,0,0,0-12.23-7.36l-23.34-40.82a8.79,8.79,0,0,0-.1-14.32l24.58-42.18A7.15,7.15,0,0,0,294,214.22l.05-1.62A7.25,7.25,0,1,0,282.43,219L257.8,261.2a8.75,8.75,0,0,0-12.4,7L196,268a6.46,6.46,0,0,0-12.81,1.28h0a6.4,6.4,0,0,0,2.39,4.85l1.29.85a6.44,6.44,0,0,0,9.23-5.47l49.3.22a8.74,8.74,0,0,0,9.21,8.24,8.55,8.55,0,0,0,3.22-.81l23.3,40.77a8.87,8.87,0,0,0-3.83,7.41,8.7,8.7,0,0,0,3.8,7.08l-24.26,41.66a7.41,7.41,0,0,0-10.81,6v1.51a7.5,7.5,0,0,0,15-1,7.41,7.41,0,0,0-2.88-5.72l24.32-41.71a9.2,9.2,0,0,0,3.83.8,8.82,8.82,0,0,0,8.57-8l47.58.17a8.81,8.81,0,0,0,9.61,7.92,9,9,0,0,0,2.52-.63l23.45,41a8.8,8.8,0,0,0-2.42,12.21,8.57,8.57,0,0,0,2.12,2.21L353,431.18a6.08,6.08,0,0,0-2.66-.55,6.47,6.47,0,1,0,2.59,12.46l1.32-.75a6.44,6.44,0,0,0,1.47-9,6.5,6.5,0,0,0-1.4-1.42L379,389.64a9.39,9.39,0,0,0,4,.9,8.8,8.8,0,0,0,8.6-8.3l46.11.2a9.93,9.93,0,0,0,10,9.15,10.31,10.31,0,0,0,4.08-1l24,41.88a6.42,6.42,0,0,0-.17,10.51l1.32.77a6.28,6.28,0,0,0,2.63.53,6.47,6.47,0,1,0-2.44-12.48l-24-42a9.87,9.87,0,0,0,0-16.33l24.24-41.61A6.53,6.53,0,0,0,480.26,332.57ZM281.09,213.37A5.74,5.74,0,1,1,287,219,5.75,5.75,0,0,1,281.09,213.37Zm-26.85,63a7.25,7.25,0,1,1,7.14-7.38A7.24,7.24,0,0,1,254.24,276.41Zm5.2,104.21a6,6,0,1,1-6.11-5.89,6.06,6.06,0,0,1,6.11,5.89Zm26.75-48.18a7.27,7.27,0,1,1,7.14-7.41v0a7.27,7.27,0,0,1-7.14,7.38ZM479.34,432.9a4.95,4.95,0,1,1-4.87,5h0A5,5,0,0,1,479.34,432.9ZM447.8,263.61a6,6,0,1,1,.37,11.95H448a6,6,0,1,1-.2-11.95Zm-70.5,6a6.07,6.07,0,0,1,5.91-6.12,6,6,0,1,1-5.91,6.12Zm-26,63a7.26,7.26,0,1,1,7.13-7.38,7.25,7.25,0,0,1-7.13,7.38ZM383,389a7.25,7.25,0,1,1,7.13-7.39A7.26,7.26,0,0,1,383,389h0Zm73-7.49a8.37,8.37,0,1,1-8.53-8.2h0a8.35,8.35,0,0,1,8.52,8.17v0Zm20.14-50.44L451.8,372.76a10.09,10.09,0,0,0-4.42-1,10,10,0,0,0-9.67,9.05l-46.16-.18a8.77,8.77,0,0,0-8.88-7.65,8.14,8.14,0,0,0-3.33.72l-23.47-40.95a8.78,8.78,0,0,0,2.68-12.13A8.91,8.91,0,0,0,356,318l24.27-41.66a7.79,7.79,0,0,0,3.23.67,7.48,7.48,0,0,0,7.28-6.66l49.74.2a7.49,7.49,0,0,0,7.56,6.51,6.82,6.82,0,0,0,2.64-.55l25.42,44.53a6.42,6.42,0,0,0-1.06,9,6.89,6.89,0,0,0,1,1Z"/></g><g id="Group_21" data-name="Group 21" class="cls-76"><g id="Group_8" data-name="Group 8"><path id="Path_103" data-name="Path 103" class="cls-77" d="M317,268.93c-5.4-4.88-10.69-10.16-10.69-20.18h2.1c0,9.21,4.84,14,10.15,18.76,5.33-4.8,10.17-9.55,10.17-18.76h2.1c0,10-5.28,15.3-10.69,20.18,5.41,4.88,10.69,10.15,10.69,20.17h-2.1c0-9.2-4.84-13.94-10.16-18.76-5.32,4.82-10.16,9.56-10.16,18.76h-2.1C306.35,279.08,311.64,273.81,317,268.93Z"/><path id="Path_104" data-name="Path 104" class="cls-78" d="M311.69,280.14a.71.71,0,0,0,.74.65h12.36a.7.7,0,0,0,.75-.65h0a.72.72,0,0,0-.75-.67H312.43A.71.71,0,0,0,311.69,280.14Z"/><path id="Path_105" data-name="Path 105" class="cls-79" d="M309.86,285.18a.7.7,0,0,0,.74.65h16a.66.66,0,1,0,.17-1.31H310.61a.7.7,0,0,0-.75.65Z"/><path id="Path_106" data-name="Path 106" class="cls-80" d="M315.34,275.1a.71.71,0,0,0,.75.66h5.05a.67.67,0,1,0,0-1.32h-5.05a.7.7,0,0,0-.75.64Z"/><path id="Path_107" data-name="Path 107" class="cls-81" d="M309.89,252.69a.75.75,0,0,0,.74.75h16a.74.74,0,0,0,.74-.74h0v0a.75.75,0,0,0-.74-.75h-16a.75.75,0,0,0-.74.75Z"/><path id="Path_108" data-name="Path 108" class="cls-82" d="M311.67,257.72a.72.72,0,0,0,.75.67h12.39a.73.73,0,0,0,.74-.67.71.71,0,0,0-.74-.65H312.42A.7.7,0,0,0,311.67,257.72Z"/><path id="Path_109" data-name="Path 109" class="cls-83" d="M315.34,262.77a.71.71,0,0,0,.75.66h5.05a.67.67,0,0,0,.17-1.32h-5.22A.7.7,0,0,0,315.34,262.77Z"/></g><g id="Group_9" data-name="Group 9"><path id="Path_110" data-name="Path 110" class="cls-84" d="M811,214.19a.72.72,0,0,0-.59.31l-1.82,2.58-.64-2.35-2.27-8.47a.72.72,0,0,0-1.39,0l-3.82,14.32-1.57-5.85-1-3.85a.72.72,0,0,0-.57-.53.71.71,0,0,0-.71.3l-2.52,3.54h-9.87A11.81,11.81,0,0,1,803.34,201a11.81,11.81,0,0,1,19.1,13.24Z"/><path id="Path_111" data-name="Path 111" class="cls-85" d="M794.49,215.64a.76.76,0,0,0,.59-.3l1.84-2.59.62,2.36,2.26,8.45a.74.74,0,0,0,.71.54.73.73,0,0,0,.7-.54L805,209.25l1.56,5.86,1,3.85a.72.72,0,0,0,.88.51.77.77,0,0,0,.4-.29l2.5-3.54h10.25a12.66,12.66,0,0,1-1.62,2l-16.71,16.69-16.7-16.69a11.14,11.14,0,0,1-1.61-2Z"/></g><path id="Path_112" data-name="Path 112" class="cls-86" d="M879.15,264.48a4.12,4.12,0,0,1,4,3.33h8.45a5.16,5.16,0,0,1,5.85-4.38,5,5,0,0,1,1.43.42l4.69-8.11a3.12,3.12,0,1,1,2,.7,2.89,2.89,0,0,1-1.09-.2l-4.69,8.12a5.2,5.2,0,0,1,1.19,7.25,5,5,0,0,1-.79.87l3,5.12a6.83,6.83,0,0,1,2.41-.46,6.7,6.7,0,1,1-4.18,1.47l-2.95-5.11a5.21,5.21,0,0,1-6.6-3.28,4.34,4.34,0,0,1-.21-.88h-8.45a4.1,4.1,0,1,1-4-4.86Z"/><g id="Group_11" data-name="Group 11"><path id="Path_113" data-name="Path 113" class="cls-87" d="M505.73,273.05a9.6,9.6,0,0,0,13.35,0c6.78,1.17,11.59,4.58,11.59,12.3H494.13C494.13,277.63,498.94,274.22,505.73,273.05Z"/><path id="Path_114" data-name="Path 114" class="cls-88" d="M521.76,261A9.61,9.61,0,0,1,503,265.32a9.41,9.41,0,0,1-.25-2.18A9.91,9.91,0,0,1,503,261Z"/><g id="Group_10" data-name="Group 10"><path id="Path_115" data-name="Path 115" class="cls-89" d="M502,254.65l1.06,5.23h18.71l1-5.23a5.2,5.2,0,0,0-5.18-5.19H507.18A5.2,5.2,0,0,0,502,254.65Zm6.33,0a4.08,4.08,0,1,1,4.09,4.07h0a4.09,4.09,0,0,1-4.07-4.08Z"/><path id="Path_116" data-name="Path 116" class="cls-90" d="M509.74,253.66h1.66V252a.41.41,0,0,1,.38-.41H513a.41.41,0,0,1,.39.41v1.64h1.66a.39.39,0,0,1,.39.4h0v1.21a.4.4,0,0,1-.39.4H513.4v1.65a.39.39,0,0,1-.39.4h-1.23a.4.4,0,0,1-.38-.4v-1.65h-1.66a.41.41,0,0,1-.39-.4v-1.21a.39.39,0,0,1,.38-.41Z"/></g></g><g id="Group_18" data-name="Group 18"><g id="Group_13" data-name="Group 13"><path id="Path_117" data-name="Path 117" class="cls-91" d="M688.13,161.31a4.34,4.34,0,0,0,6,0,11.51,11.51,0,0,1,1.26.3,7.54,7.54,0,0,0-1.77,5.26H682.89C682.89,163.37,685.06,161.84,688.13,161.31Z"/><path id="Path_118" data-name="Path 118" class="cls-92" d="M695.37,155.86a4.77,4.77,0,0,1,.11,1,4.34,4.34,0,0,1-8.68,0,4.77,4.77,0,0,1,.11-1Z"/><g id="Group_12" data-name="Group 12"><path id="Path_119" data-name="Path 119" class="cls-93" d="M686.44,153l.48,2.35h8.44l.48-2.35a2.35,2.35,0,0,0-2.34-2.34h-4.71A2.35,2.35,0,0,0,686.44,153Zm2.86,0a1.85,1.85,0,1,1,1.85,1.84h0A1.84,1.84,0,0,1,689.3,153Z"/><path id="Path_120" data-name="Path 120" class="cls-94" d="M690,152.56h.74v-.74a.18.18,0,0,1,.18-.18h.55a.19.19,0,0,1,.18.18v.74h.74a.18.18,0,0,1,.17.18v.55a.17.17,0,0,1-.17.18h-.74v.74a.19.19,0,0,1-.18.18h-.55a.18.18,0,0,1-.18-.18h0v-.74H690a.18.18,0,0,1-.19-.18v-.55A.19.19,0,0,1,690,152.56Z"/></g></g><g id="Group_15" data-name="Group 15"><path id="Path_121" data-name="Path 121" class="cls-95" d="M702.09,158.81a6.3,6.3,0,0,0,8.76,0c4.44.77,7.58,3,7.58,8.06H694.51C694.51,161.82,697.65,159.58,702.09,158.81Z"/><path id="Path_122" data-name="Path 122" class="cls-96" d="M712.6,150.9a6.13,6.13,0,0,1,.17,1.42,6.3,6.3,0,0,1-12.6,0,6.12,6.12,0,0,1,.16-1.42Z"/><g id="Group_14" data-name="Group 14"><path id="Path_123" data-name="Path 123" class="cls-97" d="M699.65,146.77l.69,3.41h12.25l.69-3.41a3.4,3.4,0,0,0-3.4-3.4h-6.82A3.41,3.41,0,0,0,699.65,146.77Zm4.14,0a2.68,2.68,0,1,1,2.68,2.68,2.68,2.68,0,0,1-2.68-2.68Z"/><path id="Path_124" data-name="Path 124" class="cls-98" d="M704.73,146.11h1.08V145a.26.26,0,0,1,.25-.26h.81a.26.26,0,0,1,.25.26v1.08h1.09a.29.29,0,0,1,.26.27v.79a.26.26,0,0,1-.26.26h-1.09v1.09a.25.25,0,0,1-.25.25h-.81a.25.25,0,0,1-.25-.25v-1.09h-1.08a.26.26,0,0,1-.26-.26v-.79A.27.27,0,0,1,704.73,146.11Z"/></g></g><g id="Group_17" data-name="Group 17"><path id="Path_125" data-name="Path 125" class="cls-99" d="M718.78,161.31a4.33,4.33,0,0,0,6,0c3.06.53,5.23,2.06,5.23,5.56H719.29a7.58,7.58,0,0,0-1.76-5.26C717.94,161.49,718.36,161.39,718.78,161.31Z"/><path id="Path_126" data-name="Path 126" class="cls-100" d="M726,155.86a4.77,4.77,0,0,1,.11,1,4.34,4.34,0,0,1-8.68,0,4.17,4.17,0,0,1,.11-1Z"/><g id="Group_16" data-name="Group 16"><path id="Path_127" data-name="Path 127" class="cls-101" d="M717.1,153l.47,2.35H726l.47-2.35a2.34,2.34,0,0,0-2.34-2.34h-4.71A2.34,2.34,0,0,0,717.1,153Zm2.85,0a1.85,1.85,0,1,1,1.85,1.84h0A1.83,1.83,0,0,1,720,153h0Z"/><path id="Path_128" data-name="Path 128" class="cls-102" d="M720.6,152.56h.74v-.74a.19.19,0,0,1,.18-.18h.55a.18.18,0,0,1,.18.18v.74H723a.19.19,0,0,1,.19.18v.55a.19.19,0,0,1-.19.18h-.74v.74a.18.18,0,0,1-.18.18h-.55a.19.19,0,0,1-.18-.18h0v-.74h-.74a.18.18,0,0,1-.18-.18v-.55A.19.19,0,0,1,720.6,152.56Z"/></g></g></g><path id="Path_129" data-name="Path 129" class="cls-103" d="M214.22,319.1V305.64h13.45V319.1h13.44v13.44H227.67V346H214.22V332.54H200.77V319.1Z"/><g id="Group_19" data-name="Group 19"><path id="Path_130" data-name="Path 130" class="cls-104" d="M417.39,325.18v-3.93h-3.92v3.93h-3.93v3.92h3.93V333h3.92V329.1h3.93v-3.92Z"/><path id="Path_131" data-name="Path 131" class="cls-105" d="M415.43,316.9a10.24,10.24,0,1,0,10.23,10.24h0A10.25,10.25,0,0,0,415.43,316.9Zm0,19.34a9.11,9.11,0,1,1,9.1-9.11h0a9.1,9.1,0,0,1-9.09,9.1Z"/><path id="Path_132" data-name="Path 132" class="cls-106" d="M430.66,314H400.2a5,5,0,0,0-4.94,4.95v16.38a5,5,0,0,0,4.94,4.94h30.46a5,5,0,0,0,4.94-4.94V319A5,5,0,0,0,430.66,314Zm-15.23,23.8a10.67,10.67,0,1,1,10.67-10.67,10.67,10.67,0,0,1-10.67,10.67Z"/><path id="Path_133" data-name="Path 133" class="cls-107" d="M406.93,313.38v-.21a3.86,3.86,0,0,1,3.85-3.86h9.3a3.88,3.88,0,0,1,3.86,3.86v.21h2.18v-.21a6.06,6.06,0,0,0-6-6h-9.3a6,6,0,0,0-6,6v.21Z"/></g><g id="Group_20" data-name="Group 20"><path id="Path_134" data-name="Path 134" class="cls-108" d="M610.8,215.56v-3.82H607v3.82h-3.83v3.83H607v3.82h3.83v-3.82h3.82v-3.83Z"/><rect id="Rectangle_4" data-name="Rectangle 4" class="cls-109" x="602.15" y="192.32" width="13.47" height="7.35" rx="0.6"/><path id="Path_135" data-name="Path 135" class="cls-110" d="M608.88,208.09a9.39,9.39,0,1,0,9.39,9.38h0A9.38,9.38,0,0,0,608.88,208.09Zm0,17.67a8.29,8.29,0,1,1,8.29-8.29,8.29,8.29,0,0,1-8.29,8.29h0Z"/><path id="Path_136" data-name="Path 136" class="cls-111" d="M614.64,202.28h-.15v-1.66H603.28v1.66h-.15a7.37,7.37,0,0,0-7.37,7.37V225.3a7.37,7.37,0,0,0,7.37,7.37h11.5a7.37,7.37,0,0,0,7.37-7.36h0V209.65A7.37,7.37,0,0,0,614.64,202.28Zm-5.76,25.05a9.86,9.86,0,1,1,9.86-9.86h0A9.85,9.85,0,0,1,608.88,227.33Z"/></g></g></g></g></g></g></svg>