<svg id="Layer_1" data-name="Layer 1" xmlns="http://www.w3.org/2000/svg" xmlns:xlink="http://www.w3.org/1999/xlink" viewBox="0 0 248.67 70.26"><defs><style>.cls-1{fill:#133c4c;}.cls-2{fill:url(#linear-gradient);}.cls-3{fill:url(#linear-gradient-2);}.cls-4{fill:url(#linear-gradient-3);}.cls-5{fill:url(#linear-gradient-4);}.cls-6{fill:url(#linear-gradient-5);}.cls-7{fill:url(#linear-gradient-6);}.cls-8{fill:url(#linear-gradient-7);}.cls-9{fill:url(#linear-gradient-8);}.cls-10{fill:url(#linear-gradient-9);}.cls-11{fill:url(#linear-gradient-10);}.cls-12{fill:url(#linear-gradient-11);}.cls-13{fill:url(#linear-gradient-12);}.cls-14{fill:#fff;}</style><linearGradient id="linear-gradient" x1="194.75" y1="-165.91" x2="196.15" y2="-166.75" gradientTransform="translate(-12281.15 3779.48) scale(63.13 22.36)" gradientUnits="userSpaceOnUse"><stop offset="0" stop-color="#2081b4"/><stop offset="1" stop-color="#80bf1f"/></linearGradient><linearGradient id="linear-gradient-2" x1="194.42" y1="-165.52" x2="195.87" y2="-166.48" gradientTransform="translate(-11834.22 3365.07) scale(60.94 19.9)" xlink:href="#linear-gradient"/><linearGradient id="linear-gradient-3" x1="192.34" y1="-164.35" x2="194.1" y2="-165.63" gradientTransform="translate(-9630.37 2509.24) scale(50.14 14.8)" xlink:href="#linear-gradient"/><linearGradient id="linear-gradient-4" x1="193.96" y1="-165.05" x2="195.48" y2="-166.13" gradientTransform="translate(-11266.5 2970.87) scale(58.16 17.56)" xlink:href="#linear-gradient"/><linearGradient id="linear-gradient-5" x1="193.28" y1="-164.46" x2="194.9" y2="-165.7" gradientTransform="translate(-10513.79 2602.43) scale(54.47 15.37)" xlink:href="#linear-gradient"/><linearGradient id="linear-gradient-6" x1="193.89" y1="-166.5" x2="195.38" y2="-167.25" gradientTransform="translate(-11429.76 4240.28) scale(58.98 25.23)" xlink:href="#linear-gradient"/><linearGradient id="linear-gradient-7" x1="194.19" y1="-165.47" x2="195.64" y2="-166.48" gradientTransform="translate(-11755.47 3151.35) scale(60.58 18.75)" xlink:href="#linear-gradient"/><linearGradient id="linear-gradient-8" x1="195.05" y1="-165.68" x2="196.39" y2="-166.63" gradientTransform="translate(-12866.64 3383.64) scale(66.01 20.1)" xlink:href="#linear-gradient"/><linearGradient id="linear-gradient-9" x1="195.28" y1="-166.1" x2="196.59" y2="-166.92" gradientTransform="translate(-13178.48 3900.05) scale(67.54 23.13)" xlink:href="#linear-gradient"/><linearGradient id="linear-gradient-10" x1="195.3" y1="-166.25" x2="196.61" y2="-167.02" gradientTransform="translate(-13174.24 4154.82) scale(67.51 24.62)" xlink:href="#linear-gradient"/><linearGradient id="linear-gradient-11" x1="195.15" y1="-166.19" x2="196.48" y2="-166.97" gradientTransform="translate(-12906.74 4105.72) scale(66.2 24.31)" xlink:href="#linear-gradient"/><linearGradient id="linear-gradient-12" x1="194.97" y1="-166.15" x2="196.33" y2="-166.93" gradientTransform="translate(-12612.21 4079.86) scale(64.75 24.15)" xlink:href="#linear-gradient"/></defs><g id="Group_131" data-name="Group 131"><g id="Group_129" data-name="Group 129"><path id="Path_357" data-name="Path 357" class="cls-1" d="M158.13,6.82v49h-9.44V34.9H126.52V55.81H117v-49h9.57V26.59h22.17V6.82Z" transform="translate(-9.83 -6.43)"/><path id="Path_358" data-name="Path 358" class="cls-1" d="M168.33,55.81v-49h17.76a27.53,27.53,0,0,1,10.58,1.89,20.91,20.91,0,0,1,12.09,13,31,31,0,0,1-.13,19.52A21.21,21.21,0,0,1,196,53.79a26.75,26.75,0,0,1-9.95,1.77ZM200.7,31.25a18.41,18.41,0,0,0-1-6.42,15.74,15.74,0,0,0-2.77-5.17,13.1,13.1,0,0,0-4.53-3.27,14.79,14.79,0,0,0-6.17-1.13h-8.31V47.37h8.31a15.61,15.61,0,0,0,6.29-1.26,12,12,0,0,0,4.54-3.4,13.62,13.62,0,0,0,2.77-5.16,21.18,21.18,0,0,0,.88-6.3Z" transform="translate(-9.83 -6.43)"/><path id="Path_359" data-name="Path 359" class="cls-1" d="M214.81,30.87a23.35,23.35,0,0,1,1.63-8.81A24,24,0,0,1,228.78,8.58,23.61,23.61,0,0,1,239,6.44a21.16,21.16,0,0,1,11.71,3,18.74,18.74,0,0,1,7.3,7.68l-7.3,5a12.32,12.32,0,0,0-5.42-5.79A14.86,14.86,0,0,0,242,15.13a15.12,15.12,0,0,0-9.7,1,12.81,12.81,0,0,0-4.41,3.78,17.33,17.33,0,0,0-2.64,5.28,18.53,18.53,0,0,0-.88,5.8,21.16,21.16,0,0,0,1,6.29,18,18,0,0,0,2.9,5.29,14.34,14.34,0,0,0,4.53,3.66,13.13,13.13,0,0,0,5.8,1.38,15.21,15.21,0,0,0,3.4-.38,15.4,15.4,0,0,0,3.4-1.26,13.62,13.62,0,0,0,3-2.26,12.33,12.33,0,0,0,2.27-3.4l7.81,4.53a13.28,13.28,0,0,1-3.4,4.91,21.92,21.92,0,0,1-4.92,3.53,24.67,24.67,0,0,1-11.83,3A20.92,20.92,0,0,1,228.78,54a22.46,22.46,0,0,1-7.43-5.79,26.73,26.73,0,0,1-4.91-8.06A29.81,29.81,0,0,1,214.81,30.87Z" transform="translate(-9.83 -6.43)"/></g><g id="Group_130" data-name="Group 130"><path id="Path_360" data-name="Path 360" class="cls-1" d="M127.15,63.64V76h-2V70.57h-6.3V76h-2V63.64h2V68.8h6.3V63.64Z" transform="translate(-9.83 -6.43)"/><path id="Path_361" data-name="Path 361" class="cls-1" d="M133.7,76.23a4.65,4.65,0,0,1-1.89-.37,11.69,11.69,0,0,1-1.51-1,4.64,4.64,0,0,1-1-1.51,4.5,4.5,0,0,1-.37-1.77,4,4,0,0,1,.37-1.76,4.18,4.18,0,0,1,1-1.51,3.23,3.23,0,0,1,1.51-1,4.89,4.89,0,0,1,3.78,0,10.19,10.19,0,0,1,1.51,1,3,3,0,0,1,.88,1.51,3.89,3.89,0,0,1,.38,1.76v.63h-7.3a3.6,3.6,0,0,0,.25,1.14,2.36,2.36,0,0,0,.63.88,2.56,2.56,0,0,0,1.89.75,1.64,1.64,0,0,0,.75-.12,1,1,0,0,0,.63-.25,1,1,0,0,0,.51-.51,2.68,2.68,0,0,0,.37-.63l1.64.51a3.8,3.8,0,0,1-1.51,1.63A5.69,5.69,0,0,1,133.7,76.23Zm2.77-5.41a2.31,2.31,0,0,0-.25-1,4,4,0,0,0-.63-.88,2.07,2.07,0,0,0-.88-.51,3.12,3.12,0,0,0-1-.25,2.77,2.77,0,0,0-1.89.76,2.28,2.28,0,0,0-.63.88,4.2,4.2,0,0,0-.25,1Z" transform="translate(-9.83 -6.43)"/><path id="Path_362" data-name="Path 362" class="cls-1" d="M142.39,76.23a4.34,4.34,0,0,1-1.26-.25,2.75,2.75,0,0,1-1-.63,2.17,2.17,0,0,1-.62-.88,2.61,2.61,0,0,1,0-2.27,5.72,5.72,0,0,1,.75-.88,4.14,4.14,0,0,1,1.26-.63,6.62,6.62,0,0,1,1.51-.25,4.16,4.16,0,0,1,1.26.13c.38.12.76.12,1.13.25v-.63a2.07,2.07,0,0,0-.63-1.64,2.61,2.61,0,0,0-1.63-.63,4.72,4.72,0,0,0-1.39.25l-1.51.76-.63-1.26a6.51,6.51,0,0,1,3.65-1.13,3.6,3.6,0,0,1,2.9,1,3.36,3.36,0,0,1,1,2.77v3.28c0,.38.12.63.5.63v1.64a.78.78,0,0,0-.5.12c-.13.13-.25,0-.38,0a2.25,2.25,0,0,1-.88-.25.77.77,0,0,1-.38-.76v-.63A3.65,3.65,0,0,1,144,75.6,1.92,1.92,0,0,1,142.39,76.23Zm.51-1.38a3.8,3.8,0,0,0,1.25-.25,2,2,0,0,0,1-.76.7.7,0,0,0,.38-.63V72a5.94,5.94,0,0,0-2.14-.38,2.54,2.54,0,0,0-1.64.51,1.48,1.48,0,0,0-.63,1.13,1.36,1.36,0,0,0,.51,1.13,1.45,1.45,0,0,0,1.26.51Z" transform="translate(-9.83 -6.43)"/><path id="Path_363" data-name="Path 363" class="cls-1" d="M149.82,63.39h1.89V73.46a1.43,1.43,0,0,0,.25.76.94.94,0,0,0,.76.25.92.92,0,0,0,.5-.13c.13,0,.38-.12.51-.12l.25,1.51a2.88,2.88,0,0,1-1,.25,2.7,2.7,0,0,1-1,.13,2.2,2.2,0,0,1-1.51-.51,1.7,1.7,0,0,1-.5-1.51Z" transform="translate(-9.83 -6.43)"/><path id="Path_364" data-name="Path 364" class="cls-1" d="M160,75.6c-.37.13-.63.26-1,.38a5.29,5.29,0,0,1-1.39.25,2.23,2.23,0,0,1-.88-.12l-.76-.38a1.31,1.31,0,0,1-.5-.63,2.39,2.39,0,0,1-.13-1V68.42H154.1V66.91h1.26v-3h1.89v3h2v1.51h-2v5a1.89,1.89,0,0,0,.25.76c.26.12.38.25.63.25a1.55,1.55,0,0,0,.76-.13c.25-.12.38-.12.5-.25Z" transform="translate(-9.83 -6.43)"/><path id="Path_365" data-name="Path 365" class="cls-1" d="M169.59,76.11h-1.88V70.94a3.55,3.55,0,0,0-.51-1.89,1.56,1.56,0,0,0-1.26-.63,1.53,1.53,0,0,0-.75.13,2.62,2.62,0,0,0-.76.5c-.25.26-.5.38-.63.63s-.38.51-.38.89V76h-1.89V63.39h1.77V68.8a5.46,5.46,0,0,1,1.38-1.51,3.68,3.68,0,0,1,2-.5,4.35,4.35,0,0,1,1.38.25,4.87,4.87,0,0,1,.88.76,4.2,4.2,0,0,1,.51,1.13,5.89,5.89,0,0,1,.12,1.38Z" transform="translate(-9.83 -6.43)"/><path id="Path_366" data-name="Path 366" class="cls-1" d="M172.11,76.11V63.77h4.41a6.59,6.59,0,0,1,2.65.5,4.08,4.08,0,0,1,1.88,1.38,6.23,6.23,0,0,1,1.14,2,8,8,0,0,1,.38,2.39,8.17,8.17,0,0,1-.38,2.52,3.82,3.82,0,0,1-1.26,1.89A5,5,0,0,1,179,75.73a8.24,8.24,0,0,1-2.52.5Zm8.44-6.3a7.69,7.69,0,0,0-.25-1.76,3,3,0,0,0-.76-1.39,2.81,2.81,0,0,0-1.26-.88,4,4,0,0,0-1.76-.38h-2.39v8.94h2.39a4.13,4.13,0,0,0,3-1.26,3,3,0,0,0,.76-1.38,10.21,10.21,0,0,0,.25-1.89Z" transform="translate(-9.83 -6.43)"/><path id="Path_367" data-name="Path 367" class="cls-1" d="M186.72,76.23a4.34,4.34,0,0,1-1.26-.25,2.75,2.75,0,0,1-1-.63,2.17,2.17,0,0,1-.62-.88,2.61,2.61,0,0,1,0-2.27,5.72,5.72,0,0,1,.75-.88,4.14,4.14,0,0,1,1.26-.63,6.62,6.62,0,0,1,1.51-.25,4.16,4.16,0,0,1,1.26.13c.38.12.76.12,1.13.25v-.63a2.07,2.07,0,0,0-.63-1.64,2.61,2.61,0,0,0-1.63-.63,4.72,4.72,0,0,0-1.39.25l-1.51.76L184,67.67a6.51,6.51,0,0,1,3.65-1.13,3.6,3.6,0,0,1,2.9,1,3.36,3.36,0,0,1,1,2.77v3.28c0,.38.12.63.5.63v1.64a.76.76,0,0,0-.5.12c-.13.13-.25,0-.38,0a2.25,2.25,0,0,1-.88-.25.77.77,0,0,1-.38-.76v-.63a3.65,3.65,0,0,1-1.51,1.26A1.92,1.92,0,0,1,186.72,76.23Zm.51-1.38a3.8,3.8,0,0,0,1.25-.25,2,2,0,0,0,1-.76.7.7,0,0,0,.38-.63V72a5.94,5.94,0,0,0-2.14-.38,2.54,2.54,0,0,0-1.64.51,1.48,1.48,0,0,0-.63,1.13,1.36,1.36,0,0,0,.51,1.13,1.6,1.6,0,0,0,1.26.51Z" transform="translate(-9.83 -6.43)"/><path id="Path_368" data-name="Path 368" class="cls-1" d="M199.19,75.6c-.38.13-.63.26-1,.38a5.15,5.15,0,0,1-1.38.25,2.28,2.28,0,0,1-.89-.12l-.75-.38a1.26,1.26,0,0,1-.5-.63,2.39,2.39,0,0,1-.13-1V68.42h-1.26V66.91h1.26v-3h1.89v3h2v1.51h-2v5a1.75,1.75,0,0,0,.25.76c.25.12.38.25.63.25a1.59,1.59,0,0,0,.76-.13c.25-.12.37-.12.5-.25Z" transform="translate(-9.83 -6.43)"/><path id="Path_369" data-name="Path 369" class="cls-1" d="M202.84,76.23a4.34,4.34,0,0,1-1.26-.25,2.75,2.75,0,0,1-1-.63,2.28,2.28,0,0,1-.63-.88,2.7,2.7,0,0,1,0-2.27,6.35,6.35,0,0,1,.76-.88,4.14,4.14,0,0,1,1.26-.63,6.62,6.62,0,0,1,1.51-.25,4.16,4.16,0,0,1,1.26.13c.38.12.76.12,1.13.25v-.63a2.07,2.07,0,0,0-.63-1.64,2.61,2.61,0,0,0-1.63-.63,4.72,4.72,0,0,0-1.39.25l-1.51.76-.63-1.26a6.51,6.51,0,0,1,3.65-1.13,3.6,3.6,0,0,1,2.9,1,3.36,3.36,0,0,1,1,2.77v3.28c0,.38.12.63.5.63v1.64a.76.76,0,0,0-.5.12c-.13.13-.25,0-.38,0a2.25,2.25,0,0,1-.88-.25A.77.77,0,0,1,206,75v-.63a3.65,3.65,0,0,1-1.51,1.26C204.23,76.11,203.6,76.23,202.84,76.23Zm.63-1.38a3.91,3.91,0,0,0,1.26-.25,2,2,0,0,0,1-.76.7.7,0,0,0,.38-.63V72a6,6,0,0,0-2.15-.38,2.51,2.51,0,0,0-1.63.51,1.48,1.48,0,0,0-.63,1.13,1.35,1.35,0,0,0,.5,1.13,1.46,1.46,0,0,0,1.26.51Z" transform="translate(-9.83 -6.43)"/><path id="Path_370" data-name="Path 370" class="cls-1" d="M209.77,69.81a6.93,6.93,0,0,1,.38-2.27,6.46,6.46,0,0,1,1.13-2,4.07,4.07,0,0,1,1.89-1.39,5.74,5.74,0,0,1,2.52-.5,5.88,5.88,0,0,1,2.89.75,4.64,4.64,0,0,1,1.77,2l-1.51,1a2.28,2.28,0,0,0-.63-.88,3.21,3.21,0,0,0-.76-.63c-.25-.13-.63-.26-.88-.38s-.63-.13-.88-.13a4.51,4.51,0,0,0-1.77.38,5,5,0,0,0-1.26,1,3,3,0,0,0-.75,1.38,6.27,6.27,0,0,0-.25,1.64,8.21,8.21,0,0,0,.25,1.76,3.17,3.17,0,0,0,.88,1.39,5.18,5.18,0,0,0,1.26,1,3.51,3.51,0,0,0,1.64.37,2.23,2.23,0,0,0,.88-.12,5.9,5.9,0,0,0,.88-.38,4,4,0,0,0,.88-.63,3.7,3.7,0,0,0,.63-.88l1.64.88a4.74,4.74,0,0,1-.88,1.26,4.52,4.52,0,0,1-1.26.88,6.5,6.5,0,0,1-1.39.51,6.62,6.62,0,0,1-1.51.25,5.07,5.07,0,0,1-2.39-.51,5.41,5.41,0,0,1-1.89-1.51,11.37,11.37,0,0,1-1.26-2A13.48,13.48,0,0,1,209.77,69.81Z" transform="translate(-9.83 -6.43)"/><path id="Path_371" data-name="Path 371" class="cls-1" d="M222.24,63.39h1.88V73.46a1.35,1.35,0,0,0,.26.76.92.92,0,0,0,.75.25,1,1,0,0,0,.51-.13c.12,0,.37-.12.5-.12l.25,1.51a2.88,2.88,0,0,1-1,.25,2.65,2.65,0,0,1-1,.13,2.17,2.17,0,0,1-1.51-.51,1.73,1.73,0,0,1-.51-1.51Z" transform="translate(-9.83 -6.43)"/><path id="Path_372" data-name="Path 372" class="cls-1" d="M231.56,76.23a4.62,4.62,0,0,1-1.89-.37,4.31,4.31,0,0,1-2.4-2.52,4.65,4.65,0,0,1,0-3.66,4.18,4.18,0,0,1,1-1.51,4.62,4.62,0,0,1,1.51-1,5.19,5.19,0,0,1,3.91,0,11.57,11.57,0,0,1,1.51,1,6.29,6.29,0,0,1,1,1.51,4.57,4.57,0,0,1,0,3.66,4,4,0,0,1-1,1.51,4.64,4.64,0,0,1-1.51,1A7.08,7.08,0,0,1,231.56,76.23Zm-2.65-4.66a3.44,3.44,0,0,0,.88,2.27,2.36,2.36,0,0,0,.88.63,3.15,3.15,0,0,0,2.14,0,2.4,2.4,0,0,0,.89-.63,2.8,2.8,0,0,0,.63-1,3.9,3.9,0,0,0,0-2.39,2.8,2.8,0,0,0-.63-1,2.4,2.4,0,0,0-.89-.63,3.76,3.76,0,0,0-1.13-.25,2.5,2.5,0,0,0-1,.25,2.36,2.36,0,0,0-.88.63,2.8,2.8,0,0,0-.63,1C228.91,70.69,228.91,71.07,228.91,71.57Z" transform="translate(-9.83 -6.43)"/><path id="Path_373" data-name="Path 373" class="cls-1" d="M240.75,76.23a2.59,2.59,0,0,1-2.14-.88,5.32,5.32,0,0,1-.76-2.77V67h1.89V72.2c0,1.64.63,2.52,1.76,2.52a2.2,2.2,0,0,0,1.52-.5,3.45,3.45,0,0,0,1.13-1.51V67H246v6.8a.76.76,0,0,0,.12.5.47.47,0,0,0,.38.13v1.64c-.25,0-.38,0-.5.12h-.38a1.76,1.76,0,0,1-.88-.25.89.89,0,0,1-.38-.75v-.89a3.85,3.85,0,0,1-1.64,1.52A4.81,4.81,0,0,1,240.75,76.23Z" transform="translate(-9.83 -6.43)"/><path id="Path_374" data-name="Path 374" class="cls-1" d="M252.33,76.23a4.49,4.49,0,0,1-1.76-.37,5.65,5.65,0,0,1-1.38-1,4.89,4.89,0,0,1-.89-1.51,6.17,6.17,0,0,1,0-3.66,10.43,10.43,0,0,1,.89-1.51,4.8,4.8,0,0,1,1.26-1,3.83,3.83,0,0,1,3.52.12,3.32,3.32,0,0,1,1.26,1.39V63.39h1.89V73.84a.72.72,0,0,0,.13.5.44.44,0,0,0,.37.13v1.64c-.25,0-.37,0-.5.12a.17.17,0,0,1-.25,0A1.76,1.76,0,0,1,256,76a.89.89,0,0,1-.38-.75V74.6A4.94,4.94,0,0,1,254.22,76,9.42,9.42,0,0,1,252.33,76.23Zm.51-1.63a2.07,2.07,0,0,0,.88-.13l.76-.38c.25-.12.37-.38.63-.63l.37-.75v-2.4a2.52,2.52,0,0,0-.5-.75,1.53,1.53,0,0,0-.63-.63l-.76-.38a1.8,1.8,0,0,0-.88-.13,2.26,2.26,0,0,0-1,.26,1.68,1.68,0,0,0-.89.75,2.59,2.59,0,0,0-.5,1,2.7,2.7,0,0,0,0,2.27,4.6,4.6,0,0,0,.63,1,2.1,2.1,0,0,0,.88.63A2.31,2.31,0,0,0,252.84,74.6Z" transform="translate(-9.83 -6.43)"/></g><path id="Path_375" data-name="Path 375" class="cls-2" d="M68.52,52c-1.26-1.89-2.52-3.9-3.9-5.66-4.54-6.05-12.09-4-18.14-1.64-6.42,2.52-13.85,5.54-21.28,8.44-4.16,1.63-8.06,3.14-11.84,4.53a8.07,8.07,0,0,0-1.51.63c-.5.25-1.13.5-1.64.76h0a23.23,23.23,0,0,0,1.14,4.28h0c.88-.38,1.63-.76,2.51-1.14.63-.25,1.26-.63,1.77-.88,4.53-2,9.19-4.28,13-6,2-1,4.15-2,6-3l9.07-4.53C51.9,43.94,57.94,49,63.86,53.89l.88.76c1.39,1.13,2.65,2.26,4,3.52,4.91,4.29,9.83,8.69,15.62,11,1.26.5,2.64,1,4.15,1.51l1.14-1.13c-2.14-.63-4.16-1.39-6.17-2.14C76.71,64.34,72.55,58.05,68.52,52Z" transform="translate(-9.83 -6.43)"/><path id="Path_376" data-name="Path 376" class="cls-3" d="M68.52,58.43c-1.38-1.26-2.64-2.4-4-3.53l-.88-.76C57.82,49.36,51.9,44.32,44,48c-3,1.39-6.17,3-9.06,4.41l-6,3c-3.9,1.89-8.44,4-13,6.17-.5.26-1.13.51-1.76.89a16.06,16.06,0,0,1-2.52,1.13h0a15.66,15.66,0,0,0,2,3.78c.88-.51,1.77-1,2.52-1.39.5-.25,1-.63,1.51-.88,4.28-2.39,8.44-4.91,11.59-6.93.88-.63,1.89-1.26,2.77-1.89C36.78,53,41.19,50,47.24,50.74c4.78.51,9.69,3.66,14,6.43A30.8,30.8,0,0,0,65,59.43c2.15,1.26,4.29,2.65,6.3,3.91a67.15,67.15,0,0,0,13.48,7.43c.75.25,1.63.63,2.39.88a8.58,8.58,0,0,0,1.26-1c-1.39-.5-2.65-.88-3.91-1.38C78.47,67.24,73.43,62.71,68.52,58.43Z" transform="translate(-9.83 -6.43)"/><path id="Path_377" data-name="Path 377" class="cls-4" d="M63.11,64.09A117.61,117.61,0,0,0,41.57,58.8c-.25,0-.63-.12-.88-.12a23.76,23.76,0,0,0-4-.51c-5,0-8.44,3.66-10.45,6.68a50,50,0,0,1-6.68,8.69,19.85,19.85,0,0,0,11,3.15H70.91a28.7,28.7,0,0,0,11.72-2.4,69.55,69.55,0,0,1-8.69-4.66A67.76,67.76,0,0,0,63.11,64.09Z" transform="translate(-9.83 -6.43)"/><path id="Path_378" data-name="Path 378" class="cls-5" d="M70.91,63.71a65,65,0,0,0-6.29-3.9c-1.26-.75-2.4-1.51-3.78-2.39-4.28-2.77-9.19-5.8-14-6.42-5.92-.63-10.45,2.39-15.11,5.54-.88.63-1.89,1.26-2.77,1.89-3.15,2-7.31,4.66-11.59,6.92a9.83,9.83,0,0,0-1.51.88,16.1,16.1,0,0,1-2.52,1.39A21.62,21.62,0,0,0,16,70.77c.76-.63,1.64-1.14,2.27-1.77l.63-.5a89.54,89.54,0,0,0,9.19-7.81c5.92-5.54,11.34-7.3,17-5.66A163.69,163.69,0,0,1,63.61,62a86.22,86.22,0,0,1,9.57,5,80.1,80.1,0,0,0,11.33,5.79c.13,0,.26.13.38.13a11.84,11.84,0,0,0,1.64-1.14L84.26,71A77.3,77.3,0,0,1,70.91,63.71Z" transform="translate(-9.83 -6.43)"/><path id="Path_379" data-name="Path 379" class="cls-6" d="M73.31,67.37a99.51,99.51,0,0,0-9.57-5A192.46,192.46,0,0,0,45.22,55.4c-5.66-1.63-10.95.13-16.87,5.54-2.9,2.77-6.05,5.42-9.2,7.94l-.63.5c-.75.51-1.51,1.14-2.26,1.64a26.57,26.57,0,0,0,2.89,2.39,63.89,63.89,0,0,0,6.68-8.69c2.89-4.53,6.67-6.92,10.83-6.92a23.51,23.51,0,0,1,4.15.5l.89.13a114.48,114.48,0,0,1,21.53,5.41,65.1,65.1,0,0,1,11.08,5.67,86.64,86.64,0,0,0,9,4.78,18.49,18.49,0,0,0,1.63-.88l-.25-.12A122.85,122.85,0,0,1,73.31,67.37Z" transform="translate(-9.83 -6.43)"/><path id="Path_380" data-name="Path 380" class="cls-7" d="M51.52,24.3c3.27.88,6.67,2,9.95,3l4.91,1.51c1.26.38,2.64.76,3.9,1.13a97.86,97.86,0,0,1,12.09,4.16,59.74,59.74,0,0,1,11.84,7.43,28.07,28.07,0,0,0-9.7-12.85c-3.65-2.51-8.56-2.64-12.84-2.77C67,16.74,58.07,9.69,47.62,9.69,33.38,9.69,21,20.27,20,34.5A119.53,119.53,0,0,1,31.12,28C36.53,25.18,43.71,22.28,51.52,24.3Z" transform="translate(-9.83 -6.43)"/><path id="Path_381" data-name="Path 381" class="cls-8" d="M29.86,32.73c.5-.25,1-.5,1.64-.75,5-2.52,10.2-5.16,15.86-5.29H48c5.42,0,10.2,2.27,14.86,4.41.89.37,1.89.88,2.9,1.38,1.51.63,3.15,1.39,4.66,2,4,1.76,8.19,3.52,12.22,5.54C87.16,42.31,91.57,45,96,47.72h0a27,27,0,0,0-.63-3c-.26-.76-.38-1.51-.63-2.27a66.07,66.07,0,0,0-12.35-7.81,97.82,97.82,0,0,0-12.09-4.15c-1.26-.38-2.64-.76-3.9-1.14l-4.91-1.51c-3.28-1-6.55-2.14-9.95-3-6.05-1.64-12.22-.5-20,3.65a125.78,125.78,0,0,0-11.34,6.68V37.9c-.13.12-.25.12-.38.25,2.77-1.64,5.67-3,8.32-4.41C28.6,33.36,29.23,33.11,29.86,32.73Z" transform="translate(-9.83 -6.43)"/><path id="Path_382" data-name="Path 382" class="cls-9" d="M15.63,43.31a143.11,143.11,0,0,1,13.22-6.55c5.16-2.39,10.33-4.53,15.62-6.42,7.93-2.9,14.1.25,21.41,4.66,10.7,6.42,20.65,12.09,30.47,17.13A25.71,25.71,0,0,0,96.1,49c0-.38-.12-.76-.12-1.13-4.41-2.77-9-5.42-13.48-7.69-4-2-8.19-3.77-12.22-5.54-1.51-.63-3.14-1.38-4.66-2a30.4,30.4,0,0,1-2.89-1.39c-4.91-2.26-9.45-4.4-14.86-4.4h-.63c-5.54.12-10.71,2.77-15.74,5.28-.51.26-1,.51-1.64.76s-1.26.63-2,1a105,105,0,0,0-10.45,5.66A19.48,19.48,0,0,0,13,44.7c.51-.25,1.14-.63,1.64-.88Z" transform="translate(-9.83 -6.43)"/><path id="Path_383" data-name="Path 383" class="cls-10" d="M44.47,30.72C39.18,32.61,34.14,34.88,29,37.14a141,141,0,0,0-13.1,6.55l-.88.5c-.76.38-1.51.89-2.27,1.26-.25.38-.38.76-.63,1.14-.25.63-.63,1.26-.88,2h0c.25-.12.63-.25.88-.38,4-2,8.06-3.9,12-5.54,6.18-2.64,12.6-5.29,20.53-8.31s14.23-2.27,19.77,2.52c1.64,1.51,3.28,3,4.92,4.41A97.75,97.75,0,0,0,83.63,52.88a87.37,87.37,0,0,0,12,5.8,25.3,25.3,0,0,0,.75-6.17c-9.82-5.17-19.9-10.83-30.73-17.26C58.32,31,52.27,28,44.47,30.72Z" transform="translate(-9.83 -6.43)"/><path id="Path_384" data-name="Path 384" class="cls-11" d="M68.9,41.8c-1.64-1.51-3.28-3-4.91-4.41C58.7,32.73,52.53,32,44.72,34.88s-14.36,5.66-20.53,8.31c-3.9,1.63-7.93,3.4-12,5.54a12.3,12.3,0,0,1-1.26.63,14.67,14.67,0,0,0-.63,2.26,6,6,0,0,0,.88-.37c4.16-1.77,8.31-3.28,13.22-5.17,8.44-3.14,16.75-6.17,23.18-8.43,8.06-2.9,13.85-1.77,18.26,3.27,1.38,1.64,2.89,3.4,4.28,5.16,3.4,4.16,6.92,8.57,11.08,11.84a39.75,39.75,0,0,0,12.22,6.17,29.45,29.45,0,0,0,1.89-4.91,89.33,89.33,0,0,1-12.09-5.79A97.9,97.9,0,0,1,68.9,41.8Z" transform="translate(-9.83 -6.43)"/><path id="Path_385" data-name="Path 385" class="cls-12" d="M70,46.21c-1.38-1.76-2.77-3.53-4.28-5.16-4.41-5-10.07-6-18-3.15-6.3,2.26-14.61,5.16-23.17,8.44-4.91,1.88-9.07,3.4-13.22,5.16-.26.12-.63.25-1,.38a9.52,9.52,0,0,0-.25,1.76l6.17-2c2.26-.75,4.66-1.51,6.92-2.26l25.69-8.44c.76-.25,1.39-.5,2.15-.76,1.38-.5,2.77-1,4.15-1.38,4.91-1.39,10.2.88,13.35,5.79a65.07,65.07,0,0,1,3.28,5.8c2.77,5,5.54,10.32,10.45,13.09a41.52,41.52,0,0,0,9.57,3.65c.63-.88,1.13-1.76,1.64-2.64a40.3,40.3,0,0,1-12.22-6.3C77,54.77,73.43,50.37,70,46.21Z" transform="translate(-9.83 -6.43)"/><path id="Path_386" data-name="Path 386" class="cls-13" d="M71.42,50.49c-1-1.89-2.14-3.9-3.28-5.67-3-4.66-8.18-6.92-12.84-5.54-1.39.38-2.77.88-4.16,1.39-.75.25-1.38.5-2.14.75L23.31,49.86l-6.93,2.27c-2.14.75-4.28,1.38-6.42,2.14,0,.63-.13,1.13-.13,1.76a20,20,0,0,0,.26,2.9h0a9.11,9.11,0,0,1,1.63-.63,8.36,8.36,0,0,1,1.51-.63c3.91-1.39,7.69-2.9,11.84-4.53,7.43-2.9,14.86-5.8,21.29-8.44,6-2.39,13.72-4.41,18.38,1.76,1.39,1.76,2.65,3.78,3.91,5.67,4,6,8.18,12.34,15,15.11a37.11,37.11,0,0,0,6.3,2.14,23,23,0,0,0,1.64-1.89A42.37,42.37,0,0,1,82.12,64C77,60.94,74.19,55.65,71.42,50.49Z" transform="translate(-9.83 -6.43)"/><path id="Path_387" data-name="Path 387" class="cls-14" d="M63.23,63.71A128.28,128.28,0,0,0,41.7,58.3l-.89-.13a23.51,23.51,0,0,0-4.15-.5c-4.16,0-7.94,2.39-10.83,6.93a50.33,50.33,0,0,1-6.68,8.69c.13.12.26.12.38.25a64.51,64.51,0,0,0,6.68-8.69c2-3,5.29-6.68,10.45-6.68a21,21,0,0,1,4,.51c.25,0,.63.12.88.12a129.24,129.24,0,0,1,21.54,5.29,74.49,74.49,0,0,1,11,5.54,70.26,70.26,0,0,0,8.69,4.66c.13-.12.38-.12.51-.25a86.64,86.64,0,0,1-9-4.78A75.44,75.44,0,0,0,63.23,63.71Z" transform="translate(-9.83 -6.43)"/><path id="Path_388" data-name="Path 388" class="cls-14" d="M73.43,67.11a100.49,100.49,0,0,0-9.57-5,162.33,162.33,0,0,0-18.51-6.93c-5.79-1.76-11.21.13-17,5.67a109.45,109.45,0,0,1-9.2,7.81l-.63.5a26.67,26.67,0,0,0-2.26,1.76l.12.13c.76-.5,1.64-1.13,2.27-1.64l.63-.5a91.83,91.83,0,0,0,9.19-7.94c5.8-5.41,11.21-7.17,16.88-5.54a162.33,162.33,0,0,1,18.51,6.93,98.35,98.35,0,0,1,9.57,5,80.73,80.73,0,0,0,11.34,5.79l.25.13.25-.13c-.13,0-.25-.13-.38-.13A88.49,88.49,0,0,1,73.43,67.11Z" transform="translate(-9.83 -6.43)"/><path id="Path_389" data-name="Path 389" class="cls-14" d="M71,63.46a66.42,66.42,0,0,0-6.3-3.9c-1.26-.76-2.39-1.51-3.78-2.27-4.28-2.77-9.19-5.92-14-6.42-6.05-.63-10.58,2.39-15.24,5.54C30.87,57,30,57.67,29,58.3c-3.15,2-7.31,4.66-11.59,6.93a9.08,9.08,0,0,0-1.51.88,16.92,16.92,0,0,1-2.52,1.38l.13.13c.88-.5,1.76-1,2.51-1.39.51-.25,1-.63,1.52-.88C21.8,63,26,60.31,29.1,58.43c.88-.63,1.89-1.26,2.77-1.89C36.53,53.39,41.07,50.37,47,51c4.66.5,9.57,3.65,14,6.42,1.39.88,2.52,1.64,3.78,2.39,2.14,1.26,4.28,2.65,6.3,3.9a66.74,66.74,0,0,0,13.47,7.43l2.27.76c.13,0,.13-.13.25-.13-.75-.25-1.63-.63-2.39-.88A64.78,64.78,0,0,1,71,63.46Z" transform="translate(-9.83 -6.43)"/><path id="Path_390" data-name="Path 390" class="cls-14" d="M11.22,63.59c0,.12.13.12.25.12s-.12-.25-.12-.37S11.22,63.46,11.22,63.59Z" transform="translate(-9.83 -6.43)"/><path id="Path_391" data-name="Path 391" class="cls-14" d="M68.77,58.05c-1.38-1.26-2.64-2.4-4-3.53l-.88-.75c-5.79-4.92-11.84-10-20.15-6.18-3,1.39-6.17,3-9.07,4.54l-6,3c-3.91,1.89-8.44,4-13,6.05-.51.25-1.14.5-1.77.88a14.72,14.72,0,0,1-2.51,1.13h0c0,.13.12.25.12.38h0c.88-.38,1.64-.76,2.52-1.13.63-.26,1.26-.63,1.76-.89,4.54-2,9.2-4.28,13-6.17,2-1,4.16-2,6.05-3,3-1.51,6-3,9.07-4.41,7.93-3.65,14,1.39,19.64,6.17l.88.76c1.39,1.13,2.65,2.27,4,3.53,4.92,4.28,10,8.81,15.75,11.08,1.26.5,2.52.88,3.9,1.38l.38-.37c-1.51-.51-2.9-1-4.16-1.52C78.6,66.86,73.68,62.33,68.77,58.05Z" transform="translate(-9.83 -6.43)"/><path id="Path_392" data-name="Path 392" class="cls-14" d="M10.09,58.93h0c.12,0,.12-.13,0-.13Z" transform="translate(-9.83 -6.43)"/><path id="Path_393" data-name="Path 393" class="cls-14" d="M68.65,51.88C67.39,50,66.13,48,64.74,46.21,60.08,40,52.53,42.05,46.36,44.45,39.93,47,32.5,50,25.07,52.88c-4.15,1.64-7.93,3.15-11.84,4.54a7.7,7.7,0,0,0-1.51.63,6.43,6.43,0,0,1-1.63.63h0v.25h0c.5-.25,1.13-.5,1.63-.76a8.36,8.36,0,0,1,1.51-.63c3.91-1.38,7.69-2.89,11.84-4.53,7.43-2.9,14.86-5.79,21.29-8.44,6-2.39,13.47-4.41,18.13,1.64,1.39,1.76,2.65,3.78,3.9,5.67,4,6,8.19,12.34,15,15.23a50,50,0,0,0,6.17,2.15l.13-.13c-2.14-.63-4.16-1.39-6.3-2.14C76.83,64.22,72.68,57.92,68.65,51.88Z" transform="translate(-9.83 -6.43)"/><path id="Path_394" data-name="Path 394" class="cls-14" d="M71.8,50.37c-1-1.89-2.15-3.91-3.28-5.8-3.15-4.78-8.44-7.18-13.35-5.79-1.38.38-2.77.88-4.15,1.38-.76.26-1.39.51-2.15.76L23.18,49.36c-2.26.75-4.66,1.51-6.92,2.26l-6.17,2v.5c2.14-.75,4.28-1.38,6.42-2.14l6.93-2.26L49.13,41.3c.75-.25,1.38-.51,2.14-.76,1.38-.5,2.77-1,4.15-1.38,4.66-1.39,9.83.88,12.85,5.54,1.13,1.76,2.27,3.78,3.27,5.67,2.77,5.16,5.54,10.32,10.58,13.22a36.83,36.83,0,0,0,9.45,3.52c.12-.12.12-.25.25-.37a38.42,38.42,0,0,1-9.57-3.66C77.34,60.57,74.44,55.4,71.8,50.37Z" transform="translate(-9.83 -6.43)"/><path id="Path_395" data-name="Path 395" class="cls-14" d="M70.16,46.08c-1.39-1.76-2.9-3.52-4.28-5.16-4.41-5-10.2-6-18.26-3.27-6.3,2.26-14.61,5.16-23.18,8.43-4.91,1.89-9.06,3.4-13.22,5.17a6,6,0,0,1-.88.37v.26c.38-.13.75-.26,1-.38,4.15-1.76,8.31-3.28,13.22-5.16C33,43.19,41.32,40.16,47.74,37.9c7.94-2.77,13.73-1.77,18,3.15,1.39,1.63,2.9,3.4,4.28,5.16,3.4,4.16,6.93,8.56,11.08,11.84a40.17,40.17,0,0,0,12.22,6.29c0-.12.13-.12.13-.25a42.59,42.59,0,0,1-12.22-6.17C77.08,54.65,73.68,50.24,70.16,46.08Z" transform="translate(-9.83 -6.43)"/><path id="Path_396" data-name="Path 396" class="cls-14" d="M69.15,41.42c-1.64-1.51-3.27-3-4.91-4.4-5.42-4.79-11.71-5.67-19.77-2.52s-14.36,5.66-20.53,8.31C20,44.45,16,46.21,12,48.35a5.9,5.9,0,0,1-.88.38c-.12.12-.12.38-.25.63a11.35,11.35,0,0,0,1.26-.63c4-2,8.06-3.78,12-5.54,6.18-2.65,12.6-5.29,20.53-8.31s14-2.27,19.27,2.51c1.64,1.39,3.28,3,4.91,4.41A98.43,98.43,0,0,0,83.13,53.39a89.33,89.33,0,0,0,12.09,5.79c0-.12.13-.25.13-.38a79.61,79.61,0,0,1-12-5.79A103.4,103.4,0,0,1,69.15,41.42Z" transform="translate(-9.83 -6.43)"/><path id="Path_397" data-name="Path 397" class="cls-14" d="M65.75,35c-7.3-4.41-13.6-7.56-21.41-4.66C39.05,32.23,34,34.5,28.72,36.76c-3.65,1.64-8.56,3.91-13.22,6.55l-.88.51c-.5.25-1,.63-1.64.88-.12.25-.38.5-.5.75a20.48,20.48,0,0,1,2.27-1.26l.88-.5c4.66-2.64,9.44-4.78,13.09-6.55q7.76-3.59,15.49-6.42C51.9,28,58.07,31,65.37,35.38,76.2,41.8,86.15,47.47,96.1,52.63v-.5C86.53,47,76.45,41.42,65.75,35Z" transform="translate(-9.83 -6.43)"/><path id="Path_398" data-name="Path 398" class="cls-14" d="M30,33c.51-.26,1-.51,1.64-.76,5-2.52,10.2-5.16,15.74-5.29H48c5.29,0,9.95,2.14,14.86,4.41.89.5,1.89.88,2.9,1.38,1.51.63,3.15,1.39,4.66,2,4,1.76,8.19,3.53,12.22,5.54C87.16,42.56,91.69,45.2,96.1,48v-.25C91.69,45,87.29,42.31,82.75,40c-4-2-8.18-3.78-12.21-5.54-1.52-.63-3.15-1.39-4.66-2A31.75,31.75,0,0,1,63,31.1c-4.66-2.14-9.57-4.41-14.86-4.41h-.63c-5.67.13-10.83,2.77-15.87,5.29-.5.25-1,.5-1.64.75s-1.26.63-2,1c-2.65,1.39-5.54,2.77-8.31,4.41a11.69,11.69,0,0,0-2,1.51c3.4-2.14,7.05-3.9,10.45-5.67A14.38,14.38,0,0,1,30,33Z" transform="translate(-9.83 -6.43)"/><path id="Path_399" data-name="Path 399" class="cls-14" d="M51.39,24.67c3.28.89,6.68,2,10,3l4.91,1.51c1.26.38,2.65.75,3.91,1.13A97.35,97.35,0,0,1,82.25,34.5a60,60,0,0,1,12.34,7.81c-.13-.26-.13-.51-.25-.76A63.74,63.74,0,0,0,82.5,34.12,105.89,105.89,0,0,0,70.41,30c-1.26-.37-2.64-.75-3.9-1.13l-4.92-1.51c-3.27-1-6.54-2.14-9.94-3-7.81-2.14-15,.88-20.41,3.77a125.41,125.41,0,0,0-11.08,6.55v.51A102.7,102.7,0,0,1,31.5,28.45C39.18,24.3,45.35,23.16,51.39,24.67Z" transform="translate(-9.83 -6.43)"/></g></svg>