<svg id="Layer_1" data-name="Layer 1" xmlns="http://www.w3.org/2000/svg" xmlns:xlink="http://www.w3.org/1999/xlink" viewBox="0 0 336.28 94.97"><defs><style>.cls-1{fill:#133c4c;}.cls-2{fill:url(#linear-gradient);}.cls-3{fill:url(#linear-gradient-2);}.cls-4{fill:url(#linear-gradient-3);}.cls-5{fill:url(#linear-gradient-4);}.cls-6{fill:url(#linear-gradient-5);}.cls-7{fill:url(#linear-gradient-6);}.cls-8{fill:url(#linear-gradient-7);}.cls-9{fill:url(#linear-gradient-8);}.cls-10{fill:url(#linear-gradient-9);}.cls-11{fill:url(#linear-gradient-10);}.cls-12{fill:url(#linear-gradient-11);}.cls-13{fill:url(#linear-gradient-12);}.cls-14{fill:#fff;}</style><linearGradient id="linear-gradient" x1="170.48" y1="132.4" x2="171.59" y2="133.08" gradientTransform="matrix(107.51, 0, 0, -38.08, -18290.97, 5182.97)" gradientUnits="userSpaceOnUse"><stop offset="0" stop-color="#2081b4"/><stop offset="1" stop-color="#80bf1f"/></linearGradient><linearGradient id="linear-gradient-2" x1="170.52" y1="131.25" x2="171.67" y2="132.01" gradientTransform="matrix(103.77, 0, 0, -33.89, -17655.98, 4592.2)" xlink:href="#linear-gradient"/><linearGradient id="linear-gradient-3" x1="170.68" y1="127.69" x2="172.08" y2="128.71" gradientTransform="matrix(85.39, 0, 0, -25.21, -14534.16, 3370)" xlink:href="#linear-gradient"/><linearGradient id="linear-gradient-4" x1="170.55" y1="129.84" x2="171.76" y2="130.7" gradientTransform="matrix(99.03, 0, 0, -29.89, -16851.33, 4027.49)" xlink:href="#linear-gradient"/><linearGradient id="linear-gradient-5" x1="170.61" y1="128.14" x2="171.89" y2="129.12" gradientTransform="matrix(92.75, 0, 0, -26.17, -15784.96, 3502.79)" xlink:href="#linear-gradient"/><linearGradient id="linear-gradient-6" x1="170.35" y1="133.47" x2="171.54" y2="134.07" gradientTransform="matrix(100.44, 0, 0, -42.97, -17080.68, 5835.97)" xlink:href="#linear-gradient"/><linearGradient id="linear-gradient-7" x1="170.35" y1="130.52" x2="171.51" y2="131.32" gradientTransform="matrix(103.16, 0, 0, -31.92, -17541.22, 4281.14)" xlink:href="#linear-gradient"/><linearGradient id="linear-gradient-8" x1="170.35" y1="131.3" x2="171.41" y2="132.05" gradientTransform="matrix(112.4, 0, 0, -34.24, -19114.69, 4614.89)" xlink:href="#linear-gradient"/><linearGradient id="linear-gradient-9" x1="170.36" y1="132.71" x2="171.4" y2="133.36" gradientTransform="matrix(115.01, 0, 0, -39.4, -19559.18, 5354.33)" xlink:href="#linear-gradient"/><linearGradient id="linear-gradient-10" x1="170.38" y1="133.27" x2="171.42" y2="133.88" gradientTransform="matrix(114.97, 0, 0, -41.92, -19552.5, 5718.21)" xlink:href="#linear-gradient"/><linearGradient id="linear-gradient-11" x1="170.42" y1="133.16" x2="171.47" y2="133.78" gradientTransform="matrix(112.73, 0, 0, -41.4, -19174.69, 5648.34)" xlink:href="#linear-gradient"/><linearGradient id="linear-gradient-12" x1="170.45" y1="133.11" x2="171.53" y2="133.73" gradientTransform="matrix(110.27, 0, 0, -41.14, -18758.54, 5614.66)" xlink:href="#linear-gradient"/></defs><g id="Group_134" data-name="Group 134"><g id="Group_132" data-name="Group 132"><path id="Path_400" data-name="Path 400" class="cls-1" d="M234.18,57.2v66.23H221.4V95.17h-30v28.26H178.49V57.2h12.88V84h30V57.2Z" transform="translate(-33.81 -56.82)"/><path id="Path_401" data-name="Path 401" class="cls-1" d="M248,123.43V57.2h24.07a36.1,36.1,0,0,1,14.22,2.61A28.63,28.63,0,0,1,302.65,77.4a39.33,39.33,0,0,1,2.05,12.82,38.79,38.79,0,0,1-2.28,13.67,29.27,29.27,0,0,1-6.58,10.45,29.65,29.65,0,0,1-10.31,6.71,36.25,36.25,0,0,1-13.47,2.38Zm43.75-33.21a28.37,28.37,0,0,0-1.3-8.77,19.77,19.77,0,0,0-3.83-6.9,17,17,0,0,0-6.2-4.47,20.76,20.76,0,0,0-8.35-1.59h-11.2v43.66h11.2a20.21,20.21,0,0,0,8.44-1.68,17.31,17.31,0,0,0,6.16-4.62,20.55,20.55,0,0,0,3.78-6.95A28.06,28.06,0,0,0,291.74,90.22Z" transform="translate(-33.81 -56.82)"/><path id="Path_402" data-name="Path 402" class="cls-1" d="M310.77,89.85a34.16,34.16,0,0,1,2.19-12,32.16,32.16,0,0,1,16.65-18.14,31.57,31.57,0,0,1,13.8-2.89,30.16,30.16,0,0,1,15.82,4,25.63,25.63,0,0,1,9.93,10.45l-9.89,6.81a16.89,16.89,0,0,0-3.17-4.71,16.08,16.08,0,0,0-4-3,18,18,0,0,0-4.48-1.63,21.27,21.27,0,0,0-4.57-.51,17.33,17.33,0,0,0-8.44,2,18.49,18.49,0,0,0-6,5.08A22.28,22.28,0,0,0,325,82.34a26.67,26.67,0,0,0-1.22,7.88,26.09,26.09,0,0,0,1.4,8.45,22.53,22.53,0,0,0,4,7.13,19.54,19.54,0,0,0,6.16,4.94,16.69,16.69,0,0,0,7.87,1.87,21,21,0,0,0,4.67-.56,17.67,17.67,0,0,0,4.61-1.77,17.41,17.41,0,0,0,4.06-3.13,14.41,14.41,0,0,0,3-4.62l10.54,6.07a19.88,19.88,0,0,1-4.53,6.57,28.93,28.93,0,0,1-6.62,4.8,35,35,0,0,1-16.09,4,28.21,28.21,0,0,1-13-3,33.86,33.86,0,0,1-10.12-7.79,36.09,36.09,0,0,1-6.62-10.91A34,34,0,0,1,310.77,89.85Z" transform="translate(-33.81 -56.82)"/></g><g id="Group_133" data-name="Group 133"><path id="Path_403" data-name="Path 403" class="cls-1" d="M192.24,134.13v16.74h-2.66v-7.38h-8.44v7.38h-2.65V134.13h2.65v7h8.44v-7Z" transform="translate(-33.81 -56.82)"/><path id="Path_404" data-name="Path 404" class="cls-1" d="M201.11,151.11a6.54,6.54,0,0,1-2.62-.51,6.08,6.08,0,0,1-3.32-3.41,6.62,6.62,0,0,1-.46-2.45,6.88,6.88,0,0,1,.46-2.46,6.38,6.38,0,0,1,1.3-2.05,5.85,5.85,0,0,1,2-1.39,6.47,6.47,0,0,1,2.64-.51,6.37,6.37,0,0,1,2.61.52,6.19,6.19,0,0,1,2,1.38,5.8,5.8,0,0,1,1.26,2,6.75,6.75,0,0,1,.44,2.39,4.33,4.33,0,0,1,0,.53,3.74,3.74,0,0,1-.05.42h-9.87a4,4,0,0,0,.38,1.48,4.12,4.12,0,0,0,.83,1.15,3.67,3.67,0,0,0,2.51,1,4.47,4.47,0,0,0,1-.13,4,4,0,0,0,.93-.38,3.35,3.35,0,0,0,.75-.6,2.73,2.73,0,0,0,.52-.78l2.22.64a5.15,5.15,0,0,1-2.11,2.27A6.56,6.56,0,0,1,201.11,151.11Zm3.75-7.34a4.47,4.47,0,0,0-.39-1.43,3.64,3.64,0,0,0-2-1.84,3.72,3.72,0,0,0-1.39-.26,3.65,3.65,0,0,0-2.53,1,3.47,3.47,0,0,0-.8,1.12,4.44,4.44,0,0,0-.37,1.43Z" transform="translate(-33.81 -56.82)"/><path id="Path_405" data-name="Path 405" class="cls-1" d="M212.82,151.11a4.73,4.73,0,0,1-1.66-.3,4,4,0,0,1-1.32-.81,3.77,3.77,0,0,1-1.19-2.76,3.23,3.23,0,0,1,.38-1.58,3.69,3.69,0,0,1,1.07-1.22,5,5,0,0,1,1.65-.8,7.21,7.21,0,0,1,2.11-.29,9,9,0,0,1,1.72.16,8,8,0,0,1,1.53.41v-.85a2.83,2.83,0,0,0-.77-2.13,3,3,0,0,0-2.24-.77,5.39,5.39,0,0,0-1.95.36,10.65,10.65,0,0,0-2,1.05l-.8-1.65a8.79,8.79,0,0,1,5-1.6,5.72,5.72,0,0,1,4,1.3,4.84,4.84,0,0,1,1.41,3.73v4.45c0,.55.23.83.69.85v2.21l-.65.1-.53,0a1.7,1.7,0,0,1-1.17-.38,1.62,1.62,0,0,1-.51-1l-.07-.78a5.44,5.44,0,0,1-2,1.67A6,6,0,0,1,212.82,151.11Zm.71-1.91a4.7,4.7,0,0,0,1.78-.34,3.13,3.13,0,0,0,1.31-1,1.19,1.19,0,0,0,.49-.9v-1.63a8.15,8.15,0,0,0-2.85-.54,4,4,0,0,0-2.27.6,1.85,1.85,0,0,0-.89,1.59,2,2,0,0,0,.69,1.55,2.51,2.51,0,0,0,1.74.63Z" transform="translate(-33.81 -56.82)"/><path id="Path_406" data-name="Path 406" class="cls-1" d="M222.87,133.66h2.59v13.65a1.55,1.55,0,0,0,.36,1.07,1.26,1.26,0,0,0,1,.39,2.51,2.51,0,0,0,.6-.1c.22-.06.44-.13.65-.21l.37,2a6.29,6.29,0,0,1-1.34.41,7.3,7.3,0,0,1-1.39.15,2.82,2.82,0,0,1-2.09-.73,2.78,2.78,0,0,1-.74-2.07Z" transform="translate(-33.81 -56.82)"/><path id="Path_407" data-name="Path 407" class="cls-1" d="M236.8,150.23a11.25,11.25,0,0,1-1.36.53,5.9,5.9,0,0,1-1.87.3,3.73,3.73,0,0,1-1.15-.17,2.76,2.76,0,0,1-1-.5,2.19,2.19,0,0,1-.64-.86,3.1,3.1,0,0,1-.24-1.28v-7.71H229v-2h1.63v-4.06h2.59v4.06h2.69v2h-2.69v6.89a1.27,1.27,0,0,0,.42.95,1.38,1.38,0,0,0,.9.3,3,3,0,0,0,1-.19c.33-.13.57-.23.73-.31Z" transform="translate(-33.81 -56.82)"/><path id="Path_408" data-name="Path 408" class="cls-1" d="M249.65,150.87h-2.59V144a4.17,4.17,0,0,0-.6-2.51,2,2,0,0,0-1.73-.81,2.93,2.93,0,0,0-1.09.21,3.75,3.75,0,0,0-1,.6,4.18,4.18,0,0,0-.86.92,3.69,3.69,0,0,0-.57,1.16v7.34H238.6V133.66h2.59V141a5.13,5.13,0,0,1,4.57-2.68,3.77,3.77,0,0,1,1.9.41,3.33,3.33,0,0,1,1.2,1.1,4.29,4.29,0,0,1,.62,1.59,10.32,10.32,0,0,1,.18,1.92Z" transform="translate(-33.81 -56.82)"/><path id="Path_409" data-name="Path 409" class="cls-1" d="M253,150.87V134.13h5.94a8.79,8.79,0,0,1,3.55.66,7.2,7.2,0,0,1,4.09,4.44,10,10,0,0,1,.52,3.25,9.7,9.7,0,0,1-.58,3.45,7.26,7.26,0,0,1-4.2,4.34,9.06,9.06,0,0,1-3.38.6Zm11.41-8.39a7.65,7.65,0,0,0-.36-2.43,5.21,5.21,0,0,0-1.08-1.9,4.83,4.83,0,0,0-1.72-1.24,5.7,5.7,0,0,0-2.31-.45h-3.3v12.07h3.3a5.57,5.57,0,0,0,2.35-.46A4.79,4.79,0,0,0,263,146.8a5.46,5.46,0,0,0,1.05-1.92,7.84,7.84,0,0,0,.35-2.4Z" transform="translate(-33.81 -56.82)"/><path id="Path_410" data-name="Path 410" class="cls-1" d="M272.83,151.11a4.69,4.69,0,0,1-1.66-.3,4,4,0,0,1-1.32-.81,3.68,3.68,0,0,1-.87-1.23,3.5,3.5,0,0,1-.32-1.53,3.34,3.34,0,0,1,.37-1.58,3.72,3.72,0,0,1,1.08-1.22,4.86,4.86,0,0,1,1.65-.8,7.12,7.12,0,0,1,2.11-.29,9.1,9.1,0,0,1,1.72.16,8.24,8.24,0,0,1,1.53.41v-.85a2.8,2.8,0,0,0-.78-2.13,3,3,0,0,0-2.24-.77,5.38,5.38,0,0,0-1.94.36,10,10,0,0,0-2,1.05l-.8-1.65a8.79,8.79,0,0,1,4.95-1.6,5.68,5.68,0,0,1,4,1.3,4.81,4.81,0,0,1,1.42,3.73v4.45c0,.55.22.83.68.85v2.21c-.25,0-.47.08-.65.1l-.53,0a1.68,1.68,0,0,1-1.16-.38,1.62,1.62,0,0,1-.51-1l-.07-.78a5.7,5.7,0,0,1-2,1.67A6.05,6.05,0,0,1,272.83,151.11Zm.71-1.91a4.73,4.73,0,0,0,1.78-.34,3.19,3.19,0,0,0,1.31-1,1.19,1.19,0,0,0,.49-.9v-1.63a8.19,8.19,0,0,0-2.85-.54,4.07,4.07,0,0,0-2.28.6,1.84,1.84,0,0,0-.88,1.59,2,2,0,0,0,.68,1.55,2.55,2.55,0,0,0,1.75.63Z" transform="translate(-33.81 -56.82)"/><path id="Path_411" data-name="Path 411" class="cls-1" d="M289.62,150.23a11.4,11.4,0,0,1-1.37.53,5.89,5.89,0,0,1-1.86.3,3.83,3.83,0,0,1-1.16-.17,2.63,2.63,0,0,1-1-.5,2.12,2.12,0,0,1-.65-.86,3.1,3.1,0,0,1-.24-1.28v-7.71h-1.62v-2h1.62v-4.06H286v4.06h2.68v2H286v6.89a1.23,1.23,0,0,0,.41.95,1.42,1.42,0,0,0,.91.3,3,3,0,0,0,1-.19c.33-.13.58-.23.74-.31Z" transform="translate(-33.81 -56.82)"/><path id="Path_412" data-name="Path 412" class="cls-1" d="M294.69,151.11a4.78,4.78,0,0,1-1.67-.3,4.2,4.2,0,0,1-1.32-.81,3.77,3.77,0,0,1-1.19-2.76,3.47,3.47,0,0,1,.38-1.58,3.69,3.69,0,0,1,1.07-1.22,5,5,0,0,1,1.65-.8,7.21,7.21,0,0,1,2.11-.29,9.13,9.13,0,0,1,1.73.16,8.24,8.24,0,0,1,1.53.41v-.85a2.88,2.88,0,0,0-.78-2.13,3,3,0,0,0-2.24-.77,5.39,5.39,0,0,0-1.95.36,10.25,10.25,0,0,0-2,1.05l-.8-1.65a8.76,8.76,0,0,1,4.95-1.6,5.7,5.7,0,0,1,4,1.3,4.8,4.8,0,0,1,1.41,3.73v4.45c0,.55.23.83.69.85v2.21c-.25,0-.47.08-.65.1l-.53,0a1.72,1.72,0,0,1-1.17-.38,1.66,1.66,0,0,1-.5-1l-.08-.78a5.58,5.58,0,0,1-2,1.67A6.05,6.05,0,0,1,294.69,151.11Zm.7-1.91a4.7,4.7,0,0,0,1.78-.34,3.07,3.07,0,0,0,1.31-1,1.17,1.17,0,0,0,.5-.9v-1.63a8.15,8.15,0,0,0-2.85-.54,4.07,4.07,0,0,0-2.28.6A1.84,1.84,0,0,0,293,147a2,2,0,0,0,.68,1.55,2.53,2.53,0,0,0,1.74.63Z" transform="translate(-33.81 -56.82)"/><path id="Path_413" data-name="Path 413" class="cls-1" d="M304,142.38a8.56,8.56,0,0,1,.54-3,8.4,8.4,0,0,1,1.59-2.69,8,8,0,0,1,2.56-1.92,7.63,7.63,0,0,1,3.42-.73,7.26,7.26,0,0,1,3.91,1,6.49,6.49,0,0,1,2.45,2.64l-2.07,1.39a4.56,4.56,0,0,0-.85-1.27,4.15,4.15,0,0,0-1.08-.83,4.5,4.5,0,0,0-1.23-.43,5.58,5.58,0,0,0-1.23-.13,4.78,4.78,0,0,0-2.31.53,5.19,5.19,0,0,0-1.66,1.4,6.25,6.25,0,0,0-1,2,7,7,0,0,0-.34,2.17,6.66,6.66,0,0,0,.4,2.34,6.23,6.23,0,0,0,1.12,1.95,5.32,5.32,0,0,0,1.7,1.36,4.84,4.84,0,0,0,2.17.51,6,6,0,0,0,1.27-.16,4.72,4.72,0,0,0,1.24-.49,4.65,4.65,0,0,0,1.11-.86,4.36,4.36,0,0,0,.84-1.25l2.19,1.25a5.1,5.1,0,0,1-1.13,1.66,7,7,0,0,1-1.65,1.21,8.5,8.5,0,0,1-4,1,7,7,0,0,1-3.23-.76,8.32,8.32,0,0,1-2.52-2,9.12,9.12,0,0,1-1.65-2.76A8.71,8.71,0,0,1,304,142.38Z" transform="translate(-33.81 -56.82)"/><path id="Path_414" data-name="Path 414" class="cls-1" d="M320.86,133.66h2.59v13.65a1.55,1.55,0,0,0,.36,1.07,1.26,1.26,0,0,0,1,.39,2.51,2.51,0,0,0,.6-.1c.22-.06.44-.13.65-.21l.37,2a6.29,6.29,0,0,1-1.34.41,7.21,7.21,0,0,1-1.39.15,2.82,2.82,0,0,1-2.09-.73,2.78,2.78,0,0,1-.74-2.07Z" transform="translate(-33.81 -56.82)"/><path id="Path_415" data-name="Path 415" class="cls-1" d="M333.47,151.11a6.39,6.39,0,0,1-2.62-.52,6.06,6.06,0,0,1-3.27-3.43,6.84,6.84,0,0,1,0-4.88,6,6,0,0,1,1.28-2,6.2,6.2,0,0,1,2-1.39,6.82,6.82,0,0,1,5.21,0,6.31,6.31,0,0,1,2,1.39,5.87,5.87,0,0,1,1.28,2,6.84,6.84,0,0,1,0,4.88,6,6,0,0,1-1.28,2,6.31,6.31,0,0,1-2,1.39A6.47,6.47,0,0,1,333.47,151.11Zm-3.67-6.37a4.66,4.66,0,0,0,.28,1.65,4,4,0,0,0,.78,1.31,3.54,3.54,0,0,0,1.16.87,3.42,3.42,0,0,0,2.9,0,3.51,3.51,0,0,0,1.17-.88,4.3,4.3,0,0,0,.78-1.32,4.89,4.89,0,0,0,0-3.29,4.24,4.24,0,0,0-.78-1.33,3.44,3.44,0,0,0-2.62-1.21,3.32,3.32,0,0,0-1.42.33,3.82,3.82,0,0,0-1.17.9,4.43,4.43,0,0,0-.79,1.34,4.31,4.31,0,0,0-.29,1.63Z" transform="translate(-33.81 -56.82)"/><path id="Path_416" data-name="Path 416" class="cls-1" d="M345.92,151.11a3.52,3.52,0,0,1-2.92-1.26,6,6,0,0,1-1-3.76v-7.55h2.59v7c0,2.22.79,3.33,2.36,3.33a3.58,3.58,0,0,0,2.1-.68,4.36,4.36,0,0,0,1.53-2v-7.68h2.6v9.27a1,1,0,0,0,.15.63.73.73,0,0,0,.55.22v2.21c-.26,0-.48.08-.66.1l-.49,0a1.92,1.92,0,0,1-1.2-.39,1.29,1.29,0,0,1-.52-1l0-1.23a5.45,5.45,0,0,1-2.14,2A6.27,6.27,0,0,1,345.92,151.11Z" transform="translate(-33.81 -56.82)"/><path id="Path_417" data-name="Path 417" class="cls-1" d="M361.51,151.11a5.26,5.26,0,0,1-2.31-.51,5.67,5.67,0,0,1-1.84-1.38,6.51,6.51,0,0,1-1.22-2,7.44,7.44,0,0,1,0-5,6.37,6.37,0,0,1,1.16-2,5.4,5.4,0,0,1,1.74-1.37,5.06,5.06,0,0,1,4.82.21,5.23,5.23,0,0,1,1.77,1.82v-7.21h2.59v14.15a1,1,0,0,0,.16.63.7.7,0,0,0,.55.22v2.21l-.65.1-.41,0a2,2,0,0,1-1.27-.4,1.46,1.46,0,0,1-.55-1l0-.92a4.93,4.93,0,0,1-1.87,1.81A5.3,5.3,0,0,1,361.51,151.11Zm.63-2.22a3.41,3.41,0,0,0,1.14-.19,3.7,3.7,0,0,0,1-.52,3.48,3.48,0,0,0,.81-.77,2.78,2.78,0,0,0,.49-1v-3.23a4.14,4.14,0,0,0-.6-1.09,4.48,4.48,0,0,0-.89-.85,4,4,0,0,0-1.05-.54,3.56,3.56,0,0,0-1.12-.19,2.91,2.91,0,0,0-1.42.36,3.39,3.39,0,0,0-1.12.94,4.62,4.62,0,0,0-1,2.9,4.37,4.37,0,0,0,.3,1.6,4.1,4.1,0,0,0,2,2.22,3.31,3.31,0,0,0,1.45.33Z" transform="translate(-33.81 -56.82)"/></g><path id="Path_418" data-name="Path 418" class="cls-2" d="M113,118.33c-1.7-2.57-3.46-5.22-5.29-7.65-6.14-8.17-16.28-5.48-24.43-2.23-8.65,3.44-18.72,7.45-28.75,11.36C48.82,122,43.69,124,38.45,126c-.63.23-1.32.54-2.05.87s-1.45.64-2.19.94h-.08a28.57,28.57,0,0,0,1.52,5.81s0,0,0-.05c1.14-.47,2.26-1,3.34-1.58.84-.42,1.64-.83,2.38-1.15,6.2-2.76,12.36-5.72,17.56-8.25,2.76-1.34,5.54-2.76,8.24-4.13,4-2,8.15-4.15,12.3-6,11.14-5.1,19.3,1.77,27.2,8.4l1.2,1c1.8,1.51,3.57,3.08,5.45,4.75,6.56,5.81,13.34,11.82,21.12,14.82,1.78.69,3.64,1.34,5.64,2,.53-.47,1-1,1.52-1.46A79.31,79.31,0,0,1,133.3,139C124.05,135,118.42,126.54,113,118.33Z" transform="translate(-33.81 -56.82)"/><path id="Path_419" data-name="Path 419" class="cls-3" d="M113,127c-1.88-1.67-3.65-3.24-5.45-4.74l-1.2-1c-7.75-6.52-15.77-13.26-26.58-8.32-4.14,1.89-8.28,4-12.28,6-2.7,1.37-5.48,2.79-8.24,4.13-5.21,2.54-11.37,5.5-17.58,8.26-.73.32-1.52.72-2.36,1.14-1.09.55-2.22,1.12-3.38,1.6,0,0,0,0-.08,0a28.87,28.87,0,0,0,2.65,5.12c1.17-.61,2.32-1.28,3.36-1.9.71-.41,1.37-.8,2-1.15,5.78-3.2,11.4-6.72,15.65-9.44,1.26-.8,2.51-1.65,3.73-2.47,6.42-4.34,12.5-8.44,20.67-7.54,6.45.72,13.09,4.93,19,8.65,1.79,1.13,3.47,2.2,5.1,3.15,2.88,1.67,5.75,3.54,8.53,5.35,5.79,3.77,11.78,7.67,18.25,10.09,1.05.39,2.13.77,3.24,1.16.56-.42,1.11-.86,1.64-1.32-1.88-.61-3.65-1.23-5.33-1.88C126.4,138.88,119.57,132.84,113,127Z" transform="translate(-33.81 -56.82)"/><path id="Path_420" data-name="Path 420" class="cls-4" d="M105.65,134.68a162.62,162.62,0,0,0-29.09-7.23l-1.23-.22a32.89,32.89,0,0,0-5.51-.65c-6.86,0-11.45,5-14.09,9.06a77.86,77.86,0,0,1-9,11.82,27.18,27.18,0,0,0,14.75,4.33h54.73a38.21,38.21,0,0,0,15.91-3.27,115.51,115.51,0,0,1-11.7-6.3A91.27,91.27,0,0,0,105.65,134.68Z" transform="translate(-33.81 -56.82)"/><path id="Path_421" data-name="Path 421" class="cls-5" d="M116.31,134.12c-2.77-1.81-5.64-3.68-8.51-5.35-1.63-.94-3.32-2-5.11-3.15-5.84-3.7-12.45-7.9-18.82-8.6-8.08-.9-14.1,3.18-20.49,7.49-1.21.82-2.47,1.67-3.73,2.47-4.26,2.72-9.88,6.25-15.67,9.45l-2,1.15c-1,.61-2.17,1.28-3.34,1.89a27.79,27.79,0,0,0,3.53,4.28c1.1-.76,2.16-1.56,3.14-2.31l.86-.64a148.48,148.48,0,0,0,12.45-10.65c7.95-7.47,15.28-9.88,23.05-7.58a224.73,224.73,0,0,1,25,9.35,121.7,121.7,0,0,1,13,6.87,105.86,105.86,0,0,0,15.3,7.8l.53.19c.76-.46,1.5-.93,2.21-1.45-1.05-.36-2.07-.73-3.06-1.1C128.12,141.8,122.12,137.89,116.31,134.12Z" transform="translate(-33.81 -56.82)"/><path id="Path_422" data-name="Path 422" class="cls-6" d="M119.5,139a125,125,0,0,0-12.94-6.86,222.33,222.33,0,0,0-25-9.33c-7.66-2.27-14.89.11-22.76,7.51A149,149,0,0,1,46.35,141l-.85.65c-1,.74-2,1.53-3.11,2.29a28.19,28.19,0,0,0,3.89,3.17,76.8,76.8,0,0,0,9-11.81c3.9-6.06,8.94-9.28,14.57-9.32a29.64,29.64,0,0,1,5.63.66l1.22.22a163.08,163.08,0,0,1,29.19,7.25,91.6,91.6,0,0,1,14.9,7.59,110.77,110.77,0,0,0,12.11,6.48q1.17-.57,2.28-1.23l-.31-.11A104.79,104.79,0,0,1,119.5,139Z" transform="translate(-33.81 -56.82)"/><path id="Path_423" data-name="Path 423" class="cls-7" d="M90,80.91c4.51,1.2,9,2.66,13.43,4.06,2.22.71,4.44,1.42,6.67,2.11,1.74.53,3.5,1,5.26,1.56a121.88,121.88,0,0,1,16.42,5.64,84.27,84.27,0,0,1,16.08,10A36.75,36.75,0,0,0,134.76,87c-4.95-3.43-11.66-3.52-17.43-3.72C111.07,70.88,99,61.32,84.78,61.32c-19.26,0-36,14.32-37.37,33.49a154.27,154.27,0,0,1,15-8.87C69.7,82.11,79.39,78.09,90,80.91Z" transform="translate(-33.81 -56.82)"/><path id="Path_424" data-name="Path 424" class="cls-8" d="M60.81,92.32l2.13-1.07c6.78-3.43,13.79-7,21.39-7.23h.84c7.3,0,13.84,3.06,20.17,6,1.27.59,2.59,1.21,3.89,1.79,2.09.93,4.22,1.87,6.29,2.77,5.43,2.39,11,4.85,16.45,7.54,6.15,3.06,12.09,6.61,18.05,10.32v0c-.23-1.37-.51-2.75-.88-4.14-.27-1-.57-2-.91-3a86.22,86.22,0,0,0-16.7-10.5,122.26,122.26,0,0,0-16.35-5.62q-2.64-.76-5.27-1.56c-2.23-.68-4.45-1.4-6.67-2.11-4.38-1.4-8.9-2.85-13.4-4-8.12-2.16-16.48-.63-27.13,5a151.83,151.83,0,0,0-15.35,9.1c0,.61,0,1.22,0,1.84s0,1.23,0,1.83c-.16.1-.32.22-.49.32,3.76-2.15,7.62-4.08,11.26-5.88Z" transform="translate(-33.81 -56.82)"/><path id="Path_425" data-name="Path 425" class="cls-9" d="M41.44,106.54C47.71,103,54.26,100,59.26,97.73c7-3.17,14-6.22,21-8.76,10.7-3.86,19.13.39,29,6.35,14.46,8.68,28,16.3,41.21,23.22a37.56,37.56,0,0,0-.27-4.24c-.05-.48-.12-1-.2-1.47-6-3.75-12-7.33-18.23-10.43-5.39-2.68-11-5.15-16.44-7.53-2.06-.9-4.2-1.84-6.28-2.77-1.3-.59-2.62-1.2-3.9-1.8-6.58-3.09-12.81-6-20-6h-.87c-7.53.25-14.51,3.78-21.26,7.19l-2.14,1.08-2.69,1.34c-4.56,2.26-9.5,4.72-14.11,7.6a27.9,27.9,0,0,0-6,6.9c.73-.43,1.45-.84,2.14-1.22Z" transform="translate(-33.81 -56.82)"/><path id="Path_426" data-name="Path 426" class="cls-10" d="M80.5,89.51c-7.07,2.55-14,5.59-21,8.75-5,2.24-11.52,5.26-17.77,8.79l-1.17.66c-1,.57-2,1.14-3.06,1.76-.29.52-.57,1-.84,1.6a29,29,0,0,0-1.12,2.7v0l1.17-.58c5.39-2.75,11-5.2,16.18-7.43C61.14,102.25,70,98.7,80.61,94.61s19.28-3,26.68,3.45c2.24,2,4.46,4,6.61,6,6,5.57,12.28,11.32,19.4,15.63a111.09,111.09,0,0,0,16.24,7.79,35.53,35.53,0,0,0,1-8.28c-13.32-7-26.94-14.63-41.5-23.38C99.26,89.94,91,85.75,80.5,89.51Z" transform="translate(-33.81 -56.82)"/><path id="Path_427" data-name="Path 427" class="cls-11" d="M113.51,104.49c-2.15-2-4.37-4-6.6-6-7.22-6.33-15.51-7.39-26.09-3.35s-19.45,7.63-27.71,11.17C47.9,108.55,42.34,111,37,113.74c-.52.27-1.09.54-1.69.83a28.33,28.33,0,0,0-.84,3.13c.43-.15.83-.29,1.16-.43,5.62-2.34,11.23-4.48,17.93-7C65,106,76.25,102,84.79,99c10.88-3.83,18.73-2.44,24.72,4.4,2,2.23,3.91,4.64,5.8,7,4.6,5.68,9.36,11.56,15,15.94a56.67,56.67,0,0,0,16.52,8.41A32.77,32.77,0,0,0,149.4,128a112.69,112.69,0,0,1-16.4-7.85C125.82,115.85,119.56,110.07,113.51,104.49Z" transform="translate(-33.81 -56.82)"/><path id="Path_428" data-name="Path 428" class="cls-12" d="M115.08,110.51c-1.88-2.32-3.83-4.73-5.79-7-5.9-6.73-13.65-8.1-24.4-4.32-8.54,3-19.82,7-31.26,11.33-6.7,2.5-12.31,4.64-17.93,7-.37.16-.84.32-1.34.5-.16.81-.28,1.63-.37,2.46l8.38-2.75,9.35-3.07,34.73-11.41c.94-.31,1.89-.64,2.83-1,1.84-.63,3.74-1.29,5.63-1.82,6.58-1.86,13.83,1.27,18.06,7.8,1.59,2.44,3,5.16,4.45,7.78,3.66,6.83,7.45,13.9,14.15,17.64a52.47,52.47,0,0,0,12.9,4.86,32,32,0,0,0,2.25-3.61,56.81,56.81,0,0,1-16.57-8.45C124.46,122.1,119.69,116.21,115.08,110.51Z" transform="translate(-33.81 -56.82)"/><path id="Path_429" data-name="Path 429" class="cls-13" d="M116.9,116.33c-1.4-2.61-2.85-5.31-4.43-7.74-4.09-6.31-11.08-9.35-17.4-7.55-1.88.53-3.77,1.18-5.6,1.81-1,.33-1.9.66-2.85,1L51.9,115.23l-9.36,3.07-8.62,2.83c-.07.8-.11,1.6-.11,2.4a28.11,28.11,0,0,0,.29,4h0c.74-.29,1.47-.62,2.18-.94s1.43-.64,2.06-.88c5.24-1.95,10.37-3.95,16-6.17,10-3.91,20.1-7.91,28.75-11.36,8.25-3.29,18.52-6,24.78,2.32,1.83,2.44,3.6,5.1,5.3,7.67,5.42,8.18,11,16.63,20.2,20.52a78.38,78.38,0,0,0,8.45,3,28.77,28.77,0,0,0,2.21-2.61,52.44,52.44,0,0,1-12.8-4.85C124.42,130.38,120.6,123.24,116.9,116.33Z" transform="translate(-33.81 -56.82)"/><path id="Path_430" data-name="Path 430" class="cls-14" d="M105.85,134.13a163.08,163.08,0,0,0-29.19-7.25l-1.22-.22a29.64,29.64,0,0,0-5.63-.66c-5.63,0-10.67,3.26-14.57,9.32a76.8,76.8,0,0,1-9,11.81l.49.33a77.86,77.86,0,0,0,9-11.82c2.64-4.11,7.23-9,14.09-9.06a32.89,32.89,0,0,1,5.51.65l1.23.22a162.62,162.62,0,0,1,29.09,7.23,91.68,91.68,0,0,1,14.81,7.54,114.45,114.45,0,0,0,11.7,6.3l.7-.32a110.77,110.77,0,0,1-12.11-6.48A91.6,91.6,0,0,0,105.85,134.13Z" transform="translate(-33.81 -56.82)"/><path id="Path_431" data-name="Path 431" class="cls-14" d="M119.64,138.78a123.54,123.54,0,0,0-13-6.87,222.7,222.7,0,0,0-25-9.34c-7.77-2.3-15.1.1-23.05,7.58a150.25,150.25,0,0,1-12.45,10.64c-.28.21-.57.42-.86.65-1,.74-2,1.54-3.14,2.31l.21.21c1.09-.76,2.13-1.55,3.11-2.29l.85-.65a149,149,0,0,0,12.48-10.66c7.87-7.4,15.1-9.78,22.76-7.51a222.33,222.33,0,0,1,25,9.33A125,125,0,0,1,119.5,139a104.9,104.9,0,0,0,15.34,7.82l.3.11.33-.19-.53-.19A104.41,104.41,0,0,1,119.64,138.78Z" transform="translate(-33.81 -56.82)"/><path id="Path_432" data-name="Path 432" class="cls-14" d="M116.47,133.87c-2.77-1.81-5.65-3.68-8.53-5.35-1.62-.94-3.31-2-5.1-3.15-5.86-3.72-12.5-7.93-18.94-8.65-8.19-.9-14.25,3.2-20.68,7.54-1.22.82-2.47,1.67-3.73,2.47-4.25,2.72-9.87,6.24-15.65,9.44-.63.35-1.3.74-2,1.15-1,.62-2.19,1.29-3.36,1.9l.17.24c1.17-.61,2.3-1.28,3.34-1.88.7-.42,1.37-.8,2-1.15,5.78-3.2,11.41-6.73,15.66-9.45,1.26-.8,2.52-1.65,3.73-2.48,6.39-4.31,12.41-8.38,20.49-7.49,6.38.71,13,4.9,18.82,8.6,1.79,1.14,3.48,2.21,5.11,3.16,2.87,1.67,5.74,3.53,8.52,5.34,5.8,3.78,11.8,7.69,18.3,10.12,1,.37,2,.74,3.06,1.1l.28-.22c-1.11-.38-2.19-.76-3.24-1.16C128.25,141.54,122.26,137.64,116.47,133.87Z" transform="translate(-33.81 -56.82)"/><path id="Path_433" data-name="Path 433" class="cls-14" d="M35.53,134a.29.29,0,0,0,.3.15l-.19-.49A.28.28,0,0,0,35.53,134Z" transform="translate(-33.81 -56.82)"/><path id="Path_434" data-name="Path 434" class="cls-14" d="M113.36,126.56c-1.87-1.67-3.65-3.24-5.45-4.75l-1.2-1c-7.9-6.63-16.06-13.5-27.2-8.4-4.15,1.9-8.3,4-12.3,6-2.7,1.37-5.48,2.79-8.24,4.13-5.2,2.53-11.36,5.49-17.56,8.25-.74.32-1.53.73-2.38,1.15-1.08.55-2.2,1.11-3.34,1.58,0,0,0,0,0,.05s.12.33.19.49a.21.21,0,0,0,.08,0c1.15-.48,2.28-1,3.37-1.6.84-.42,1.63-.82,2.36-1.14,6.21-2.76,12.37-5.72,17.58-8.26,2.76-1.34,5.55-2.76,8.24-4.13,4-2,8.14-4.15,12.28-6,10.81-4.94,18.83,1.8,26.58,8.32l1.2,1c1.8,1.5,3.57,3.07,5.45,4.74,6.6,5.84,13.42,11.89,21.3,14.93,1.68.65,3.45,1.27,5.33,1.87l.52-.44c-2-.64-3.87-1.29-5.64-2C126.7,138.38,119.92,132.37,113.36,126.56Z" transform="translate(-33.81 -56.82)"/><path id="Path_435" data-name="Path 435" class="cls-14" d="M34,127.71a.16.16,0,0,0,.12.09,2.51,2.51,0,0,1,0-.27A.15.15,0,0,0,34,127.71Z" transform="translate(-33.81 -56.82)"/><path id="Path_436" data-name="Path 436" class="cls-14" d="M113.22,118.17c-1.71-2.57-3.47-5.23-5.3-7.67-6.26-8.32-16.53-5.61-24.78-2.32-8.65,3.44-18.71,7.45-28.75,11.36-5.68,2.22-10.81,4.22-16,6.17-.64.24-1.33.55-2.07.88s-1.44.65-2.18.94h0l0,.27h.08c.75-.3,1.48-.63,2.19-.94s1.43-.64,2.05-.87c5.24-2,10.37-4,16-6.18,10-3.91,20.1-7.92,28.75-11.36,8.15-3.25,18.3-5.94,24.43,2.23,1.83,2.43,3.59,5.08,5.3,7.65,5.44,8.21,11.07,16.7,20.32,20.63a79.31,79.31,0,0,0,8.34,2.94c.08-.07.15-.16.23-.24a78.49,78.49,0,0,1-8.46-3C124.24,134.8,118.64,126.34,113.22,118.17Z" transform="translate(-33.81 -56.82)"/><path id="Path_437" data-name="Path 437" class="cls-14" d="M117.41,116.06c-1.41-2.63-2.86-5.34-4.45-7.79-4.23-6.52-11.48-9.65-18-7.8-1.9.54-3.79,1.2-5.63,1.83-1,.33-1.89.65-2.84,1L51.71,114.67l-9.35,3.07L34,120.49l-.06.64,8.62-2.83,9.36-3.07,34.72-11.41c.95-.31,1.9-.64,2.85-1,1.83-.63,3.72-1.28,5.6-1.81,6.32-1.8,13.31,1.24,17.41,7.55,1.57,2.43,3,5.13,4.42,7.74,3.7,6.91,7.53,14,14.38,17.88a52.69,52.69,0,0,0,12.8,4.85l.37-.51a52.34,52.34,0,0,1-12.9-4.85C124.86,130,121.07,122.89,117.41,116.06Z" transform="translate(-33.81 -56.82)"/><path id="Path_438" data-name="Path 438" class="cls-14" d="M115.31,110.33c-1.89-2.33-3.84-4.74-5.8-7-6-6.84-13.85-8.23-24.72-4.4-8.55,3-19.83,7-31.27,11.33-6.7,2.5-12.32,4.64-17.94,7-.33.14-.72.28-1.15.43,0,.11,0,.22-.07.33.49-.17,1-.33,1.34-.5,5.61-2.33,11.22-4.47,17.92-7,11.44-4.29,22.72-8.3,31.27-11.33,10.75-3.79,18.5-2.42,24.4,4.32,1.95,2.23,3.9,4.63,5.78,7,4.62,5.7,9.38,11.58,15.07,16a56.81,56.81,0,0,0,16.57,8.45,2.1,2.1,0,0,1,.13-.26,56.46,56.46,0,0,1-16.52-8.42C124.67,121.89,119.91,116,115.31,110.33Z" transform="translate(-33.81 -56.82)"/><path id="Path_439" data-name="Path 439" class="cls-14" d="M113.9,104.06c-2.15-2-4.37-4-6.61-6-7.4-6.49-15.88-7.59-26.68-3.46s-19.47,7.64-27.73,11.18c-5.22,2.23-10.79,4.68-16.18,7.44l-1.17.57c-.09.26-.18.52-.26.78l1.69-.83c5.38-2.75,10.94-5.19,16.15-7.42,8.26-3.54,17.06-7.09,27.71-11.17s18.86-3,26.09,3.35c2.23,2,4.45,4,6.6,6,6,5.58,12.31,11.35,19.48,15.7a113.19,113.19,0,0,0,16.4,7.85l.15-.57a111.53,111.53,0,0,1-16.24-7.78C126.18,115.38,119.94,109.62,113.9,104.06Z" transform="translate(-33.81 -56.82)"/><path id="Path_440" data-name="Path 440" class="cls-14" d="M109.33,95.32c-9.9-6-18.32-10.21-29-6.35-7.08,2.54-14,5.6-21,8.76-5,2.24-11.55,5.27-17.82,8.81l-1.16.66c-.69.38-1.41.79-2.14,1.22-.22.35-.44.69-.64,1,1-.62,2-1.19,3.06-1.76l1.17-.66c6.25-3.53,12.78-6.55,17.77-8.79,7-3.16,13.93-6.2,21-8.75,10.46-3.76,18.76.43,28.53,6.3,14.57,8.75,28.18,16.42,41.51,23.38v-.66C137.31,111.62,123.79,104,109.33,95.32Z" transform="translate(-33.81 -56.82)"/><path id="Path_441" data-name="Path 441" class="cls-14" d="M60.94,92.58l2.13-1.07c6.75-3.42,13.74-7,21.27-7.2h.87c7.2,0,13.43,2.92,20,6,1.27.6,2.59,1.21,3.89,1.8,2.09.94,4.23,1.87,6.29,2.78,5.43,2.38,11,4.84,16.44,7.53,6.21,3.09,12.2,6.67,18.23,10.43,0-.13,0-.25,0-.38-6-3.71-11.9-7.25-18.05-10.32-5.4-2.68-11-5.15-16.45-7.53-2.07-.9-4.2-1.84-6.29-2.77-1.3-.59-2.62-1.2-3.89-1.8-6.33-3-12.87-6-20.17-6l-.84,0c-7.6.24-14.61,3.79-21.39,7.22l-2.13,1.07-2.69,1.34c-3.64,1.8-7.5,3.74-11.25,5.89a26.66,26.66,0,0,0-2.73,2c4.61-2.87,9.54-5.33,14.11-7.6Z" transform="translate(-33.81 -56.82)"/><path id="Path_442" data-name="Path 442" class="cls-14" d="M89.84,81.48c4.5,1.2,9,2.65,13.4,4,2.22.71,4.45,1.42,6.68,2.1,1.74.54,3.5,1.05,5.27,1.57a120.56,120.56,0,0,1,16.33,5.61,85.92,85.92,0,0,1,16.7,10.5c-.11-.34-.24-.68-.37-1a84.27,84.27,0,0,0-16.08-10,121.88,121.88,0,0,0-16.42-5.64c-1.76-.52-3.52-1-5.26-1.56-2.23-.69-4.45-1.4-6.67-2.11C99,83.57,94.5,82.12,90,80.91c-10.6-2.82-20.29,1.2-27.55,5a154.27,154.27,0,0,0-15,8.87c0,.25,0,.49,0,.74a156.82,156.82,0,0,1,15.35-9.1C73.36,80.85,81.72,79.31,89.84,81.48Z" transform="translate(-33.81 -56.82)"/></g></svg>