<svg id="Layer_1" data-name="Layer 1" xmlns="http://www.w3.org/2000/svg" viewBox="0 0 61.43 59.54"><defs><style>.cls-1{fill:#2081b4;}</style></defs><g id="Group_527" data-name="Group 527"><path id="Path_1715" data-name="Path 1715" class="cls-1" d="M70.55,65.69h0L64.9,44.94h0a3.85,3.85,0,0,0-3.71-2.85h-14A1.45,1.45,0,0,0,47.11,45H61.19a1,1,0,0,1,.92.72h0l5.65,20.75a.88.88,0,0,1-.14.81,1,1,0,0,1-.78.38H13.11a1,1,0,0,1-.95-1,.63.63,0,0,1,0-.19L17.84,45.7h0a1,1,0,0,1,.92-.72H36.13a1.45,1.45,0,0,0,.07-2.89H18.76a3.85,3.85,0,0,0-3.71,2.85h0L9.4,65.69h0a3.87,3.87,0,0,0,3.71,4.84H66.84A3.9,3.9,0,0,0,69.92,69,3.79,3.79,0,0,0,70.55,65.69Z" transform="translate(-9.27 -10.99)"/><path id="Path_1716" data-name="Path 1716" class="cls-1" d="M64,63.16a3,3,0,0,0,.49-2.56h0L61.29,48.77h0a2.93,2.93,0,0,0-2.84-2.15H43.93A1.44,1.44,0,0,0,42.44,48a1.45,1.45,0,0,0,1.41,1.49H58.46s0,0,0,0h0l3.23,11.82v.06H18.28a.14.14,0,0,1,0-.06l3.19-11.81a.12.12,0,0,1,.08,0h14.6a1.45,1.45,0,0,0,.08-2.89H21.53a3,3,0,0,0-2.87,2.16h0L15.46,60.6h0A3,3,0,0,0,16,63.16a2.93,2.93,0,0,0,2.32,1.15H61.68A3,3,0,0,0,64,63.16Z" transform="translate(-9.27 -10.99)"/><path id="Path_1717" data-name="Path 1717" class="cls-1" d="M16.54,24v1.89a4.46,4.46,0,0,0,3.23,4.31h0l18.81,5.22v20a1.45,1.45,0,0,0,2.89,0V43.63L52.1,38.41l.14-.07,10-4.91h0a4.49,4.49,0,0,0,2.49-4V22.28a4.45,4.45,0,1,0-2.89,0v7.16a1.57,1.57,0,0,1-.88,1.4h0l-8,3.92V28a4.43,4.43,0,1,0-2.89,0v8.15L41.47,40.4V19.65a4.46,4.46,0,1,0-2.89,0v12.8l-6.69-1.85V27.37a4.46,4.46,0,1,0-2.89,0v2.43l-8.45-2.35h0a1.57,1.57,0,0,1-1.12-1.52V24a4.45,4.45,0,1,0-2.89,0Zm35-1.75A1.56,1.56,0,1,1,50,23.82h0A1.55,1.55,0,0,1,51.56,22.27Zm11.75-5.76a1.56,1.56,0,1,1-1.55,1.55h0a1.56,1.56,0,0,1,1.55-1.55ZM40,13.88a1.56,1.56,0,1,1-1.55,1.55h0A1.56,1.56,0,0,1,40,13.88ZM30.46,21.6a1.56,1.56,0,1,1-1.55,1.55h0a1.56,1.56,0,0,1,1.55-1.55ZM18,18.27a1.56,1.56,0,1,1-1.55,1.55h0A1.54,1.54,0,0,1,18,18.27Z" transform="translate(-9.27 -10.99)"/><path id="Path_1718" data-name="Path 1718" class="cls-1" d="M37,64.92A1.06,1.06,0,0,0,37,67h6a1.06,1.06,0,1,0,0-2.12H37Z" transform="translate(-9.27 -10.99)"/><path id="Path_1719" data-name="Path 1719" class="cls-1" d="M46.09,56.27a10.29,10.29,0,0,1-1.5.53,15.67,15.67,0,0,1-10.75-.59c-.67-.33-1-.72-1-.82a.2.2,0,0,1,0-.08c.58-.87,2.12-1.2,3.36-1.47l.36-.07a1.07,1.07,0,0,0-.46-2.08l-.34.07c-1.53.33-3.63.78-4.69,2.37A2.2,2.2,0,0,0,30.83,56a3.84,3.84,0,0,0,2.08,2.16A15.91,15.91,0,0,0,39.8,59.6a19.51,19.51,0,0,0,5.37-.76A11.92,11.92,0,0,0,47,58.2c1.45-.68,2.23-1.57,2.3-2.63.12-1.75-1.58-2.57-2.14-2.84a12.17,12.17,0,0,0-3.38-1,1.06,1.06,0,0,0-.33,2.1,9.74,9.74,0,0,1,2.79.87c.64.3,1,.56.94.77S46.93,55.88,46.09,56.27Z" transform="translate(-9.27 -10.99)"/></g></svg>