<svg id="Layer_1" data-name="Layer 1" xmlns="http://www.w3.org/2000/svg" viewBox="0 0 74.53 73.24"><defs><style>.cls-1{fill:#2081b4;}</style></defs><g id="Group_528" data-name="Group 528"><path id="Path_1720" data-name="Path 1720" class="cls-1" d="M28.37,70.12A1.36,1.36,0,0,1,27,68.77V51.13a1.35,1.35,0,1,1,2.7,0V68.77A1.35,1.35,0,0,1,28.37,70.12Z" transform="translate(-2.6 -3.91)"/><path id="Path_1721" data-name="Path 1721" class="cls-1" d="M51.36,70.12A1.36,1.36,0,0,1,50,68.77V51.13a1.35,1.35,0,1,1,2.7,0V68.77A1.36,1.36,0,0,1,51.36,70.12Z" transform="translate(-2.6 -3.91)"/><path id="Path_1722" data-name="Path 1722" class="cls-1" d="M75.79,77.15H3.94A1.35,1.35,0,0,1,2.6,75.8V62.14A4.41,4.41,0,0,1,7,57.74H28.37a1.35,1.35,0,0,1,0,2.7H7a1.7,1.7,0,0,0-1.71,1.71V74.46H74.44V68a1.73,1.73,0,0,0-1.72-1.72H51.36a1.35,1.35,0,1,1,0-2.69H72.73a4.41,4.41,0,0,1,4.4,4.4V75.8A1.35,1.35,0,0,1,75.79,77.15Z" transform="translate(-2.6 -3.91)"/><path id="Path_1723" data-name="Path 1723" class="cls-1" d="M51.54,52.47H28.2a3.79,3.79,0,1,1,0-7.57H51.54a3.79,3.79,0,0,1,0,7.57ZM28.2,47.59a1.1,1.1,0,0,0,0,2.19H51.54a1.1,1.1,0,0,0,0-2.19Z" transform="translate(-2.6 -3.91)"/><path id="Path_1724" data-name="Path 1724" class="cls-1" d="M44.46,59.52h-9.2a1.35,1.35,0,0,1,0-2.7h9.2a1.35,1.35,0,1,1,0,2.7Z" transform="translate(-2.6 -3.91)"/><path id="Path_1725" data-name="Path 1725" class="cls-1" d="M44.46,65h-9.2a1.35,1.35,0,0,1,0-2.69h9.2a1.35,1.35,0,1,1,0,2.69Z" transform="translate(-2.6 -3.91)"/><path id="Path_1726" data-name="Path 1726" class="cls-1" d="M16.61,55.64a1.34,1.34,0,0,1-1.34-1.34V31.92a1.35,1.35,0,1,1,2.69,0V54.3a1.34,1.34,0,0,1-1.35,1.34Z" transform="translate(-2.6 -3.91)"/><path id="Path_1727" data-name="Path 1727" class="cls-1" d="M21.19,37.92a1.33,1.33,0,0,1-1-.4l-3.62-3.68L13,37.52a1.35,1.35,0,0,1-1.93-1.89L15.65,31a1.38,1.38,0,0,1,1.92,0l4.58,4.65a1.36,1.36,0,0,1,0,1.91,1.41,1.41,0,0,1-.95.38Z" transform="translate(-2.6 -3.91)"/><path id="Path_1728" data-name="Path 1728" class="cls-1" d="M63.47,61.46a1.34,1.34,0,0,1-1.35-1.34V43.5a1.35,1.35,0,1,1,2.7,0V60.12A1.35,1.35,0,0,1,63.47,61.46Z" transform="translate(-2.6 -3.91)"/><path id="Path_1729" data-name="Path 1729" class="cls-1" d="M68.05,49.49a1.29,1.29,0,0,1-1-.4l-3.62-3.67-3.62,3.67a1.34,1.34,0,1,1-1.92-1.88h0l4.58-4.66a1.4,1.4,0,0,1,1.92,0L69,47.21a1.35,1.35,0,0,1-1,2.29Z" transform="translate(-2.6 -3.91)"/><path id="Path_1730" data-name="Path 1730" class="cls-1" d="M38.72,28.69a1.38,1.38,0,0,1-1-.39l-5-5a1.35,1.35,0,0,1,1.76-2,.93.93,0,0,1,.14.14l4,4,7.18-7.19a1.35,1.35,0,0,1,2,1.77l-.14.13-8.14,8.14A1.3,1.3,0,0,1,38.72,28.69Z" transform="translate(-2.6 -3.91)"/><path id="Path_1731" data-name="Path 1731" class="cls-1" d="M39.87,42.48a1.4,1.4,0,0,1-.75-.22l-1.41-.93c-.06,0-7-4.6-9.31-6.33a10.62,10.62,0,0,1-4-8.65V11.22a1.34,1.34,0,0,1,1.35-1.34C31.63,9.88,39,4.25,39,4.19a1.37,1.37,0,0,1,1.65,0c.08.06,7.41,5.69,13.29,5.69a1.34,1.34,0,0,1,1.34,1.34V26.35a10.64,10.64,0,0,1-4,8.65C49,36.72,42.09,41.28,42,41.33l-1.41.93A1.39,1.39,0,0,1,39.87,42.48ZM27.1,12.5V26.35A8,8,0,0,0,30,32.84c2.24,1.65,9.13,6.2,9.2,6.24l.67.44.67-.44c.07,0,6.93-4.57,9.2-6.24a8,8,0,0,0,2.9-6.49V12.5c-5.23-.56-10.71-4.12-12.76-5.57-2.06,1.45-7.55,5-12.78,5.57Z" transform="translate(-2.6 -3.91)"/></g></svg>