<svg xmlns="http://www.w3.org/2000/svg" viewBox="0 0 42.49 44.07"><defs><style>.cls-1{fill:#2081b4;}</style></defs><g id="Layer_1" data-name="Layer 1"><path id="Path_726" data-name="Path 726" class="cls-1" d="M50.38,45.67A3.34,3.34,0,0,0,53.66,43L56.87,28.5h0a3.28,3.28,0,0,0-2.43-4,3.39,3.39,0,0,0-.84-.1H49.86l-.11-.67h0A3.35,3.35,0,0,0,46.43,21H29.56l-.31-1.82h0a3.37,3.37,0,0,0-3.34-2.79H17.84a3.37,3.37,0,0,0-2.57,1.17,3.46,3.46,0,0,0-.75,2.77h0l3.87,22.57h0a3.36,3.36,0,0,0,3.31,2.81H35.91v7.25a3.85,3.85,0,0,0-2.61,2.63H20.08a1.06,1.06,0,0,0-1,1.09,1,1,0,0,0,1,1H33.31a3.82,3.82,0,0,0,7.34,0h13.2a1.05,1.05,0,0,0,1-1.08,1.07,1.07,0,0,0-1-1H40.66A3.85,3.85,0,0,0,38,52.92V45.68ZM38.7,56.6A1.72,1.72,0,1,1,37,54.89,1.72,1.72,0,0,1,38.7,56.6h0ZM54.81,28.05h0L51.6,42.57a1.26,1.26,0,0,1-1.22,1H21.7a1.25,1.25,0,0,1-.6-.16l3.5-15.9a1.21,1.21,0,0,1,1.22-1H53.59a1.19,1.19,0,0,1,1.26,1.11,1.72,1.72,0,0,1,0,.39ZM16.88,18.89a1.21,1.21,0,0,1,.95-.42h8.08a1.26,1.26,0,0,1,1.26,1h0l.45,2.7h0a.11.11,0,0,0,0,.05v0s0,0,0,.05l0,.05s0,0,0,0a.17.17,0,0,0,0,.05l0,0,0,.05,0,0,.05.06h0l.14.14,0,0,0,0,0,0,0,0,.05,0,0,0,0,0,.05,0h0l.06,0h18a1.24,1.24,0,0,1,1.23,1h0l.05.33H25.81a3.33,3.33,0,0,0-3.27,2.62h0L19.88,39.12,16.59,19.93a1.35,1.35,0,0,1,.29-1Z" transform="translate(-14.48 -16.36)"/></g></svg>