<svg xmlns="http://www.w3.org/2000/svg" viewBox="0 0 52.88 45.83"><defs><style>.cls-1{fill:#2081b4;}</style></defs><g id="Layer_1" data-name="Layer 1"><g id="Group_288" data-name="Group 288"><path id="Path_712" data-name="Path 712" class="cls-1" d="M63.07,18.85a5.17,5.17,0,0,0-5.16-5.16H15.36a5.17,5.17,0,0,0-5.16,5.16V48.2a5.18,5.18,0,0,0,5.16,5.19H30.83V57H20.91a1.25,1.25,0,0,0,0,2.49H52.36a1.25,1.25,0,0,0,0-2.49H42.44V53.39H57.91a5.18,5.18,0,0,0,5.16-5.19V18.85ZM40,57H33.32V53.39H40Zm18-6.14H15.36a2.7,2.7,0,0,1-2.68-2.7V18.85a2.68,2.68,0,0,1,2.68-2.67H57.91a2.67,2.67,0,0,1,2.67,2.67V48.2a2.69,2.69,0,0,1-2.67,2.7Z" transform="translate(-10.2 -13.69)"/><path id="Path_713" data-name="Path 713" class="cls-1" d="M38,44.13a12.3,12.3,0,0,1-13.77-8.3L36.16,33a1,1,0,0,0,.77-1.23,1.07,1.07,0,0,0-.31-.52l-9-8.28a12.3,12.3,0,0,1,20.2,5.76,1,1,0,0,0,2-.54,14.35,14.35,0,0,0-24.42-5.88l0,.05,0,0,0,0,0,.05,0,0a.33.33,0,0,0,0,.06v0a.33.33,0,0,0,0,.06v0a.14.14,0,0,1,0,.06v0s0,.05,0,.07v0s0,.05,0,.07v.12a.22.22,0,0,0,0,.08v0a.15.15,0,0,0,0,.07,0,0,0,0,0,0,0,.19.19,0,0,0,0,.07v0a.19.19,0,0,0,0,.07l0,0,0,.06,0,0,0,.06,0,0,0,0,0,0,0,.05,8.4,7.69-11.06,2.6h0l-.06,0h0l0,0-.05,0,0,0-.05,0,0,0,0,0-.05,0,0,0,0,0,0,0,0,0,0,0,0,0,0,0,0,.05,0,0a.08.08,0,0,0,0,0l0,0,0,.05v0s0,0,0,.06a.06.06,0,0,0,0,0V35s0,0,0,.05v.19s0,0,0,.07h0A14.33,14.33,0,0,0,38.37,46.16,1,1,0,0,0,39.22,45a1,1,0,0,0-1.17-.85h0Z" transform="translate(-10.2 -13.69)"/><path id="Path_714" data-name="Path 714" class="cls-1" d="M52.39,43.27a8.33,8.33,0,0,0-1.62-11.68,8,8,0,0,0-1-.64l-.06,0A8.35,8.35,0,1,0,51,44.74l4.8,4.55a1,1,0,0,0,1.44-.07,1,1,0,0,0,0-1.42Zm-13-5a6.3,6.3,0,0,1,8.78-5.79A12.25,12.25,0,0,1,41.56,43a6.26,6.26,0,0,1-2.12-4.7Zm4.13,5.91a14.32,14.32,0,0,0,6.6-10.38,6.29,6.29,0,0,1,.07,8.86h0a6.29,6.29,0,0,1-6.66,1.51Z" transform="translate(-10.2 -13.69)"/><path id="Path_715" data-name="Path 715" class="cls-1" d="M30.18,31.45a1,1,0,0,0,.76-1.23,1.07,1.07,0,0,0-.31-.52l-9.82-9h0l0,0-.05-.05,0,0,0,0,0,0,0,0-.06,0h0l-.06,0h-.52l-.06,0h0l-.05,0,0,0,0,0,0,0,0,0-.05,0,0,0,0,0,0,0,0,0h0a14.34,14.34,0,0,0-3.4,13,1.09,1.09,0,0,0,0,.17h0a.25.25,0,0,1,0,.07v0l0,.06v0l0,0,0,0,0,0,.05.06h0a1,1,0,0,0,.69.28h.14l.1,0h0Zm-10-8.52,1.63,1.5L17.73,29a12.25,12.25,0,0,1,2.49-6ZM17.7,31.71l5.5-6,1.67,1.53-4,4.34-3.13.74Zm6.36-.92,2.16-2.36,1.6,1.47Z" transform="translate(-10.2 -13.69)"/></g></g></svg>