<svg xmlns="http://www.w3.org/2000/svg" viewBox="0 0 46.84 47.03"><defs><style>.cls-1{fill:#2081b4;}</style></defs><g id="Layer_1" data-name="Layer 1"><path id="Path_719" data-name="Path 719" class="cls-1" d="M58.24,36.28a23.33,23.33,0,0,0-6.85-16.55,24.25,24.25,0,0,0-2.6-2.25l-.09-.06a23.39,23.39,0,0,0-13.87-4.55h0a23.35,23.35,0,0,0-13.77,4.49,1.33,1.33,0,0,0-.19.14A23.58,23.58,0,0,0,14.34,25a1.64,1.64,0,0,0-.14.22s0,.09,0,.13c-.32.61-.61,1.23-.88,1.86a23.28,23.28,0,0,0-1.84,8.9.82.82,0,0,0,0,.22v5.55a2.28,2.28,0,0,0,2.29,2.27h1.2s0,0,0,0v1.78a3.9,3.9,0,1,0,2.22,0V44.16h0a2.28,2.28,0,0,0-2.27-2.28H13.7s-.07,0-.07,0V37.41h8.76V52.23a3.93,3.93,0,1,0,2.22,0V37.41h9.1v8.51a3.91,3.91,0,1,0,2.23,0v-8.5H45V52.23a3.93,3.93,0,1,0,2.22,0V37.4H56v4.43s0,.05-.07.05h-1.2a2.27,2.27,0,0,0-2.27,2.27v1.77a3.91,3.91,0,1,0,2.22,0V44.15a0,0,0,0,1,0,0H56a2.3,2.3,0,0,0,2.3-2.28V36.29h0ZM25.2,56a1.69,1.69,0,1,1-1.69-1.69h0A1.69,1.69,0,0,1,25.2,56Zm22.65,0a1.69,1.69,0,1,1-1.69-1.69h0A1.69,1.69,0,0,1,47.85,56ZM15.73,27.13a51.4,51.4,0,0,0,7.13,2.58,43.55,43.55,0,0,0-.46,5.47H13.68a21.1,21.1,0,0,1,2.05-8.06ZM25,30.26a44.78,44.78,0,0,0,8.69,1.13v3.79H24.62a42.56,42.56,0,0,1,.4-4.92Zm8.69-15.13v4.69a33.66,33.66,0,0,1-5.48-.69c.53-1.18,1.11-2.34,1.75-3.47a21.37,21.37,0,0,1,3.73-.54Zm5.93.52c.65,1.15,1.24,2.32,1.78,3.52a32.11,32.11,0,0,1-5.07.65h-.41V15.12a21.15,21.15,0,0,1,3.7.53Zm-3.7,6.41.51,0a33.87,33.87,0,0,0,5.84-.78,43.22,43.22,0,0,1,2,6.85,42.59,42.59,0,0,1-8.33,1.06Zm-2.23,0v7.12a42.45,42.45,0,0,1-8.32-1.1,41.87,41.87,0,0,1,2-6.85,35.74,35.74,0,0,0,6.35.83Zm2.23,9.35a45.61,45.61,0,0,0,8.7-1.09,41.71,41.71,0,0,1,.4,4.87H35.93Zm10.87-1.64A47.68,47.68,0,0,0,54,27.17h0a21,21,0,0,1,2,8H47.27a42.92,42.92,0,0,0-.46-5.42Zm6.08-4.55a45.83,45.83,0,0,1-6.47,2.35,42.73,42.73,0,0,0-2-6.84c1.13-.31,2.27-.68,3.43-1.11a21.39,21.39,0,0,1,5,5.6Zm-7.28-7.16c-.67.22-1.33.42-2,.6-.3-.69-.62-1.38-1-2a21.23,21.23,0,0,1,3,1.45ZM27,16.62c-.32.65-.63,1.32-.92,2-.64-.18-1.29-.37-1.94-.58A21.8,21.8,0,0,1,27,16.62Zm-5.14,3c1.13.42,2.26.78,3.38,1.09a42.58,42.58,0,0,0-2,6.83,49,49,0,0,1-6.44-2.34,21.34,21.34,0,0,1,5-5.58Zm-4,30.08A1.69,1.69,0,1,1,15.91,48h.15l.17,0a1.7,1.7,0,0,1,1.53,1.69Zm18.76,0A1.69,1.69,0,1,1,34.67,48h.16L35,48a1.69,1.69,0,0,1,1.53,1.69Zm18.77,0A1.69,1.69,0,1,1,53.43,48h.16l.16,0a1.7,1.7,0,0,1,1.54,1.69Z" transform="translate(-11.41 -12.87)"/></g></svg>