<svg xmlns="http://www.w3.org/2000/svg" viewBox="0 0 48.47 40.18"><defs><style>.cls-1{fill:#2081b4;}</style></defs><g id="Layer_1" data-name="Layer 1"><g id="Group_290" data-name="Group 290"><path id="Path_720" data-name="Path 720" class="cls-1" d="M60.06,21.14a4.61,4.61,0,0,0-4.59-4.62H16.21a4.63,4.63,0,0,0-4.62,4.62v31a4.62,4.62,0,0,0,4.62,4.59H55.47a4.59,4.59,0,0,0,4.59-4.57v-31ZM16.21,18.8H55.47a2.32,2.32,0,0,1,2.3,2.34v4.61H13.88V21.14a2.33,2.33,0,0,1,2.33-2.34ZM55.47,54.41H16.21a2.32,2.32,0,0,1-2.33-2.3V28H57.77V52.11a2.26,2.26,0,0,1-2.25,2.3Z" transform="translate(-11.59 -16.52)"/><path id="Path_721" data-name="Path 721" class="cls-1" d="M43.81,24.27h4.35a.09.09,0,0,0,.08-.08V20.26a.09.09,0,0,0-.08-.08H43.81a.08.08,0,0,0-.08.08v3.93A.08.08,0,0,0,43.81,24.27Z" transform="translate(-11.59 -16.52)"/><path id="Path_722" data-name="Path 722" class="cls-1" d="M51,24.27h4.39a.08.08,0,0,0,.08-.08h0V20.26a.09.09,0,0,0-.08-.08H51a.08.08,0,0,0-.07.08v3.93A.08.08,0,0,0,51,24.27Z" transform="translate(-11.59 -16.52)"/><path id="Path_723" data-name="Path 723" class="cls-1" d="M49.13,46.77a7.94,7.94,0,0,0-.64-10.37l-.09-.1-.1-.09a8,8,0,0,0-11.22.25l-.21.23s0,0,0,.05l0,0a7.95,7.95,0,0,0,11,11.34l4.63,4.38a.94.94,0,0,0,1.3-1.37h0ZM46.35,37l-3.07,3.11a2.42,2.42,0,0,0-.47,0,1.8,1.8,0,0,0-.6.1l-3.29-2.88A6.05,6.05,0,0,1,46.35,37ZM36.75,42a6,6,0,0,1,.93-3.22L41,41.61a1.87,1.87,0,1,0,3.67.68,1.89,1.89,0,0,0,0-.82l3.07-3.12A6.06,6.06,0,1,1,36.75,42Z" transform="translate(-11.59 -16.52)"/><path id="Path_724" data-name="Path 724" class="cls-1" d="M36.16,36.12a1,1,0,0,0-.09-1.33L32.89,32a1,1,0,0,0-1.33.09,1.1,1.1,0,0,0-.14.21L23.67,48.2l-4.9-15.32a.95.95,0,0,0-1.8.58L22.6,51a.94.94,0,0,0,.83.65h.06a1,1,0,0,0,.85-.53l8.23-16.9,2.26,2A1,1,0,0,0,36.16,36.12Z" transform="translate(-11.59 -16.52)"/><path id="Path_725" data-name="Path 725" class="cls-1" d="M53.24,29.94,49,34.33a.94.94,0,0,0,1.35,1.31l4.26-4.39a.94.94,0,0,0-1.35-1.31Z" transform="translate(-11.59 -16.52)"/></g></g></svg>