<svg xmlns="http://www.w3.org/2000/svg" viewBox="0 0 51.66 56.24"><defs><style>.cls-1{fill:#2081b4;}</style></defs><g id="Layer_1" data-name="Layer 1"><g id="Group_289" data-name="Group 289"><path id="Path_716" data-name="Path 716" class="cls-1" d="M57.18,45.76H57V30.62a1.1,1.1,0,0,0-1.1-1.1h-6a1.1,1.1,0,0,0-1.1,1.1V45.76H47.27V28.08a1.1,1.1,0,0,0-1.1-1.1h-6a1.1,1.1,0,0,0-1.1,1.1V45.76H37.52V38.81a1.1,1.1,0,0,0-1.1-1.1h-6a1.1,1.1,0,0,0-1.1,1.1v6.95h-.26a1.1,1.1,0,1,0,0,2.2h28.1a1.1,1.1,0,1,0,0-2.2Zm-6.2-14h3.78v14H51Zm-5.92,2v2l-3.82-3.79v-2Zm-3.82,1,3.82,3.79v1.95l-3.82-3.82Zm0,4.7,3.82,3.82V45l-3.82-3.82Zm3.82-8.41L43.3,29.18h1.76ZM41.24,44,43,45.76H41.24Zm-9.7-4.08h3.77v5.85H31.54Z" transform="translate(-9.3 -8.39)"/><path id="Path_717" data-name="Path 717" class="cls-1" d="M60.59,27.55l0-.06,0,0,0-.06,0-.05,0-.05,0-.06,0-.05,0-.07s0,0,0-.05a.19.19,0,0,1,0-.07l0-.06s0,0,0-.07,0,0,0-.07a.09.09,0,0,1,0-.05v-.12h0v-.14s0,0,0-.07,0,0,0-.07,0,0,0,0a.24.24,0,0,1,0-.08v0A26.51,26.51,0,0,0,9.34,34.6a1.38,1.38,0,0,0,0,.7c0,.86.07,1.73.17,2.6a26.56,26.56,0,0,0,25,23.58v1.05A2.1,2.1,0,0,0,35.7,64.4a2.12,2.12,0,0,0,2.17-.17l0,0,7.2-5.42h0a2.12,2.12,0,0,0,.41-3,2.21,2.21,0,0,0-.41-.4h0L37.91,50h0a2.09,2.09,0,0,0-2.2-.2,2.14,2.14,0,0,0-1.17,1.91v1A17.9,17.9,0,0,1,18.34,37.6,17.65,17.65,0,0,1,30.62,18a18.28,18.28,0,0,1,5.08-.81,1,1,0,0,0,.34,0,17.66,17.66,0,0,1,15.8,10v0a.43.43,0,0,0,0,.07l0,.05,0,.06,0,.05,0,.05.05,0,0,0,.06,0,0,0,.06.05,0,0,.06,0,.06,0,0,0,.07,0,0,0,.07,0h7.23l.06,0,.08,0h0l.08,0,0,0,.06,0,.06,0,0,0,.06,0,0,0,.06,0ZM31.48,15l-.88-3.34a23.56,23.56,0,0,1,3.92-.55v3.45a20.81,20.81,0,0,0-3,.44Zm-5,1.8-1.73-3a23.9,23.9,0,0,1,3.95-1.65l.88,3.34a20.41,20.41,0,0,0-3.09,1.3Zm-4.36,3.05-2.46-2.43a23.23,23.23,0,0,1,3.39-2.62l1.74,3a19.77,19.77,0,0,0-2.67,2.06Zm-3.44,4.08-3-1.72a23.72,23.72,0,0,1,2.6-3.4l2.45,2.43a21.45,21.45,0,0,0-2.05,2.69ZM12,33.62a23.89,23.89,0,0,1,.53-3.86l3.34.89a19.83,19.83,0,0,0-.41,3Zm4.37-4.87-3.34-.89a23.81,23.81,0,0,1,1.63-3.95l3,1.71a20.77,20.77,0,0,0-1.28,3.13Zm6.14,21.69a20.31,20.31,0,0,0,13.3,5,1.34,1.34,0,0,0,1.34-1.34h0V52.81L42.9,57.1l-5.71,4.29V60.18a1.34,1.34,0,0,0-1.34-1.33h0a23.87,23.87,0,0,1-23.7-21.24c-.05-.44-.08-.88-.11-1.32H15.5c0,.57.1,1.13.18,1.7a20.58,20.58,0,0,0,6.87,12.45ZM44,16.2a20.41,20.41,0,0,0-6.8-1.64V11.1A23.84,23.84,0,0,1,57.66,25.29H53.85A20.47,20.47,0,0,0,44,16.2Z" transform="translate(-9.3 -8.39)"/></g></g></svg>