<svg xmlns="http://www.w3.org/2000/svg" viewBox="0 0 43.47 43.95"><defs><style>.cls-1{fill:#2081b4;}</style></defs><g id="Layer_1" data-name="Layer 1"><g id="Group_291" data-name="Group 291"><path id="Path_727" data-name="Path 727" class="cls-1" d="M56.91,35.36a3.61,3.61,0,0,0-2.1-1.51,3.5,3.5,0,0,0-4,1.91v0L45,51.63h0a2.32,2.32,0,0,0-.13,1.14h0l.75,5.08v0a.06.06,0,0,0,0,0s0,0,0,0a.06.06,0,0,0,0,0v0l0,0a1.09,1.09,0,0,0,.08.15h0a.09.09,0,0,0,0,.05h0a.08.08,0,0,0,0,0l0,0,0,0,0,0,.07,0,0,0,0,0,0,0,0,0h.49l.16-.06h0l.05,0,0,0,0,0,0,0h0L51,55h0a2.33,2.33,0,0,0,.64-1h0l5.75-15.8h0c0-.05,0-.1,0-.15s0-.12,0-.18A3.29,3.29,0,0,0,56.91,35.36Zm-2.5.15a1.91,1.91,0,0,1,1.38,2,.19.19,0,0,1,0,.08.64.64,0,0,1,0,.07l-.17.48L52.21,36.9l.18-.48a1.83,1.83,0,0,1,2-.91ZM47.13,56.06l-.29-2a7,7,0,0,0,1.79.66Zm2.95-2.83A5.63,5.63,0,0,1,46.73,52l4.9-13.48L55,39.73Z" transform="translate(-14.04 -14.63)"/><path id="Path_728" data-name="Path 728" class="cls-1" d="M24.12,39.13A2.12,2.12,0,0,0,26.23,37V35.14h5.46V37a2.14,2.14,0,0,0,2.14,2.14h2.94v4.81a4.26,4.26,0,1,0,2.08,0v-4.8H41.8A2.12,2.12,0,0,0,43.91,37v-5.8h0a2.08,2.08,0,0,0-2.07-2.11h-3V23.33a1.1,1.1,0,0,1,1.07-1.1h4.15a4.28,4.28,0,1,0,0-2.08H40a3.18,3.18,0,0,0-3.18,3.18v5.75h-3a2.12,2.12,0,0,0-2.14,2.1v1.88H26.23V31.18h0a2.1,2.1,0,0,0-2.1-2.1H21.18V24.69h2.95a2.11,2.11,0,0,0,2.1-2.11V16.74h0a2.11,2.11,0,0,0-2.1-2.11h-8a2.11,2.11,0,0,0-2.1,2.11v5.84a2.11,2.11,0,0,0,2.1,2.11h3v4.39h-3a2.1,2.1,0,0,0-2.1,2.1V37a2.12,2.12,0,0,0,2.1,2.14h3v4.36h-3a2.1,2.1,0,0,0-2.1,2.11v5.83a2.1,2.1,0,0,0,2.1,2.11h8a2.1,2.1,0,0,0,2.1-2.11V45.6h0a2.1,2.1,0,0,0-2.1-2.11H21.18V39.13ZM40,48.07a2.18,2.18,0,1,1-2.18-2.18A2.19,2.19,0,0,1,40,48.07ZM48.2,19A2.18,2.18,0,1,1,46,21.18,2.18,2.18,0,0,1,48.2,19ZM41.8,31.16s0,0,0,0V37a.09.09,0,0,1,0,.06h-8s-.06,0-.06-.06V31.18h0a.08.08,0,0,1,.06,0ZM16.15,22.61s0,0,0,0V16.74s0,0,0,0h8s0,0,0,0v5.84s0,0,0,0Zm8,23s0,0,0,0v5.83s0,0,0,0h-8s0,0,0,0V45.6s0,0,0,0Zm-8-8.52h0a.09.09,0,0,1,0-.06V31.18s0,0,0,0h8s0,0,0,0V37a.14.14,0,0,1,0,.06Z" transform="translate(-14.04 -14.63)"/><path id="Path_729" data-name="Path 729" class="cls-1" d="M43.91,56.87h-7a.86.86,0,0,0,0,1.72h7a.86.86,0,0,0,0-1.72Z" transform="translate(-14.04 -14.63)"/><path id="Path_730" data-name="Path 730" class="cls-1" d="M34.32,56.87H31.23a.86.86,0,0,0,0,1.72h3.09a.86.86,0,0,0,0-1.72Z" transform="translate(-14.04 -14.63)"/></g></g></svg>